<?xml version="1.0" encoding="utf-8"?>
<!-- Generator: Adobe Illustrator 27.5.0, SVG Export Plug-In . SVG Version: 6.00 Build 0)  -->
<svg version="1.1" xmlns="http://www.w3.org/2000/svg" xmlns:xlink="http://www.w3.org/1999/xlink" x="0px" y="0px"
	 viewBox="0 0 1300 500" style="enable-background:new 0 0 1300 500;" xml:space="preserve">
<g id="Layer_3">
	<rect style="opacity:0;fill:#FFFFFF;" width="1300" height="500"/>
</g>
<g id="Layer_2">
	<rect style="fill:#FFFFFF;" width="1300" height="500"/>
</g>
<g id="Layer_1">
	<g>
		<path style="fill:#191919;" d="M144.96,426.552c9.964-13.777,16.562-37.678,16.562-64.879c0-27.2-6.597-51.102-16.561-64.879
			c5.842-2.182,9.098-7.498,9.389-13.322c0.516-10.319-10.886-19.423-24.782-12.426c-12.383,6.235-20.638-0.989-22.444-9.373
			c-1.806,8.384-10.061,15.608-22.444,9.373c-13.896-6.997-25.298,2.107-24.782,12.426c0.291,5.824,3.548,11.14,9.389,13.322
			c-9.964,13.777-16.561,37.678-16.561,64.879c0,27.2,6.597,51.102,16.562,64.879c-5.842,2.182-9.098,7.498-9.389,13.322
			c-0.516,10.319,10.886,19.423,24.782,12.426c12.383-6.235,20.638,0.989,22.444,9.373c1.806-8.384,10.061-15.608,22.444-9.373
			c13.896,6.997,25.298-2.107,24.782-12.426C154.058,434.049,150.802,428.734,144.96,426.552z"/>
		<path style="fill:#191919;" d="M310.474,138.327c5.163-4.071,8.137-8.848,8.137-13.956c0-6.349-4.603-12.182-12.285-16.788
			c8.185-10.999,6.799-25.797-0.97-35.547c-12.641-15.863-34.453-15.863-43.128-33.709c-8.675,17.846-30.487,17.846-43.128,33.709
			c-7.769,9.749-9.155,24.547-0.97,35.547c-7.682,4.606-12.286,10.439-12.286,16.788c0,5.109,2.974,9.885,8.137,13.956
			c-5.163,4.071-8.137,8.848-8.137,13.956c0,6.349,4.603,12.182,12.286,16.788c-8.185,10.999-6.799,25.797,0.97,35.546
			c12.641,15.863,34.453,15.863,43.128,33.709c8.675-17.846,30.487-17.846,43.128-33.709c7.769-9.749,9.155-24.547,0.97-35.546
			c7.682-4.607,12.285-10.439,12.285-16.788C318.61,147.175,315.637,142.398,310.474,138.327z"/>
		<path style="fill:#191919;" d="M1251.077,127.465c0-4.258-1.755-8.102-4.574-10.862c2.82-2.76,4.574-6.605,4.574-10.862
			c0-6.727-4.373-12.424-10.428-14.429v-9.278h-9.912c0.226-1.682,0.354-3.394,0.354-5.138c0-21.117-17.119-38.235-38.235-38.235
			c-21.117,0-38.235,17.118-38.235,38.235c0,1.743,0.127,3.456,0.354,5.138h-9.912v9.278c-6.055,2.005-10.428,7.702-10.428,14.429
			c0,4.258,1.755,8.102,4.574,10.862c-2.82,2.76-4.574,6.604-4.574,10.862c0,4.258,1.755,8.102,4.574,10.862
			c-2.82,2.76-4.574,6.605-4.574,10.862c0,4.258,1.755,8.102,4.574,10.862c-2.82,2.76-4.574,6.605-4.574,10.862
			c0,6.727,4.373,12.424,10.428,14.429v9.278h9.912c-0.226,1.682-0.354,3.394-0.354,5.138c0,21.117,17.119,38.235,38.235,38.235
			c21.117,0,38.235-17.118,38.235-38.235c0-1.743-0.128-3.456-0.354-5.138h9.912v-9.278c6.055-2.005,10.428-7.702,10.428-14.429
			c0-4.258-1.755-8.102-4.574-10.862c2.82-2.76,4.574-6.604,4.574-10.862c0-4.258-1.755-8.102-4.574-10.862
			C1249.322,135.566,1251.077,131.722,1251.077,127.465z"/>
		<path style="fill:#191919;" d="M615.788,406.134v-5.135c8.56-10.574,13.743-24.305,13.743-39.326s-5.183-28.752-13.743-39.326
			v-5.135c-2.719-1.409-4.58-4.243-4.58-7.517c0-3.274,1.861-6.108,4.58-7.517v-2.374c0-5.035-3.453-9.389-8.341-10.599
			c-17.933-4.438-31.451-14.83-35.011-27.532c-3.56,12.702-17.078,23.094-35.011,27.532c-4.887,1.209-8.341,5.564-8.341,10.599
			v2.374c2.719,1.409,4.58,4.243,4.58,7.517c0,3.274-1.861,6.108-4.58,7.517v5.135c-8.56,10.574-13.743,24.305-13.743,39.326
			c0,15.021,5.183,28.751,13.743,39.326v5.135c2.719,1.409,4.58,4.243,4.58,7.517c0,3.274-1.861,6.108-4.58,7.517v2.374
			c0,5.035,3.453,9.389,8.341,10.599c17.933,4.438,31.451,14.83,35.01,27.532c3.56-12.702,17.078-23.094,35.011-27.532
			c4.887-1.209,8.341-5.564,8.341-10.599v-2.374c-2.719-1.409-4.58-4.243-4.58-7.517
			C611.208,410.377,613.069,407.543,615.788,406.134z"/>
		<path style="fill:#191919;" d="M460.779,183.894h1.444c2.887,0,5.228-2.34,5.228-5.228c0-2.887-2.34-5.228-5.228-5.228
			c2.887,0,5.228-2.341,5.228-5.228c0-2.887-2.34-5.228-5.228-5.228h-2.667v-50.025h2.667c2.887,0,5.228-2.34,5.228-5.228
			c0-2.887-2.34-5.228-5.228-5.228c2.887,0,5.228-2.341,5.228-5.228c0-2.887-2.34-5.228-5.228-5.228h-0.163
			c13.114-7.895,13.322-21.757,3.583-29.572c-14.16-11.364-38.734-6.085-48.312-24.148c-9.578,18.064-34.151,12.784-48.312,24.148
			c-9.738,7.815-9.53,21.676,3.583,29.572h-0.163c-2.887,0-5.228,2.34-5.228,5.228c0,2.887,2.34,5.228,5.228,5.228
			c-2.887,0-5.228,2.34-5.228,5.228c0,2.887,2.34,5.228,5.228,5.228h2.667v50.025h-2.667c-2.887,0-5.228,2.341-5.228,5.228
			c0,2.887,2.34,5.228,5.228,5.228c-2.887,0-5.228,2.34-5.228,5.228c0,2.887,2.34,5.228,5.228,5.228h1.444
			c-14.356,7.746-14.906,22.226-4.865,30.285c14.16,11.364,38.734,6.085,48.312,24.148c9.578-18.064,34.151-12.785,48.312-24.148
			C475.685,206.12,475.135,191.64,460.779,183.894z"/>
		<path style="fill:#191919;" d="M940.323,94.048l-9.95-7.638V73.1h-13.796c0.767-4.984-0.848-10.129-4.278-13.989
			c-8.692-9.78-23.689-9.78-29.654-20.784c-5.965,11.003-20.962,11.003-29.654,20.784c-3.43,3.86-5.045,9.005-4.278,13.989h-13.796
			v13.31l-9.95,7.638v88.558l9.95,7.638v13.31h13.796c-0.767,4.984,0.848,10.129,4.278,13.989
			c8.692,9.781,23.689,9.781,29.654,20.784c5.965-11.003,20.962-11.003,29.654-20.784c3.43-3.86,5.045-9.005,4.278-13.989h13.796
			v-13.31l9.95-7.638V94.048z"/>
		<polygon style="fill:#191919;" points="1087.975,301.778 1077.907,293.739 1077.907,277.611 1057.709,277.611 1037.75,261.673 
			1017.791,277.611 997.593,277.611 997.593,293.739 987.525,301.778 987.525,421.568 997.593,429.607 997.593,444.308 
			1016.003,444.308 1037.75,461.673 1059.497,444.308 1077.907,444.308 1077.907,429.607 1087.975,421.568 		"/>
		<path style="fill:#191919;" d="M458.757,309.691v-0.473c0-6.202-4.793-11.275-10.875-11.743c8.325-5.354,8.35-14.413,1.928-19.567
			c-9.519-7.639-26.039-4.09-32.478-16.234c-6.439,12.143-22.958,8.594-32.478,16.234c-6.422,5.154-6.397,14.214,1.928,19.567
			c-6.082,0.468-10.875,5.541-10.875,11.743v0.473c-6.247,0.297-11.225,5.44-11.225,11.761v80.443
			c0,6.32,4.978,11.464,11.225,11.761v0.473c0,6.203,4.793,11.275,10.875,11.743c-8.326,5.354-8.35,14.413-1.928,19.567
			c9.52,7.64,26.039,4.09,32.478,16.234c6.439-12.143,22.959-8.594,32.478-16.234c6.422-5.154,6.397-14.214-1.928-19.567
			c6.082-0.468,10.875-5.541,10.875-11.743v-0.473c6.247-0.297,11.225-5.44,11.225-11.761v-80.443
			C469.982,315.131,465.004,309.987,458.757,309.691z"/>
		<path style="fill:#191919;" d="M1082.168,67.744c0-0.01,0.001-0.02,0.001-0.03c0-9.004-7.299-16.302-16.302-16.302
			c-2.023,0-3.952,0.386-5.739,1.059c-3.978-8.362-12.501-14.144-22.378-14.144c-9.876,0-18.4,5.782-22.378,14.144
			c-1.787-0.674-3.716-1.059-5.739-1.059c-9.004,0-16.302,7.299-16.302,16.302c0,0.01,0.001,0.02,0.001,0.03
			c-5.139,0.305-9.216,4.557-9.216,9.773v121.621c0,5.216,4.077,9.468,9.216,9.773c0,0.01-0.001,0.02-0.001,0.03
			c0,9.004,7.299,16.302,16.302,16.302c2.023,0,3.952-0.386,5.739-1.059c3.977,8.362,12.501,14.144,22.378,14.144
			c9.876,0,18.4-5.782,22.378-14.144c1.787,0.673,3.716,1.059,5.739,1.059c9.004,0,16.302-7.299,16.302-16.302
			c0-0.01-0.001-0.02-0.001-0.03c5.139-0.305,9.216-4.557,9.216-9.773V77.517C1091.383,72.301,1087.307,68.049,1082.168,67.744z"/>
		<path style="fill:#191919;" d="M782.517,179.129c0,6.825-5.533,12.357-12.357,12.357c0,6.825-5.533,12.357-12.358,12.357
			c-0.154,0-0.303-0.017-0.456-0.023c-0.448,22.306-24.833,22.43-29.805,34.506c-4.972-12.076-29.357-12.201-29.805-34.506
			c-0.153,0.006-0.302,0.023-0.456,0.023c-6.825,0-12.358-5.533-12.358-12.357c-6.825,0-12.357-5.533-12.357-12.357V97.525
			c0-6.825,5.533-12.357,12.357-12.357c0-6.825,5.533-12.358,12.358-12.358c0.154,0,0.303,0.017,0.456,0.023
			c0.448-22.306,24.833-22.43,29.805-34.506c4.972,12.076,29.357,12.201,29.805,34.506c0.153-0.006,0.302-0.023,0.456-0.023
			c6.825,0,12.358,5.533,12.358,12.358c6.825,0,12.357,5.533,12.357,12.357V179.129z"/>
		<path style="fill:#191919;" d="M923.307,288.529h-0.259v-1.295c0-6.437-5.218-11.655-11.655-11.655h-2.972
			c-5.516-8.375-14.998-13.907-25.776-13.907c-10.778,0-20.26,5.531-25.776,13.907h-2.972c-6.437,0-11.655,5.218-11.655,11.655
			v1.295h-0.259c-6.437,0-11.655,5.218-11.655,11.655v122.978c0,6.437,5.218,11.655,11.655,11.655h0.259v1.295
			c0,6.437,5.218,11.655,11.655,11.655h2.972c5.516,8.375,14.998,13.906,25.776,13.906c10.778,0,20.26-5.531,25.776-13.906h2.972
			c6.437,0,11.655-5.218,11.655-11.655v-1.295h0.259c6.437,0,11.655-5.218,11.655-11.655V300.184
			C934.962,293.747,929.744,288.529,923.307,288.529z"/>
		<path style="fill:#191919;" d="M153.624,173.322c7.342-9.74,11.698-21.858,11.698-34.995s-4.356-25.255-11.698-34.995
			c3.925-1.241,6.771-4.91,6.771-9.245c0-5.355-4.341-9.696-9.696-9.696v-9.904h-9.686c-4.487-22.147-33.89-36.16-33.89-36.16
			S77.72,52.34,73.232,74.487h-9.686v9.904c-5.355,0-9.696,4.341-9.696,9.696c0,4.335,2.846,8.004,6.771,9.245
			c-7.342,9.74-11.698,21.858-11.698,34.995s4.356,25.254,11.698,34.995c-3.925,1.241-6.771,4.91-6.771,9.245
			c0,5.355,4.341,9.696,9.696,9.696v9.904h9.686c4.487,22.147,33.89,36.16,33.89,36.16s29.403-14.014,33.89-36.16h9.686v-9.904
			c5.355,0,9.696-4.341,9.696-9.696C160.395,178.232,157.549,174.563,153.624,173.322z"/>
		<path style="fill:#191919;" d="M1237.741,321.265c2.689-2.626,4.364-6.286,4.364-10.342c0-7.951-6.418-14.398-14.355-14.454
			c5.573-5.653,5.552-14.75-0.07-20.371c-5.622-5.622-14.719-5.642-20.371-0.07c-0.057-7.937-6.504-14.355-14.454-14.355
			s-14.398,6.418-14.454,14.355c-5.652-5.572-14.75-5.552-20.371,0.07c-5.622,5.622-5.642,14.719-0.07,20.371
			c-7.937,0.057-14.355,6.504-14.355,14.454c0,4.056,1.675,7.716,4.364,10.342c-7.094,0.126-12.807,5.906-12.807,13.03v54.755
			c0,7.124,5.714,12.904,12.807,13.03c-2.69,2.626-4.364,6.286-4.364,10.342c0,7.951,6.418,14.398,14.355,14.454
			c-5.572,5.652-5.552,14.75,0.07,20.371c5.622,5.622,14.719,5.642,20.371,0.07c0.057,7.937,6.504,14.355,14.454,14.355
			c7.95,0,14.397-6.418,14.454-14.355c5.652,5.573,14.75,5.552,20.371-0.07c5.622-5.622,5.642-14.719,0.07-20.371
			c7.937-0.057,14.355-6.504,14.355-14.454c0-4.056-1.675-7.716-4.364-10.342c7.094-0.126,12.807-5.906,12.807-13.03v-54.755
			C1250.549,327.172,1244.835,321.392,1237.741,321.265z"/>
		<path style="fill:#191919;" d="M631.81,96.608c-5.361,0-9.707-4.346-9.707-9.707v-7.155c0-5.361-4.346-9.707-9.707-9.707h-0.972
			c0-20.705-32.426-20.705-38.986-31.711c-6.56,11.005-38.986,11.005-38.986,31.711h-0.973c-5.361,0-9.707,4.346-9.707,9.707V86.9
			c0,5.361-4.346,9.707-9.708,9.707h-1.843v41.603v0.233v41.603h1.843c5.361,0,9.707,4.346,9.707,9.707v7.155
			c0,5.361,4.346,9.707,9.708,9.707h0.973c0,20.705,32.426,20.705,38.986,31.711c6.56-11.005,38.986-11.005,38.986-31.711h0.972
			c5.361,0,9.707-4.346,9.707-9.707v-7.155c0-5.361,4.346-9.707,9.707-9.707h1.843v-41.603v-0.233V96.608H631.81z"/>
		<path style="fill:#191919;" d="M796.209,361.673c0-9.755-4.518-18.796-12.209-26.248c2.737-5.113,1.954-11.614-2.359-15.927
			c-3.635-3.635-8.826-4.765-13.429-3.391c1.373-4.603,0.243-9.794-3.391-13.429c-2.562-2.562-5.897-3.869-9.253-3.943
			c0.248-1.087,0.4-2.273,0.406-3.583c0-15.954-23.649-21.859-28.433-33.479c-4.784,11.619-28.433,17.524-28.433,33.479
			c0.006,1.31,0.159,2.496,0.406,3.583c-3.357,0.074-6.692,1.381-9.253,3.943c-3.635,3.635-4.765,8.826-3.391,13.429
			c-4.603-1.373-9.794-0.244-13.429,3.391c-4.313,4.313-5.096,10.814-2.359,15.927c-7.69,7.452-12.209,16.493-12.209,26.248
			c0,9.755,4.518,18.796,12.209,26.248c-2.737,5.113-1.954,11.614,2.359,15.927c3.635,3.635,8.826,4.765,13.429,3.391
			c-1.373,4.603-0.244,9.794,3.391,13.429c2.562,2.562,5.897,3.869,9.253,3.943c-0.248,1.087-0.4,2.273-0.406,3.583
			c0,15.954,23.649,21.86,28.433,33.479c4.784-11.619,28.433-17.524,28.433-33.479c-0.006-1.31-0.159-2.496-0.406-3.583
			c3.357-0.074,6.692-1.381,9.254-3.943c3.635-3.635,4.765-8.826,3.391-13.429c4.603,1.373,9.794,0.244,13.429-3.391
			c4.313-4.313,5.096-10.814,2.359-15.927C791.691,380.469,796.209,371.428,796.209,361.673z"/>
		<path style="fill:#191919;" d="M320.675,361.673c0-10.019-3.387-19.242-9.067-26.605c2.296-2.524,3.707-5.867,3.707-9.548
			c0-7.314-5.528-13.332-12.632-14.117v-14.112h-13.844c2.661-2.721,3.4-6.049,3.221-8.259
			c-0.908-11.205-19.394-11.858-29.832-27.359c-10.439,15.501-28.924,16.154-29.833,27.359c-0.179,2.21,0.56,5.539,3.221,8.259
			h-13.844v14.112c-7.105,0.785-12.632,6.803-12.632,14.117c0,3.681,1.411,7.024,3.707,9.548c-5.68,7.363-9.067,16.586-9.067,26.605
			c0,10.019,3.387,19.242,9.067,26.605c-2.296,2.524-3.707,5.867-3.707,9.548c0,7.314,5.528,13.332,12.632,14.117v14.111h13.844
			c-2.661,2.721-3.4,6.049-3.221,8.259c0.908,11.205,19.394,11.858,29.833,27.359c10.439-15.501,28.924-16.154,29.832-27.359
			c0.179-2.21-0.56-5.539-3.221-8.259h13.844v-14.111c7.105-0.785,12.632-6.803,12.632-14.117c0-3.681-1.411-7.024-3.707-9.548
			C317.288,380.915,320.675,371.692,320.675,361.673z"/>
	</g>
</g>
</svg>
