<svg width="106" height="107" viewBox="0 0 106 107" fill="none" xmlns="http://www.w3.org/2000/svg">
<g filter="url(#filter0_d_30_3537)">
<path d="M23.3485 36.9108C23.3817 36.911 23.4142 36.9012 23.4417 36.8825C23.4692 36.8639 23.4903 36.8373 23.5024 36.8064C23.5144 36.7754 23.5167 36.7416 23.5091 36.7093C23.5014 36.677 23.4841 36.6477 23.4595 36.6255C22.4732 35.7026 20.9868 34.2497 19.0002 32.2666C18.4437 31.7101 18.1689 31.0355 18.176 30.243C18.2183 23.7971 18.2236 18.5646 18.1919 14.5456C18.1919 14.4938 18.2124 14.4441 18.2491 14.4074C18.2858 14.3708 18.3355 14.3502 18.3873 14.3502H34.9406C35.1507 14.3503 35.3522 14.434 35.5006 14.5826L40.4302 19.5174C40.4583 19.5458 40.4942 19.5651 40.5333 19.573C40.5724 19.5809 40.613 19.5769 40.6499 19.5616C40.6867 19.5463 40.7182 19.5203 40.7402 19.4871C40.7623 19.4538 40.7739 19.4147 40.7736 19.3748V12.2737C40.7737 12.1651 40.7952 12.0577 40.8369 11.9579C40.8787 11.8581 40.9398 11.7679 41.0166 11.6925L52.5876 0.116349C52.6628 0.0418172 52.7644 0 52.8702 0C52.9761 0 53.0777 0.0418172 53.1529 0.116349L64.597 11.5605C64.8375 11.8045 64.9722 12.1329 64.9722 12.4745V19.2374C64.9725 19.2758 64.9841 19.3133 65.0056 19.3451C65.0271 19.377 65.0575 19.4018 65.0931 19.4164C65.1286 19.4311 65.1676 19.4349 65.2053 19.4275C65.243 19.4201 65.2777 19.4018 65.305 19.3748L69.8224 14.8521C70.1508 14.5274 70.5912 14.3451 71.0482 14.3449H87.2052C87.2907 14.3449 87.3727 14.3783 87.4331 14.4377C87.4936 14.4972 87.5275 14.5778 87.5275 14.6619C87.5275 18.304 87.5345 23.4149 87.5486 29.9947C87.5486 30.9809 87.2968 31.7048 86.7931 32.1662C85.6342 33.2335 84.1601 34.6988 82.3708 36.5621C82.3409 36.5934 82.3208 36.6328 82.313 36.6753C82.3052 36.7179 82.3101 36.7618 82.3269 36.8017C82.3438 36.8416 82.3719 36.8756 82.4078 36.8997C82.4438 36.9238 82.486 36.9368 82.5293 36.9372H89.2024C89.3564 36.9372 89.5087 36.9675 89.6502 37.0265C89.7917 37.0855 89.9197 37.1719 90.0266 37.2806L101.635 48.8885C101.665 48.919 101.69 48.9552 101.706 48.9951C101.723 49.035 101.731 49.0778 101.731 49.121C101.731 49.1642 101.723 49.207 101.706 49.2469C101.69 49.2868 101.665 49.323 101.635 49.3535L90.0478 60.9403C89.9456 61.0439 89.8239 61.1263 89.6896 61.1825C89.5554 61.2387 89.4113 61.2677 89.2658 61.2678H82.3761C82.3421 61.267 82.3086 61.2765 82.28 61.295C82.2515 61.3135 82.2292 61.3402 82.2161 61.3716C82.2029 61.403 82.1996 61.4376 82.2065 61.471C82.2133 61.5043 82.2301 61.5348 82.2546 61.5584C84.8541 64.0892 86.6822 65.5369 87.406 66.9423C87.4859 67.095 87.5276 67.2655 87.5275 67.439V83.6753C87.5275 83.7257 87.5075 83.7741 87.4718 83.8098C87.4361 83.8454 87.3878 83.8655 87.3373 83.8655H70.8369C70.5967 83.8652 70.3669 83.7702 70.1976 83.6013L65.2839 78.6876C65.2577 78.6624 65.2246 78.6452 65.1888 78.6382C65.153 78.6312 65.116 78.6347 65.0827 78.6483C65.0494 78.6618 65.0211 78.6849 65.0014 78.7144C64.9817 78.744 64.9715 78.7788 64.9722 78.8144C64.9827 80.6813 64.9634 82.932 64.914 85.5668C64.907 86.1268 64.6129 86.6904 64.0317 87.2575C59.9176 91.2976 56.3213 94.9063 53.2427 98.0834C53.1997 98.129 53.1479 98.1654 53.0904 98.1904C53.033 98.2155 52.971 98.2286 52.9083 98.2291C52.8457 98.2296 52.7835 98.2174 52.7257 98.1933C52.6678 98.1692 52.6155 98.1336 52.5717 98.0887C52.5541 98.0676 48.9279 94.4466 41.693 87.2258C41.0413 86.5777 40.719 85.9208 40.7261 85.255C40.7542 83.1663 40.7613 81.0828 40.7472 79.0046C40.7465 78.9652 40.7341 78.9268 40.7116 78.8943C40.6892 78.8619 40.6577 78.8367 40.621 78.8221C40.5844 78.8074 40.5442 78.8039 40.5056 78.8119C40.4669 78.82 40.4315 78.8392 40.4038 78.8672L35.8547 83.4164C35.5602 83.7074 35.1634 83.8706 34.7504 83.8707H18.5088C18.4262 83.8707 18.3469 83.8385 18.2884 83.781C18.23 83.7235 18.1971 83.6456 18.1971 83.5643V67.4284C18.197 67.2441 18.2334 67.0615 18.3041 66.8911C18.3748 66.7206 18.4785 66.5657 18.6092 66.4351L23.3802 61.6641C23.4115 61.632 23.4326 61.5914 23.4408 61.5475C23.4491 61.5035 23.4441 61.458 23.4266 61.4168C23.4091 61.3756 23.3798 61.3405 23.3424 61.3159C23.3051 61.2912 23.2612 61.2782 23.2165 61.2784H16.6015C16.2428 61.2782 15.9007 61.1376 15.6505 60.8874L4.08484 49.3165C4.05845 49.2909 4.03737 49.2602 4.02282 49.2264C4.00827 49.1926 4.00052 49.1563 4.00002 49.1195C3.99953 49.0827 4.00631 49.0461 4.01995 49.0119C4.0336 48.9778 4.05385 48.9466 4.07955 48.9202C7.3342 45.6163 11.1912 41.7399 15.6505 37.2912C16.1418 36.8051 17.2197 36.9584 17.9012 36.9584C19.9407 36.9584 21.7564 36.9425 23.3485 36.9108ZM44.4457 18.4607C44.4351 20.9968 44.4351 22.5308 44.4457 23.0627C44.4505 23.3008 44.5449 23.5274 44.7099 23.6967C47.6087 26.6379 50.2558 29.3008 52.651 31.6854C52.6668 31.7012 52.7672 31.7224 52.7831 31.7224C52.7936 31.7224 52.894 31.7012 52.9099 31.6854C55.3262 29.3184 57.9944 26.6749 60.9144 23.7548C61.0812 23.5864 61.1776 23.3596 61.1839 23.1208C61.1944 22.5925 61.205 21.0602 61.2156 18.5241C61.2261 15.9845 61.2279 14.4505 61.2209 13.9222C61.216 13.6815 61.1195 13.4526 60.9514 13.2829C58.0525 10.3417 55.4054 7.67883 53.0103 5.2942C52.9944 5.27835 52.894 5.2625 52.8782 5.2625C52.8676 5.2625 52.7672 5.27835 52.7514 5.2942C50.335 7.66122 47.6668 10.3047 44.7468 13.2248C44.58 13.3932 44.4836 13.62 44.4774 13.8588C44.4668 14.3871 44.4562 15.9211 44.4457 18.4607ZM37.1914 21.5939C35.4091 19.8116 34.3295 18.739 33.9526 18.3762C33.7815 18.212 33.5548 18.1194 33.3186 18.1173C29.2186 18.1032 25.4919 18.1067 22.1386 18.1279C22.1175 18.1279 22.033 18.186 22.0224 18.1966C22.0118 18.2071 21.959 18.2864 21.959 18.3075C21.9379 21.6643 21.9343 25.391 21.9484 29.4875C21.9505 29.7236 22.0431 29.9504 22.2073 30.1215C22.5701 30.5019 23.6427 31.5815 25.425 33.3603C27.2073 35.1391 28.2869 36.2116 28.6638 36.5779C28.8348 36.7422 29.0616 36.8348 29.2978 36.8368C33.3943 36.8509 37.1209 36.8474 40.4777 36.8263C40.4989 36.8263 40.5834 36.7681 40.594 36.7576C40.6045 36.747 40.6574 36.6625 40.6574 36.6413C40.6785 33.2881 40.682 29.5614 40.6679 25.4614C40.6659 25.2252 40.5733 24.9984 40.4091 24.8274C40.0427 24.4505 38.9702 23.3727 37.1914 21.5939ZM68.4223 21.6414C66.647 23.4237 65.5762 24.5051 65.2099 24.8855C65.0476 25.0573 64.9569 25.2841 64.9563 25.5195C64.9492 29.616 64.9598 33.3427 64.988 36.6995C64.988 36.7206 65.0461 36.8051 65.0567 36.8157C65.062 36.821 65.1465 36.8791 65.1676 36.8791C68.5244 36.8932 72.2511 36.8879 76.3476 36.8632C76.583 36.8626 76.8097 36.7719 76.9816 36.6096C77.3585 36.2433 78.4363 35.1672 80.2151 33.3814C81.9904 31.5991 83.0594 30.5177 83.4222 30.1373C83.5864 29.9663 83.679 29.7395 83.6811 29.5033C83.6881 25.4068 83.6776 21.6802 83.6494 18.3234C83.6494 18.3022 83.5913 18.2177 83.5807 18.2071C83.5701 18.2018 83.4909 18.1437 83.4698 18.1437C80.113 18.1296 76.3863 18.1349 72.2898 18.1596C72.0544 18.1602 71.8277 18.2509 71.6558 18.4132C71.2789 18.7795 70.2011 19.8556 68.4223 21.6414ZM50.0673 34.6495C50.0836 34.6337 50.0966 34.6148 50.1054 34.5939C50.1143 34.5731 50.1189 34.5506 50.1189 34.5279C50.1189 34.5053 50.1143 34.4828 50.1054 34.4619C50.0966 34.4411 50.0836 34.4222 50.0673 34.4064L44.7363 29.0753C44.7129 29.0512 44.6829 29.0346 44.6501 29.0275C44.6173 29.0205 44.5831 29.0234 44.5519 29.0359C44.5208 29.0484 44.494 29.0698 44.4751 29.0976C44.4562 29.1253 44.4459 29.158 44.4457 29.1916V36.7417C44.4457 36.7866 44.4635 36.8296 44.4952 36.8613C44.5269 36.893 44.5699 36.9108 44.6147 36.9108H47.7426C47.786 36.9105 47.8276 36.8934 47.8588 36.8632L50.0673 34.6495ZM57.9187 36.8157C58.4787 37.0482 60.18 36.9214 60.8827 36.8738C60.9566 36.8685 61.0259 36.8352 61.0767 36.7804C61.1276 36.7256 61.1564 36.6534 61.1574 36.5779L61.1627 29.0278C61.1615 29.0218 61.1584 29.0162 61.1537 29.0115C61.149 29.0068 61.143 29.0033 61.1363 29.0014C61.1328 28.9978 61.1275 28.9943 61.1205 28.9908C61.1205 28.9908 61.1169 28.9908 61.1099 28.9908C61.1039 28.9875 61.0972 28.9858 61.0906 28.9858C61.0841 28.9858 61.078 28.9875 61.0729 28.9908L55.7841 34.38C55.7327 34.4345 55.7031 34.5058 55.7012 34.5801C55.6992 34.6544 55.725 34.7262 55.7736 34.7815C56.2438 35.3099 57.3639 36.5938 57.9187 36.8157ZM49.3329 40.6885C49.2625 40.7167 49.1991 40.7325 49.1427 40.7361C48.0543 40.7537 46.5538 40.7766 44.6412 40.8048C44.6095 40.8048 44.5777 40.8312 44.5513 40.8576C44.5249 40.884 44.4985 40.9157 44.4985 40.9527C44.4703 42.8618 44.4457 44.3623 44.4245 45.4543C44.4245 45.5106 44.4104 45.574 44.3822 45.6445C44.3505 45.7114 44.3153 45.766 44.2766 45.8083C43.5193 46.5937 42.4749 47.6716 41.1435 49.0418C41.1223 49.0682 41.117 49.1052 41.117 49.1422C41.117 49.1844 41.1223 49.2214 41.1435 49.2478C42.4749 50.618 43.5193 51.6959 44.2766 52.4813C44.3153 52.5236 44.3488 52.5782 44.377 52.6451C44.4087 52.7156 44.4245 52.779 44.4245 52.8353C44.4421 53.9273 44.4668 55.4278 44.4985 57.3369C44.4985 57.3739 44.5196 57.4056 44.5461 57.432C44.5778 57.4584 44.6042 57.4848 44.6412 57.4848C46.5538 57.513 48.0543 57.5377 49.1427 57.5588C49.1991 57.5588 49.2625 57.5729 49.3329 57.6011C49.4034 57.6292 49.458 57.6645 49.4967 57.7067C50.2822 58.4605 51.36 59.5031 52.7302 60.8346C52.7567 60.861 52.7989 60.8663 52.8359 60.8663C52.8729 60.8663 52.9099 60.861 52.9363 60.8346C54.31 59.5031 55.3879 58.4605 56.1698 57.7067C56.2121 57.6645 56.2684 57.6292 56.3389 57.6011C56.4093 57.5729 56.4727 57.5588 56.5291 57.5588C57.6175 57.5377 59.118 57.513 61.0306 57.4848C61.0676 57.4848 61.0941 57.4584 61.1205 57.432C61.1522 57.4056 61.1733 57.3739 61.1733 57.3422C61.205 55.4295 61.2297 53.929 61.2473 52.8406C61.2473 52.7843 61.2631 52.7209 61.2948 52.6504C61.323 52.58 61.3565 52.5236 61.3952 52.4813C62.1525 51.6994 63.1969 50.6215 64.5283 49.2478C64.5547 49.2214 64.5548 49.1844 64.5548 49.1474C64.5548 49.1052 64.5547 49.0682 64.5283 49.0418C63.1969 47.6716 62.1525 46.5937 61.3952 45.8083C61.3565 45.7695 61.323 45.7149 61.2948 45.6445C61.2631 45.574 61.2473 45.5106 61.2473 45.4543C61.2297 44.3659 61.2068 42.8653 61.1786 40.9527C61.1786 40.9157 61.1521 40.8893 61.1257 40.8576C61.094 40.8312 61.0676 40.8048 61.0306 40.8048C59.118 40.7766 57.6175 40.7537 56.5291 40.7361C56.4727 40.7325 56.4093 40.7167 56.3389 40.6885C56.2684 40.6603 56.2138 40.6269 56.1751 40.5881C55.3896 39.8308 54.3118 38.7865 52.9416 37.455C52.9151 37.4286 52.8782 37.4286 52.8359 37.4286C52.7989 37.4286 52.7619 37.4286 52.7355 37.455C51.3618 38.7865 50.2839 39.8308 49.502 40.5881C49.4597 40.6269 49.4034 40.6603 49.3329 40.6885ZM40.7366 44.1809C40.7734 44.1446 40.7943 44.0952 40.7947 44.0436V40.8682C40.7947 40.8425 40.7897 40.8171 40.7799 40.7933C40.7701 40.7696 40.7557 40.7481 40.7375 40.7299C40.7194 40.7118 40.6978 40.6974 40.6741 40.6875C40.6504 40.6777 40.6249 40.6727 40.5993 40.6727H33.197C33.1586 40.673 33.1212 40.6847 33.0893 40.7062C33.0575 40.7277 33.0327 40.7581 33.0181 40.7936C33.0034 40.8291 32.9995 40.8681 33.0069 40.9058C33.0143 40.9435 33.0327 40.9782 33.0597 41.0055L38.3485 46.2943C38.3851 46.3305 38.4344 46.3507 38.4858 46.3507C38.5373 46.3507 38.5866 46.3305 38.6232 46.2943L40.7366 44.1809ZM67.0856 46.2838C67.1192 46.3173 67.1648 46.3362 67.2124 46.3362C67.2599 46.3362 67.3055 46.3173 67.3392 46.2838L72.6544 40.9633C72.6794 40.9381 72.6965 40.9062 72.7034 40.8714C72.7103 40.8366 72.7067 40.8005 72.6931 40.7678C72.6796 40.735 72.6566 40.707 72.6272 40.6872C72.5977 40.6675 72.563 40.6569 72.5276 40.6568H65.2099C65.1623 40.6568 65.1166 40.6757 65.0829 40.7094C65.0492 40.7431 65.0303 40.7888 65.0303 40.8365V44.1545C65.0304 44.2021 65.0494 44.2477 65.0831 44.2813L67.0856 46.2838ZM22.5085 40.7202C19.9689 40.7167 18.4349 40.7185 17.9065 40.7255C17.6677 40.7318 17.4409 40.8281 17.2725 40.995C14.3349 43.9044 11.6737 46.5603 9.28909 48.9625C9.27853 48.9784 9.25739 49.0787 9.25739 49.0893C9.25739 49.1052 9.27324 49.2056 9.28909 49.2214C11.6632 51.6307 14.3155 54.2936 17.2461 57.2101C17.4145 57.3769 17.6413 57.4733 17.8801 57.4796C18.4085 57.4901 19.9425 57.4989 22.4821 57.506C25.0252 57.5095 26.5609 57.506 27.0893 57.4954C27.3281 57.4892 27.5549 57.3928 27.7233 57.2259C30.661 54.32 33.3203 51.6642 35.7014 49.2584C35.7173 49.2478 35.7384 49.1474 35.7384 49.1316C35.7384 49.1157 35.7173 49.0206 35.7014 49.0048C33.3274 46.592 30.6768 43.9273 27.7497 41.0108C27.5813 40.844 27.3545 40.7476 27.1157 40.7414C26.5873 40.7308 25.0516 40.7237 22.5085 40.7202ZM83.2426 40.6885C80.6994 40.678 79.1619 40.6762 78.6301 40.6832C78.3899 40.6882 78.1611 40.7846 77.9908 40.9527C75.039 43.8586 72.3673 46.5127 69.9756 48.915C69.9598 48.9308 69.9387 49.0312 69.9387 49.0471C69.9387 49.0576 69.9598 49.158 69.9756 49.1739C72.3497 51.5972 75.0003 54.2742 77.9274 57.2048C78.0964 57.3716 78.323 57.4679 78.5614 57.4743C79.0932 57.4884 80.6325 57.4989 83.1792 57.506C85.7258 57.5165 87.2633 57.5183 87.7917 57.5113C88.0311 57.5077 88.2598 57.4132 88.431 57.2471C91.3827 54.3376 94.0544 51.6818 96.4461 49.2795C96.462 49.2637 96.4831 49.1633 96.4831 49.1527C96.4831 49.1369 96.462 49.0365 96.4461 49.0206C94.0756 46.5973 91.425 43.9203 88.4944 40.9897C88.3254 40.8229 88.0987 40.7266 87.8604 40.7202C87.3285 40.7097 85.7892 40.6991 83.2426 40.6885ZM72.628 57.5852C72.6619 57.5845 72.695 57.574 72.723 57.5548C72.751 57.5356 72.7729 57.5086 72.7858 57.4771C72.7987 57.4457 72.8021 57.4112 72.7957 57.3778C72.7892 57.3445 72.7732 57.3137 72.7495 57.2893L67.5928 52.0111C67.5575 51.9753 67.5153 51.947 67.4688 51.9279C67.4223 51.9087 67.3725 51.8991 67.3222 51.8996C67.2719 51.9001 67.2223 51.9107 67.1762 51.9307C67.1301 51.9508 67.0885 51.9799 67.0539 52.0164L65.1993 53.9185C65.0661 54.0557 64.9921 54.2397 64.9933 54.431L64.988 57.2259C64.988 57.3114 65.022 57.3934 65.0824 57.4538C65.1429 57.5143 65.2248 57.5482 65.3103 57.5482L72.628 57.5852ZM33.1283 57.5377L40.3615 57.5535C40.447 57.5535 40.5289 57.5196 40.5894 57.4591C40.6498 57.3987 40.6838 57.3167 40.6838 57.2312L40.6944 54.4732C40.6977 54.2846 40.6275 54.1026 40.4989 53.966L38.676 52.0692C38.6419 52.0329 38.6007 52.0039 38.5551 51.9839C38.5094 51.9639 38.4602 51.9533 38.4104 51.9528C38.3605 51.9524 38.3111 51.9619 38.265 51.981C38.219 52.0001 38.1773 52.0283 38.1424 52.0639L33.0068 57.2418C32.9831 57.2662 32.9671 57.2969 32.9607 57.3303C32.9542 57.3636 32.9576 57.3982 32.9706 57.4296C32.9835 57.461 33.0053 57.488 33.0333 57.5072C33.0613 57.5264 33.0944 57.537 33.1283 57.5377ZM37.2601 76.627C39.0459 74.8342 40.122 73.7493 40.4883 73.3724C40.6514 73.1989 40.7421 72.9703 40.7419 72.7331C40.749 68.619 40.7384 64.8783 40.7102 61.5109C40.7102 61.4897 40.6574 61.4052 40.6468 61.3946C40.6363 61.3841 40.5517 61.3312 40.5306 61.3312C37.1632 61.3172 33.4225 61.3207 29.3084 61.3418C29.0705 61.343 28.8417 61.4357 28.6691 61.6007C28.2922 61.967 27.2108 63.0466 25.425 64.8395C23.6427 66.6289 22.5683 67.7137 22.202 68.0941C22.0389 68.2676 21.9482 68.4963 21.9484 68.7335C21.9414 72.8476 21.9519 76.5883 21.9801 79.9557C21.9801 79.9768 22.033 80.0613 22.0435 80.0719C22.0541 80.0825 22.1386 80.1353 22.1597 80.1353C25.5271 80.1494 29.2679 80.1459 33.382 80.1247C33.618 80.1221 33.8447 80.0296 34.016 79.8658C34.3964 79.496 35.4778 78.4164 37.2601 76.627ZM44.7521 69.1667L49.9986 63.9466C50.0293 63.9161 50.0537 63.8799 50.0703 63.84C50.0869 63.8001 50.0954 63.7573 50.0954 63.7141C50.0954 63.6709 50.0869 63.6281 50.0703 63.5882C50.0537 63.5483 50.0293 63.5121 49.9986 63.4816L48.0121 61.4739C47.8778 61.3366 47.6958 61.257 47.5048 61.252L44.8155 61.1939C44.7647 61.1925 44.7141 61.2013 44.6667 61.2197C44.6193 61.2382 44.5761 61.266 44.5396 61.3015C44.5032 61.337 44.4742 61.3794 44.4544 61.4262C44.4347 61.4731 44.4245 61.5234 44.4245 61.5743L44.4509 69.0399C44.4494 69.0754 44.4589 69.1106 44.4779 69.1406C44.497 69.1706 44.5247 69.1941 44.5575 69.2079C44.5903 69.2217 44.6265 69.2251 44.6613 69.2178C44.696 69.2104 44.7277 69.1926 44.7521 69.1667ZM57.8711 61.3841C57.3005 61.6218 56.1698 62.9321 55.6996 63.4658C55.6501 63.5226 55.6238 63.5959 55.6257 63.6713C55.6277 63.7466 55.6578 63.8184 55.7101 63.8726L61.094 69.3094C61.0988 69.3147 61.1055 69.3181 61.1132 69.3191C61.1208 69.32 61.129 69.3185 61.1363 69.3146C61.1434 69.3111 61.1487 69.3076 61.1522 69.3041C61.1522 69.3076 61.1557 69.3076 61.1627 69.3041C61.1703 69.3017 61.177 69.2974 61.1817 69.2917C61.1865 69.286 61.1891 69.2792 61.1892 69.2724L61.1469 61.6218C61.147 61.5446 61.1175 61.4703 61.0644 61.4143C61.0113 61.3583 60.9387 61.3247 60.8616 61.3207C60.1536 61.2784 58.4259 61.1569 57.8711 61.3841ZM68.3853 76.5689C70.1571 78.3618 71.2314 79.4414 71.6083 79.8077C71.7799 79.9719 72.0066 80.0645 72.2423 80.0666C76.3458 80.1054 80.0778 80.123 83.4381 80.1194C83.4592 80.1194 83.5437 80.0666 83.5543 80.056C83.5649 80.0455 83.6177 79.9662 83.6177 79.9398C83.66 76.583 83.6846 72.8528 83.6917 68.7493C83.6923 68.5126 83.6016 68.2838 83.4381 68.11C83.0753 67.7296 82.0062 66.6429 80.231 64.8501C78.4592 63.0572 77.3849 61.9776 77.008 61.6113C76.8372 61.4452 76.6104 61.3506 76.374 61.3471C72.2705 61.3119 68.5385 61.2943 65.1782 61.2943C65.1571 61.2943 65.0725 61.3524 65.0673 61.3577C65.0567 61.3682 64.9986 61.4528 64.9986 61.4739C64.9598 64.8342 64.9352 68.5661 64.9246 72.6697C64.9253 72.9046 65.016 73.1313 65.1782 73.3037C65.541 73.6876 66.6101 74.776 68.3853 76.5689ZM44.5038 79.7179C44.5003 82.2505 44.502 83.7792 44.5091 84.304C44.5149 84.5424 44.6113 84.7693 44.7785 84.938C47.6739 87.8651 50.3192 90.5157 52.7144 92.8897C52.7302 92.9003 52.8306 92.9214 52.8465 92.9214C52.857 92.9214 52.9574 92.9003 52.9733 92.8897C55.3755 90.5227 58.0296 87.8809 60.9355 84.9644C61.1008 84.7949 61.1953 84.5681 61.1997 84.3304C61.2103 83.8021 61.2173 82.2734 61.2209 79.7443C61.2244 77.2117 61.2226 75.6813 61.2156 75.1529C61.2085 74.9163 61.1121 74.6916 60.9461 74.5242C58.0507 71.5971 55.4054 68.9466 53.0103 66.5725C52.9944 66.5566 52.894 66.5408 52.8834 66.5408C52.8676 66.5408 52.7672 66.5566 52.7514 66.5725C50.3491 68.9395 47.6968 71.5813 44.7944 74.4978C44.6271 74.6665 44.5307 74.8934 44.5249 75.1318C44.5143 75.6602 44.5073 77.1889 44.5038 79.7179Z" fill="#D9D9D9"/>
</g>
<defs>
<filter id="filter0_d_30_3537" x="0" y="0" width="105.731" height="106.229" filterUnits="userSpaceOnUse" color-interpolation-filters="sRGB">
<feFlood flood-opacity="0" result="BackgroundImageFix"/>
<feColorMatrix in="SourceAlpha" type="matrix" values="0 0 0 0 0 0 0 0 0 0 0 0 0 0 0 0 0 0 127 0" result="hardAlpha"/>
<feOffset dy="4"/>
<feGaussianBlur stdDeviation="2"/>
<feComposite in2="hardAlpha" operator="out"/>
<feColorMatrix type="matrix" values="0 0 0 0 0 0 0 0 0 0 0 0 0 0 0 0 0 0 0.25 0"/>
<feBlend mode="normal" in2="BackgroundImageFix" result="effect1_dropShadow_30_3537"/>
<feBlend mode="normal" in="SourceGraphic" in2="effect1_dropShadow_30_3537" result="shape"/>
</filter>
</defs>
</svg>
