<svg width="480" height="244" viewBox="0 0 480 244" fill="none" xmlns="http://www.w3.org/2000/svg">
<path d="M157.396 142.182C157.396 142.682 157.421 143.08 157.472 143.376C157.531 143.672 157.616 143.909 157.726 144.087C157.844 144.256 158.001 144.391 158.195 144.493C158.39 144.586 158.695 144.679 159.109 144.772V145.394H153.536V144.772C154.061 144.637 154.412 144.489 154.59 144.328C154.768 144.159 154.882 143.922 154.933 143.617C154.992 143.312 155.021 142.847 155.021 142.221V131.239C155.021 130.655 155 130.232 154.958 129.97C154.916 129.699 154.844 129.491 154.742 129.348C154.649 129.195 154.522 129.077 154.361 128.992C154.201 128.899 153.925 128.797 153.536 128.687V128.065H159.833C161.813 128.065 163.286 128.446 164.251 129.208C165.224 129.961 165.711 131.112 165.711 132.661C165.711 133.541 165.559 134.333 165.254 135.035C164.949 135.738 164.518 136.313 163.959 136.762C163.4 137.21 162.74 137.532 161.979 137.726C161.217 137.921 160.417 138.018 159.579 138.018C158.64 138.018 157.912 138.002 157.396 137.968V142.182ZM157.396 136.914H158.868C159.825 136.914 160.612 136.791 161.229 136.546C161.856 136.292 162.334 135.877 162.664 135.302C162.994 134.718 163.159 133.947 163.159 132.991C163.159 132.263 163.062 131.658 162.867 131.176C162.673 130.685 162.402 130.291 162.055 129.995C161.716 129.699 161.31 129.491 160.836 129.373C160.362 129.246 159.846 129.182 159.287 129.182C158.449 129.182 157.819 129.199 157.396 129.233V136.914ZM173.517 135.365L173.694 135.403C174.16 134.836 174.591 134.392 174.989 134.07C175.387 133.74 175.814 133.486 176.271 133.308C176.737 133.131 177.262 133.042 177.846 133.042C178.337 133.042 178.781 133.067 179.179 133.118V136.038H177.744C177.541 135.581 177.325 135.251 177.097 135.048C176.868 134.836 176.555 134.73 176.157 134.73C175.852 134.73 175.548 134.819 175.243 134.997C174.947 135.175 174.659 135.433 174.38 135.771C174.101 136.11 173.906 136.427 173.796 136.724C173.694 137.02 173.643 137.371 173.643 137.777V142.221C173.643 142.991 173.69 143.524 173.783 143.82C173.876 144.108 174.029 144.32 174.24 144.455C174.46 144.59 174.786 144.696 175.218 144.772V145.394H170.101V144.772C170.423 144.671 170.652 144.582 170.787 144.506C170.931 144.43 171.054 144.324 171.155 144.188C171.257 144.053 171.333 143.846 171.384 143.566C171.434 143.287 171.46 142.851 171.46 142.259V136.724C171.46 136.182 171.451 135.746 171.434 135.416C171.418 135.086 171.358 134.823 171.257 134.629C171.155 134.426 170.999 134.278 170.787 134.184C170.584 134.083 170.292 133.998 169.911 133.931V133.27L172.882 133.143H173.656L173.517 135.365ZM189.815 143.579L189.625 143.528C188.889 144.281 188.195 144.815 187.543 145.128C186.9 145.441 186.214 145.598 185.486 145.598C184.843 145.598 184.276 145.475 183.785 145.229C183.294 144.975 182.917 144.624 182.655 144.176C182.393 143.719 182.262 143.194 182.262 142.601C182.262 141.366 182.871 140.414 184.09 139.745C185.317 139.068 187.153 138.674 189.599 138.564V137.739C189.599 136.859 189.515 136.165 189.346 135.657C189.176 135.149 188.91 134.777 188.546 134.54C188.182 134.303 187.695 134.184 187.086 134.184C186.426 134.184 185.892 134.358 185.486 134.705C185.088 135.052 184.788 135.572 184.585 136.266H182.922V134.616C183.734 134.193 184.411 133.884 184.953 133.689C185.495 133.486 186.036 133.33 186.578 133.22C187.12 133.101 187.67 133.042 188.228 133.042C189.066 133.042 189.739 133.177 190.247 133.448C190.755 133.71 191.136 134.117 191.389 134.667C191.643 135.217 191.77 136.046 191.77 137.155V141.573C191.77 142.199 191.775 142.644 191.783 142.906C191.792 143.16 191.817 143.397 191.859 143.617C191.902 143.837 191.965 144.015 192.05 144.15C192.134 144.277 192.257 144.387 192.418 144.48C192.587 144.573 192.858 144.671 193.23 144.772V145.394H189.752L189.815 143.579ZM189.599 139.605C187.881 139.622 186.595 139.851 185.74 140.291C184.885 140.731 184.458 141.395 184.458 142.284C184.458 142.766 184.555 143.147 184.75 143.427C184.945 143.706 185.19 143.901 185.486 144.011C185.782 144.112 186.134 144.163 186.54 144.163C187.115 144.163 187.636 144.023 188.101 143.744C188.575 143.465 188.944 143.109 189.206 142.678C189.468 142.246 189.599 141.819 189.599 141.395V139.605ZM202.115 146.435C201.65 147.485 201.197 148.335 200.757 148.987C200.316 149.639 199.83 150.13 199.297 150.46C198.772 150.79 198.146 150.955 197.418 150.955C196.952 150.955 196.427 150.9 195.844 150.79V148.276H196.973C197.075 148.623 197.202 148.864 197.354 149C197.507 149.135 197.727 149.203 198.014 149.203C198.268 149.203 198.493 149.152 198.687 149.051C198.89 148.958 199.098 148.793 199.309 148.556C199.529 148.319 199.783 147.955 200.071 147.464C200.367 146.973 200.697 146.351 201.061 145.598L197.507 136.038C197.278 135.42 197.092 134.988 196.948 134.743C196.813 134.498 196.664 134.311 196.504 134.184C196.343 134.057 196.097 133.956 195.767 133.88V133.258H200.934V133.88C200.537 133.973 200.257 134.066 200.096 134.159C199.936 134.244 199.817 134.358 199.741 134.502C199.665 134.637 199.627 134.815 199.627 135.035C199.627 135.264 199.652 135.501 199.703 135.746C199.762 135.991 199.851 136.279 199.969 136.609L202.229 142.97L204.768 136.876C204.912 136.537 205.022 136.228 205.098 135.949C205.183 135.661 205.225 135.395 205.225 135.149C205.225 134.785 205.124 134.51 204.921 134.324C204.726 134.138 204.383 133.99 203.892 133.88V133.258H208.64V133.88C208.31 133.947 208.056 134.053 207.879 134.197C207.701 134.333 207.523 134.553 207.345 134.857C207.168 135.154 206.956 135.572 206.711 136.114L202.115 146.435ZM221.562 143.236C221.021 143.803 220.521 144.248 220.064 144.569C219.616 144.891 219.12 145.145 218.579 145.331C218.037 145.509 217.44 145.598 216.789 145.598C215.045 145.598 213.729 145.077 212.841 144.036C211.952 142.987 211.507 141.442 211.507 139.402C211.507 138.141 211.732 137.028 212.18 136.063C212.637 135.099 213.285 134.354 214.123 133.829C214.961 133.304 215.925 133.042 217.017 133.042C217.872 133.042 218.6 133.177 219.201 133.448C219.802 133.719 220.28 134.091 220.635 134.565C220.999 135.031 221.279 135.623 221.473 136.343C221.676 137.054 221.791 137.985 221.816 139.136H213.818V139.364C213.818 140.363 213.928 141.205 214.148 141.891C214.377 142.568 214.745 143.101 215.253 143.49C215.769 143.871 216.438 144.061 217.258 144.061C217.952 144.061 218.575 143.934 219.125 143.681C219.683 143.418 220.238 142.995 220.788 142.411L221.562 143.236ZM219.429 138.082C219.379 137.168 219.264 136.423 219.087 135.848C218.909 135.264 218.642 134.819 218.287 134.515C217.931 134.201 217.466 134.045 216.89 134.045C216.019 134.045 215.32 134.396 214.796 135.099C214.279 135.793 213.975 136.787 213.882 138.082H219.429ZM229.622 135.365L229.799 135.403C230.265 134.836 230.697 134.392 231.094 134.07C231.492 133.74 231.92 133.486 232.377 133.308C232.842 133.131 233.367 133.042 233.951 133.042C234.442 133.042 234.886 133.067 235.284 133.118V136.038H233.849C233.646 135.581 233.43 135.251 233.202 135.048C232.973 134.836 232.66 134.73 232.262 134.73C231.958 134.73 231.653 134.819 231.348 134.997C231.052 135.175 230.764 135.433 230.485 135.771C230.206 136.11 230.011 136.427 229.901 136.724C229.799 137.02 229.749 137.371 229.749 137.777V142.221C229.749 142.991 229.795 143.524 229.888 143.82C229.981 144.108 230.134 144.32 230.345 144.455C230.565 144.59 230.891 144.696 231.323 144.772V145.394H226.207V144.772C226.528 144.671 226.757 144.582 226.892 144.506C227.036 144.43 227.159 144.324 227.26 144.188C227.362 144.053 227.438 143.846 227.489 143.566C227.54 143.287 227.565 142.851 227.565 142.259V136.724C227.565 136.182 227.557 135.746 227.54 135.416C227.523 135.086 227.463 134.823 227.362 134.629C227.26 134.426 227.104 134.278 226.892 134.184C226.689 134.083 226.397 133.998 226.016 133.931V133.27L228.987 133.143H229.761L229.622 135.365ZM246.464 128.065H260.201V132.483H258.956C258.77 131.755 258.584 131.18 258.398 130.757C258.22 130.334 258.03 130.012 257.827 129.792C257.623 129.572 257.403 129.415 257.166 129.322C256.938 129.229 256.591 129.182 256.125 129.182H254.513V142.182C254.513 142.682 254.539 143.08 254.589 143.376C254.649 143.672 254.733 143.909 254.843 144.087C254.962 144.256 255.118 144.391 255.313 144.493C255.508 144.586 255.812 144.679 256.227 144.772V145.394H250.425V144.772C250.679 144.713 250.903 144.65 251.098 144.582C251.293 144.514 251.449 144.434 251.568 144.341C251.695 144.239 251.796 144.112 251.872 143.96C251.957 143.807 252.021 143.6 252.063 143.338C252.114 143.075 252.139 142.69 252.139 142.182V129.182H250.539C250.142 129.182 249.812 129.221 249.549 129.297C249.295 129.373 249.058 129.534 248.838 129.779C248.618 130.016 248.415 130.359 248.229 130.807C248.051 131.248 247.882 131.806 247.721 132.483H246.464V128.065ZM267.981 128.281V130.744H265.645V128.281H267.981ZM264.35 144.772C264.68 144.671 264.913 144.582 265.048 144.506C265.192 144.43 265.311 144.324 265.404 144.188C265.505 144.053 265.581 143.846 265.632 143.566C265.691 143.287 265.721 142.851 265.721 142.259V136.724C265.721 136.182 265.713 135.746 265.696 135.416C265.679 135.086 265.619 134.823 265.518 134.629C265.416 134.426 265.26 134.278 265.048 134.184C264.845 134.083 264.553 133.998 264.172 133.931V133.258L267.13 133.143H267.905V142.221C267.905 142.948 267.939 143.456 268.006 143.744C268.074 144.023 268.201 144.239 268.387 144.391C268.582 144.535 268.895 144.662 269.327 144.772V145.394H264.35V144.772ZM277.094 135.213L277.272 135.264C277.78 134.756 278.194 134.375 278.516 134.121C278.846 133.859 279.163 133.651 279.468 133.499C279.773 133.338 280.056 133.224 280.319 133.156C280.589 133.088 280.865 133.055 281.144 133.055C281.99 133.055 282.68 133.249 283.213 133.639C283.746 134.028 284.115 134.625 284.318 135.429C284.952 134.785 285.464 134.311 285.854 134.007C286.252 133.702 286.654 133.469 287.06 133.308C287.475 133.139 287.919 133.055 288.393 133.055C288.96 133.055 289.447 133.139 289.853 133.308C290.268 133.469 290.615 133.723 290.894 134.07C291.182 134.409 291.389 134.836 291.516 135.352C291.651 135.869 291.719 136.563 291.719 137.434V142.221C291.719 142.864 291.74 143.308 291.783 143.554C291.825 143.799 291.884 143.989 291.96 144.125C292.045 144.26 292.168 144.379 292.328 144.48C292.489 144.573 292.76 144.671 293.141 144.772V145.394H288.152V144.772C288.482 144.671 288.719 144.582 288.863 144.506C289.006 144.43 289.125 144.324 289.218 144.188C289.32 144.053 289.396 143.846 289.447 143.566C289.506 143.279 289.535 142.847 289.535 142.271V138.945C289.535 138.226 289.514 137.633 289.472 137.168C289.438 136.694 289.379 136.317 289.294 136.038C289.218 135.759 289.121 135.539 289.002 135.378C288.892 135.217 288.765 135.077 288.621 134.959C288.477 134.84 288.308 134.747 288.114 134.68C287.919 134.612 287.661 134.578 287.339 134.578C287.001 134.578 286.683 134.646 286.387 134.781C286.099 134.917 285.782 135.145 285.435 135.467C285.096 135.788 284.851 136.114 284.699 136.444C284.546 136.766 284.47 137.147 284.47 137.587V142.221C284.47 142.864 284.491 143.308 284.533 143.554C284.576 143.799 284.635 143.989 284.711 144.125C284.796 144.26 284.919 144.379 285.079 144.48C285.24 144.573 285.511 144.671 285.892 144.772V145.394H280.903V144.772C281.233 144.671 281.47 144.582 281.614 144.506C281.757 144.43 281.876 144.324 281.969 144.188C282.071 144.053 282.147 143.846 282.198 143.566C282.257 143.279 282.286 142.847 282.286 142.271V138.945C282.286 138.192 282.265 137.578 282.223 137.104C282.181 136.63 282.113 136.25 282.02 135.962C281.935 135.674 281.821 135.441 281.677 135.264C281.542 135.086 281.402 134.95 281.258 134.857C281.114 134.764 280.945 134.696 280.75 134.654C280.556 134.603 280.336 134.578 280.09 134.578C279.743 134.578 279.417 134.658 279.113 134.819C278.808 134.972 278.495 135.196 278.173 135.492C277.86 135.788 277.623 136.097 277.462 136.419C277.301 136.74 277.221 137.087 277.221 137.46V142.221C277.221 142.703 277.234 143.071 277.259 143.325C277.284 143.579 277.323 143.778 277.373 143.922C277.433 144.066 277.505 144.184 277.589 144.277C277.674 144.362 277.792 144.446 277.945 144.531C278.105 144.607 278.342 144.688 278.656 144.772V145.394H273.679V144.772C274.001 144.671 274.229 144.582 274.365 144.506C274.508 144.43 274.631 144.324 274.733 144.188C274.834 144.053 274.91 143.846 274.961 143.566C275.012 143.287 275.037 142.851 275.037 142.259V136.724C275.037 136.182 275.029 135.746 275.012 135.416C274.995 135.086 274.936 134.823 274.834 134.629C274.733 134.426 274.576 134.278 274.365 134.184C274.161 134.083 273.869 133.998 273.489 133.931V133.258L276.459 133.143H277.234L277.094 135.213ZM307.523 143.236C306.981 143.803 306.482 144.248 306.025 144.569C305.576 144.891 305.081 145.145 304.539 145.331C303.998 145.509 303.401 145.598 302.749 145.598C301.006 145.598 299.69 145.077 298.801 144.036C297.912 142.987 297.468 141.442 297.468 139.402C297.468 138.141 297.692 137.028 298.141 136.063C298.598 135.099 299.245 134.354 300.083 133.829C300.921 133.304 301.886 133.042 302.978 133.042C303.833 133.042 304.56 133.177 305.161 133.448C305.762 133.719 306.24 134.091 306.596 134.565C306.96 135.031 307.239 135.623 307.434 136.343C307.637 137.054 307.751 137.985 307.777 139.136H299.779V139.364C299.779 140.363 299.889 141.205 300.109 141.891C300.337 142.568 300.705 143.101 301.213 143.49C301.729 143.871 302.398 144.061 303.219 144.061C303.913 144.061 304.535 143.934 305.085 143.681C305.644 143.418 306.198 142.995 306.748 142.411L307.523 143.236ZM305.39 138.082C305.339 137.168 305.225 136.423 305.047 135.848C304.869 135.264 304.603 134.819 304.247 134.515C303.892 134.201 303.426 134.045 302.851 134.045C301.979 134.045 301.281 134.396 300.756 135.099C300.24 135.793 299.935 136.787 299.842 138.082H305.39ZM320.66 136.038H319.442C319.255 135.53 319.035 135.132 318.781 134.845C318.527 134.548 318.24 134.341 317.918 134.223C317.596 134.104 317.203 134.045 316.737 134.045C316.06 134.045 315.519 134.206 315.112 134.527C314.715 134.84 314.516 135.272 314.516 135.822C314.516 136.211 314.596 136.533 314.757 136.787C314.918 137.041 315.167 137.278 315.506 137.498C315.845 137.718 316.441 138.01 317.296 138.374C318.159 138.746 318.824 139.089 319.289 139.402C319.763 139.715 320.131 140.079 320.394 140.494C320.665 140.909 320.8 141.404 320.8 141.979C320.8 142.648 320.686 143.211 320.457 143.668C320.229 144.125 319.907 144.497 319.492 144.785C319.078 145.073 318.582 145.28 318.007 145.407C317.44 145.534 316.818 145.598 316.141 145.598C315.43 145.598 314.74 145.543 314.071 145.432C313.403 145.331 312.751 145.196 312.116 145.026V142.373H313.36C313.589 143.152 313.928 143.719 314.376 144.074C314.825 144.421 315.443 144.595 316.23 144.595C316.534 144.595 316.831 144.565 317.118 144.506C317.415 144.438 317.677 144.332 317.905 144.188C318.134 144.036 318.316 143.833 318.451 143.579C318.587 143.325 318.654 143.008 318.654 142.627C318.654 142.195 318.57 141.844 318.401 141.573C318.231 141.302 317.969 141.057 317.613 140.837C317.258 140.608 316.632 140.304 315.734 139.923C314.964 139.601 314.346 139.288 313.881 138.983C313.415 138.679 313.047 138.319 312.776 137.904C312.514 137.489 312.383 136.999 312.383 136.432C312.383 135.738 312.569 135.137 312.942 134.629C313.322 134.113 313.868 133.719 314.579 133.448C315.29 133.177 316.124 133.042 317.08 133.042C317.639 133.042 318.176 133.071 318.693 133.131C319.217 133.182 319.873 133.287 320.66 133.448V136.038Z" fill="#D9D9D9"/>
<path d="M480 242.394H450.811V205.605H421.515V168.82C421.515 69.058 282.075 93.9322 240 2.39441C197.925 93.9322 58.485 69.058 58.485 168.82V205.605H29.1889V242.394H0" stroke="#D9D9D9" stroke-width="2"/>
</svg>
