<svg width="509" height="150" viewBox="0 0 509 150" fill="none" xmlns="http://www.w3.org/2000/svg">
<path d="M149.531 98.1406C149.531 99.4844 149.594 100.422 149.719 100.953C149.844 101.469 150.078 101.867 150.422 102.148C150.781 102.414 151.359 102.648 152.156 102.852V104H142.852V102.852C143.633 102.648 144.172 102.438 144.469 102.219C144.781 102 145 101.742 145.125 101.445C145.266 101.133 145.359 100.719 145.406 100.203C145.469 99.6719 145.5 98.9844 145.5 98.1406V78.5234C145.5 77.0234 145.484 75.9766 145.453 75.3828C145.438 74.7891 145.375 74.2891 145.266 73.8828C145.172 73.4609 145.031 73.1328 144.844 72.8984C144.672 72.6641 144.43 72.4766 144.117 72.3359C143.82 72.1953 143.273 72.0547 142.477 71.9141V70.6953L148.125 70.4609H149.531V98.1406ZM180.412 100.648L180.06 100.555C178.701 101.945 177.419 102.93 176.216 103.508C175.029 104.086 173.763 104.375 172.419 104.375C171.232 104.375 170.185 104.148 169.279 103.695C168.373 103.227 167.677 102.578 167.193 101.75C166.708 100.906 166.466 99.9375 166.466 98.8438C166.466 96.5625 167.591 94.8047 169.841 93.5703C172.107 92.3203 175.498 91.5938 180.013 91.3906V89.8672C180.013 88.2422 179.857 86.9609 179.544 86.0234C179.232 85.0859 178.74 84.3984 178.068 83.9609C177.396 83.5234 176.498 83.3047 175.373 83.3047C174.154 83.3047 173.169 83.625 172.419 84.2656C171.685 84.9062 171.13 85.8672 170.755 87.1484H167.685V84.1016C169.185 83.3203 170.435 82.75 171.435 82.3906C172.435 82.0156 173.435 81.7266 174.435 81.5234C175.435 81.3047 176.451 81.1953 177.482 81.1953C179.029 81.1953 180.271 81.4453 181.208 81.9453C182.146 82.4297 182.849 83.1797 183.318 84.1953C183.787 85.2109 184.021 86.7422 184.021 88.7891V96.9453C184.021 98.1016 184.029 98.9219 184.044 99.4062C184.06 99.875 184.107 100.312 184.185 100.719C184.263 101.125 184.38 101.453 184.537 101.703C184.693 101.938 184.919 102.141 185.216 102.312C185.529 102.484 186.029 102.664 186.716 102.852V104H180.294L180.412 100.648ZM180.013 93.3125C176.841 93.3438 174.466 93.7656 172.888 94.5781C171.31 95.3906 170.521 96.6172 170.521 98.2578C170.521 99.1484 170.701 99.8516 171.06 100.367C171.419 100.883 171.873 101.242 172.419 101.445C172.966 101.633 173.615 101.727 174.365 101.727C175.427 101.727 176.388 101.469 177.248 100.953C178.123 100.438 178.802 99.7812 179.287 98.9844C179.771 98.1875 180.013 97.3984 180.013 96.6172V93.3125ZM216.565 86.7266H214.315C213.972 85.7891 213.565 85.0547 213.097 84.5234C212.628 83.9766 212.097 83.5938 211.503 83.375C210.909 83.1562 210.183 83.0469 209.323 83.0469C208.073 83.0469 207.073 83.3438 206.323 83.9375C205.589 84.5156 205.222 85.3125 205.222 86.3281C205.222 87.0469 205.37 87.6406 205.667 88.1094C205.964 88.5781 206.425 89.0156 207.05 89.4219C207.675 89.8281 208.776 90.3672 210.354 91.0391C211.948 91.7266 213.175 92.3594 214.034 92.9375C214.909 93.5156 215.589 94.1875 216.073 94.9531C216.573 95.7188 216.823 96.6328 216.823 97.6953C216.823 98.9297 216.612 99.9688 216.19 100.812C215.768 101.656 215.175 102.344 214.409 102.875C213.643 103.406 212.729 103.789 211.667 104.023C210.62 104.258 209.472 104.375 208.222 104.375C206.909 104.375 205.636 104.273 204.401 104.07C203.167 103.883 201.964 103.633 200.792 103.32V98.4219H203.089C203.511 99.8594 204.136 100.906 204.964 101.562C205.792 102.203 206.933 102.523 208.386 102.523C208.948 102.523 209.495 102.469 210.026 102.359C210.573 102.234 211.058 102.039 211.479 101.773C211.901 101.492 212.237 101.117 212.487 100.648C212.737 100.18 212.862 99.5938 212.862 98.8906C212.862 98.0938 212.706 97.4453 212.393 96.9453C212.081 96.4453 211.597 95.9922 210.94 95.5859C210.284 95.1641 209.128 94.6016 207.472 93.8984C206.05 93.3047 204.909 92.7266 204.05 92.1641C203.19 91.6016 202.511 90.9375 202.011 90.1719C201.526 89.4062 201.284 88.5 201.284 87.4531C201.284 86.1719 201.628 85.0625 202.315 84.125C203.018 83.1719 204.026 82.4453 205.339 81.9453C206.651 81.4453 208.19 81.1953 209.956 81.1953C210.987 81.1953 211.979 81.25 212.933 81.3594C213.901 81.4531 215.112 81.6484 216.565 81.9453V86.7266ZM247.75 86.7266H245.5C245.157 85.7891 244.75 85.0547 244.282 84.5234C243.813 83.9766 243.282 83.5938 242.688 83.375C242.094 83.1562 241.368 83.0469 240.508 83.0469C239.258 83.0469 238.258 83.3438 237.508 83.9375C236.774 84.5156 236.407 85.3125 236.407 86.3281C236.407 87.0469 236.555 87.6406 236.852 88.1094C237.149 88.5781 237.61 89.0156 238.235 89.4219C238.86 89.8281 239.961 90.3672 241.539 91.0391C243.133 91.7266 244.36 92.3594 245.219 92.9375C246.094 93.5156 246.774 94.1875 247.258 94.9531C247.758 95.7188 248.008 96.6328 248.008 97.6953C248.008 98.9297 247.797 99.9688 247.375 100.812C246.953 101.656 246.36 102.344 245.594 102.875C244.828 103.406 243.914 103.789 242.852 104.023C241.805 104.258 240.657 104.375 239.407 104.375C238.094 104.375 236.821 104.273 235.586 104.07C234.352 103.883 233.149 103.633 231.977 103.32V98.4219H234.274C234.696 99.8594 235.321 100.906 236.149 101.562C236.977 102.203 238.118 102.523 239.571 102.523C240.133 102.523 240.68 102.469 241.211 102.359C241.758 102.234 242.243 102.039 242.664 101.773C243.086 101.492 243.422 101.117 243.672 100.648C243.922 100.18 244.047 99.5938 244.047 98.8906C244.047 98.0938 243.891 97.4453 243.578 96.9453C243.266 96.4453 242.782 95.9922 242.125 95.5859C241.469 95.1641 240.313 94.6016 238.657 93.8984C237.235 93.3047 236.094 92.7266 235.235 92.1641C234.375 91.6016 233.696 90.9375 233.196 90.1719C232.711 89.4062 232.469 88.5 232.469 87.4531C232.469 86.1719 232.813 85.0625 233.5 84.125C234.203 83.1719 235.211 82.4453 236.524 81.9453C237.836 81.4453 239.375 81.1953 241.141 81.1953C242.172 81.1953 243.164 81.25 244.118 81.3594C245.086 81.4531 246.297 81.6484 247.75 81.9453V86.7266ZM269.935 72.4062V76.9531H265.623V72.4062H269.935ZM263.232 102.852C263.842 102.664 264.271 102.5 264.521 102.359C264.787 102.219 265.006 102.023 265.178 101.773C265.365 101.523 265.506 101.141 265.599 100.625C265.709 100.109 265.763 99.3047 265.763 98.2109V87.9922C265.763 86.9922 265.748 86.1875 265.717 85.5781C265.685 84.9688 265.576 84.4844 265.388 84.125C265.201 83.75 264.912 83.4766 264.521 83.3047C264.146 83.1172 263.607 82.9609 262.904 82.8359V81.5938L268.365 81.3828H269.795V98.1406C269.795 99.4844 269.857 100.422 269.982 100.953C270.107 101.469 270.342 101.867 270.685 102.148C271.045 102.414 271.623 102.648 272.42 102.852V104H263.232V102.852ZM304.613 82.1328V87.0312H301.636C301.37 86.0156 301.042 85.2188 300.652 84.6406C300.261 84.0469 299.808 83.6328 299.292 83.3984C298.777 83.1641 298.136 83.0469 297.37 83.0469C296.277 83.0469 295.308 83.3984 294.464 84.1016C293.62 84.8047 292.948 85.875 292.448 87.3125C291.964 88.75 291.722 90.5078 291.722 92.5859C291.722 93.9141 291.816 95.1328 292.003 96.2422C292.191 97.3359 292.511 98.2734 292.964 99.0547C293.417 99.8359 294.019 100.445 294.769 100.883C295.519 101.32 296.448 101.539 297.558 101.539C298.636 101.539 299.636 101.328 300.558 100.906C301.495 100.484 302.464 99.7422 303.464 98.6797L304.8 100.227C304.003 101.102 303.3 101.781 302.691 102.266C302.081 102.734 301.425 103.133 300.722 103.461C300.034 103.773 299.347 104 298.659 104.141C297.988 104.297 297.253 104.375 296.456 104.375C293.503 104.375 291.245 103.398 289.683 101.445C288.12 99.4766 287.339 96.6406 287.339 92.9375C287.339 90.625 287.777 88.5781 288.652 86.7969C289.527 85 290.753 83.6172 292.331 82.6484C293.909 81.6797 295.73 81.1953 297.792 81.1953C299.073 81.1953 300.253 81.2734 301.331 81.4297C302.425 81.5703 303.519 81.8047 304.613 82.1328ZM356.436 104V102.852C357.217 102.695 357.795 102.523 358.17 102.336C358.561 102.148 358.85 101.891 359.037 101.562C359.225 101.219 359.318 100.766 359.318 100.203C359.318 99.6719 359.256 99.1016 359.131 98.4922C359.006 97.8672 358.826 97.1719 358.592 96.4062L357.725 93.3828H346.803L346.006 95.6797C345.6 96.8359 345.334 97.7109 345.209 98.3047C345.084 98.8984 345.022 99.4375 345.022 99.9219C345.022 100.859 345.256 101.547 345.725 101.984C346.209 102.422 346.943 102.711 347.928 102.852V104H337.92V102.852C338.795 102.711 339.553 102.203 340.193 101.328C340.85 100.453 341.482 99.2031 342.092 97.5781L351.865 71.6328H355.568L363.537 97.7656C363.912 98.9844 364.24 99.9141 364.522 100.555C364.818 101.195 365.17 101.695 365.576 102.055C365.982 102.414 366.537 102.68 367.24 102.852V104H356.436ZM347.436 91.3438H357.232L352.779 76.2266L347.436 91.3438ZM398.191 97.2031V104H380.144V102.852L392.988 83.4922H386.636C385.855 83.4922 385.238 83.6328 384.785 83.9141C384.332 84.1953 383.902 84.6641 383.496 85.3203C383.089 85.9766 382.699 86.8594 382.324 87.9688H380.285V81.5938H398.05V82.7656L385.23 102.102H391.394C392.207 102.102 392.816 102.039 393.222 101.914C393.628 101.789 393.98 101.594 394.277 101.328C394.574 101.047 394.863 100.609 395.144 100.016C395.425 99.4219 395.761 98.4844 396.152 97.2031H398.191ZM419.204 85.2734L419.298 85.2969C420.517 84.0625 421.478 83.2031 422.181 82.7188C422.899 82.2188 423.603 81.8438 424.29 81.5938C424.993 81.3438 425.743 81.2188 426.54 81.2188C427.399 81.2188 428.165 81.3203 428.837 81.5234C429.509 81.7266 430.095 82.0391 430.595 82.4609C431.11 82.8672 431.524 83.375 431.837 83.9844C432.165 84.5781 432.407 85.2969 432.563 86.1406C432.72 86.9688 432.798 88.0234 432.798 89.3047V98.1406C432.798 99.5 432.853 100.43 432.962 100.93C433.087 101.414 433.298 101.797 433.595 102.078C433.907 102.344 434.524 102.602 435.446 102.852V104H426.212V102.852C426.821 102.664 427.259 102.5 427.524 102.359C427.79 102.219 428.009 102.023 428.181 101.773C428.368 101.523 428.509 101.141 428.603 100.625C428.712 100.094 428.767 99.2969 428.767 98.2344V92.0938C428.767 90.0156 428.657 88.4297 428.438 87.3359C428.235 86.2266 427.821 85.3984 427.196 84.8516C426.587 84.3047 425.728 84.0312 424.618 84.0312C423.993 84.0312 423.431 84.1406 422.931 84.3594C422.431 84.5781 421.853 84.9688 421.196 85.5312C420.54 86.0938 420.04 86.6719 419.696 87.2656C419.368 87.8594 419.204 88.4922 419.204 89.1641V98.1406C419.204 99.2031 419.228 99.9609 419.274 100.414C419.337 100.867 419.446 101.25 419.603 101.562C419.759 101.859 419.993 102.109 420.306 102.312C420.634 102.5 421.134 102.68 421.806 102.852V104H412.524V102.852C413.212 102.664 413.704 102.484 414.001 102.312C414.298 102.141 414.524 101.922 414.681 101.656C414.853 101.391 414.978 101.008 415.056 100.508C415.134 100.008 415.173 99.2188 415.173 98.1406V78.5234C415.173 77.0234 415.157 75.9766 415.126 75.3828C415.11 74.7891 415.048 74.2891 414.938 73.8828C414.845 73.4609 414.704 73.1328 414.517 72.8984C414.345 72.6641 414.103 72.4766 413.79 72.3359C413.493 72.1953 412.946 72.0547 412.149 71.9141V70.6953L417.798 70.4609H419.204V85.2734ZM463.514 100.648L463.163 100.555C461.803 101.945 460.522 102.93 459.319 103.508C458.131 104.086 456.866 104.375 455.522 104.375C454.334 104.375 453.288 104.148 452.381 103.695C451.475 103.227 450.78 102.578 450.295 101.75C449.811 100.906 449.569 99.9375 449.569 98.8438C449.569 96.5625 450.694 94.8047 452.944 93.5703C455.209 92.3203 458.6 91.5938 463.116 91.3906V89.8672C463.116 88.2422 462.959 86.9609 462.647 86.0234C462.334 85.0859 461.842 84.3984 461.17 83.9609C460.498 83.5234 459.6 83.3047 458.475 83.3047C457.256 83.3047 456.272 83.625 455.522 84.2656C454.788 84.9062 454.233 85.8672 453.858 87.1484H450.788V84.1016C452.288 83.3203 453.538 82.75 454.538 82.3906C455.538 82.0156 456.538 81.7266 457.538 81.5234C458.538 81.3047 459.553 81.1953 460.584 81.1953C462.131 81.1953 463.373 81.4453 464.311 81.9453C465.248 82.4297 465.952 83.1797 466.42 84.1953C466.889 85.2109 467.123 86.7422 467.123 88.7891V96.9453C467.123 98.1016 467.131 98.9219 467.147 99.4062C467.163 99.875 467.209 100.312 467.288 100.719C467.366 101.125 467.483 101.453 467.639 101.703C467.795 101.938 468.022 102.141 468.319 102.312C468.631 102.484 469.131 102.664 469.819 102.852V104H463.397L463.514 100.648ZM463.116 93.3125C459.944 93.3438 457.569 93.7656 455.991 94.5781C454.413 95.3906 453.623 96.6172 453.623 98.2578C453.623 99.1484 453.803 99.8516 454.163 100.367C454.522 100.883 454.975 101.242 455.522 101.445C456.069 101.633 456.717 101.727 457.467 101.727C458.53 101.727 459.491 101.469 460.35 100.953C461.225 100.438 461.905 99.7812 462.389 98.9844C462.873 98.1875 463.116 97.3984 463.116 96.6172V93.3125ZM506.793 104H497.558V102.852C498.168 102.664 498.605 102.5 498.871 102.359C499.137 102.219 499.355 102.023 499.527 101.773C499.715 101.523 499.855 101.141 499.949 100.625C500.058 100.094 500.113 99.2969 500.113 98.2344V92.0938C500.113 91 500.082 90.0078 500.019 89.1172C499.957 88.2266 499.848 87.5 499.691 86.9375C499.551 86.3594 499.371 85.9141 499.152 85.6016C498.949 85.2734 498.699 85 498.402 84.7812C498.121 84.5469 497.793 84.3672 497.418 84.2422C497.043 84.1016 496.551 84.0312 495.941 84.0312C495.332 84.0312 494.754 84.1562 494.207 84.4062C493.66 84.6406 493.058 85.0547 492.402 85.6484C491.746 86.2422 491.269 86.8281 490.973 87.4062C490.676 87.9844 490.527 88.6484 490.527 89.3984V98.1406C490.527 99.4844 490.59 100.422 490.715 100.953C490.84 101.469 491.074 101.867 491.418 102.148C491.777 102.414 492.355 102.648 493.152 102.852V104H483.965V102.852C484.574 102.664 485.004 102.5 485.254 102.359C485.519 102.219 485.738 102.023 485.91 101.773C486.098 101.523 486.238 101.141 486.332 100.625C486.441 100.109 486.496 99.3047 486.496 98.2109V87.9922C486.496 86.9922 486.48 86.1875 486.449 85.5781C486.418 84.9688 486.308 84.4844 486.121 84.125C485.933 83.75 485.644 83.4766 485.254 83.3047C484.879 83.1172 484.34 82.9609 483.637 82.8359V81.5938L489.121 81.3828H490.551L490.293 85.2031L490.621 85.2969C491.777 84.125 492.707 83.2891 493.41 82.7891C494.129 82.2891 494.848 81.9062 495.566 81.6406C496.301 81.3594 497.074 81.2188 497.887 81.2188C498.73 81.2188 499.48 81.3203 500.137 81.5234C500.808 81.7109 501.394 82.0078 501.894 82.4141C502.41 82.8203 502.832 83.3281 503.16 83.9375C503.488 84.5312 503.73 85.25 503.887 86.0938C504.058 86.9375 504.144 88.0078 504.144 89.3047V98.1406C504.144 99.2188 504.176 100 504.238 100.484C504.301 100.969 504.41 101.344 504.566 101.609C504.723 101.875 504.949 102.102 505.246 102.289C505.543 102.461 506.058 102.648 506.793 102.852V104Z" fill="white"/>
<g filter="url(#filter0_f_2_105)">
<path d="M74.7207 20C84.2626 20 93.2339 22.4435 101.044 26.7373C97.4861 25.9129 93.7606 25.4736 89.9238 25.4736C64.91 25.474 44.6321 44.0888 44.6318 67.0518C44.6318 90.0149 64.9098 108.631 89.9238 108.631C105.255 108.631 118.806 101.636 127.001 90.9346C120.093 113.244 99.2993 129.45 74.7207 129.45C44.4994 129.45 20.0002 104.949 20 74.7256C20 44.5019 44.4993 20.0003 74.7207 20Z" fill="#D9D9D9"/>
<path d="M55.5787 96.6318L56.2561 98.6913L58.3156 99.3687L56.2561 100.046L55.5787 102.106L54.9014 100.046L52.8419 99.3687L54.9014 98.6913L55.5787 96.6318Z" fill="black"/>
<path d="M30.9473 66.5265L31.6246 69.6158L33.6841 70.6318L31.6246 71.6478L30.9473 74.737L30.2699 71.6478L28.2104 70.6318L30.2699 69.6158L30.9473 66.5265Z" fill="black"/>
<path d="M44.6313 36.4211L45.9859 41.5699L50.1049 43.2633L45.9859 44.9566L44.6313 50.1054L43.2766 44.9566L39.1577 43.2633L43.2766 41.5699L44.6313 36.4211Z" fill="black"/>
<path d="M42.658 70.8774L43.1341 72.8078L44.5818 73.4427L43.1341 74.0776L42.658 76.0079L42.1819 74.0776L40.7342 73.4427L42.1819 72.8078L42.658 70.8774Z" fill="black"/>
<path d="M37.7894 85.6843L39.4828 90.8331L44.6315 92.5264L39.4828 94.2198L37.7894 99.3686L36.0961 94.2198L30.9474 92.5264L36.0961 90.8331L37.7894 85.6843Z" fill="black"/>
<path d="M61.0522 110.316L62.4069 114.435L66.5259 115.79L62.4069 117.144L61.0522 121.263L59.6976 117.144L55.5786 115.79L59.6976 114.435L61.0522 110.316Z" fill="black"/>
<path d="M66.5987 25.7719L67.0748 27.4609L68.5225 28.0164L67.0748 28.5719L66.5987 30.261L66.1225 28.5719L64.6749 28.0164L66.1225 27.4609L66.5987 25.7719Z" fill="black"/>
<path d="M77.4732 118.526L78.1505 121.616L80.21 122.632L78.1505 123.648L77.4732 126.737L76.7959 123.648L74.7364 122.632L76.7959 121.616L77.4732 118.526Z" fill="black"/>
<path d="M41.8945 99.3685L42.5718 102.458L44.6313 103.474L42.5718 104.49L41.8945 107.579L41.2171 104.49L39.1577 103.474L41.2171 102.458L41.8945 99.3685Z" fill="black"/>
<path d="M30.9473 47.3685L31.6246 49.428L33.6841 50.1053L31.6246 50.7827L30.9473 52.8422L30.2699 50.7827L28.2104 50.1053L30.2699 49.428L30.9473 47.3685Z" fill="black"/>
<ellipse cx="94.6422" cy="116.538" rx="0.748142" ry="0.748196" fill="#1E1E1E"/>
<ellipse cx="32.7184" cy="58.7994" rx="0.748142" ry="0.748196" fill="#1E1E1E"/>
<path d="M30.1533 87.4445C30.1533 87.8577 29.8183 88.1927 29.4051 88.1927C28.9919 88.1927 28.657 87.8577 28.657 87.4445C28.657 87.0313 28.9919 86.6963 29.4051 86.6963C29.8183 86.6963 30.1533 87.0313 30.1533 87.4445Z" fill="#1E1E1E"/>
<ellipse cx="40.4136" cy="70.3429" rx="0.534387" ry="0.534426" fill="#1E1E1E"/>
<ellipse cx="26.008" cy="72.5344" rx="0.534387" ry="0.534426" fill="#1E1E1E"/>
<ellipse cx="37.6347" cy="47.4695" rx="0.534387" ry="0.534426" fill="#1E1E1E"/>
<ellipse cx="43.62" cy="109.249" rx="0.534387" ry="0.534426" fill="#1E1E1E"/>
<ellipse cx="57.9414" cy="118.441" rx="0.534387" ry="0.534426" fill="#1E1E1E"/>
<ellipse cx="78.0075" cy="116.324" rx="0.534387" ry="0.534426" fill="#1E1E1E"/>
<ellipse cx="82.0958" cy="126.351" rx="0.534387" ry="0.534426" fill="#1E1E1E"/>
<ellipse cx="47.895" cy="35.9259" rx="0.534387" ry="0.534426" fill="#1E1E1E"/>
<ellipse cx="49.6051" cy="38.2774" rx="0.534387" ry="0.534426" fill="#1E1E1E"/>
<ellipse cx="39.692" cy="53.3766" rx="0.534387" ry="0.534426" fill="#1E1E1E"/>
<ellipse cx="97.1654" cy="113.587" rx="0.534387" ry="0.534426" fill="#1E1E1E"/>
<ellipse cx="28.4433" cy="60.0818" rx="0.534387" ry="0.534426" fill="#1E1E1E"/>
<ellipse cx="27.802" cy="52.8138" rx="0.534387" ry="0.534426" fill="#1E1E1E"/>
<ellipse cx="62.6441" cy="25.2373" rx="0.534387" ry="0.534426" fill="#1E1E1E"/>
<ellipse cx="81.4545" cy="122.075" rx="0.320632" ry="0.320655" fill="#1E1E1E"/>
<ellipse cx="29.2983" cy="83.383" rx="0.534387" ry="0.534426" fill="#1E1E1E"/>
<ellipse cx="47.9025" cy="91.6924" rx="0.534387" ry="0.534426" fill="#1E1E1E"/>
<ellipse cx="71.8355" cy="122.075" rx="0.748142" ry="0.748196" fill="#1E1E1E"/>
<ellipse cx="57.5139" cy="109.677" rx="0.748142" ry="0.748196" fill="#1E1E1E"/>
<ellipse cx="47.4675" cy="113.097" rx="0.748142" ry="0.748196" fill="#1E1E1E"/>
<ellipse cx="49.3913" cy="97.278" rx="0.748142" ry="0.748196" fill="#1E1E1E"/>
<ellipse cx="38.0624" cy="105.829" rx="0.748142" ry="0.748196" fill="#1E1E1E"/>
<ellipse cx="38.0624" cy="40.8427" rx="0.748142" ry="0.748196" fill="#1E1E1E"/>
<ellipse cx="62.0028" cy="29.299" rx="0.748142" ry="0.748196" fill="#1E1E1E"/>
</g>
<g filter="url(#filter1_f_2_105)">
<path d="M74.7207 20C84.2626 20 93.2339 22.4435 101.044 26.7373C97.4861 25.9129 93.7606 25.4736 89.9238 25.4736C64.91 25.474 44.6321 44.0888 44.6318 67.0518C44.6318 90.0149 64.9098 108.631 89.9238 108.631C105.255 108.631 118.806 101.636 127.001 90.9346C120.093 113.244 99.2993 129.45 74.7207 129.45C44.4994 129.45 20.0002 104.949 20 74.7256C20 44.5019 44.4993 20.0003 74.7207 20Z" fill="#D9D9D9"/>
<path d="M55.5787 96.6318L56.2561 98.6913L58.3156 99.3687L56.2561 100.046L55.5787 102.106L54.9014 100.046L52.8419 99.3687L54.9014 98.6913L55.5787 96.6318Z" fill="black"/>
<path d="M30.9473 66.5265L31.6246 69.6158L33.6841 70.6318L31.6246 71.6478L30.9473 74.737L30.2699 71.6478L28.2104 70.6318L30.2699 69.6158L30.9473 66.5265Z" fill="black"/>
<path d="M44.6313 36.4211L45.9859 41.5699L50.1049 43.2633L45.9859 44.9566L44.6313 50.1054L43.2766 44.9566L39.1577 43.2633L43.2766 41.5699L44.6313 36.4211Z" fill="black"/>
<path d="M42.658 70.8774L43.1341 72.8078L44.5818 73.4427L43.1341 74.0776L42.658 76.0079L42.1819 74.0776L40.7342 73.4427L42.1819 72.8078L42.658 70.8774Z" fill="black"/>
<path d="M37.7894 85.6843L39.4828 90.8331L44.6315 92.5264L39.4828 94.2198L37.7894 99.3686L36.0961 94.2198L30.9474 92.5264L36.0961 90.8331L37.7894 85.6843Z" fill="black"/>
<path d="M61.0522 110.316L62.4069 114.435L66.5259 115.79L62.4069 117.144L61.0522 121.263L59.6976 117.144L55.5786 115.79L59.6976 114.435L61.0522 110.316Z" fill="black"/>
<path d="M66.5987 25.7719L67.0748 27.4609L68.5225 28.0164L67.0748 28.5719L66.5987 30.261L66.1225 28.5719L64.6749 28.0164L66.1225 27.4609L66.5987 25.7719Z" fill="black"/>
<path d="M77.4732 118.526L78.1505 121.616L80.21 122.632L78.1505 123.648L77.4732 126.737L76.7959 123.648L74.7364 122.632L76.7959 121.616L77.4732 118.526Z" fill="black"/>
<path d="M41.8945 99.3685L42.5718 102.458L44.6313 103.474L42.5718 104.49L41.8945 107.579L41.2171 104.49L39.1577 103.474L41.2171 102.458L41.8945 99.3685Z" fill="black"/>
<path d="M30.9473 47.3685L31.6246 49.428L33.6841 50.1053L31.6246 50.7827L30.9473 52.8422L30.2699 50.7827L28.2104 50.1053L30.2699 49.428L30.9473 47.3685Z" fill="black"/>
<ellipse cx="94.6422" cy="116.538" rx="0.748142" ry="0.748196" fill="#1E1E1E"/>
<ellipse cx="32.7184" cy="58.7994" rx="0.748142" ry="0.748196" fill="#1E1E1E"/>
<path d="M30.1533 87.4445C30.1533 87.8577 29.8183 88.1927 29.4051 88.1927C28.9919 88.1927 28.657 87.8577 28.657 87.4445C28.657 87.0313 28.9919 86.6963 29.4051 86.6963C29.8183 86.6963 30.1533 87.0313 30.1533 87.4445Z" fill="#1E1E1E"/>
<ellipse cx="40.4136" cy="70.3429" rx="0.534387" ry="0.534426" fill="#1E1E1E"/>
<ellipse cx="26.008" cy="72.5344" rx="0.534387" ry="0.534426" fill="#1E1E1E"/>
<ellipse cx="37.6347" cy="47.4695" rx="0.534387" ry="0.534426" fill="#1E1E1E"/>
<ellipse cx="43.62" cy="109.249" rx="0.534387" ry="0.534426" fill="#1E1E1E"/>
<ellipse cx="57.9414" cy="118.441" rx="0.534387" ry="0.534426" fill="#1E1E1E"/>
<ellipse cx="78.0075" cy="116.324" rx="0.534387" ry="0.534426" fill="#1E1E1E"/>
<ellipse cx="82.0958" cy="126.351" rx="0.534387" ry="0.534426" fill="#1E1E1E"/>
<ellipse cx="47.895" cy="35.9259" rx="0.534387" ry="0.534426" fill="#1E1E1E"/>
<ellipse cx="49.6051" cy="38.2774" rx="0.534387" ry="0.534426" fill="#1E1E1E"/>
<ellipse cx="39.692" cy="53.3766" rx="0.534387" ry="0.534426" fill="#1E1E1E"/>
<ellipse cx="97.1654" cy="113.587" rx="0.534387" ry="0.534426" fill="#1E1E1E"/>
<ellipse cx="28.4433" cy="60.0818" rx="0.534387" ry="0.534426" fill="#1E1E1E"/>
<ellipse cx="27.802" cy="52.8138" rx="0.534387" ry="0.534426" fill="#1E1E1E"/>
<ellipse cx="62.6441" cy="25.2373" rx="0.534387" ry="0.534426" fill="#1E1E1E"/>
<ellipse cx="81.4545" cy="122.075" rx="0.320632" ry="0.320655" fill="#1E1E1E"/>
<ellipse cx="29.2983" cy="83.383" rx="0.534387" ry="0.534426" fill="#1E1E1E"/>
<ellipse cx="47.9025" cy="91.6924" rx="0.534387" ry="0.534426" fill="#1E1E1E"/>
<ellipse cx="71.8355" cy="122.075" rx="0.748142" ry="0.748196" fill="#1E1E1E"/>
<ellipse cx="57.5139" cy="109.677" rx="0.748142" ry="0.748196" fill="#1E1E1E"/>
<ellipse cx="47.4675" cy="113.097" rx="0.748142" ry="0.748196" fill="#1E1E1E"/>
<ellipse cx="49.3913" cy="97.278" rx="0.748142" ry="0.748196" fill="#1E1E1E"/>
<ellipse cx="38.0624" cy="105.829" rx="0.748142" ry="0.748196" fill="#1E1E1E"/>
<ellipse cx="38.0624" cy="40.8427" rx="0.748142" ry="0.748196" fill="#1E1E1E"/>
<ellipse cx="62.0028" cy="29.299" rx="0.748142" ry="0.748196" fill="#1E1E1E"/>
</g>
<path d="M74.7207 20C84.2626 20 93.2339 22.4435 101.044 26.7373C97.4861 25.9129 93.7606 25.4736 89.9238 25.4736C64.91 25.474 44.6321 44.0888 44.6318 67.0518C44.6318 90.0149 64.9098 108.631 89.9238 108.631C105.255 108.631 118.806 101.636 127.001 90.9346C120.093 113.244 99.2993 129.45 74.7207 129.45C44.4994 129.45 20.0002 104.949 20 74.7256C20 44.5019 44.4993 20.0003 74.7207 20Z" fill="#D9D9D9"/>
<path d="M55.5787 96.6318L56.2561 98.6913L58.3156 99.3687L56.2561 100.046L55.5787 102.106L54.9014 100.046L52.8419 99.3687L54.9014 98.6913L55.5787 96.6318Z" fill="black"/>
<path d="M30.9473 66.5265L31.6246 69.6158L33.6841 70.6318L31.6246 71.6478L30.9473 74.737L30.2699 71.6478L28.2104 70.6318L30.2699 69.6158L30.9473 66.5265Z" fill="black"/>
<path d="M44.6313 36.4211L45.9859 41.5699L50.1049 43.2633L45.9859 44.9566L44.6313 50.1054L43.2766 44.9566L39.1577 43.2633L43.2766 41.5699L44.6313 36.4211Z" fill="black"/>
<path d="M42.658 70.8774L43.1341 72.8078L44.5818 73.4427L43.1341 74.0776L42.658 76.0079L42.1819 74.0776L40.7342 73.4427L42.1819 72.8078L42.658 70.8774Z" fill="black"/>
<path d="M37.7894 85.6843L39.4828 90.8331L44.6315 92.5264L39.4828 94.2198L37.7894 99.3686L36.0961 94.2198L30.9474 92.5264L36.0961 90.8331L37.7894 85.6843Z" fill="black"/>
<path d="M61.0522 110.316L62.4069 114.435L66.5259 115.79L62.4069 117.144L61.0522 121.263L59.6976 117.144L55.5786 115.79L59.6976 114.435L61.0522 110.316Z" fill="black"/>
<path d="M66.5987 25.7719L67.0748 27.4609L68.5225 28.0164L67.0748 28.5719L66.5987 30.261L66.1225 28.5719L64.6749 28.0164L66.1225 27.4609L66.5987 25.7719Z" fill="black"/>
<path d="M77.4732 118.526L78.1505 121.616L80.21 122.632L78.1505 123.648L77.4732 126.737L76.7959 123.648L74.7364 122.632L76.7959 121.616L77.4732 118.526Z" fill="black"/>
<path d="M41.8945 99.3685L42.5718 102.458L44.6313 103.474L42.5718 104.49L41.8945 107.579L41.2171 104.49L39.1577 103.474L41.2171 102.458L41.8945 99.3685Z" fill="black"/>
<path d="M30.9473 47.3685L31.6246 49.428L33.6841 50.1053L31.6246 50.7827L30.9473 52.8422L30.2699 50.7827L28.2104 50.1053L30.2699 49.428L30.9473 47.3685Z" fill="black"/>
<ellipse cx="94.6422" cy="116.538" rx="0.748142" ry="0.748196" fill="#1E1E1E"/>
<ellipse cx="32.7184" cy="58.7994" rx="0.748142" ry="0.748196" fill="#1E1E1E"/>
<path d="M30.1533 87.4445C30.1533 87.8577 29.8183 88.1927 29.4051 88.1927C28.9919 88.1927 28.657 87.8577 28.657 87.4445C28.657 87.0313 28.9919 86.6963 29.4051 86.6963C29.8183 86.6963 30.1533 87.0313 30.1533 87.4445Z" fill="#1E1E1E"/>
<ellipse cx="40.4136" cy="70.3429" rx="0.534387" ry="0.534426" fill="#1E1E1E"/>
<ellipse cx="26.008" cy="72.5344" rx="0.534387" ry="0.534426" fill="#1E1E1E"/>
<ellipse cx="37.6347" cy="47.4695" rx="0.534387" ry="0.534426" fill="#1E1E1E"/>
<ellipse cx="43.62" cy="109.249" rx="0.534387" ry="0.534426" fill="#1E1E1E"/>
<ellipse cx="57.9414" cy="118.441" rx="0.534387" ry="0.534426" fill="#1E1E1E"/>
<ellipse cx="78.0075" cy="116.324" rx="0.534387" ry="0.534426" fill="#1E1E1E"/>
<ellipse cx="82.0958" cy="126.351" rx="0.534387" ry="0.534426" fill="#1E1E1E"/>
<ellipse cx="47.895" cy="35.9259" rx="0.534387" ry="0.534426" fill="#1E1E1E"/>
<ellipse cx="49.6051" cy="38.2774" rx="0.534387" ry="0.534426" fill="#1E1E1E"/>
<ellipse cx="39.692" cy="53.3766" rx="0.534387" ry="0.534426" fill="#1E1E1E"/>
<ellipse cx="97.1654" cy="113.587" rx="0.534387" ry="0.534426" fill="#1E1E1E"/>
<ellipse cx="28.4433" cy="60.0818" rx="0.534387" ry="0.534426" fill="#1E1E1E"/>
<ellipse cx="27.802" cy="52.8138" rx="0.534387" ry="0.534426" fill="#1E1E1E"/>
<ellipse cx="62.6441" cy="25.2373" rx="0.534387" ry="0.534426" fill="#1E1E1E"/>
<ellipse cx="81.4545" cy="122.075" rx="0.320632" ry="0.320655" fill="#1E1E1E"/>
<ellipse cx="29.2983" cy="83.383" rx="0.534387" ry="0.534426" fill="#1E1E1E"/>
<ellipse cx="47.9025" cy="91.6924" rx="0.534387" ry="0.534426" fill="#1E1E1E"/>
<ellipse cx="71.8355" cy="122.075" rx="0.748142" ry="0.748196" fill="#1E1E1E"/>
<ellipse cx="57.5139" cy="109.677" rx="0.748142" ry="0.748196" fill="#1E1E1E"/>
<ellipse cx="47.4675" cy="113.097" rx="0.748142" ry="0.748196" fill="#1E1E1E"/>
<ellipse cx="49.3913" cy="97.278" rx="0.748142" ry="0.748196" fill="#1E1E1E"/>
<ellipse cx="38.0624" cy="105.829" rx="0.748142" ry="0.748196" fill="#1E1E1E"/>
<ellipse cx="38.0624" cy="40.8427" rx="0.748142" ry="0.748196" fill="#1E1E1E"/>
<ellipse cx="62.0028" cy="29.299" rx="0.748142" ry="0.748196" fill="#1E1E1E"/>
<defs>
<filter id="filter0_f_2_105" x="0" y="0" width="147.001" height="149.45" filterUnits="userSpaceOnUse" color-interpolation-filters="sRGB">
<feFlood flood-opacity="0" result="BackgroundImageFix"/>
<feBlend mode="normal" in="SourceGraphic" in2="BackgroundImageFix" result="shape"/>
<feGaussianBlur stdDeviation="10" result="effect1_foregroundBlur_2_105"/>
</filter>
<filter id="filter1_f_2_105" x="17.5" y="17.5" width="112.001" height="114.45" filterUnits="userSpaceOnUse" color-interpolation-filters="sRGB">
<feFlood flood-opacity="0" result="BackgroundImageFix"/>
<feBlend mode="normal" in="SourceGraphic" in2="BackgroundImageFix" result="shape"/>
<feGaussianBlur stdDeviation="1.25" result="effect1_foregroundBlur_2_105"/>
</filter>
</defs>
</svg>
