<svg width="243" height="67" viewBox="0 0 243 67" fill="none" xmlns="http://www.w3.org/2000/svg">
<path d="M63.1656 43.9703C63.1656 44.6422 63.1969 45.111 63.2594 45.3766C63.3219 45.6344 63.4391 45.8336 63.611 45.9742C63.7906 46.1071 64.0797 46.2242 64.4781 46.3258V46.9H59.8258V46.3258C60.2164 46.2242 60.486 46.1188 60.6344 46.0094C60.7906 45.9 60.9 45.7711 60.9625 45.6227C61.0328 45.4664 61.0797 45.2594 61.1031 45.0016C61.1344 44.736 61.15 44.3922 61.15 43.9703V34.1617C61.15 33.4117 61.1422 32.8883 61.1266 32.5914C61.1188 32.2946 61.0875 32.0446 61.0328 31.8414C60.986 31.6305 60.9156 31.4664 60.8219 31.3492C60.736 31.2321 60.6149 31.1383 60.4586 31.068C60.3102 30.9977 60.0367 30.9274 59.6383 30.8571V30.2477L62.4625 30.1305H63.1656V43.9703ZM78.6058 45.2242L78.43 45.1774C77.7503 45.8727 77.1097 46.3649 76.5082 46.6539C75.9144 46.943 75.2816 47.0875 74.6097 47.0875C74.016 47.0875 73.4925 46.9742 73.0394 46.7477C72.5863 46.5133 72.2386 46.1891 71.9964 45.775C71.7542 45.3531 71.6332 44.8688 71.6332 44.3219C71.6332 43.1813 72.1957 42.3024 73.3207 41.6852C74.4535 41.0602 76.1488 40.6969 78.4066 40.5953V39.8336C78.4066 39.0211 78.3285 38.3805 78.1722 37.9117C78.016 37.443 77.7699 37.0992 77.4339 36.8805C77.098 36.6617 76.6488 36.5524 76.0863 36.5524C75.4769 36.5524 74.9847 36.7125 74.6097 37.0328C74.2425 37.3531 73.9652 37.8336 73.7777 38.4742H72.2425V36.9508C72.9925 36.5602 73.6175 36.275 74.1175 36.0953C74.6175 35.9078 75.1175 35.7633 75.6175 35.6617C76.1175 35.5524 76.6253 35.4977 77.141 35.4977C77.9144 35.4977 78.5355 35.6227 79.0042 35.8727C79.473 36.1149 79.8246 36.4899 80.0589 36.9977C80.2933 37.5055 80.4105 38.2711 80.4105 39.2946V43.3727C80.4105 43.9508 80.4144 44.361 80.4222 44.6031C80.43 44.8375 80.4535 45.0563 80.4925 45.2594C80.5316 45.4625 80.5902 45.6266 80.6683 45.7516C80.7464 45.8688 80.8597 45.9703 81.0082 46.0563C81.1644 46.1422 81.4144 46.2321 81.7582 46.3258V46.9H78.5472L78.6058 45.2242ZM78.4066 41.5563C76.8207 41.5719 75.6332 41.7828 74.8441 42.1891C74.055 42.5953 73.6605 43.2086 73.6605 44.0289C73.6605 44.4742 73.7503 44.8258 73.93 45.0836C74.1097 45.3414 74.3363 45.5211 74.6097 45.6227C74.8832 45.7164 75.2074 45.7633 75.5824 45.7633C76.1136 45.7633 76.5941 45.6344 77.0238 45.3766C77.4613 45.1188 77.8011 44.7906 78.0433 44.3922C78.2855 43.9938 78.4066 43.5992 78.4066 43.2086V41.5563ZM96.6827 38.2633H95.5577C95.3858 37.7946 95.1827 37.4274 94.9483 37.1617C94.7139 36.8883 94.4483 36.6969 94.1514 36.5875C93.8546 36.4781 93.4913 36.4235 93.0616 36.4235C92.4366 36.4235 91.9366 36.5719 91.5616 36.8688C91.1944 37.1578 91.0108 37.5563 91.0108 38.0641C91.0108 38.4235 91.085 38.7203 91.2335 38.9547C91.3819 39.1891 91.6124 39.4078 91.9249 39.611C92.2374 39.8141 92.7882 40.0836 93.5772 40.4196C94.3741 40.7633 94.9874 41.0797 95.4171 41.3688C95.8546 41.6578 96.1944 41.9938 96.4366 42.3766C96.6866 42.7594 96.8116 43.2164 96.8116 43.7477C96.8116 44.3649 96.7061 44.8844 96.4952 45.3063C96.2842 45.7281 95.9874 46.0719 95.6046 46.3375C95.2217 46.6031 94.7647 46.7946 94.2335 46.9117C93.71 47.0289 93.1358 47.0875 92.5108 47.0875C91.8546 47.0875 91.2178 47.0367 90.6007 46.9352C89.9835 46.8414 89.3819 46.7164 88.796 46.5602V44.111H89.9444C90.1553 44.8297 90.4678 45.3531 90.8819 45.6813C91.296 46.0016 91.8663 46.1617 92.5928 46.1617C92.8741 46.1617 93.1475 46.1344 93.4132 46.0797C93.6866 46.0172 93.9288 45.9196 94.1397 45.7867C94.3507 45.6461 94.5186 45.4586 94.6436 45.2242C94.7686 44.9899 94.8311 44.6969 94.8311 44.3453C94.8311 43.9469 94.753 43.6227 94.5967 43.3727C94.4405 43.1227 94.1983 42.8961 93.8702 42.693C93.5421 42.4821 92.9639 42.2008 92.1358 41.8492C91.4249 41.5524 90.8546 41.2633 90.4249 40.9821C89.9952 40.7008 89.6553 40.3688 89.4053 39.986C89.1632 39.6031 89.0421 39.15 89.0421 38.6266C89.0421 37.986 89.2139 37.4313 89.5577 36.9625C89.9092 36.486 90.4132 36.1227 91.0694 35.8727C91.7257 35.6227 92.4952 35.4977 93.378 35.4977C93.8936 35.4977 94.3897 35.525 94.8663 35.5797C95.3507 35.6266 95.9561 35.7242 96.6827 35.8727V38.2633ZM112.275 38.2633H111.15C110.978 37.7946 110.775 37.4274 110.541 37.1617C110.306 36.8883 110.041 36.6969 109.744 36.5875C109.447 36.4781 109.084 36.4235 108.654 36.4235C108.029 36.4235 107.529 36.5719 107.154 36.8688C106.787 37.1578 106.603 37.5563 106.603 38.0641C106.603 38.4235 106.678 38.7203 106.826 38.9547C106.974 39.1891 107.205 39.4078 107.517 39.611C107.83 39.8141 108.381 40.0836 109.17 40.4196C109.967 40.7633 110.58 41.0797 111.01 41.3688C111.447 41.6578 111.787 41.9938 112.029 42.3766C112.279 42.7594 112.404 43.2164 112.404 43.7477C112.404 44.3649 112.299 44.8844 112.088 45.3063C111.877 45.7281 111.58 46.0719 111.197 46.3375C110.814 46.6031 110.357 46.7946 109.826 46.9117C109.303 47.0289 108.728 47.0875 108.103 47.0875C107.447 47.0875 106.81 47.0367 106.193 46.9352C105.576 46.8414 104.974 46.7164 104.388 46.5602V44.111H105.537C105.748 44.8297 106.06 45.3531 106.474 45.6813C106.888 46.0016 107.459 46.1617 108.185 46.1617C108.467 46.1617 108.74 46.1344 109.006 46.0797C109.279 46.0172 109.521 45.9196 109.732 45.7867C109.943 45.6461 110.111 45.4586 110.236 45.2242C110.361 44.9899 110.424 44.6969 110.424 44.3453C110.424 43.9469 110.345 43.6227 110.189 43.3727C110.033 43.1227 109.791 42.8961 109.463 42.693C109.135 42.4821 108.556 42.2008 107.728 41.8492C107.017 41.5524 106.447 41.2633 106.017 40.9821C105.588 40.7008 105.248 40.3688 104.998 39.986C104.756 39.6031 104.635 39.15 104.635 38.6266C104.635 37.986 104.806 37.4313 105.15 36.9625C105.502 36.486 106.006 36.1227 106.662 35.8727C107.318 35.6227 108.088 35.4977 108.97 35.4977C109.486 35.4977 109.982 35.525 110.459 35.5797C110.943 35.6266 111.549 35.7242 112.275 35.8727V38.2633ZM123.368 31.1031V33.3766H121.211V31.1031H123.368ZM120.016 46.3258C120.321 46.2321 120.536 46.15 120.661 46.0797C120.793 46.0094 120.903 45.9117 120.989 45.7867C121.083 45.6617 121.153 45.4703 121.2 45.2125C121.254 44.9547 121.282 44.5524 121.282 44.0055V38.8961C121.282 38.3961 121.274 37.9938 121.258 37.6891C121.243 37.3844 121.188 37.1422 121.094 36.9625C121 36.775 120.856 36.6383 120.661 36.5524C120.473 36.4586 120.204 36.3805 119.852 36.318V35.6969L122.583 35.5914H123.297V43.9703C123.297 44.6422 123.329 45.111 123.391 45.3766C123.454 45.6344 123.571 45.8336 123.743 45.9742C123.922 46.1071 124.211 46.2242 124.61 46.3258V46.9H120.016V46.3258ZM140.706 35.9664V38.4156H139.218C139.085 37.9078 138.921 37.5094 138.726 37.2203C138.53 36.9235 138.304 36.7164 138.046 36.5992C137.788 36.4821 137.468 36.4235 137.085 36.4235C136.538 36.4235 136.054 36.5992 135.632 36.9508C135.21 37.3024 134.874 37.8375 134.624 38.5563C134.382 39.275 134.261 40.1539 134.261 41.193C134.261 41.8571 134.308 42.4664 134.402 43.0211C134.495 43.568 134.655 44.0367 134.882 44.4274C135.109 44.818 135.409 45.1227 135.784 45.3414C136.159 45.5602 136.624 45.6696 137.179 45.6696C137.718 45.6696 138.218 45.5641 138.679 45.3531C139.148 45.1422 139.632 44.7711 140.132 44.2399L140.8 45.0133C140.402 45.4508 140.05 45.7906 139.745 46.0328C139.441 46.2672 139.113 46.4664 138.761 46.6305C138.417 46.7867 138.073 46.9 137.73 46.9703C137.394 47.0485 137.027 47.0875 136.628 47.0875C135.152 47.0875 134.023 46.5992 133.241 45.6227C132.46 44.6383 132.07 43.2203 132.07 41.3688C132.07 40.2125 132.288 39.1891 132.726 38.2985C133.163 37.4 133.777 36.7086 134.566 36.2242C135.355 35.7399 136.265 35.4977 137.296 35.4977C137.937 35.4977 138.527 35.5367 139.066 35.6149C139.613 35.6852 140.159 35.8024 140.706 35.9664ZM166.618 46.9V46.3258C167.008 46.2477 167.298 46.1617 167.485 46.068C167.68 45.9742 167.825 45.8453 167.919 45.6813C168.012 45.5094 168.059 45.2828 168.059 45.0016C168.059 44.736 168.028 44.4508 167.965 44.1461C167.903 43.8336 167.813 43.486 167.696 43.1031L167.262 41.5914H161.801L161.403 42.7399C161.2 43.318 161.067 43.7555 161.005 44.0524C160.942 44.3492 160.911 44.6188 160.911 44.861C160.911 45.3297 161.028 45.6735 161.262 45.8922C161.505 46.111 161.872 46.2555 162.364 46.3258V46.9H157.36V46.3258C157.798 46.2555 158.176 46.0016 158.497 45.5641C158.825 45.1266 159.141 44.5016 159.446 43.6891L164.333 30.7164H166.184L170.169 43.7828C170.356 44.3922 170.52 44.8571 170.661 45.1774C170.809 45.4977 170.985 45.7477 171.188 45.9274C171.391 46.1071 171.669 46.2399 172.02 46.3258V46.9H166.618ZM162.118 40.5719H167.016L164.79 33.0133L162.118 40.5719ZM187.495 43.5016V46.9H178.472V46.3258L184.894 36.6461H181.718C181.328 36.6461 181.019 36.7164 180.792 36.8571C180.566 36.9977 180.351 37.2321 180.148 37.5602C179.945 37.8883 179.749 38.3297 179.562 38.8844H178.542V35.6969H187.425V36.2828L181.015 45.9508H184.097C184.503 45.9508 184.808 45.9196 185.011 45.8571C185.214 45.7946 185.39 45.6969 185.538 45.5641C185.687 45.4235 185.831 45.2047 185.972 44.9078C186.113 44.611 186.281 44.1422 186.476 43.5016H187.495ZM198.002 37.5367L198.049 37.5485C198.658 36.9313 199.139 36.5016 199.49 36.2594C199.85 36.0094 200.201 35.8219 200.545 35.6969C200.897 35.5719 201.272 35.5094 201.67 35.5094C202.1 35.5094 202.483 35.5602 202.818 35.6617C203.154 35.7633 203.447 35.9196 203.697 36.1305C203.955 36.3336 204.162 36.5875 204.318 36.8922C204.483 37.1891 204.604 37.5485 204.682 37.9703C204.76 38.3844 204.799 38.9117 204.799 39.5524V43.9703C204.799 44.65 204.826 45.1149 204.881 45.3649C204.943 45.6071 205.049 45.7985 205.197 45.9391C205.354 46.0719 205.662 46.2008 206.123 46.3258V46.9H201.506V46.3258C201.811 46.2321 202.029 46.15 202.162 46.0797C202.295 46.0094 202.404 45.9117 202.49 45.7867C202.584 45.6617 202.654 45.4703 202.701 45.2125C202.756 44.9469 202.783 44.5485 202.783 44.0172V40.9469C202.783 39.9078 202.729 39.1149 202.619 38.568C202.518 38.0133 202.311 37.5992 201.998 37.3258C201.693 37.0524 201.264 36.9156 200.709 36.9156C200.397 36.9156 200.115 36.9703 199.865 37.0797C199.615 37.1891 199.326 37.3844 198.998 37.6656C198.67 37.9469 198.42 38.236 198.248 38.5328C198.084 38.8297 198.002 39.1461 198.002 39.4821V43.9703C198.002 44.5016 198.014 44.8805 198.037 45.1071C198.068 45.3336 198.123 45.525 198.201 45.6813C198.279 45.8297 198.397 45.9547 198.553 46.0563C198.717 46.15 198.967 46.2399 199.303 46.3258V46.9H194.662V46.3258C195.006 46.2321 195.252 46.1422 195.4 46.0563C195.549 45.9703 195.662 45.861 195.74 45.7281C195.826 45.5953 195.889 45.4039 195.928 45.1539C195.967 44.9039 195.986 44.5094 195.986 43.9703V34.1617C195.986 33.4117 195.979 32.8883 195.963 32.5914C195.955 32.2946 195.924 32.0446 195.869 31.8414C195.822 31.6305 195.752 31.4664 195.658 31.3492C195.572 31.2321 195.451 31.1383 195.295 31.068C195.147 30.9977 194.873 30.9274 194.475 30.8571V30.2477L197.299 30.1305H198.002V37.5367ZM220.157 45.2242L219.981 45.1774C219.302 45.8727 218.661 46.3649 218.059 46.6539C217.466 46.943 216.833 47.0875 216.161 47.0875C215.567 47.0875 215.044 46.9742 214.591 46.7477C214.138 46.5133 213.79 46.1891 213.548 45.775C213.305 45.3531 213.184 44.8688 213.184 44.3219C213.184 43.1813 213.747 42.3024 214.872 41.6852C216.005 41.0602 217.7 40.6969 219.958 40.5953V39.8336C219.958 39.0211 219.88 38.3805 219.723 37.9117C219.567 37.443 219.321 37.0992 218.985 36.8805C218.649 36.6617 218.2 36.5524 217.638 36.5524C217.028 36.5524 216.536 36.7125 216.161 37.0328C215.794 37.3531 215.516 37.8336 215.329 38.4742H213.794V36.9508C214.544 36.5602 215.169 36.275 215.669 36.0953C216.169 35.9078 216.669 35.7633 217.169 35.6617C217.669 35.5524 218.177 35.4977 218.692 35.4977C219.466 35.4977 220.087 35.6227 220.555 35.8727C221.024 36.1149 221.376 36.4899 221.61 36.9977C221.845 37.5055 221.962 38.2711 221.962 39.2946V43.3727C221.962 43.9508 221.966 44.361 221.973 44.6031C221.981 44.8375 222.005 45.0563 222.044 45.2594C222.083 45.4625 222.141 45.6266 222.22 45.7516C222.298 45.8688 222.411 45.9703 222.559 46.0563C222.716 46.1422 222.966 46.2321 223.309 46.3258V46.9H220.098L220.157 45.2242ZM219.958 41.5563C218.372 41.5719 217.184 41.7828 216.395 42.1891C215.606 42.5953 215.212 43.2086 215.212 44.0289C215.212 44.4742 215.302 44.8258 215.481 45.0836C215.661 45.3414 215.888 45.5211 216.161 45.6227C216.434 45.7164 216.759 45.7633 217.134 45.7633C217.665 45.7633 218.145 45.6344 218.575 45.3766C219.013 45.1188 219.352 44.7906 219.595 44.3922C219.837 43.9938 219.958 43.5992 219.958 43.2086V41.5563ZM241.796 46.9H237.179V46.3258C237.484 46.2321 237.703 46.15 237.835 46.0797C237.968 46.0094 238.078 45.9117 238.164 45.7867C238.257 45.6617 238.328 45.4703 238.375 45.2125C238.429 44.9469 238.457 44.5485 238.457 44.0172V40.9469C238.457 40.4 238.441 39.9039 238.41 39.4586C238.378 39.0133 238.324 38.65 238.246 38.3688C238.175 38.0797 238.085 37.8571 237.976 37.7008C237.875 37.5367 237.75 37.4 237.601 37.2906C237.46 37.1735 237.296 37.0836 237.109 37.0211C236.921 36.9508 236.675 36.9156 236.371 36.9156C236.066 36.9156 235.777 36.9781 235.503 37.1031C235.23 37.2203 234.929 37.4274 234.601 37.7242C234.273 38.0211 234.035 38.3141 233.886 38.6031C233.738 38.8922 233.664 39.2242 233.664 39.5992V43.9703C233.664 44.6422 233.695 45.111 233.757 45.3766C233.82 45.6344 233.937 45.8336 234.109 45.9742C234.289 46.1071 234.578 46.2242 234.976 46.3258V46.9H230.382V46.3258C230.687 46.2321 230.902 46.15 231.027 46.0797C231.16 46.0094 231.269 45.9117 231.355 45.7867C231.449 45.6617 231.519 45.4703 231.566 45.2125C231.621 44.9547 231.648 44.5524 231.648 44.0055V38.8961C231.648 38.3961 231.64 37.9938 231.625 37.6891C231.609 37.3844 231.554 37.1422 231.46 36.9625C231.367 36.775 231.222 36.6383 231.027 36.5524C230.839 36.4586 230.57 36.3805 230.218 36.318V35.6969L232.96 35.5914H233.675L233.546 37.5016L233.71 37.5485C234.289 36.9625 234.753 36.5446 235.105 36.2946C235.464 36.0446 235.824 35.8531 236.183 35.7203C236.55 35.5797 236.937 35.5094 237.343 35.5094C237.765 35.5094 238.14 35.5602 238.468 35.6617C238.804 35.7555 239.097 35.9039 239.347 36.1071C239.605 36.3102 239.816 36.5641 239.98 36.8688C240.144 37.1656 240.265 37.525 240.343 37.9469C240.429 38.3688 240.472 38.9039 240.472 39.5524V43.9703C240.472 44.5094 240.488 44.9 240.519 45.1422C240.55 45.3844 240.605 45.5719 240.683 45.7047C240.761 45.8375 240.875 45.9508 241.023 46.0446C241.171 46.1305 241.429 46.2242 241.796 46.3258V46.9Z" fill="white"/>
<g filter="url(#filter0_f_2_105)">
<path d="M33.3561 12.9C36.9224 12.9 40.2757 13.8131 43.1949 15.4176C41.8654 15.1097 40.4734 14.9459 39.0397 14.9459C29.689 14.9461 22.1085 21.9049 22.108 30.4889C22.108 39.0733 29.6887 46.0327 39.0397 46.0328C44.7717 46.0328 49.8367 43.4169 52.9 39.4156C50.318 47.7568 42.545 53.816 33.3561 53.816C22.0585 53.8158 12.9 44.6566 12.9 33.358C12.9001 22.0595 22.0585 12.9003 33.3561 12.9Z" fill="#D9D9D9"/>
<path d="M26.2005 41.5476L26.4537 42.3175L27.2236 42.5707L26.4537 42.8239L26.2005 43.5939L25.9473 42.8239L25.1774 42.5707L25.9473 42.3175L26.2005 41.5476Z" fill="black"/>
<path d="M16.9925 30.2932L17.2457 31.4481L18.0156 31.8279L17.2457 32.2077L16.9925 33.3626L16.7393 32.2077L15.9694 31.8279L16.7393 31.4481L16.9925 30.2932Z" fill="black"/>
<path d="M22.108 19.0388L22.6144 20.9636L24.1542 21.5966L22.6144 22.2297L22.108 24.1545L21.6016 22.2297L20.0618 21.5966L21.6016 20.9636L22.108 19.0388Z" fill="black"/>
<path d="M21.3703 31.9197L21.5483 32.6414L22.0895 32.8787L21.5483 33.116L21.3703 33.8377L21.1923 33.116L20.6511 32.8787L21.1923 32.6414L21.3703 31.9197Z" fill="black"/>
<path d="M19.5503 37.4551L20.1833 39.3799L22.108 40.0129L20.1833 40.6459L19.5503 42.5707L18.9172 40.6459L16.9925 40.0129L18.9172 39.3799L19.5503 37.4551Z" fill="black"/>
<path d="M28.2467 46.6632L28.7531 48.203L30.2929 48.7095L28.7531 49.2159L28.2467 50.7557L27.7402 49.2159L26.2004 48.7095L27.7402 48.203L28.2467 46.6632Z" fill="black"/>
<path d="M30.3201 15.0577L30.4981 15.6892L31.0392 15.8968L30.4981 16.1045L30.3201 16.7359L30.1421 16.1045L29.6009 15.8968L30.1421 15.6892L30.3201 15.0577Z" fill="black"/>
<path d="M34.3854 49.7326L34.6386 50.8875L35.4085 51.2673L34.6386 51.6471L34.3854 52.802L34.1321 51.6471L33.3622 51.2673L34.1321 50.8875L34.3854 49.7326Z" fill="black"/>
<path d="M21.0849 42.5707L21.3381 43.7256L22.108 44.1054L21.3381 44.4852L21.0849 45.6401L20.8317 44.4852L20.0618 44.1054L20.8317 43.7256L21.0849 42.5707Z" fill="black"/>
<path d="M16.9925 23.1313L17.2457 23.9012L18.0156 24.1544L17.2457 24.4076L16.9925 25.1775L16.7393 24.4076L15.9694 24.1544L16.7393 23.9012L16.9925 23.1313Z" fill="black"/>
<ellipse cx="40.8037" cy="48.9892" rx="0.279679" ry="0.279701" fill="#1E1E1E"/>
<ellipse cx="17.6546" cy="27.4046" rx="0.279679" ry="0.279701" fill="#1E1E1E"/>
<path d="M16.6956 38.1131C16.6956 38.2676 16.5704 38.3928 16.416 38.3928C16.2615 38.3928 16.1363 38.2676 16.1363 38.1131C16.1363 37.9586 16.2615 37.8334 16.416 37.8334C16.5704 37.8334 16.6956 37.9586 16.6956 38.1131Z" fill="#1E1E1E"/>
<ellipse cx="20.5313" cy="31.7199" rx="0.199771" ry="0.199787" fill="#1E1E1E"/>
<ellipse cx="15.146" cy="32.5392" rx="0.199771" ry="0.199787" fill="#1E1E1E"/>
<ellipse cx="19.4924" cy="23.1691" rx="0.199771" ry="0.199787" fill="#1E1E1E"/>
<ellipse cx="21.7299" cy="46.2644" rx="0.199771" ry="0.199787" fill="#1E1E1E"/>
<ellipse cx="27.0837" cy="49.7008" rx="0.199771" ry="0.199787" fill="#1E1E1E"/>
<ellipse cx="34.5851" cy="48.9093" rx="0.199771" ry="0.199787" fill="#1E1E1E"/>
<ellipse cx="36.1134" cy="52.6576" rx="0.199771" ry="0.199787" fill="#1E1E1E"/>
<ellipse cx="23.3281" cy="18.8537" rx="0.199771" ry="0.199787" fill="#1E1E1E"/>
<ellipse cx="23.9673" cy="19.7327" rx="0.199771" ry="0.199787" fill="#1E1E1E"/>
<ellipse cx="20.2615" cy="25.3773" rx="0.199771" ry="0.199787" fill="#1E1E1E"/>
<ellipse cx="41.7469" cy="47.8861" rx="0.199771" ry="0.199787" fill="#1E1E1E"/>
<ellipse cx="16.0564" cy="27.884" rx="0.199771" ry="0.199787" fill="#1E1E1E"/>
<ellipse cx="15.8167" cy="25.167" rx="0.199771" ry="0.199787" fill="#1E1E1E"/>
<ellipse cx="28.8417" cy="14.8579" rx="0.199771" ry="0.199787" fill="#1E1E1E"/>
<ellipse cx="35.8736" cy="51.0593" rx="0.119862" ry="0.119872" fill="#1E1E1E"/>
<ellipse cx="16.376" cy="36.5947" rx="0.199771" ry="0.199787" fill="#1E1E1E"/>
<ellipse cx="23.3309" cy="39.7011" rx="0.199771" ry="0.199787" fill="#1E1E1E"/>
<ellipse cx="32.2778" cy="51.0592" rx="0.279679" ry="0.279701" fill="#1E1E1E"/>
<ellipse cx="26.9239" cy="46.4242" rx="0.279679" ry="0.279701" fill="#1E1E1E"/>
<ellipse cx="23.1682" cy="47.7029" rx="0.279679" ry="0.279701" fill="#1E1E1E"/>
<ellipse cx="23.8874" cy="41.7892" rx="0.279679" ry="0.279701" fill="#1E1E1E"/>
<ellipse cx="19.6523" cy="44.9858" rx="0.279679" ry="0.279701" fill="#1E1E1E"/>
<ellipse cx="19.6523" cy="20.6917" rx="0.279679" ry="0.279701" fill="#1E1E1E"/>
<ellipse cx="28.602" cy="16.3763" rx="0.279679" ry="0.279701" fill="#1E1E1E"/>
</g>
<path d="M33.3561 12.9C36.9224 12.9 40.2757 13.8131 43.1949 15.4176C41.8654 15.1097 40.4734 14.9459 39.0397 14.9459C29.689 14.9461 22.1085 21.9049 22.108 30.4889C22.108 39.0733 29.6887 46.0327 39.0397 46.0328C44.7717 46.0328 49.8367 43.4169 52.9 39.4156C50.318 47.7568 42.545 53.816 33.3561 53.816C22.0585 53.8158 12.9 44.6566 12.9 33.358C12.9001 22.0595 22.0585 12.9003 33.3561 12.9Z" fill="#D9D9D9"/>
<path d="M26.2005 41.5476L26.4537 42.3175L27.2236 42.5707L26.4537 42.8239L26.2005 43.5939L25.9473 42.8239L25.1774 42.5707L25.9473 42.3175L26.2005 41.5476Z" fill="black"/>
<path d="M16.9925 30.2932L17.2457 31.4481L18.0156 31.8279L17.2457 32.2077L16.9925 33.3626L16.7393 32.2077L15.9694 31.8279L16.7393 31.4481L16.9925 30.2932Z" fill="black"/>
<path d="M22.108 19.0388L22.6144 20.9636L24.1542 21.5966L22.6144 22.2297L22.108 24.1545L21.6016 22.2297L20.0618 21.5966L21.6016 20.9636L22.108 19.0388Z" fill="black"/>
<path d="M21.3703 31.9197L21.5483 32.6414L22.0895 32.8787L21.5483 33.116L21.3703 33.8377L21.1923 33.116L20.6511 32.8787L21.1923 32.6414L21.3703 31.9197Z" fill="black"/>
<path d="M19.5503 37.4551L20.1833 39.3799L22.108 40.0129L20.1833 40.6459L19.5503 42.5707L18.9172 40.6459L16.9925 40.0129L18.9172 39.3799L19.5503 37.4551Z" fill="black"/>
<path d="M28.2467 46.6632L28.7531 48.203L30.2929 48.7095L28.7531 49.2159L28.2467 50.7557L27.7402 49.2159L26.2004 48.7095L27.7402 48.203L28.2467 46.6632Z" fill="black"/>
<path d="M30.3201 15.0577L30.4981 15.6892L31.0392 15.8968L30.4981 16.1045L30.3201 16.7359L30.1421 16.1045L29.6009 15.8968L30.1421 15.6892L30.3201 15.0577Z" fill="black"/>
<path d="M34.3854 49.7326L34.6386 50.8875L35.4085 51.2673L34.6386 51.6471L34.3854 52.802L34.1321 51.6471L33.3622 51.2673L34.1321 50.8875L34.3854 49.7326Z" fill="black"/>
<path d="M21.0849 42.5707L21.3381 43.7256L22.108 44.1054L21.3381 44.4852L21.0849 45.6401L20.8317 44.4852L20.0618 44.1054L20.8317 43.7256L21.0849 42.5707Z" fill="black"/>
<path d="M16.9925 23.1313L17.2457 23.9012L18.0156 24.1544L17.2457 24.4076L16.9925 25.1775L16.7393 24.4076L15.9694 24.1544L16.7393 23.9012L16.9925 23.1313Z" fill="black"/>
<ellipse cx="40.8037" cy="48.9892" rx="0.279679" ry="0.279701" fill="#1E1E1E"/>
<ellipse cx="17.6546" cy="27.4046" rx="0.279679" ry="0.279701" fill="#1E1E1E"/>
<path d="M16.6956 38.1131C16.6956 38.2676 16.5704 38.3928 16.416 38.3928C16.2615 38.3928 16.1363 38.2676 16.1363 38.1131C16.1363 37.9586 16.2615 37.8334 16.416 37.8334C16.5704 37.8334 16.6956 37.9586 16.6956 38.1131Z" fill="#1E1E1E"/>
<ellipse cx="20.5313" cy="31.7199" rx="0.199771" ry="0.199787" fill="#1E1E1E"/>
<ellipse cx="15.146" cy="32.5392" rx="0.199771" ry="0.199787" fill="#1E1E1E"/>
<ellipse cx="19.4924" cy="23.1691" rx="0.199771" ry="0.199787" fill="#1E1E1E"/>
<ellipse cx="21.7299" cy="46.2644" rx="0.199771" ry="0.199787" fill="#1E1E1E"/>
<ellipse cx="27.0837" cy="49.7008" rx="0.199771" ry="0.199787" fill="#1E1E1E"/>
<ellipse cx="34.5851" cy="48.9093" rx="0.199771" ry="0.199787" fill="#1E1E1E"/>
<ellipse cx="36.1134" cy="52.6576" rx="0.199771" ry="0.199787" fill="#1E1E1E"/>
<ellipse cx="23.3281" cy="18.8537" rx="0.199771" ry="0.199787" fill="#1E1E1E"/>
<ellipse cx="23.9673" cy="19.7327" rx="0.199771" ry="0.199787" fill="#1E1E1E"/>
<ellipse cx="20.2615" cy="25.3773" rx="0.199771" ry="0.199787" fill="#1E1E1E"/>
<ellipse cx="41.7469" cy="47.8861" rx="0.199771" ry="0.199787" fill="#1E1E1E"/>
<ellipse cx="16.0564" cy="27.884" rx="0.199771" ry="0.199787" fill="#1E1E1E"/>
<ellipse cx="15.8167" cy="25.167" rx="0.199771" ry="0.199787" fill="#1E1E1E"/>
<ellipse cx="28.8417" cy="14.8579" rx="0.199771" ry="0.199787" fill="#1E1E1E"/>
<ellipse cx="35.8736" cy="51.0593" rx="0.119862" ry="0.119872" fill="#1E1E1E"/>
<ellipse cx="16.376" cy="36.5947" rx="0.199771" ry="0.199787" fill="#1E1E1E"/>
<ellipse cx="23.3309" cy="39.7011" rx="0.199771" ry="0.199787" fill="#1E1E1E"/>
<ellipse cx="32.2778" cy="51.0592" rx="0.279679" ry="0.279701" fill="#1E1E1E"/>
<ellipse cx="26.9239" cy="46.4242" rx="0.279679" ry="0.279701" fill="#1E1E1E"/>
<ellipse cx="23.1682" cy="47.7029" rx="0.279679" ry="0.279701" fill="#1E1E1E"/>
<ellipse cx="23.8874" cy="41.7892" rx="0.279679" ry="0.279701" fill="#1E1E1E"/>
<ellipse cx="19.6523" cy="44.9858" rx="0.279679" ry="0.279701" fill="#1E1E1E"/>
<ellipse cx="19.6523" cy="20.6917" rx="0.279679" ry="0.279701" fill="#1E1E1E"/>
<ellipse cx="28.602" cy="16.3763" rx="0.279679" ry="0.279701" fill="#1E1E1E"/>
<defs>
<filter id="filter0_f_2_105" x="2.47955e-05" y="2.47955e-05" width="65.8" height="66.716" filterUnits="userSpaceOnUse" color-interpolation-filters="sRGB">
<feFlood flood-opacity="0" result="BackgroundImageFix"/>
<feBlend mode="normal" in="SourceGraphic" in2="BackgroundImageFix" result="shape"/>
<feGaussianBlur stdDeviation="6.45" result="effect1_foregroundBlur_2_105"/>
</filter>
</defs>
</svg>
