<svg width="228" height="40" viewBox="0 0 228 40" fill="none" xmlns="http://www.w3.org/2000/svg">
<path d="M48.2656 24.0703C48.2656 24.7422 48.2969 25.2109 48.3594 25.4766C48.4219 25.7344 48.5391 25.9336 48.7109 26.0742C48.8906 26.207 49.1797 26.3242 49.5781 26.4258V27H44.9258V26.4258C45.3164 26.3242 45.5859 26.2188 45.7344 26.1094C45.8906 26 46 25.8711 46.0625 25.7227C46.1328 25.5664 46.1797 25.3594 46.2031 25.1016C46.2344 24.8359 46.25 24.4922 46.25 24.0703V14.2617C46.25 13.5117 46.2422 12.9883 46.2266 12.6914C46.2188 12.3945 46.1875 12.1445 46.1328 11.9414C46.0859 11.7305 46.0156 11.5664 45.9219 11.4492C45.8359 11.332 45.7148 11.2383 45.5586 11.168C45.4102 11.0977 45.1367 11.0273 44.7383 10.957V10.3477L47.5625 10.2305H48.2656V24.0703ZM63.7058 25.3242L63.53 25.2773C62.8503 25.9727 62.2097 26.4648 61.6081 26.7539C61.0144 27.043 60.3816 27.1875 59.7097 27.1875C59.1159 27.1875 58.5925 27.0742 58.1394 26.8477C57.6863 26.6133 57.3386 26.2891 57.0964 25.875C56.8542 25.4531 56.7331 24.9688 56.7331 24.4219C56.7331 23.2812 57.2956 22.4023 58.4206 21.7852C59.5534 21.1602 61.2488 20.7969 63.5066 20.6953V19.9336C63.5066 19.1211 63.4284 18.4805 63.2722 18.0117C63.1159 17.543 62.8698 17.1992 62.5339 16.9805C62.198 16.7617 61.7488 16.6523 61.1863 16.6523C60.5769 16.6523 60.0847 16.8125 59.7097 17.1328C59.3425 17.4531 59.0652 17.9336 58.8777 18.5742H57.3425V17.0508C58.0925 16.6602 58.7175 16.375 59.2175 16.1953C59.7175 16.0078 60.2175 15.8633 60.7175 15.7617C61.2175 15.6523 61.7253 15.5977 62.2409 15.5977C63.0144 15.5977 63.6355 15.7227 64.1042 15.9727C64.573 16.2148 64.9245 16.5898 65.1589 17.0977C65.3933 17.6055 65.5105 18.3711 65.5105 19.3945V23.4727C65.5105 24.0508 65.5144 24.4609 65.5222 24.7031C65.53 24.9375 65.5534 25.1562 65.5925 25.3594C65.6316 25.5625 65.6902 25.7266 65.7683 25.8516C65.8464 25.9688 65.9597 26.0703 66.1081 26.1562C66.2644 26.2422 66.5144 26.332 66.8581 26.4258V27H63.6472L63.7058 25.3242ZM63.5066 21.6562C61.9206 21.6719 60.7331 21.8828 59.9441 22.2891C59.155 22.6953 58.7605 23.3086 58.7605 24.1289C58.7605 24.5742 58.8503 24.9258 59.03 25.1836C59.2097 25.4414 59.4363 25.6211 59.7097 25.7227C59.9831 25.8164 60.3073 25.8633 60.6823 25.8633C61.2136 25.8633 61.6941 25.7344 62.1238 25.4766C62.5613 25.2188 62.9011 24.8906 63.1433 24.4922C63.3855 24.0938 63.5066 23.6992 63.5066 23.3086V21.6562ZM81.7827 18.3633H80.6577C80.4858 17.8945 80.2827 17.5273 80.0483 17.2617C79.8139 16.9883 79.5483 16.7969 79.2514 16.6875C78.9545 16.5781 78.5913 16.5234 78.1616 16.5234C77.5366 16.5234 77.0366 16.6719 76.6616 16.9688C76.2944 17.2578 76.1108 17.6562 76.1108 18.1641C76.1108 18.5234 76.185 18.8203 76.3334 19.0547C76.4819 19.2891 76.7123 19.5078 77.0248 19.7109C77.3373 19.9141 77.8881 20.1836 78.6772 20.5195C79.4741 20.8633 80.0873 21.1797 80.517 21.4688C80.9545 21.7578 81.2944 22.0938 81.5366 22.4766C81.7866 22.8594 81.9116 23.3164 81.9116 23.8477C81.9116 24.4648 81.8061 24.9844 81.5952 25.4062C81.3842 25.8281 81.0873 26.1719 80.7045 26.4375C80.3217 26.7031 79.8647 26.8945 79.3334 27.0117C78.81 27.1289 78.2358 27.1875 77.6108 27.1875C76.9545 27.1875 76.3178 27.1367 75.7006 27.0352C75.0834 26.9414 74.4819 26.8164 73.8959 26.6602V24.2109H75.0444C75.2553 24.9297 75.5678 25.4531 75.9819 25.7812C76.3959 26.1016 76.9663 26.2617 77.6928 26.2617C77.9741 26.2617 78.2475 26.2344 78.5131 26.1797C78.7866 26.1172 79.0288 26.0195 79.2397 25.8867C79.4506 25.7461 79.6186 25.5586 79.7436 25.3242C79.8686 25.0898 79.9311 24.7969 79.9311 24.4453C79.9311 24.0469 79.853 23.7227 79.6967 23.4727C79.5405 23.2227 79.2983 22.9961 78.9702 22.793C78.642 22.582 78.0639 22.3008 77.2358 21.9492C76.5248 21.6523 75.9545 21.3633 75.5248 21.082C75.0952 20.8008 74.7553 20.4688 74.5053 20.0859C74.2631 19.7031 74.142 19.25 74.142 18.7266C74.142 18.0859 74.3139 17.5312 74.6577 17.0625C75.0092 16.5859 75.5131 16.2227 76.1694 15.9727C76.8256 15.7227 77.5952 15.5977 78.478 15.5977C78.9936 15.5977 79.4897 15.625 79.9663 15.6797C80.4506 15.7266 81.0561 15.8242 81.7827 15.9727V18.3633ZM97.3752 18.3633H96.2502C96.0783 17.8945 95.8752 17.5273 95.6408 17.2617C95.4064 16.9883 95.1408 16.7969 94.8439 16.6875C94.547 16.5781 94.1838 16.5234 93.7541 16.5234C93.1291 16.5234 92.6291 16.6719 92.2541 16.9688C91.8869 17.2578 91.7033 17.6562 91.7033 18.1641C91.7033 18.5234 91.7775 18.8203 91.9259 19.0547C92.0744 19.2891 92.3048 19.5078 92.6173 19.7109C92.9298 19.9141 93.4806 20.1836 94.2697 20.5195C95.0666 20.8633 95.6798 21.1797 96.1095 21.4688C96.547 21.7578 96.8869 22.0938 97.1291 22.4766C97.3791 22.8594 97.5041 23.3164 97.5041 23.8477C97.5041 24.4648 97.3986 24.9844 97.1877 25.4062C96.9767 25.8281 96.6798 26.1719 96.297 26.4375C95.9142 26.7031 95.4572 26.8945 94.9259 27.0117C94.4025 27.1289 93.8283 27.1875 93.2033 27.1875C92.547 27.1875 91.9103 27.1367 91.2931 27.0352C90.6759 26.9414 90.0744 26.8164 89.4884 26.6602V24.2109H90.6369C90.8478 24.9297 91.1603 25.4531 91.5744 25.7812C91.9884 26.1016 92.5588 26.2617 93.2853 26.2617C93.5666 26.2617 93.84 26.2344 94.1056 26.1797C94.3791 26.1172 94.6213 26.0195 94.8322 25.8867C95.0431 25.7461 95.2111 25.5586 95.3361 25.3242C95.4611 25.0898 95.5236 24.7969 95.5236 24.4453C95.5236 24.0469 95.4455 23.7227 95.2892 23.4727C95.133 23.2227 94.8908 22.9961 94.5627 22.793C94.2345 22.582 93.6564 22.3008 92.8283 21.9492C92.1173 21.6523 91.547 21.3633 91.1173 21.082C90.6877 20.8008 90.3478 20.4688 90.0978 20.0859C89.8556 19.7031 89.7345 19.25 89.7345 18.7266C89.7345 18.0859 89.9064 17.5312 90.2502 17.0625C90.6017 16.5859 91.1056 16.2227 91.7619 15.9727C92.4181 15.7227 93.1877 15.5977 94.0705 15.5977C94.5861 15.5977 95.0822 15.625 95.5588 15.6797C96.0431 15.7266 96.6486 15.8242 97.3752 15.9727V18.3633ZM108.468 11.2031V13.4766H106.311V11.2031H108.468ZM105.116 26.4258C105.421 26.332 105.636 26.25 105.761 26.1797C105.893 26.1094 106.003 26.0117 106.089 25.8867C106.183 25.7617 106.253 25.5703 106.3 25.3125C106.354 25.0547 106.382 24.6523 106.382 24.1055V18.9961C106.382 18.4961 106.374 18.0938 106.358 17.7891C106.343 17.4844 106.288 17.2422 106.194 17.0625C106.1 16.875 105.956 16.7383 105.761 16.6523C105.573 16.5586 105.304 16.4805 104.952 16.418V15.7969L107.683 15.6914H108.397V24.0703C108.397 24.7422 108.429 25.2109 108.491 25.4766C108.554 25.7344 108.671 25.9336 108.843 26.0742C109.022 26.207 109.311 26.3242 109.71 26.4258V27H105.116V26.4258ZM125.806 16.0664V18.5156H124.318C124.185 18.0078 124.021 17.6094 123.826 17.3203C123.63 17.0234 123.404 16.8164 123.146 16.6992C122.888 16.582 122.568 16.5234 122.185 16.5234C121.638 16.5234 121.154 16.6992 120.732 17.0508C120.31 17.4023 119.974 17.9375 119.724 18.6562C119.482 19.375 119.361 20.2539 119.361 21.293C119.361 21.957 119.408 22.5664 119.502 23.1211C119.595 23.668 119.755 24.1367 119.982 24.5273C120.209 24.918 120.509 25.2227 120.884 25.4414C121.259 25.6602 121.724 25.7695 122.279 25.7695C122.818 25.7695 123.318 25.6641 123.779 25.4531C124.248 25.2422 124.732 24.8711 125.232 24.3398L125.9 25.1133C125.502 25.5508 125.15 25.8906 124.845 26.1328C124.541 26.3672 124.213 26.5664 123.861 26.7305C123.517 26.8867 123.173 27 122.83 27.0703C122.494 27.1484 122.127 27.1875 121.728 27.1875C120.252 27.1875 119.123 26.6992 118.341 25.7227C117.56 24.7383 117.17 23.3203 117.17 21.4688C117.17 20.3125 117.388 19.2891 117.826 18.3984C118.263 17.5 118.877 16.8086 119.666 16.3242C120.455 15.8398 121.365 15.5977 122.396 15.5977C123.037 15.5977 123.627 15.6367 124.166 15.7148C124.713 15.7852 125.259 15.9023 125.806 16.0664ZM151.718 27V26.4258C152.108 26.3477 152.397 26.2617 152.585 26.168C152.78 26.0742 152.925 25.9453 153.019 25.7812C153.112 25.6094 153.159 25.3828 153.159 25.1016C153.159 24.8359 153.128 24.5508 153.065 24.2461C153.003 23.9336 152.913 23.5859 152.796 23.2031L152.362 21.6914H146.901L146.503 22.8398C146.3 23.418 146.167 23.8555 146.105 24.1523C146.042 24.4492 146.011 24.7188 146.011 24.9609C146.011 25.4297 146.128 25.7734 146.362 25.9922C146.605 26.2109 146.972 26.3555 147.464 26.4258V27H142.46V26.4258C142.897 26.3555 143.276 26.1016 143.597 25.6641C143.925 25.2266 144.241 24.6016 144.546 23.7891L149.433 10.8164H151.284L155.269 23.8828C155.456 24.4922 155.62 24.957 155.761 25.2773C155.909 25.5977 156.085 25.8477 156.288 26.0273C156.491 26.207 156.769 26.3398 157.12 26.4258V27H151.718ZM147.218 20.6719H152.116L149.89 13.1133L147.218 20.6719ZM172.595 23.6016V27H163.572V26.4258L169.994 16.7461H166.818C166.428 16.7461 166.119 16.8164 165.892 16.957C165.666 17.0977 165.451 17.332 165.248 17.6602C165.045 17.9883 164.849 18.4297 164.662 18.9844H163.642V15.7969H172.525V16.3828L166.115 26.0508H169.197C169.603 26.0508 169.908 26.0195 170.111 25.957C170.314 25.8945 170.49 25.7969 170.638 25.6641C170.787 25.5234 170.931 25.3047 171.072 25.0078C171.213 24.7109 171.381 24.2422 171.576 23.6016H172.595ZM183.102 17.6367L183.149 17.6484C183.758 17.0312 184.239 16.6016 184.59 16.3594C184.95 16.1094 185.301 15.9219 185.645 15.7969C185.997 15.6719 186.372 15.6094 186.77 15.6094C187.2 15.6094 187.583 15.6602 187.918 15.7617C188.254 15.8633 188.547 16.0195 188.797 16.2305C189.055 16.4336 189.262 16.6875 189.418 16.9922C189.583 17.2891 189.704 17.6484 189.782 18.0703C189.86 18.4844 189.899 19.0117 189.899 19.6523V24.0703C189.899 24.75 189.926 25.2148 189.981 25.4648C190.043 25.707 190.149 25.8984 190.297 26.0391C190.454 26.1719 190.762 26.3008 191.223 26.4258V27H186.606V26.4258C186.911 26.332 187.129 26.25 187.262 26.1797C187.395 26.1094 187.504 26.0117 187.59 25.8867C187.684 25.7617 187.754 25.5703 187.801 25.3125C187.856 25.0469 187.883 24.6484 187.883 24.1172V21.0469C187.883 20.0078 187.829 19.2148 187.719 18.668C187.618 18.1133 187.411 17.6992 187.098 17.4258C186.793 17.1523 186.364 17.0156 185.809 17.0156C185.497 17.0156 185.215 17.0703 184.965 17.1797C184.715 17.2891 184.426 17.4844 184.098 17.7656C183.77 18.0469 183.52 18.3359 183.348 18.6328C183.184 18.9297 183.102 19.2461 183.102 19.582V24.0703C183.102 24.6016 183.114 24.9805 183.137 25.207C183.168 25.4336 183.223 25.625 183.301 25.7812C183.379 25.9297 183.497 26.0547 183.653 26.1562C183.817 26.25 184.067 26.3398 184.403 26.4258V27H179.762V26.4258C180.106 26.332 180.352 26.2422 180.5 26.1562C180.649 26.0703 180.762 25.9609 180.84 25.8281C180.926 25.6953 180.989 25.5039 181.028 25.2539C181.067 25.0039 181.086 24.6094 181.086 24.0703V14.2617C181.086 13.5117 181.079 12.9883 181.063 12.6914C181.055 12.3945 181.024 12.1445 180.969 11.9414C180.922 11.7305 180.852 11.5664 180.758 11.4492C180.672 11.332 180.551 11.2383 180.395 11.168C180.247 11.0977 179.973 11.0273 179.575 10.957V10.3477L182.399 10.2305H183.102V17.6367ZM205.257 25.3242L205.081 25.2773C204.402 25.9727 203.761 26.4648 203.159 26.7539C202.566 27.043 201.933 27.1875 201.261 27.1875C200.667 27.1875 200.144 27.0742 199.691 26.8477C199.238 26.6133 198.89 26.2891 198.648 25.875C198.405 25.4531 198.284 24.9688 198.284 24.4219C198.284 23.2812 198.847 22.4023 199.972 21.7852C201.105 21.1602 202.8 20.7969 205.058 20.6953V19.9336C205.058 19.1211 204.98 18.4805 204.823 18.0117C204.667 17.543 204.421 17.1992 204.085 16.9805C203.749 16.7617 203.3 16.6523 202.738 16.6523C202.128 16.6523 201.636 16.8125 201.261 17.1328C200.894 17.4531 200.616 17.9336 200.429 18.5742H198.894V17.0508C199.644 16.6602 200.269 16.375 200.769 16.1953C201.269 16.0078 201.769 15.8633 202.269 15.7617C202.769 15.6523 203.277 15.5977 203.792 15.5977C204.566 15.5977 205.187 15.7227 205.655 15.9727C206.124 16.2148 206.476 16.5898 206.71 17.0977C206.945 17.6055 207.062 18.3711 207.062 19.3945V23.4727C207.062 24.0508 207.066 24.4609 207.073 24.7031C207.081 24.9375 207.105 25.1562 207.144 25.3594C207.183 25.5625 207.241 25.7266 207.32 25.8516C207.398 25.9688 207.511 26.0703 207.659 26.1562C207.816 26.2422 208.066 26.332 208.409 26.4258V27H205.198L205.257 25.3242ZM205.058 21.6562C203.472 21.6719 202.284 21.8828 201.495 22.2891C200.706 22.6953 200.312 23.3086 200.312 24.1289C200.312 24.5742 200.402 24.9258 200.581 25.1836C200.761 25.4414 200.988 25.6211 201.261 25.7227C201.534 25.8164 201.859 25.8633 202.234 25.8633C202.765 25.8633 203.245 25.7344 203.675 25.4766C204.113 25.2188 204.452 24.8906 204.695 24.4922C204.937 24.0938 205.058 23.6992 205.058 23.3086V21.6562ZM226.896 27H222.279V26.4258C222.584 26.332 222.803 26.25 222.935 26.1797C223.068 26.1094 223.178 26.0117 223.264 25.8867C223.357 25.7617 223.428 25.5703 223.475 25.3125C223.529 25.0469 223.557 24.6484 223.557 24.1172V21.0469C223.557 20.5 223.541 20.0039 223.51 19.5586C223.478 19.1133 223.424 18.75 223.346 18.4688C223.275 18.1797 223.185 17.957 223.076 17.8008C222.975 17.6367 222.85 17.5 222.701 17.3906C222.56 17.2734 222.396 17.1836 222.209 17.1211C222.021 17.0508 221.775 17.0156 221.471 17.0156C221.166 17.0156 220.877 17.0781 220.603 17.2031C220.33 17.3203 220.029 17.5273 219.701 17.8242C219.373 18.1211 219.135 18.4141 218.986 18.7031C218.838 18.9922 218.764 19.3242 218.764 19.6992V24.0703C218.764 24.7422 218.795 25.2109 218.857 25.4766C218.92 25.7344 219.037 25.9336 219.209 26.0742C219.389 26.207 219.678 26.3242 220.076 26.4258V27H215.482V26.4258C215.787 26.332 216.002 26.25 216.127 26.1797C216.26 26.1094 216.369 26.0117 216.455 25.8867C216.549 25.7617 216.619 25.5703 216.666 25.3125C216.721 25.0547 216.748 24.6523 216.748 24.1055V18.9961C216.748 18.4961 216.74 18.0938 216.725 17.7891C216.709 17.4844 216.654 17.2422 216.56 17.0625C216.467 16.875 216.322 16.7383 216.127 16.6523C215.939 16.5586 215.67 16.4805 215.318 16.418V15.7969L218.06 15.6914H218.775L218.646 17.6016L218.81 17.6484C219.389 17.0625 219.853 16.6445 220.205 16.3945C220.564 16.1445 220.924 15.9531 221.283 15.8203C221.65 15.6797 222.037 15.6094 222.443 15.6094C222.865 15.6094 223.24 15.6602 223.568 15.7617C223.904 15.8555 224.197 16.0039 224.447 16.207C224.705 16.4102 224.916 16.6641 225.08 16.9688C225.244 17.2656 225.365 17.625 225.443 18.0469C225.529 18.4688 225.572 19.0039 225.572 19.6523V24.0703C225.572 24.6094 225.588 25 225.619 25.2422C225.65 25.4844 225.705 25.6719 225.783 25.8047C225.861 25.9375 225.975 26.0508 226.123 26.1445C226.271 26.2305 226.529 26.3242 226.896 26.4258V27Z" fill="white"/>
<path d="M19.9941 0C25.3575 0 30.2276 2.11224 33.8184 5.5498C31.3832 4.25554 28.5553 3.51475 25.5391 3.51465C16.3992 3.51465 8.98938 10.3167 8.98926 18.707C8.98943 27.0973 16.3992 33.8994 25.5391 33.8994C30.5077 33.8992 34.9637 31.888 37.9971 28.7051C34.7598 35.385 27.915 39.9912 19.9941 39.9912C8.95178 39.991 0.00021028 31.0391 0 19.9961C0 8.95287 8.95165 0.000165979 19.9941 0Z" fill="#D9D9D9"/>
<path d="M11.6639 28L11.8282 28.7053L12.3278 28.9373L11.8282 29.1693L11.6639 29.8746L11.4996 29.1693L11 28.9373L11.4996 28.7053L11.6639 28Z" fill="black"/>
<path d="M3.24129 17.4182L3.32827 17.9178L3.59276 18.0821L3.32827 18.2464L3.24129 18.746L3.15431 18.2464L2.88983 18.0821L3.15431 17.9178L3.24129 17.4182Z" fill="black"/>
<path d="M8.47422 14.1376L8.5612 14.6372L8.82568 14.8015L8.5612 14.9658L8.47422 15.4654L8.38724 14.9658L8.12275 14.8015L8.38724 14.6372L8.47422 14.1376Z" fill="black"/>
<path d="M8.27896 18.5898L8.45292 19.2951L8.98189 19.5271L8.45292 19.759L8.27896 20.4643L8.10499 19.759L7.57603 19.5271L8.10499 19.2951L8.27896 18.5898Z" fill="black"/>
<path d="M5.54534 23.9011L5.9126 25.0766L7.02931 25.4633L5.9126 25.8499L5.54534 27.0254L5.17808 25.8499L4.06138 25.4633L5.17808 25.0766L5.54534 23.9011Z" fill="black"/>
<path d="M12.1841 4.06161L12.5514 5.23716L13.6681 5.62378L12.5514 6.0104L12.1841 7.18594L11.8169 6.0104L10.7002 5.62378L11.8169 5.23716L12.1841 4.06161Z" fill="black"/>
<path d="M15.1521 33.2741L15.5193 34.4497L16.636 34.8363L15.5193 35.2229L15.1521 36.3984L14.7848 35.2229L13.6681 34.8363L14.7848 34.4497L15.1521 33.2741Z" fill="black"/>
<path d="M17.0265 2.10892L17.2005 2.72608L17.7295 2.92905L17.2005 3.13203L17.0265 3.74919L16.8526 3.13203L16.3236 2.92905L16.8526 2.72608L17.0265 2.10892Z" fill="black"/>
<path d="M20.8536 37.0233L21.0276 37.7286L21.5565 37.9606L21.0276 38.1926L20.8536 38.8979L20.6796 38.1926L20.1507 37.9606L20.6796 37.7286L20.8536 37.0233Z" fill="black"/>
<path d="M8.27896 29.6812L8.45292 30.3865L8.98189 30.6185L8.45292 30.8504L8.27896 31.5557L8.10499 30.8504L7.57603 30.6185L8.10499 30.3865L8.27896 29.6812Z" fill="black"/>
<path d="M3.67086 10.4665L3.84482 11.1719L4.37379 11.4038L3.84482 11.6358L3.67086 12.3411L3.49689 11.6358L2.96793 11.4038L3.49689 11.1719L3.67086 10.4665Z" fill="black"/>
<ellipse cx="9.27336" cy="13.2734" rx="0.273362" ry="0.273379" fill="#1E1E1E"/>
<ellipse cx="4.64715" cy="14.1767" rx="0.273362" ry="0.273379" fill="#1E1E1E"/>
<path d="M3.70991 24.6431C3.70991 24.7941 3.58752 24.9165 3.43655 24.9165C3.28557 24.9165 3.16319 24.7941 3.16319 24.6431C3.16319 24.4921 3.28557 24.3698 3.43655 24.3698C3.58752 24.3698 3.70991 24.4921 3.70991 24.6431Z" fill="#1E1E1E"/>
<ellipse cx="7.45888" cy="18.3945" rx="0.195258" ry="0.195271" fill="#1E1E1E"/>
<ellipse cx="4.17853" cy="18.9413" rx="0.195258" ry="0.195271" fill="#1E1E1E"/>
<ellipse cx="6.44353" cy="10.0369" rx="0.195258" ry="0.195271" fill="#1E1E1E"/>
<ellipse cx="8.63043" cy="32.6102" rx="0.195258" ry="0.195271" fill="#1E1E1E"/>
<ellipse cx="13.8634" cy="35.9689" rx="0.195258" ry="0.195271" fill="#1E1E1E"/>
<ellipse cx="21.0489" cy="35.9689" rx="0.195258" ry="0.195271" fill="#1E1E1E"/>
<ellipse cx="22.689" cy="38.8588" rx="0.195258" ry="0.195271" fill="#1E1E1E"/>
<ellipse cx="10.1925" cy="5.81908" rx="0.195258" ry="0.195271" fill="#1E1E1E"/>
<ellipse cx="10.8173" cy="6.67827" rx="0.195258" ry="0.195271" fill="#1E1E1E"/>
<ellipse cx="7.06836" cy="13.9423" rx="0.195258" ry="0.195271" fill="#1E1E1E"/>
<ellipse cx="8.86473" cy="16.2855" rx="0.195258" ry="0.195271" fill="#1E1E1E"/>
<ellipse cx="3.08508" cy="14.6453" rx="0.195258" ry="0.195271" fill="#1E1E1E"/>
<ellipse cx="2.85077" cy="11.9896" rx="0.195258" ry="0.195271" fill="#1E1E1E"/>
<ellipse cx="15.5816" cy="1.91365" rx="0.195258" ry="0.195271" fill="#1E1E1E"/>
<ellipse cx="4.10043" cy="10.3493" rx="0.117155" ry="0.117162" fill="#1E1E1E"/>
<ellipse cx="4.25664" cy="12.2239" rx="0.117155" ry="0.117162" fill="#1E1E1E"/>
<ellipse cx="10.8954" cy="34.1724" rx="0.117155" ry="0.117162" fill="#1E1E1E"/>
<ellipse cx="4.56905" cy="22.5342" rx="0.117155" ry="0.117162" fill="#1E1E1E"/>
<ellipse cx="1.99164" cy="23.6277" rx="0.117155" ry="0.117162" fill="#1E1E1E"/>
<ellipse cx="2.69457" cy="19.0974" rx="0.117155" ry="0.117162" fill="#1E1E1E"/>
<ellipse cx="2.14784" cy="18.2383" rx="0.117155" ry="0.117162" fill="#1E1E1E"/>
<ellipse cx="10.3487" cy="27.1426" rx="0.117155" ry="0.117162" fill="#1E1E1E"/>
<ellipse cx="9.11716" cy="25.1172" rx="0.117155" ry="0.117162" fill="#1E1E1E"/>
<ellipse cx="8.78663" cy="13.3955" rx="0.117155" ry="0.117162" fill="#1E1E1E"/>
<ellipse cx="16.2065" cy="36.4375" rx="0.117155" ry="0.117162" fill="#1E1E1E"/>
<ellipse cx="22.4547" cy="37.2967" rx="0.117155" ry="0.117162" fill="#1E1E1E"/>
<ellipse cx="23.0795" cy="36.2813" rx="0.117155" ry="0.117162" fill="#1E1E1E"/>
<ellipse cx="9.48956" cy="31.4385" rx="0.117155" ry="0.117162" fill="#1E1E1E"/>
<ellipse cx="7.14646" cy="29.8764" rx="0.117155" ry="0.117162" fill="#1E1E1E"/>
<ellipse cx="14.4101" cy="32.2977" rx="0.117155" ry="0.117162" fill="#1E1E1E"/>
<ellipse cx="8.78663" cy="18.8632" rx="0.117155" ry="0.117162" fill="#1E1E1E"/>
<ellipse cx="16.2846" cy="3.86637" rx="0.117155" ry="0.117162" fill="#1E1E1E"/>
<ellipse cx="13.0042" cy="4.56931" rx="0.117155" ry="0.117162" fill="#1E1E1E"/>
<ellipse cx="7.69318" cy="7.77173" rx="0.117155" ry="0.117162" fill="#1E1E1E"/>
<ellipse cx="6.20922" cy="8.63093" rx="0.117155" ry="0.117162" fill="#1E1E1E"/>
<ellipse cx="12.9261" cy="7.3812" rx="0.117155" ry="0.117162" fill="#1E1E1E"/>
<ellipse cx="3.3975" cy="23.1591" rx="0.195258" ry="0.195271" fill="#1E1E1E"/>
<ellipse cx="10.1953" cy="26.1953" rx="0.195258" ry="0.195271" fill="#1E1E1E"/>
<ellipse cx="18.9401" cy="37.2967" rx="0.273362" ry="0.273379" fill="#1E1E1E"/>
<ellipse cx="13.7071" cy="32.7664" rx="0.273362" ry="0.273379" fill="#1E1E1E"/>
<ellipse cx="10.0363" cy="34.0161" rx="0.273362" ry="0.273379" fill="#1E1E1E"/>
<ellipse cx="10.7392" cy="28.2361" rx="0.273362" ry="0.273379" fill="#1E1E1E"/>
<ellipse cx="6.59973" cy="31.3605" rx="0.273362" ry="0.273379" fill="#1E1E1E"/>
<ellipse cx="6.59973" cy="7.61557" rx="0.273362" ry="0.273379" fill="#1E1E1E"/>
<ellipse cx="15.3473" cy="3.39771" rx="0.273362" ry="0.273379" fill="#1E1E1E"/>
</svg>
