<svg width="230" height="41" viewBox="0 0 230 41" fill="none" xmlns="http://www.w3.org/2000/svg">
<path d="M50.2656 31.0703C50.2656 31.7422 50.2969 32.2109 50.3594 32.4766C50.4219 32.7344 50.5391 32.9336 50.7109 33.0742C50.8906 33.207 51.1797 33.3242 51.5781 33.4258V34H46.9258V33.4258C47.3164 33.3242 47.5859 33.2188 47.7344 33.1094C47.8906 33 48 32.8711 48.0625 32.7227C48.1328 32.5664 48.1797 32.3594 48.2031 32.1016C48.2344 31.8359 48.25 31.4922 48.25 31.0703V21.2617C48.25 20.5117 48.2422 19.9883 48.2266 19.6914C48.2188 19.3945 48.1875 19.1445 48.1328 18.9414C48.0859 18.7305 48.0156 18.5664 47.9219 18.4492C47.8359 18.332 47.7148 18.2383 47.5586 18.168C47.4102 18.0977 47.1367 18.0273 46.7383 17.957V17.3477L49.5625 17.2305H50.2656V31.0703ZM65.7058 32.3242L65.53 32.2773C64.8503 32.9727 64.2097 33.4648 63.6081 33.7539C63.0144 34.043 62.3816 34.1875 61.7097 34.1875C61.1159 34.1875 60.5925 34.0742 60.1394 33.8477C59.6863 33.6133 59.3386 33.2891 59.0964 32.875C58.8542 32.4531 58.7331 31.9688 58.7331 31.4219C58.7331 30.2812 59.2956 29.4023 60.4206 28.7852C61.5534 28.1602 63.2488 27.7969 65.5066 27.6953V26.9336C65.5066 26.1211 65.4284 25.4805 65.2722 25.0117C65.1159 24.543 64.8698 24.1992 64.5339 23.9805C64.198 23.7617 63.7488 23.6523 63.1863 23.6523C62.5769 23.6523 62.0847 23.8125 61.7097 24.1328C61.3425 24.4531 61.0652 24.9336 60.8777 25.5742H59.3425V24.0508C60.0925 23.6602 60.7175 23.375 61.2175 23.1953C61.7175 23.0078 62.2175 22.8633 62.7175 22.7617C63.2175 22.6523 63.7253 22.5977 64.2409 22.5977C65.0144 22.5977 65.6355 22.7227 66.1042 22.9727C66.573 23.2148 66.9245 23.5898 67.1589 24.0977C67.3933 24.6055 67.5105 25.3711 67.5105 26.3945V30.4727C67.5105 31.0508 67.5144 31.4609 67.5222 31.7031C67.53 31.9375 67.5534 32.1562 67.5925 32.3594C67.6316 32.5625 67.6902 32.7266 67.7683 32.8516C67.8464 32.9688 67.9597 33.0703 68.1081 33.1562C68.2644 33.2422 68.5144 33.332 68.8581 33.4258V34H65.6472L65.7058 32.3242ZM65.5066 28.6562C63.9206 28.6719 62.7331 28.8828 61.9441 29.2891C61.155 29.6953 60.7605 30.3086 60.7605 31.1289C60.7605 31.5742 60.8503 31.9258 61.03 32.1836C61.2097 32.4414 61.4363 32.6211 61.7097 32.7227C61.9831 32.8164 62.3073 32.8633 62.6823 32.8633C63.2136 32.8633 63.6941 32.7344 64.1238 32.4766C64.5613 32.2188 64.9011 31.8906 65.1433 31.4922C65.3855 31.0938 65.5066 30.6992 65.5066 30.3086V28.6562ZM83.7827 25.3633H82.6577C82.4858 24.8945 82.2827 24.5273 82.0483 24.2617C81.8139 23.9883 81.5483 23.7969 81.2514 23.6875C80.9545 23.5781 80.5913 23.5234 80.1616 23.5234C79.5366 23.5234 79.0366 23.6719 78.6616 23.9688C78.2944 24.2578 78.1108 24.6562 78.1108 25.1641C78.1108 25.5234 78.185 25.8203 78.3334 26.0547C78.4819 26.2891 78.7123 26.5078 79.0248 26.7109C79.3373 26.9141 79.8881 27.1836 80.6772 27.5195C81.4741 27.8633 82.0873 28.1797 82.517 28.4688C82.9545 28.7578 83.2944 29.0938 83.5366 29.4766C83.7866 29.8594 83.9116 30.3164 83.9116 30.8477C83.9116 31.4648 83.8061 31.9844 83.5952 32.4062C83.3842 32.8281 83.0873 33.1719 82.7045 33.4375C82.3217 33.7031 81.8647 33.8945 81.3334 34.0117C80.81 34.1289 80.2358 34.1875 79.6108 34.1875C78.9545 34.1875 78.3178 34.1367 77.7006 34.0352C77.0834 33.9414 76.4819 33.8164 75.8959 33.6602V31.2109H77.0444C77.2553 31.9297 77.5678 32.4531 77.9819 32.7812C78.3959 33.1016 78.9663 33.2617 79.6928 33.2617C79.9741 33.2617 80.2475 33.2344 80.5131 33.1797C80.7866 33.1172 81.0288 33.0195 81.2397 32.8867C81.4506 32.7461 81.6186 32.5586 81.7436 32.3242C81.8686 32.0898 81.9311 31.7969 81.9311 31.4453C81.9311 31.0469 81.853 30.7227 81.6967 30.4727C81.5405 30.2227 81.2983 29.9961 80.9702 29.793C80.642 29.582 80.0639 29.3008 79.2358 28.9492C78.5248 28.6523 77.9545 28.3633 77.5248 28.082C77.0952 27.8008 76.7553 27.4688 76.5053 27.0859C76.2631 26.7031 76.142 26.25 76.142 25.7266C76.142 25.0859 76.3139 24.5312 76.6577 24.0625C77.0092 23.5859 77.5131 23.2227 78.1694 22.9727C78.8256 22.7227 79.5952 22.5977 80.478 22.5977C80.9936 22.5977 81.4897 22.625 81.9663 22.6797C82.4506 22.7266 83.0561 22.8242 83.7827 22.9727V25.3633ZM99.3752 25.3633H98.2502C98.0783 24.8945 97.8752 24.5273 97.6408 24.2617C97.4064 23.9883 97.1408 23.7969 96.8439 23.6875C96.547 23.5781 96.1838 23.5234 95.7541 23.5234C95.1291 23.5234 94.6291 23.6719 94.2541 23.9688C93.8869 24.2578 93.7033 24.6562 93.7033 25.1641C93.7033 25.5234 93.7775 25.8203 93.9259 26.0547C94.0744 26.2891 94.3048 26.5078 94.6173 26.7109C94.9298 26.9141 95.4806 27.1836 96.2697 27.5195C97.0666 27.8633 97.6798 28.1797 98.1095 28.4688C98.547 28.7578 98.8869 29.0938 99.1291 29.4766C99.3791 29.8594 99.5041 30.3164 99.5041 30.8477C99.5041 31.4648 99.3986 31.9844 99.1877 32.4062C98.9767 32.8281 98.6798 33.1719 98.297 33.4375C97.9142 33.7031 97.4572 33.8945 96.9259 34.0117C96.4025 34.1289 95.8283 34.1875 95.2033 34.1875C94.547 34.1875 93.9103 34.1367 93.2931 34.0352C92.6759 33.9414 92.0744 33.8164 91.4884 33.6602V31.2109H92.6369C92.8478 31.9297 93.1603 32.4531 93.5744 32.7812C93.9884 33.1016 94.5588 33.2617 95.2853 33.2617C95.5666 33.2617 95.84 33.2344 96.1056 33.1797C96.3791 33.1172 96.6213 33.0195 96.8322 32.8867C97.0431 32.7461 97.2111 32.5586 97.3361 32.3242C97.4611 32.0898 97.5236 31.7969 97.5236 31.4453C97.5236 31.0469 97.4455 30.7227 97.2892 30.4727C97.133 30.2227 96.8908 29.9961 96.5627 29.793C96.2345 29.582 95.6564 29.3008 94.8283 28.9492C94.1173 28.6523 93.547 28.3633 93.1173 28.082C92.6877 27.8008 92.3478 27.4688 92.0978 27.0859C91.8556 26.7031 91.7345 26.25 91.7345 25.7266C91.7345 25.0859 91.9064 24.5312 92.2502 24.0625C92.6017 23.5859 93.1056 23.2227 93.7619 22.9727C94.4181 22.7227 95.1877 22.5977 96.0705 22.5977C96.5861 22.5977 97.0822 22.625 97.5588 22.6797C98.0431 22.7266 98.6486 22.8242 99.3752 22.9727V25.3633ZM110.468 18.2031V20.4766H108.311V18.2031H110.468ZM107.116 33.4258C107.421 33.332 107.636 33.25 107.761 33.1797C107.893 33.1094 108.003 33.0117 108.089 32.8867C108.183 32.7617 108.253 32.5703 108.3 32.3125C108.354 32.0547 108.382 31.6523 108.382 31.1055V25.9961C108.382 25.4961 108.374 25.0938 108.358 24.7891C108.343 24.4844 108.288 24.2422 108.194 24.0625C108.1 23.875 107.956 23.7383 107.761 23.6523C107.573 23.5586 107.304 23.4805 106.952 23.418V22.7969L109.683 22.6914H110.397V31.0703C110.397 31.7422 110.429 32.2109 110.491 32.4766C110.554 32.7344 110.671 32.9336 110.843 33.0742C111.022 33.207 111.311 33.3242 111.71 33.4258V34H107.116V33.4258ZM127.806 23.0664V25.5156H126.318C126.185 25.0078 126.021 24.6094 125.826 24.3203C125.63 24.0234 125.404 23.8164 125.146 23.6992C124.888 23.582 124.568 23.5234 124.185 23.5234C123.638 23.5234 123.154 23.6992 122.732 24.0508C122.31 24.4023 121.974 24.9375 121.724 25.6562C121.482 26.375 121.361 27.2539 121.361 28.293C121.361 28.957 121.408 29.5664 121.502 30.1211C121.595 30.668 121.755 31.1367 121.982 31.5273C122.209 31.918 122.509 32.2227 122.884 32.4414C123.259 32.6602 123.724 32.7695 124.279 32.7695C124.818 32.7695 125.318 32.6641 125.779 32.4531C126.248 32.2422 126.732 31.8711 127.232 31.3398L127.9 32.1133C127.502 32.5508 127.15 32.8906 126.845 33.1328C126.541 33.3672 126.213 33.5664 125.861 33.7305C125.517 33.8867 125.173 34 124.83 34.0703C124.494 34.1484 124.127 34.1875 123.728 34.1875C122.252 34.1875 121.123 33.6992 120.341 32.7227C119.56 31.7383 119.17 30.3203 119.17 28.4688C119.17 27.3125 119.388 26.2891 119.826 25.3984C120.263 24.5 120.877 23.8086 121.666 23.3242C122.455 22.8398 123.365 22.5977 124.396 22.5977C125.037 22.5977 125.627 22.6367 126.166 22.7148C126.713 22.7852 127.259 22.9023 127.806 23.0664ZM153.718 34V33.4258C154.108 33.3477 154.397 33.2617 154.585 33.168C154.78 33.0742 154.925 32.9453 155.019 32.7812C155.112 32.6094 155.159 32.3828 155.159 32.1016C155.159 31.8359 155.128 31.5508 155.065 31.2461C155.003 30.9336 154.913 30.5859 154.796 30.2031L154.362 28.6914H148.901L148.503 29.8398C148.3 30.418 148.167 30.8555 148.105 31.1523C148.042 31.4492 148.011 31.7188 148.011 31.9609C148.011 32.4297 148.128 32.7734 148.362 32.9922C148.605 33.2109 148.972 33.3555 149.464 33.4258V34H144.46V33.4258C144.897 33.3555 145.276 33.1016 145.597 32.6641C145.925 32.2266 146.241 31.6016 146.546 30.7891L151.433 17.8164H153.284L157.269 30.8828C157.456 31.4922 157.62 31.957 157.761 32.2773C157.909 32.5977 158.085 32.8477 158.288 33.0273C158.491 33.207 158.769 33.3398 159.12 33.4258V34H153.718ZM149.218 27.6719H154.116L151.89 20.1133L149.218 27.6719ZM174.595 30.6016V34H165.572V33.4258L171.994 23.7461H168.818C168.428 23.7461 168.119 23.8164 167.892 23.957C167.666 24.0977 167.451 24.332 167.248 24.6602C167.045 24.9883 166.849 25.4297 166.662 25.9844H165.642V22.7969H174.525V23.3828L168.115 33.0508H171.197C171.603 33.0508 171.908 33.0195 172.111 32.957C172.314 32.8945 172.49 32.7969 172.638 32.6641C172.787 32.5234 172.931 32.3047 173.072 32.0078C173.213 31.7109 173.381 31.2422 173.576 30.6016H174.595ZM185.102 24.6367L185.149 24.6484C185.758 24.0312 186.239 23.6016 186.59 23.3594C186.95 23.1094 187.301 22.9219 187.645 22.7969C187.997 22.6719 188.372 22.6094 188.77 22.6094C189.2 22.6094 189.583 22.6602 189.918 22.7617C190.254 22.8633 190.547 23.0195 190.797 23.2305C191.055 23.4336 191.262 23.6875 191.418 23.9922C191.583 24.2891 191.704 24.6484 191.782 25.0703C191.86 25.4844 191.899 26.0117 191.899 26.6523V31.0703C191.899 31.75 191.926 32.2148 191.981 32.4648C192.043 32.707 192.149 32.8984 192.297 33.0391C192.454 33.1719 192.762 33.3008 193.223 33.4258V34H188.606V33.4258C188.911 33.332 189.129 33.25 189.262 33.1797C189.395 33.1094 189.504 33.0117 189.59 32.8867C189.684 32.7617 189.754 32.5703 189.801 32.3125C189.856 32.0469 189.883 31.6484 189.883 31.1172V28.0469C189.883 27.0078 189.829 26.2148 189.719 25.668C189.618 25.1133 189.411 24.6992 189.098 24.4258C188.793 24.1523 188.364 24.0156 187.809 24.0156C187.497 24.0156 187.215 24.0703 186.965 24.1797C186.715 24.2891 186.426 24.4844 186.098 24.7656C185.77 25.0469 185.52 25.3359 185.348 25.6328C185.184 25.9297 185.102 26.2461 185.102 26.582V31.0703C185.102 31.6016 185.114 31.9805 185.137 32.207C185.168 32.4336 185.223 32.625 185.301 32.7812C185.379 32.9297 185.497 33.0547 185.653 33.1562C185.817 33.25 186.067 33.3398 186.403 33.4258V34H181.762V33.4258C182.106 33.332 182.352 33.2422 182.5 33.1562C182.649 33.0703 182.762 32.9609 182.84 32.8281C182.926 32.6953 182.989 32.5039 183.028 32.2539C183.067 32.0039 183.086 31.6094 183.086 31.0703V21.2617C183.086 20.5117 183.079 19.9883 183.063 19.6914C183.055 19.3945 183.024 19.1445 182.969 18.9414C182.922 18.7305 182.852 18.5664 182.758 18.4492C182.672 18.332 182.551 18.2383 182.395 18.168C182.247 18.0977 181.973 18.0273 181.575 17.957V17.3477L184.399 17.2305H185.102V24.6367ZM207.257 32.3242L207.081 32.2773C206.402 32.9727 205.761 33.4648 205.159 33.7539C204.566 34.043 203.933 34.1875 203.261 34.1875C202.667 34.1875 202.144 34.0742 201.691 33.8477C201.238 33.6133 200.89 33.2891 200.648 32.875C200.405 32.4531 200.284 31.9688 200.284 31.4219C200.284 30.2812 200.847 29.4023 201.972 28.7852C203.105 28.1602 204.8 27.7969 207.058 27.6953V26.9336C207.058 26.1211 206.98 25.4805 206.823 25.0117C206.667 24.543 206.421 24.1992 206.085 23.9805C205.749 23.7617 205.3 23.6523 204.738 23.6523C204.128 23.6523 203.636 23.8125 203.261 24.1328C202.894 24.4531 202.616 24.9336 202.429 25.5742H200.894V24.0508C201.644 23.6602 202.269 23.375 202.769 23.1953C203.269 23.0078 203.769 22.8633 204.269 22.7617C204.769 22.6523 205.277 22.5977 205.792 22.5977C206.566 22.5977 207.187 22.7227 207.655 22.9727C208.124 23.2148 208.476 23.5898 208.71 24.0977C208.945 24.6055 209.062 25.3711 209.062 26.3945V30.4727C209.062 31.0508 209.066 31.4609 209.073 31.7031C209.081 31.9375 209.105 32.1562 209.144 32.3594C209.183 32.5625 209.241 32.7266 209.32 32.8516C209.398 32.9688 209.511 33.0703 209.659 33.1562C209.816 33.2422 210.066 33.332 210.409 33.4258V34H207.198L207.257 32.3242ZM207.058 28.6562C205.472 28.6719 204.284 28.8828 203.495 29.2891C202.706 29.6953 202.312 30.3086 202.312 31.1289C202.312 31.5742 202.402 31.9258 202.581 32.1836C202.761 32.4414 202.988 32.6211 203.261 32.7227C203.534 32.8164 203.859 32.8633 204.234 32.8633C204.765 32.8633 205.245 32.7344 205.675 32.4766C206.113 32.2188 206.452 31.8906 206.695 31.4922C206.937 31.0938 207.058 30.6992 207.058 30.3086V28.6562ZM228.896 34H224.279V33.4258C224.584 33.332 224.803 33.25 224.935 33.1797C225.068 33.1094 225.178 33.0117 225.264 32.8867C225.357 32.7617 225.428 32.5703 225.475 32.3125C225.529 32.0469 225.557 31.6484 225.557 31.1172V28.0469C225.557 27.5 225.541 27.0039 225.51 26.5586C225.478 26.1133 225.424 25.75 225.346 25.4688C225.275 25.1797 225.185 24.957 225.076 24.8008C224.975 24.6367 224.85 24.5 224.701 24.3906C224.56 24.2734 224.396 24.1836 224.209 24.1211C224.021 24.0508 223.775 24.0156 223.471 24.0156C223.166 24.0156 222.877 24.0781 222.603 24.2031C222.33 24.3203 222.029 24.5273 221.701 24.8242C221.373 25.1211 221.135 25.4141 220.986 25.7031C220.838 25.9922 220.764 26.3242 220.764 26.6992V31.0703C220.764 31.7422 220.795 32.2109 220.857 32.4766C220.92 32.7344 221.037 32.9336 221.209 33.0742C221.389 33.207 221.678 33.3242 222.076 33.4258V34H217.482V33.4258C217.787 33.332 218.002 33.25 218.127 33.1797C218.26 33.1094 218.369 33.0117 218.455 32.8867C218.549 32.7617 218.619 32.5703 218.666 32.3125C218.721 32.0547 218.748 31.6523 218.748 31.1055V25.9961C218.748 25.4961 218.74 25.0938 218.725 24.7891C218.709 24.4844 218.654 24.2422 218.56 24.0625C218.467 23.875 218.322 23.7383 218.127 23.6523C217.939 23.5586 217.67 23.4805 217.318 23.418V22.7969L220.06 22.6914H220.775L220.646 24.6016L220.81 24.6484C221.389 24.0625 221.853 23.6445 222.205 23.3945C222.564 23.1445 222.924 22.9531 223.283 22.8203C223.65 22.6797 224.037 22.6094 224.443 22.6094C224.865 22.6094 225.24 22.6602 225.568 22.7617C225.904 22.8555 226.197 23.0039 226.447 23.207C226.705 23.4102 226.916 23.6641 227.08 23.9688C227.244 24.2656 227.365 24.625 227.443 25.0469C227.529 25.4688 227.572 26.0039 227.572 26.6523V31.0703C227.572 31.6094 227.588 32 227.619 32.2422C227.65 32.4844 227.705 32.6719 227.783 32.8047C227.861 32.9375 227.975 33.0508 228.123 33.1445C228.271 33.2305 228.529 33.3242 228.896 33.4258V34Z" fill="white"/>
<path d="M20.4561 0C24.0223 0 27.3757 0.913055 30.2949 2.51758C28.9654 2.20965 27.5733 2.0459 26.1396 2.0459C16.789 2.04607 9.20849 9.00486 9.20801 17.5889C9.20801 26.1732 16.7887 33.1326 26.1396 33.1328C31.8717 33.1328 36.9367 30.5169 40 26.5156C37.418 34.8568 29.645 40.916 20.4561 40.916C9.15845 40.9158 0 31.7566 0 20.458C7.73031e-05 9.1595 9.15849 0.000246393 20.4561 0Z" fill="#D9D9D9"/>
<path d="M13.3004 28.6476L13.5536 29.4175L14.3235 29.6707L13.5536 29.9239L13.3004 30.6938L13.0472 29.9239L12.2773 29.6707L13.0472 29.4175L13.3004 28.6476Z" fill="black"/>
<path d="M4.09244 17.3932L4.34564 18.548L5.11555 18.9278L4.34564 19.3077L4.09244 20.4625L3.83923 19.3077L3.06933 18.9278L3.83923 18.548L4.09244 17.3932Z" fill="black"/>
<path d="M9.20799 6.13876L9.7144 8.06355L11.2542 8.69658L9.7144 9.32961L9.20799 11.2544L8.70157 9.32961L7.16177 8.69658L8.70157 8.06355L9.20799 6.13876Z" fill="black"/>
<path d="M8.47028 19.0197L8.64827 19.7413L9.18945 19.9787L8.64827 20.216L8.47028 20.9376L8.29229 20.216L7.7511 19.9787L8.29229 19.7413L8.47028 19.0197Z" fill="black"/>
<path d="M6.65021 24.5551L7.28323 26.4798L9.20799 27.1129L7.28323 27.7459L6.65021 29.6707L6.01719 27.7459L4.09244 27.1129L6.01719 26.4798L6.65021 24.5551Z" fill="black"/>
<path d="M15.3466 33.7632L15.8531 35.303L17.3929 35.8095L15.8531 36.3159L15.3466 37.8557L14.8402 36.3159L13.3004 35.8095L14.8402 35.303L15.3466 33.7632Z" fill="black"/>
<path d="M17.42 2.15768L17.598 2.78912L18.1392 2.99679L17.598 3.20446L17.42 3.83589L17.242 3.20446L16.7008 2.99679L17.242 2.78912L17.42 2.15768Z" fill="black"/>
<path d="M21.4853 36.8326L21.7385 37.9875L22.5084 38.3673L21.7385 38.7471L21.4853 39.902L21.2321 38.7471L20.4622 38.3673L21.2321 37.9875L21.4853 36.8326Z" fill="black"/>
<path d="M8.18488 29.6707L8.43808 30.8256L9.20799 31.2054L8.43808 31.5852L8.18488 32.7401L7.93167 31.5852L7.16177 31.2054L7.93167 30.8256L8.18488 29.6707Z" fill="black"/>
<path d="M4.09244 10.2313L4.34564 11.0012L5.11555 11.2544L4.34564 11.5076L4.09244 12.2775L3.83923 11.5076L3.06933 11.2544L3.83923 11.0012L4.09244 10.2313Z" fill="black"/>
<ellipse cx="27.9036" cy="36.0891" rx="0.279679" ry="0.279701" fill="#1E1E1E"/>
<ellipse cx="4.75455" cy="14.5045" rx="0.279679" ry="0.279701" fill="#1E1E1E"/>
<path d="M3.79564 25.2131C3.79564 25.3675 3.67043 25.4928 3.51597 25.4928C3.3615 25.4928 3.23629 25.3675 3.23629 25.2131C3.23629 25.0586 3.3615 24.9333 3.51597 24.9333C3.67043 24.9333 3.79564 25.0586 3.79564 25.2131Z" fill="#1E1E1E"/>
<ellipse cx="7.63125" cy="18.8199" rx="0.199771" ry="0.199787" fill="#1E1E1E"/>
<ellipse cx="2.24599" cy="19.6392" rx="0.199771" ry="0.199787" fill="#1E1E1E"/>
<ellipse cx="6.59243" cy="10.2691" rx="0.199771" ry="0.199787" fill="#1E1E1E"/>
<ellipse cx="8.82987" cy="33.3644" rx="0.199771" ry="0.199787" fill="#1E1E1E"/>
<ellipse cx="14.1837" cy="36.8007" rx="0.199771" ry="0.199787" fill="#1E1E1E"/>
<ellipse cx="21.6851" cy="36.0092" rx="0.199771" ry="0.199787" fill="#1E1E1E"/>
<ellipse cx="23.2134" cy="39.7576" rx="0.199771" ry="0.199787" fill="#1E1E1E"/>
<ellipse cx="10.428" cy="5.95366" rx="0.199771" ry="0.199787" fill="#1E1E1E"/>
<ellipse cx="11.0673" cy="6.83272" rx="0.199771" ry="0.199787" fill="#1E1E1E"/>
<ellipse cx="7.36154" cy="12.4773" rx="0.199771" ry="0.199787" fill="#1E1E1E"/>
<ellipse cx="28.8468" cy="34.9861" rx="0.199771" ry="0.199787" fill="#1E1E1E"/>
<ellipse cx="3.15638" cy="14.984" rx="0.199771" ry="0.199787" fill="#1E1E1E"/>
<ellipse cx="2.91665" cy="12.2669" rx="0.199771" ry="0.199787" fill="#1E1E1E"/>
<ellipse cx="15.9417" cy="1.95793" rx="0.199771" ry="0.199787" fill="#1E1E1E"/>
<ellipse cx="22.9736" cy="38.1593" rx="0.119862" ry="0.119872" fill="#1E1E1E"/>
<ellipse cx="3.47602" cy="23.6947" rx="0.199771" ry="0.199787" fill="#1E1E1E"/>
<ellipse cx="10.4309" cy="26.8011" rx="0.199771" ry="0.199787" fill="#1E1E1E"/>
<ellipse cx="19.3778" cy="38.1592" rx="0.279679" ry="0.279701" fill="#1E1E1E"/>
<ellipse cx="14.0239" cy="33.5242" rx="0.279679" ry="0.279701" fill="#1E1E1E"/>
<ellipse cx="10.2682" cy="34.8028" rx="0.279679" ry="0.279701" fill="#1E1E1E"/>
<ellipse cx="10.9874" cy="28.8892" rx="0.279679" ry="0.279701" fill="#1E1E1E"/>
<ellipse cx="6.75225" cy="32.0858" rx="0.279679" ry="0.279701" fill="#1E1E1E"/>
<ellipse cx="6.75225" cy="7.79169" rx="0.279679" ry="0.279701" fill="#1E1E1E"/>
<ellipse cx="15.702" cy="3.4763" rx="0.279679" ry="0.279701" fill="#1E1E1E"/>
</svg>
