<svg width="480" height="242" viewBox="0 0 480 242" fill="none" xmlns="http://www.w3.org/2000/svg">
<path d="M162.98 156.232C162.98 156.693 163.004 157.06 163.051 157.334C163.105 157.607 163.184 157.826 163.285 157.99C163.395 158.146 163.539 158.271 163.719 158.365C163.898 158.451 164.18 158.537 164.562 158.623V159.197H159.418V158.623C159.902 158.498 160.227 158.361 160.391 158.213C160.555 158.057 160.66 157.838 160.707 157.557C160.762 157.275 160.789 156.846 160.789 156.268V146.131C160.789 145.592 160.77 145.201 160.73 144.959C160.691 144.709 160.625 144.518 160.531 144.385C160.445 144.244 160.328 144.135 160.18 144.057C160.031 143.971 159.777 143.877 159.418 143.775V143.201H165.23C167.059 143.201 168.418 143.553 169.309 144.256C170.207 144.951 170.656 146.014 170.656 147.443C170.656 148.256 170.516 148.986 170.234 149.635C169.953 150.283 169.555 150.814 169.039 151.228C168.523 151.643 167.914 151.939 167.211 152.119C166.508 152.299 165.77 152.389 164.996 152.389C164.129 152.389 163.457 152.373 162.98 152.342V156.232ZM162.98 151.369H164.34C165.223 151.369 165.949 151.256 166.52 151.029C167.098 150.795 167.539 150.412 167.844 149.881C168.148 149.342 168.301 148.631 168.301 147.748C168.301 147.076 168.211 146.518 168.031 146.072C167.852 145.619 167.602 145.256 167.281 144.982C166.969 144.709 166.594 144.518 166.156 144.408C165.719 144.291 165.242 144.232 164.727 144.232C163.953 144.232 163.371 144.248 162.98 144.279V151.369ZM177.861 149.939L178.025 149.975C178.455 149.451 178.854 149.041 179.221 148.744C179.588 148.439 179.983 148.205 180.404 148.041C180.834 147.877 181.318 147.795 181.858 147.795C182.311 147.795 182.721 147.818 183.088 147.865V150.56H181.764C181.576 150.139 181.377 149.834 181.166 149.646C180.955 149.451 180.666 149.353 180.299 149.353C180.018 149.353 179.736 149.435 179.455 149.6C179.182 149.764 178.916 150.002 178.658 150.314C178.4 150.627 178.221 150.92 178.119 151.193C178.025 151.467 177.979 151.791 177.979 152.166V156.268C177.979 156.978 178.022 157.471 178.108 157.744C178.193 158.01 178.334 158.205 178.529 158.33C178.733 158.455 179.033 158.553 179.432 158.623V159.197H174.709V158.623C175.006 158.529 175.217 158.447 175.342 158.377C175.475 158.307 175.588 158.209 175.682 158.084C175.775 157.959 175.846 157.768 175.893 157.51C175.94 157.252 175.963 156.85 175.963 156.303V151.193C175.963 150.693 175.955 150.291 175.94 149.986C175.924 149.682 175.869 149.439 175.775 149.26C175.682 149.072 175.537 148.935 175.342 148.85C175.154 148.756 174.885 148.678 174.533 148.615V148.006L177.275 147.889H177.99L177.861 149.939ZM192.906 157.521L192.731 157.475C192.051 158.17 191.41 158.662 190.809 158.951C190.215 159.24 189.582 159.385 188.91 159.385C188.317 159.385 187.793 159.271 187.34 159.045C186.887 158.81 186.539 158.486 186.297 158.072C186.055 157.65 185.934 157.166 185.934 156.619C185.934 155.478 186.496 154.6 187.621 153.982C188.754 153.357 190.449 152.994 192.707 152.893V152.131C192.707 151.318 192.629 150.678 192.473 150.209C192.317 149.74 192.07 149.396 191.735 149.178C191.399 148.959 190.949 148.85 190.387 148.85C189.778 148.85 189.285 149.01 188.91 149.33C188.543 149.65 188.266 150.131 188.078 150.771H186.543V149.248C187.293 148.857 187.918 148.572 188.418 148.393C188.918 148.205 189.418 148.06 189.918 147.959C190.418 147.85 190.926 147.795 191.442 147.795C192.215 147.795 192.836 147.92 193.305 148.17C193.774 148.412 194.125 148.787 194.36 149.295C194.594 149.803 194.711 150.568 194.711 151.592V155.67C194.711 156.248 194.715 156.658 194.723 156.9C194.731 157.135 194.754 157.353 194.793 157.557C194.832 157.76 194.891 157.924 194.969 158.049C195.047 158.166 195.16 158.268 195.309 158.353C195.465 158.439 195.715 158.529 196.059 158.623V159.197H192.848L192.906 157.521ZM192.707 153.853C191.121 153.869 189.934 154.08 189.145 154.486C188.356 154.893 187.961 155.506 187.961 156.326C187.961 156.771 188.051 157.123 188.231 157.381C188.41 157.639 188.637 157.818 188.91 157.92C189.184 158.014 189.508 158.06 189.883 158.06C190.414 158.06 190.895 157.932 191.324 157.674C191.762 157.416 192.102 157.088 192.344 156.689C192.586 156.291 192.707 155.896 192.707 155.506V153.853ZM204.26 160.158C203.83 161.127 203.412 161.912 203.006 162.514C202.6 163.115 202.151 163.568 201.658 163.873C201.174 164.178 200.596 164.33 199.924 164.33C199.494 164.33 199.01 164.279 198.471 164.178V161.857H199.514C199.608 162.178 199.725 162.4 199.865 162.525C200.006 162.65 200.209 162.713 200.475 162.713C200.709 162.713 200.916 162.666 201.096 162.572C201.283 162.486 201.475 162.334 201.67 162.115C201.873 161.896 202.108 161.56 202.373 161.107C202.647 160.654 202.951 160.08 203.287 159.385L200.006 150.56C199.795 149.99 199.623 149.592 199.49 149.365C199.365 149.139 199.229 148.967 199.08 148.85C198.932 148.732 198.705 148.639 198.401 148.568V147.994H203.17V148.568C202.803 148.654 202.545 148.74 202.397 148.826C202.248 148.904 202.139 149.01 202.069 149.143C201.998 149.268 201.963 149.432 201.963 149.635C201.963 149.846 201.987 150.064 202.033 150.291C202.088 150.518 202.17 150.783 202.28 151.088L204.365 156.959L206.709 151.334C206.842 151.021 206.944 150.736 207.014 150.478C207.092 150.213 207.131 149.967 207.131 149.74C207.131 149.404 207.037 149.15 206.85 148.978C206.67 148.807 206.354 148.67 205.901 148.568V147.994H210.283V148.568C209.979 148.631 209.744 148.728 209.58 148.861C209.416 148.986 209.252 149.189 209.088 149.471C208.924 149.744 208.729 150.131 208.502 150.631L204.26 160.158ZM222.211 157.205C221.711 157.728 221.25 158.139 220.828 158.435C220.414 158.732 219.957 158.967 219.457 159.139C218.957 159.303 218.407 159.385 217.805 159.385C216.196 159.385 214.981 158.904 214.16 157.943C213.34 156.975 212.93 155.549 212.93 153.666C212.93 152.502 213.137 151.475 213.551 150.584C213.973 149.693 214.571 149.006 215.344 148.521C216.118 148.037 217.008 147.795 218.016 147.795C218.805 147.795 219.477 147.92 220.032 148.17C220.586 148.42 221.028 148.764 221.356 149.201C221.692 149.631 221.95 150.178 222.129 150.842C222.317 151.498 222.422 152.357 222.446 153.42H215.063V153.631C215.063 154.553 215.164 155.33 215.368 155.963C215.578 156.588 215.918 157.08 216.387 157.439C216.864 157.791 217.481 157.967 218.239 157.967C218.879 157.967 219.453 157.85 219.961 157.615C220.477 157.373 220.989 156.982 221.496 156.443L222.211 157.205ZM220.243 152.447C220.196 151.603 220.09 150.916 219.926 150.385C219.762 149.846 219.516 149.435 219.188 149.154C218.86 148.865 218.43 148.721 217.899 148.721C217.094 148.721 216.45 149.045 215.965 149.693C215.489 150.334 215.207 151.252 215.121 152.447H220.243ZM229.651 149.939L229.815 149.975C230.245 149.451 230.643 149.041 231.01 148.744C231.377 148.439 231.772 148.205 232.194 148.041C232.623 147.877 233.108 147.795 233.647 147.795C234.1 147.795 234.51 147.818 234.877 147.865V150.56H233.553C233.366 150.139 233.166 149.834 232.955 149.646C232.745 149.451 232.455 149.353 232.088 149.353C231.807 149.353 231.526 149.435 231.245 149.6C230.971 149.764 230.705 150.002 230.448 150.314C230.19 150.627 230.01 150.92 229.909 151.193C229.815 151.467 229.768 151.791 229.768 152.166V156.268C229.768 156.978 229.811 157.471 229.897 157.744C229.983 158.01 230.123 158.205 230.319 158.33C230.522 158.455 230.823 158.553 231.221 158.623V159.197H226.498V158.623C226.795 158.529 227.006 158.447 227.131 158.377C227.264 158.307 227.377 158.209 227.471 158.084C227.565 157.959 227.635 157.768 227.682 157.51C227.729 157.252 227.752 156.85 227.752 156.303V151.193C227.752 150.693 227.745 150.291 227.729 149.986C227.713 149.682 227.659 149.439 227.565 149.26C227.471 149.072 227.327 148.935 227.131 148.85C226.944 148.756 226.674 148.678 226.323 148.615V148.006L229.065 147.889H229.78L229.651 149.939ZM245.198 143.201H257.878V147.279H256.729C256.557 146.607 256.385 146.076 256.213 145.685C256.049 145.295 255.874 144.998 255.686 144.795C255.499 144.592 255.295 144.447 255.077 144.361C254.866 144.275 254.545 144.232 254.116 144.232H252.628V156.232C252.628 156.693 252.651 157.06 252.698 157.334C252.753 157.607 252.831 157.826 252.932 157.99C253.042 158.146 253.186 158.271 253.366 158.365C253.545 158.451 253.827 158.537 254.21 158.623V159.197H248.854V158.623C249.088 158.568 249.295 158.51 249.475 158.447C249.655 158.385 249.799 158.31 249.909 158.225C250.026 158.131 250.12 158.014 250.19 157.873C250.268 157.732 250.327 157.541 250.366 157.299C250.413 157.057 250.436 156.701 250.436 156.232V144.232H248.96C248.592 144.232 248.288 144.268 248.045 144.338C247.811 144.408 247.592 144.557 247.389 144.783C247.186 145.002 246.999 145.318 246.827 145.732C246.663 146.139 246.506 146.654 246.358 147.279H245.198V143.201ZM265.059 143.4V145.674H262.903V143.4H265.059ZM261.708 158.623C262.012 158.529 262.227 158.447 262.352 158.377C262.485 158.307 262.594 158.209 262.68 158.084C262.774 157.959 262.844 157.768 262.891 157.51C262.946 157.252 262.973 156.85 262.973 156.303V151.193C262.973 150.693 262.965 150.291 262.95 149.986C262.934 149.682 262.88 149.439 262.786 149.26C262.692 149.072 262.548 148.935 262.352 148.85C262.165 148.756 261.895 148.678 261.544 148.615V147.994L264.274 147.889H264.989V156.268C264.989 156.939 265.02 157.408 265.083 157.674C265.145 157.932 265.262 158.131 265.434 158.271C265.614 158.404 265.903 158.521 266.301 158.623V159.197H261.708V158.623ZM273.471 149.799L273.635 149.846C274.104 149.377 274.487 149.025 274.784 148.791C275.089 148.549 275.382 148.357 275.663 148.217C275.944 148.068 276.206 147.963 276.448 147.9C276.698 147.838 276.952 147.807 277.21 147.807C277.991 147.807 278.628 147.986 279.12 148.346C279.612 148.705 279.952 149.256 280.139 149.998C280.725 149.404 281.198 148.967 281.557 148.685C281.925 148.404 282.296 148.189 282.671 148.041C283.053 147.885 283.464 147.807 283.901 147.807C284.425 147.807 284.874 147.885 285.249 148.041C285.632 148.189 285.952 148.424 286.21 148.744C286.475 149.057 286.667 149.451 286.784 149.928C286.909 150.404 286.971 151.045 286.971 151.85V156.268C286.971 156.861 286.991 157.271 287.03 157.498C287.069 157.725 287.124 157.9 287.194 158.025C287.272 158.15 287.385 158.26 287.534 158.353C287.682 158.439 287.932 158.529 288.284 158.623V159.197H283.678V158.623C283.983 158.529 284.202 158.447 284.335 158.377C284.467 158.307 284.577 158.209 284.663 158.084C284.757 157.959 284.827 157.768 284.874 157.51C284.928 157.244 284.956 156.846 284.956 156.314V153.244C284.956 152.58 284.936 152.033 284.897 151.603C284.866 151.166 284.811 150.818 284.733 150.56C284.663 150.303 284.573 150.1 284.464 149.951C284.362 149.803 284.245 149.674 284.112 149.564C283.979 149.455 283.823 149.369 283.643 149.307C283.464 149.244 283.225 149.213 282.928 149.213C282.616 149.213 282.323 149.275 282.05 149.4C281.784 149.525 281.491 149.736 281.171 150.033C280.858 150.33 280.632 150.631 280.491 150.935C280.35 151.232 280.28 151.584 280.28 151.99V156.268C280.28 156.861 280.3 157.271 280.339 157.498C280.378 157.725 280.432 157.9 280.503 158.025C280.581 158.15 280.694 158.26 280.842 158.353C280.991 158.439 281.241 158.529 281.592 158.623V159.197H276.987V158.623C277.292 158.529 277.51 158.447 277.643 158.377C277.776 158.307 277.885 158.209 277.971 158.084C278.065 157.959 278.135 157.768 278.182 157.51C278.237 157.244 278.264 156.846 278.264 156.314V153.244C278.264 152.549 278.245 151.982 278.206 151.545C278.167 151.107 278.104 150.756 278.018 150.49C277.94 150.225 277.835 150.01 277.702 149.846C277.577 149.682 277.448 149.557 277.315 149.471C277.182 149.385 277.026 149.322 276.846 149.283C276.667 149.236 276.464 149.213 276.237 149.213C275.917 149.213 275.616 149.287 275.335 149.435C275.053 149.576 274.764 149.783 274.467 150.057C274.178 150.33 273.96 150.615 273.811 150.912C273.663 151.209 273.589 151.529 273.589 151.873V156.268C273.589 156.713 273.6 157.053 273.624 157.287C273.647 157.521 273.682 157.705 273.729 157.838C273.784 157.971 273.85 158.08 273.928 158.166C274.007 158.244 274.116 158.322 274.257 158.4C274.405 158.471 274.624 158.545 274.913 158.623V159.197H270.319V158.623C270.616 158.529 270.827 158.447 270.952 158.377C271.085 158.307 271.198 158.209 271.292 158.084C271.385 157.959 271.456 157.768 271.503 157.51C271.55 157.252 271.573 156.85 271.573 156.303V151.193C271.573 150.693 271.565 150.291 271.55 149.986C271.534 149.682 271.479 149.439 271.385 149.26C271.292 149.072 271.147 148.935 270.952 148.85C270.764 148.756 270.495 148.678 270.143 148.615V147.994L272.885 147.889H273.6L273.471 149.799ZM301.559 157.205C301.059 157.728 300.598 158.139 300.177 158.435C299.762 158.732 299.305 158.967 298.805 159.139C298.305 159.303 297.755 159.385 297.153 159.385C295.544 159.385 294.329 158.904 293.509 157.943C292.688 156.975 292.278 155.549 292.278 153.666C292.278 152.502 292.485 151.475 292.899 150.584C293.321 149.693 293.919 149.006 294.692 148.521C295.466 148.037 296.356 147.795 297.364 147.795C298.153 147.795 298.825 147.92 299.38 148.17C299.934 148.42 300.376 148.764 300.704 149.201C301.04 149.631 301.298 150.178 301.477 150.842C301.665 151.498 301.77 152.357 301.794 153.42H294.411V153.631C294.411 154.553 294.512 155.33 294.716 155.963C294.927 156.588 295.266 157.08 295.735 157.439C296.212 157.791 296.829 157.967 297.587 157.967C298.227 157.967 298.802 157.85 299.309 157.615C299.825 157.373 300.337 156.982 300.845 156.443L301.559 157.205ZM299.591 152.447C299.544 151.603 299.438 150.916 299.274 150.385C299.11 149.846 298.864 149.435 298.536 149.154C298.208 148.865 297.778 148.721 297.247 148.721C296.442 148.721 295.798 149.045 295.313 149.693C294.837 150.334 294.555 151.252 294.47 152.447H299.591ZM313.686 150.56H312.561C312.39 150.092 312.186 149.725 311.952 149.459C311.718 149.185 311.452 148.994 311.155 148.885C310.858 148.775 310.495 148.721 310.065 148.721C309.44 148.721 308.94 148.869 308.565 149.166C308.198 149.455 308.015 149.853 308.015 150.361C308.015 150.721 308.089 151.018 308.237 151.252C308.386 151.486 308.616 151.705 308.929 151.908C309.241 152.111 309.792 152.381 310.581 152.717C311.378 153.06 311.991 153.377 312.421 153.666C312.858 153.955 313.198 154.291 313.44 154.674C313.69 155.057 313.815 155.514 313.815 156.045C313.815 156.662 313.71 157.182 313.499 157.603C313.288 158.025 312.991 158.369 312.608 158.635C312.225 158.9 311.768 159.092 311.237 159.209C310.714 159.326 310.14 159.385 309.515 159.385C308.858 159.385 308.222 159.334 307.604 159.232C306.987 159.139 306.386 159.014 305.8 158.857V156.408H306.948C307.159 157.127 307.472 157.65 307.886 157.978C308.3 158.299 308.87 158.459 309.597 158.459C309.878 158.459 310.151 158.432 310.417 158.377C310.69 158.314 310.932 158.217 311.143 158.084C311.354 157.943 311.522 157.756 311.647 157.521C311.772 157.287 311.835 156.994 311.835 156.643C311.835 156.244 311.757 155.92 311.6 155.67C311.444 155.42 311.202 155.193 310.874 154.99C310.546 154.779 309.968 154.498 309.14 154.146C308.429 153.85 307.858 153.56 307.429 153.279C306.999 152.998 306.659 152.666 306.409 152.283C306.167 151.9 306.046 151.447 306.046 150.924C306.046 150.283 306.218 149.728 306.561 149.26C306.913 148.783 307.417 148.42 308.073 148.17C308.729 147.92 309.499 147.795 310.382 147.795C310.897 147.795 311.393 147.822 311.87 147.877C312.354 147.924 312.96 148.021 313.686 148.17V150.56Z" fill="#D9D9D9"/>
<path d="M480 241.197H450.811V204.408H421.515V167.623C421.515 67.8608 282.075 92.735 240 1.1972C197.925 92.735 58.485 67.8608 58.485 167.623V204.408H29.1889V241.197H0" stroke="#D9D9D9"/>
</svg>
