<svg width="358" height="153" viewBox="0 0 358 153" fill="none" xmlns="http://www.w3.org/2000/svg">
<path d="M120.735 99.8191C120.735 100.165 120.753 100.44 120.788 100.645C120.829 100.85 120.888 101.014 120.964 101.137C121.046 101.255 121.154 101.348 121.289 101.419C121.424 101.483 121.635 101.548 121.922 101.612V102.043H118.063V101.612C118.427 101.518 118.67 101.416 118.793 101.304C118.916 101.187 118.995 101.023 119.03 100.812C119.071 100.601 119.092 100.279 119.092 99.8455V92.2429C119.092 91.8386 119.077 91.5457 119.048 91.364C119.019 91.1765 118.969 91.033 118.898 90.9333C118.834 90.8279 118.746 90.7458 118.635 90.6873C118.523 90.6228 118.333 90.5525 118.063 90.4763V90.0457H122.423C123.794 90.0457 124.813 90.3093 125.481 90.8367C126.155 91.3582 126.492 92.155 126.492 93.2273C126.492 93.8367 126.387 94.3845 126.176 94.8708C125.965 95.3572 125.666 95.7556 125.279 96.0662C124.893 96.3767 124.436 96.5994 123.908 96.7341C123.381 96.8689 122.827 96.9363 122.247 96.9363C121.597 96.9363 121.093 96.9246 120.735 96.9011V99.8191ZM120.735 96.1716H121.755C122.417 96.1716 122.962 96.0867 123.39 95.9167C123.823 95.741 124.154 95.4539 124.383 95.0554C124.611 94.6511 124.726 94.1179 124.726 93.4558C124.726 92.9519 124.658 92.533 124.523 92.199C124.389 91.8591 124.201 91.5867 123.961 91.3816C123.727 91.1765 123.445 91.033 123.117 90.9509C122.789 90.863 122.432 90.8191 122.045 90.8191C121.465 90.8191 121.028 90.8308 120.735 90.8542V96.1716ZM131.896 95.0994L132.019 95.1257C132.341 94.7332 132.64 94.4255 132.916 94.2029C133.191 93.9744 133.487 93.7986 133.803 93.6755C134.126 93.5525 134.489 93.491 134.893 93.491C135.233 93.491 135.541 93.5085 135.816 93.5437V95.5652H134.823C134.682 95.2488 134.533 95.0203 134.375 94.8796C134.216 94.7332 134 94.6599 133.724 94.6599C133.513 94.6599 133.302 94.7214 133.091 94.8445C132.886 94.9675 132.687 95.1462 132.494 95.3806C132.3 95.615 132.166 95.8347 132.089 96.0398C132.019 96.2449 131.984 96.488 131.984 96.7693V99.8455C131.984 100.379 132.016 100.748 132.081 100.953C132.145 101.152 132.251 101.299 132.397 101.392C132.549 101.486 132.775 101.559 133.074 101.612V102.043H129.532V101.612C129.754 101.542 129.913 101.48 130.006 101.427C130.106 101.375 130.191 101.302 130.261 101.208C130.332 101.114 130.384 100.97 130.419 100.777C130.455 100.584 130.472 100.282 130.472 99.8718V96.0398C130.472 95.6648 130.466 95.363 130.455 95.1345C130.443 94.906 130.402 94.7244 130.332 94.5896C130.261 94.449 130.153 94.3464 130.006 94.282C129.866 94.2117 129.664 94.1531 129.4 94.1062V93.6492L131.457 93.5613H131.993L131.896 95.0994ZM143.18 100.786L143.048 100.751C142.538 101.272 142.058 101.641 141.607 101.858C141.161 102.075 140.687 102.183 140.183 102.183C139.737 102.183 139.345 102.098 139.005 101.928C138.665 101.753 138.404 101.51 138.223 101.199C138.041 100.883 137.95 100.519 137.95 100.109C137.95 99.2537 138.372 98.5945 139.216 98.1316C140.066 97.6628 141.337 97.3904 143.03 97.3142V96.7429C143.03 96.1335 142.972 95.6531 142.855 95.3015C142.737 94.95 142.553 94.6921 142.301 94.5281C142.049 94.364 141.712 94.282 141.29 94.282C140.833 94.282 140.464 94.4021 140.183 94.6423C139.907 94.8826 139.699 95.2429 139.559 95.7234H138.407V94.5808C138.97 94.2878 139.439 94.074 139.814 93.9392C140.189 93.7986 140.564 93.6902 140.939 93.614C141.314 93.532 141.694 93.491 142.081 93.491C142.661 93.491 143.127 93.5847 143.479 93.7722C143.83 93.9539 144.094 94.2351 144.27 94.616C144.445 94.9968 144.533 95.571 144.533 96.3386V99.3972C144.533 99.8308 144.536 100.138 144.542 100.32C144.548 100.496 144.566 100.66 144.595 100.812C144.624 100.965 144.668 101.088 144.727 101.181C144.785 101.269 144.87 101.345 144.982 101.41C145.099 101.474 145.286 101.542 145.544 101.612V102.043H143.136L143.18 100.786ZM143.03 98.0349C141.841 98.0466 140.95 98.2048 140.359 98.5095C139.767 98.8142 139.471 99.2742 139.471 99.8894C139.471 100.223 139.538 100.487 139.673 100.68C139.808 100.874 139.978 101.009 140.183 101.085C140.388 101.155 140.631 101.19 140.912 101.19C141.311 101.19 141.671 101.094 141.993 100.9C142.321 100.707 142.576 100.461 142.758 100.162C142.94 99.863 143.03 99.5671 143.03 99.2742V98.0349ZM151.695 102.763C151.373 103.49 151.059 104.079 150.755 104.53C150.45 104.981 150.113 105.321 149.744 105.55C149.381 105.778 148.947 105.892 148.443 105.892C148.121 105.892 147.757 105.854 147.353 105.778V104.038H148.135C148.206 104.278 148.294 104.445 148.399 104.539C148.505 104.633 148.657 104.679 148.856 104.679C149.032 104.679 149.187 104.644 149.322 104.574C149.463 104.51 149.606 104.395 149.753 104.231C149.905 104.067 150.081 103.815 150.28 103.475C150.485 103.135 150.714 102.705 150.966 102.183L148.505 95.5652C148.346 95.1375 148.217 94.8386 148.118 94.6687C148.024 94.4988 147.922 94.3699 147.81 94.282C147.699 94.1941 147.529 94.1238 147.3 94.071V93.6404H150.878V94.071C150.602 94.1355 150.409 94.2 150.298 94.2644C150.186 94.323 150.104 94.4021 150.051 94.5017C149.999 94.5955 149.972 94.7185 149.972 94.8708C149.972 95.0291 149.99 95.1931 150.025 95.363C150.066 95.533 150.128 95.7322 150.21 95.9607L151.774 100.364L153.532 96.1453C153.632 95.9109 153.708 95.697 153.76 95.5037C153.819 95.3044 153.848 95.1199 153.848 94.95C153.848 94.698 153.778 94.5076 153.637 94.3787C153.503 94.2498 153.265 94.1472 152.925 94.071V93.6404H156.213V94.071C155.984 94.1179 155.808 94.1912 155.685 94.2908C155.562 94.3845 155.439 94.5369 155.316 94.7478C155.193 94.9529 155.047 95.2429 154.877 95.6179L151.695 102.763ZM165.158 100.549C164.783 100.941 164.438 101.249 164.121 101.471C163.811 101.694 163.468 101.87 163.093 101.999C162.718 102.122 162.305 102.183 161.854 102.183C160.647 102.183 159.736 101.823 159.12 101.102C158.505 100.376 158.198 99.3064 158.198 97.8943C158.198 97.0212 158.353 96.2507 158.663 95.5828C158.98 94.9148 159.428 94.3992 160.008 94.0359C160.588 93.6726 161.256 93.491 162.012 93.491C162.604 93.491 163.108 93.5847 163.524 93.7722C163.94 93.9597 164.271 94.2175 164.517 94.5457C164.769 94.8679 164.962 95.2781 165.097 95.7761C165.238 96.2683 165.317 96.9128 165.334 97.7097H159.797V97.8679C159.797 98.5593 159.873 99.1423 160.026 99.6169C160.184 100.086 160.439 100.455 160.79 100.724C161.148 100.988 161.611 101.12 162.179 101.12C162.659 101.12 163.09 101.032 163.471 100.856C163.858 100.675 164.241 100.382 164.622 99.9773L165.158 100.549ZM163.682 96.9802C163.647 96.3474 163.568 95.8318 163.445 95.4333C163.322 95.0291 163.137 94.7214 162.891 94.5105C162.645 94.2937 162.323 94.1853 161.924 94.1853C161.321 94.1853 160.837 94.4285 160.474 94.9148C160.116 95.3953 159.906 96.0837 159.841 96.9802H163.682ZM170.738 95.0994L170.861 95.1257C171.183 94.7332 171.482 94.4255 171.758 94.2029C172.033 93.9744 172.329 93.7986 172.645 93.6755C172.968 93.5525 173.331 93.491 173.735 93.491C174.075 93.491 174.383 93.5085 174.658 93.5437V95.5652H173.665C173.524 95.2488 173.375 95.0203 173.217 94.8796C173.058 94.7332 172.842 94.6599 172.566 94.6599C172.355 94.6599 172.144 94.7214 171.933 94.8445C171.728 94.9675 171.529 95.1462 171.336 95.3806C171.142 95.615 171.008 95.8347 170.931 96.0398C170.861 96.2449 170.826 96.488 170.826 96.7693V99.8455C170.826 100.379 170.858 100.748 170.923 100.953C170.987 101.152 171.093 101.299 171.239 101.392C171.391 101.486 171.617 101.559 171.916 101.612V102.043H168.374V101.612C168.596 101.542 168.755 101.48 168.848 101.427C168.948 101.375 169.033 101.302 169.103 101.208C169.174 101.114 169.226 100.97 169.262 100.777C169.297 100.584 169.314 100.282 169.314 99.8718V96.0398C169.314 95.6648 169.308 95.363 169.297 95.1345C169.285 94.906 169.244 94.7244 169.174 94.5896C169.103 94.449 168.995 94.3464 168.848 94.282C168.708 94.2117 168.506 94.1531 168.242 94.1062V93.6492L170.299 93.5613H170.835L170.738 95.0994ZM182.398 90.0457H191.908V93.1042H191.047C190.918 92.6003 190.789 92.2019 190.66 91.9089C190.537 91.616 190.405 91.3933 190.265 91.241C190.124 91.0886 189.972 90.9802 189.808 90.9158C189.649 90.8513 189.409 90.8191 189.087 90.8191H187.971V99.8191C187.971 100.165 187.988 100.44 188.023 100.645C188.064 100.85 188.123 101.014 188.199 101.137C188.281 101.255 188.39 101.348 188.524 101.419C188.659 101.483 188.87 101.548 189.157 101.612V102.043H185.141V101.612C185.316 101.571 185.472 101.527 185.606 101.48C185.741 101.433 185.85 101.378 185.932 101.313C186.019 101.243 186.09 101.155 186.143 101.05C186.201 100.944 186.245 100.801 186.274 100.619C186.309 100.437 186.327 100.171 186.327 99.8191V90.8191H185.22C184.944 90.8191 184.716 90.8455 184.534 90.8982C184.358 90.9509 184.194 91.0623 184.042 91.2322C183.89 91.3962 183.749 91.6335 183.62 91.9441C183.497 92.2488 183.38 92.6355 183.268 93.1042H182.398V90.0457ZM197.294 90.1951V91.9001H195.677V90.1951H197.294ZM194.781 101.612C195.009 101.542 195.17 101.48 195.264 101.427C195.364 101.375 195.446 101.302 195.51 101.208C195.581 101.114 195.633 100.97 195.668 100.777C195.709 100.584 195.73 100.282 195.73 99.8718V96.0398C195.73 95.6648 195.724 95.363 195.712 95.1345C195.701 94.906 195.66 94.7244 195.589 94.5896C195.519 94.449 195.411 94.3464 195.264 94.282C195.124 94.2117 194.921 94.1531 194.658 94.1062V93.6404L196.706 93.5613H197.242V99.8455C197.242 100.349 197.265 100.701 197.312 100.9C197.359 101.094 197.447 101.243 197.576 101.348C197.71 101.448 197.927 101.536 198.226 101.612V102.043H194.781V101.612ZM203.604 94.9939L203.727 95.0291C204.078 94.6775 204.365 94.4138 204.588 94.238C204.816 94.0564 205.036 93.9128 205.247 93.8074C205.458 93.696 205.654 93.6169 205.836 93.5701C206.023 93.5232 206.214 93.4998 206.407 93.4998C206.993 93.4998 207.471 93.6345 207.84 93.9041C208.209 94.1736 208.464 94.5867 208.605 95.1433C209.044 94.698 209.398 94.3699 209.668 94.1589C209.943 93.948 210.222 93.7869 210.503 93.6755C210.79 93.5583 211.098 93.4998 211.426 93.4998C211.818 93.4998 212.155 93.5583 212.437 93.6755C212.724 93.7869 212.964 93.9626 213.157 94.2029C213.356 94.4373 213.5 94.7332 213.588 95.0906C213.682 95.448 213.729 95.9285 213.729 96.532V99.8455C213.729 100.291 213.743 100.598 213.772 100.768C213.802 100.938 213.843 101.07 213.896 101.164C213.954 101.258 214.039 101.34 214.15 101.41C214.262 101.474 214.449 101.542 214.713 101.612V102.043H211.259V101.612C211.487 101.542 211.651 101.48 211.751 101.427C211.851 101.375 211.933 101.302 211.997 101.208C212.067 101.114 212.12 100.97 212.155 100.777C212.196 100.578 212.217 100.279 212.217 99.8806V97.5779C212.217 97.0798 212.202 96.6697 212.173 96.3474C212.149 96.0193 212.108 95.7585 212.05 95.5652C211.997 95.3718 211.93 95.2195 211.848 95.1082C211.772 94.9968 211.684 94.9001 211.584 94.8181C211.484 94.7361 211.367 94.6716 211.232 94.6248C211.098 94.5779 210.919 94.5544 210.696 94.5544C210.462 94.5544 210.242 94.6013 210.037 94.6951C209.838 94.7888 209.618 94.947 209.378 95.1697C209.144 95.3923 208.974 95.6179 208.868 95.8464C208.763 96.0691 208.71 96.3328 208.71 96.6375V99.8455C208.71 100.291 208.725 100.598 208.754 100.768C208.783 100.938 208.824 101.07 208.877 101.164C208.936 101.258 209.021 101.34 209.132 101.41C209.243 101.474 209.431 101.542 209.694 101.612V102.043H206.24V101.612C206.469 101.542 206.633 101.48 206.732 101.427C206.832 101.375 206.914 101.302 206.979 101.208C207.049 101.114 207.102 100.97 207.137 100.777C207.178 100.578 207.198 100.279 207.198 99.8806V97.5779C207.198 97.0564 207.184 96.6316 207.154 96.3035C207.125 95.9753 207.078 95.7117 207.014 95.5125C206.955 95.3132 206.876 95.1521 206.776 95.0291C206.683 94.906 206.586 94.8123 206.486 94.7478C206.387 94.6833 206.27 94.6365 206.135 94.6072C206 94.572 205.848 94.5544 205.678 94.5544C205.438 94.5544 205.212 94.6101 205.001 94.7214C204.79 94.8269 204.573 94.9822 204.351 95.1873C204.134 95.3923 203.97 95.6062 203.858 95.8289C203.747 96.0515 203.691 96.2917 203.691 96.5496V99.8455C203.691 100.179 203.7 100.434 203.718 100.61C203.735 100.786 203.762 100.924 203.797 101.023C203.838 101.123 203.888 101.205 203.946 101.269C204.005 101.328 204.087 101.386 204.192 101.445C204.304 101.498 204.468 101.553 204.685 101.612V102.043H201.239V101.612C201.462 101.542 201.62 101.48 201.714 101.427C201.814 101.375 201.898 101.302 201.969 101.208C202.039 101.114 202.092 100.97 202.127 100.777C202.162 100.584 202.18 100.282 202.18 99.8718V96.0398C202.18 95.6648 202.174 95.363 202.162 95.1345C202.15 94.906 202.109 94.7244 202.039 94.5896C201.969 94.449 201.86 94.3464 201.714 94.282C201.573 94.2117 201.371 94.1531 201.107 94.1062V93.6404L203.164 93.5613H203.7L203.604 94.9939ZM224.67 100.549C224.295 100.941 223.949 101.249 223.632 101.471C223.322 101.694 222.979 101.87 222.604 101.999C222.229 102.122 221.816 102.183 221.365 102.183C220.158 102.183 219.247 101.823 218.631 101.102C218.016 100.376 217.709 99.3064 217.709 97.8943C217.709 97.0212 217.864 96.2507 218.174 95.5828C218.491 94.9148 218.939 94.3992 219.519 94.0359C220.099 93.6726 220.767 93.491 221.523 93.491C222.115 93.491 222.619 93.5847 223.035 93.7722C223.451 93.9597 223.782 94.2175 224.028 94.5457C224.28 94.8679 224.473 95.2781 224.608 95.7761C224.749 96.2683 224.828 96.9128 224.845 97.7097H219.308V97.8679C219.308 98.5593 219.384 99.1423 219.537 99.6169C219.695 100.086 219.95 100.455 220.301 100.724C220.659 100.988 221.122 101.12 221.69 101.12C222.171 101.12 222.601 101.032 222.982 100.856C223.369 100.675 223.753 100.382 224.133 99.9773L224.67 100.549ZM223.193 96.9802C223.158 96.3474 223.079 95.8318 222.956 95.4333C222.833 95.0291 222.648 94.7214 222.402 94.5105C222.156 94.2937 221.834 94.1853 221.435 94.1853C220.832 94.1853 220.348 94.4285 219.985 94.9148C219.628 95.3953 219.417 96.0837 219.352 96.9802H223.193ZM233.765 95.5652H232.921C232.792 95.2136 232.64 94.9382 232.464 94.739C232.288 94.5339 232.089 94.3904 231.866 94.3083C231.644 94.2263 231.371 94.1853 231.049 94.1853C230.58 94.1853 230.205 94.2966 229.924 94.5193C229.649 94.7361 229.511 95.0349 229.511 95.4158C229.511 95.6853 229.567 95.908 229.678 96.0837C229.789 96.2595 229.962 96.4236 230.196 96.5759C230.431 96.7283 230.844 96.9304 231.436 97.1824C232.033 97.4402 232.493 97.6775 232.816 97.8943C233.144 98.1111 233.399 98.363 233.58 98.6501C233.768 98.9373 233.861 99.28 233.861 99.6785C233.861 100.141 233.782 100.531 233.624 100.847C233.466 101.164 233.243 101.422 232.956 101.621C232.669 101.82 232.326 101.964 231.928 102.052C231.535 102.139 231.105 102.183 230.636 102.183C230.144 102.183 229.666 102.145 229.203 102.069C228.74 101.999 228.289 101.905 227.85 101.788V99.9509H228.711C228.869 100.49 229.104 100.883 229.414 101.129C229.725 101.369 230.153 101.489 230.697 101.489C230.908 101.489 231.113 101.469 231.313 101.427C231.518 101.381 231.699 101.307 231.858 101.208C232.016 101.102 232.142 100.962 232.236 100.786C232.329 100.61 232.376 100.39 232.376 100.127C232.376 99.8279 232.318 99.5847 232.2 99.3972C232.083 99.2097 231.902 99.0398 231.655 98.8875C231.409 98.7292 230.976 98.5183 230.355 98.2546C229.821 98.032 229.394 97.8152 229.071 97.6042C228.749 97.3933 228.494 97.1443 228.307 96.8572C228.125 96.5701 228.034 96.2302 228.034 95.8376C228.034 95.3572 228.163 94.9412 228.421 94.5896C228.685 94.2322 229.063 93.9597 229.555 93.7722C230.047 93.5847 230.624 93.491 231.286 93.491C231.673 93.491 232.045 93.5115 232.403 93.5525C232.766 93.5876 233.22 93.6609 233.765 93.7722V95.5652Z" fill="white"/>
<path d="M358 151.612H336.23V128.531H314.38V105.453C314.38 42.8655 210.381 58.4709 179 1.04272C147.619 58.4709 43.62 42.8655 43.62 105.453V128.531H21.7701V151.612H0" stroke="#EEEEEE"/>
</svg>
