<svg width="480" height="244" viewBox="0 0 480 244" fill="none" xmlns="http://www.w3.org/2000/svg">
<path d="M162.98 157.43C162.98 157.891 163.004 158.258 163.051 158.531C163.105 158.805 163.184 159.023 163.285 159.187C163.395 159.344 163.539 159.469 163.719 159.562C163.898 159.648 164.18 159.734 164.562 159.82V160.394H159.418V159.82C159.902 159.695 160.227 159.558 160.391 159.41C160.555 159.254 160.66 159.035 160.707 158.754C160.762 158.473 160.789 158.043 160.789 157.465V147.328C160.789 146.789 160.77 146.398 160.73 146.156C160.691 145.906 160.625 145.715 160.531 145.582C160.445 145.441 160.328 145.332 160.18 145.254C160.031 145.168 159.777 145.074 159.418 144.973V144.398H165.23C167.059 144.398 168.418 144.75 169.309 145.453C170.207 146.148 170.656 147.211 170.656 148.641C170.656 149.453 170.516 150.183 170.234 150.832C169.953 151.48 169.555 152.012 169.039 152.426C168.523 152.84 167.914 153.137 167.211 153.316C166.508 153.496 165.77 153.586 164.996 153.586C164.129 153.586 163.457 153.57 162.98 153.539V157.43ZM162.98 152.566H164.34C165.223 152.566 165.949 152.453 166.52 152.226C167.098 151.992 167.539 151.609 167.844 151.078C168.148 150.539 168.301 149.828 168.301 148.945C168.301 148.273 168.211 147.715 168.031 147.269C167.852 146.816 167.602 146.453 167.281 146.18C166.969 145.906 166.594 145.715 166.156 145.605C165.719 145.488 165.242 145.43 164.727 145.43C163.953 145.43 163.371 145.445 162.98 145.476V152.566ZM177.861 151.137L178.025 151.172C178.455 150.648 178.854 150.238 179.221 149.941C179.588 149.637 179.983 149.402 180.404 149.238C180.834 149.074 181.318 148.992 181.858 148.992C182.311 148.992 182.721 149.016 183.088 149.062V151.758H181.764C181.576 151.336 181.377 151.031 181.166 150.844C180.955 150.648 180.666 150.551 180.299 150.551C180.018 150.551 179.736 150.633 179.455 150.797C179.182 150.961 178.916 151.199 178.658 151.512C178.4 151.824 178.221 152.117 178.119 152.391C178.025 152.664 177.979 152.988 177.979 153.363V157.465C177.979 158.176 178.022 158.668 178.108 158.941C178.193 159.207 178.334 159.402 178.529 159.527C178.733 159.652 179.033 159.75 179.432 159.82V160.394H174.709V159.82C175.006 159.726 175.217 159.644 175.342 159.574C175.475 159.504 175.588 159.406 175.682 159.281C175.775 159.156 175.846 158.965 175.893 158.707C175.94 158.449 175.963 158.047 175.963 157.5V152.391C175.963 151.891 175.955 151.488 175.94 151.183C175.924 150.879 175.869 150.637 175.775 150.457C175.682 150.269 175.537 150.133 175.342 150.047C175.154 149.953 174.885 149.875 174.533 149.812V149.203L177.275 149.086H177.99L177.861 151.137ZM192.906 158.719L192.731 158.672C192.051 159.367 191.41 159.859 190.809 160.148C190.215 160.437 189.582 160.582 188.91 160.582C188.317 160.582 187.793 160.469 187.34 160.242C186.887 160.008 186.539 159.683 186.297 159.269C186.055 158.848 185.934 158.363 185.934 157.816C185.934 156.676 186.496 155.797 187.621 155.18C188.754 154.555 190.449 154.191 192.707 154.09V153.328C192.707 152.516 192.629 151.875 192.473 151.406C192.317 150.937 192.07 150.594 191.735 150.375C191.399 150.156 190.949 150.047 190.387 150.047C189.778 150.047 189.285 150.207 188.91 150.527C188.543 150.848 188.266 151.328 188.078 151.969H186.543V150.445C187.293 150.055 187.918 149.769 188.418 149.59C188.918 149.402 189.418 149.258 189.918 149.156C190.418 149.047 190.926 148.992 191.442 148.992C192.215 148.992 192.836 149.117 193.305 149.367C193.774 149.609 194.125 149.984 194.36 150.492C194.594 151 194.711 151.766 194.711 152.789V156.867C194.711 157.445 194.715 157.855 194.723 158.098C194.731 158.332 194.754 158.551 194.793 158.754C194.832 158.957 194.891 159.121 194.969 159.246C195.047 159.363 195.16 159.465 195.309 159.551C195.465 159.637 195.715 159.726 196.059 159.82V160.394H192.848L192.906 158.719ZM192.707 155.051C191.121 155.066 189.934 155.277 189.145 155.683C188.356 156.09 187.961 156.703 187.961 157.523C187.961 157.969 188.051 158.32 188.231 158.578C188.41 158.836 188.637 159.016 188.91 159.117C189.184 159.211 189.508 159.258 189.883 159.258C190.414 159.258 190.895 159.129 191.324 158.871C191.762 158.613 192.102 158.285 192.344 157.887C192.586 157.488 192.707 157.094 192.707 156.703V155.051ZM204.26 161.355C203.83 162.324 203.412 163.109 203.006 163.711C202.6 164.312 202.151 164.766 201.658 165.07C201.174 165.375 200.596 165.527 199.924 165.527C199.494 165.527 199.01 165.476 198.471 165.375V163.055H199.514C199.608 163.375 199.725 163.598 199.865 163.723C200.006 163.848 200.209 163.91 200.475 163.91C200.709 163.91 200.916 163.863 201.096 163.769C201.283 163.683 201.475 163.531 201.67 163.312C201.873 163.094 202.108 162.758 202.373 162.305C202.647 161.851 202.951 161.277 203.287 160.582L200.006 151.758C199.795 151.187 199.623 150.789 199.49 150.562C199.365 150.336 199.229 150.164 199.08 150.047C198.932 149.93 198.705 149.836 198.401 149.766V149.191H203.17V149.766C202.803 149.851 202.545 149.937 202.397 150.023C202.248 150.101 202.139 150.207 202.069 150.34C201.998 150.465 201.963 150.629 201.963 150.832C201.963 151.043 201.987 151.262 202.033 151.488C202.088 151.715 202.17 151.98 202.28 152.285L204.365 158.156L206.709 152.531C206.842 152.219 206.944 151.933 207.014 151.676C207.092 151.41 207.131 151.164 207.131 150.937C207.131 150.601 207.037 150.348 206.85 150.176C206.67 150.004 206.354 149.867 205.901 149.766V149.191H210.283V149.766C209.979 149.828 209.744 149.926 209.58 150.058C209.416 150.183 209.252 150.387 209.088 150.668C208.924 150.941 208.729 151.328 208.502 151.828L204.26 161.355ZM222.211 158.402C221.711 158.926 221.25 159.336 220.828 159.633C220.414 159.93 219.957 160.164 219.457 160.336C218.957 160.5 218.407 160.582 217.805 160.582C216.196 160.582 214.981 160.101 214.16 159.141C213.34 158.172 212.93 156.746 212.93 154.863C212.93 153.699 213.137 152.672 213.551 151.781C213.973 150.891 214.571 150.203 215.344 149.719C216.118 149.234 217.008 148.992 218.016 148.992C218.805 148.992 219.477 149.117 220.032 149.367C220.586 149.617 221.028 149.961 221.356 150.398C221.692 150.828 221.95 151.375 222.129 152.039C222.317 152.695 222.422 153.555 222.446 154.617H215.063V154.828C215.063 155.75 215.164 156.527 215.368 157.16C215.578 157.785 215.918 158.277 216.387 158.637C216.864 158.988 217.481 159.164 218.239 159.164C218.879 159.164 219.453 159.047 219.961 158.812C220.477 158.57 220.989 158.18 221.496 157.641L222.211 158.402ZM220.243 153.644C220.196 152.801 220.09 152.113 219.926 151.582C219.762 151.043 219.516 150.633 219.188 150.351C218.86 150.062 218.43 149.918 217.899 149.918C217.094 149.918 216.45 150.242 215.965 150.891C215.489 151.531 215.207 152.449 215.121 153.644H220.243ZM229.651 151.137L229.815 151.172C230.245 150.648 230.643 150.238 231.01 149.941C231.377 149.637 231.772 149.402 232.194 149.238C232.623 149.074 233.108 148.992 233.647 148.992C234.1 148.992 234.51 149.016 234.877 149.062V151.758H233.553C233.366 151.336 233.166 151.031 232.955 150.844C232.745 150.648 232.455 150.551 232.088 150.551C231.807 150.551 231.526 150.633 231.245 150.797C230.971 150.961 230.705 151.199 230.448 151.512C230.19 151.824 230.01 152.117 229.909 152.391C229.815 152.664 229.768 152.988 229.768 153.363V157.465C229.768 158.176 229.811 158.668 229.897 158.941C229.983 159.207 230.123 159.402 230.319 159.527C230.522 159.652 230.823 159.75 231.221 159.82V160.394H226.498V159.82C226.795 159.726 227.006 159.644 227.131 159.574C227.264 159.504 227.377 159.406 227.471 159.281C227.565 159.156 227.635 158.965 227.682 158.707C227.729 158.449 227.752 158.047 227.752 157.5V152.391C227.752 151.891 227.745 151.488 227.729 151.183C227.713 150.879 227.659 150.637 227.565 150.457C227.471 150.269 227.327 150.133 227.131 150.047C226.944 149.953 226.674 149.875 226.323 149.812V149.203L229.065 149.086H229.78L229.651 151.137ZM245.198 144.398H257.878V148.476H256.729C256.557 147.805 256.385 147.273 256.213 146.883C256.049 146.492 255.874 146.195 255.686 145.992C255.499 145.789 255.295 145.644 255.077 145.558C254.866 145.473 254.545 145.43 254.116 145.43H252.628V157.43C252.628 157.891 252.651 158.258 252.698 158.531C252.753 158.805 252.831 159.023 252.932 159.187C253.042 159.344 253.186 159.469 253.366 159.562C253.545 159.648 253.827 159.734 254.21 159.82V160.394H248.854V159.82C249.088 159.766 249.295 159.707 249.475 159.644C249.655 159.582 249.799 159.508 249.909 159.422C250.026 159.328 250.12 159.211 250.19 159.07C250.268 158.93 250.327 158.738 250.366 158.496C250.413 158.254 250.436 157.898 250.436 157.43V145.43H248.96C248.592 145.43 248.288 145.465 248.045 145.535C247.811 145.605 247.592 145.754 247.389 145.98C247.186 146.199 246.999 146.516 246.827 146.93C246.663 147.336 246.506 147.851 246.358 148.476H245.198V144.398ZM265.059 144.598V146.871H262.903V144.598H265.059ZM261.708 159.82C262.012 159.726 262.227 159.644 262.352 159.574C262.485 159.504 262.594 159.406 262.68 159.281C262.774 159.156 262.844 158.965 262.891 158.707C262.946 158.449 262.973 158.047 262.973 157.5V152.391C262.973 151.891 262.965 151.488 262.95 151.183C262.934 150.879 262.88 150.637 262.786 150.457C262.692 150.269 262.548 150.133 262.352 150.047C262.165 149.953 261.895 149.875 261.544 149.812V149.191L264.274 149.086H264.989V157.465C264.989 158.137 265.02 158.605 265.083 158.871C265.145 159.129 265.262 159.328 265.434 159.469C265.614 159.601 265.903 159.719 266.301 159.82V160.394H261.708V159.82ZM273.471 150.996L273.635 151.043C274.104 150.574 274.487 150.223 274.784 149.988C275.089 149.746 275.382 149.555 275.663 149.414C275.944 149.266 276.206 149.16 276.448 149.098C276.698 149.035 276.952 149.004 277.21 149.004C277.991 149.004 278.628 149.183 279.12 149.543C279.612 149.902 279.952 150.453 280.139 151.195C280.725 150.601 281.198 150.164 281.557 149.883C281.925 149.601 282.296 149.387 282.671 149.238C283.053 149.082 283.464 149.004 283.901 149.004C284.425 149.004 284.874 149.082 285.249 149.238C285.632 149.387 285.952 149.621 286.21 149.941C286.475 150.254 286.667 150.648 286.784 151.125C286.909 151.601 286.971 152.242 286.971 153.047V157.465C286.971 158.058 286.991 158.469 287.03 158.695C287.069 158.922 287.124 159.098 287.194 159.223C287.272 159.348 287.385 159.457 287.534 159.551C287.682 159.637 287.932 159.726 288.284 159.82V160.394H283.678V159.82C283.983 159.726 284.202 159.644 284.335 159.574C284.467 159.504 284.577 159.406 284.663 159.281C284.757 159.156 284.827 158.965 284.874 158.707C284.928 158.441 284.956 158.043 284.956 157.512V154.441C284.956 153.777 284.936 153.23 284.897 152.801C284.866 152.363 284.811 152.016 284.733 151.758C284.663 151.5 284.573 151.297 284.464 151.148C284.362 151 284.245 150.871 284.112 150.762C283.979 150.652 283.823 150.566 283.643 150.504C283.464 150.441 283.225 150.41 282.928 150.41C282.616 150.41 282.323 150.473 282.05 150.598C281.784 150.723 281.491 150.933 281.171 151.23C280.858 151.527 280.632 151.828 280.491 152.133C280.35 152.43 280.28 152.781 280.28 153.187V157.465C280.28 158.058 280.3 158.469 280.339 158.695C280.378 158.922 280.432 159.098 280.503 159.223C280.581 159.348 280.694 159.457 280.842 159.551C280.991 159.637 281.241 159.726 281.592 159.82V160.394H276.987V159.82C277.292 159.726 277.51 159.644 277.643 159.574C277.776 159.504 277.885 159.406 277.971 159.281C278.065 159.156 278.135 158.965 278.182 158.707C278.237 158.441 278.264 158.043 278.264 157.512V154.441C278.264 153.746 278.245 153.18 278.206 152.742C278.167 152.305 278.104 151.953 278.018 151.687C277.94 151.422 277.835 151.207 277.702 151.043C277.577 150.879 277.448 150.754 277.315 150.668C277.182 150.582 277.026 150.519 276.846 150.48C276.667 150.433 276.464 150.41 276.237 150.41C275.917 150.41 275.616 150.484 275.335 150.633C275.053 150.773 274.764 150.98 274.467 151.254C274.178 151.527 273.96 151.812 273.811 152.109C273.663 152.406 273.589 152.726 273.589 153.07V157.465C273.589 157.91 273.6 158.25 273.624 158.484C273.647 158.719 273.682 158.902 273.729 159.035C273.784 159.168 273.85 159.277 273.928 159.363C274.007 159.441 274.116 159.519 274.257 159.598C274.405 159.668 274.624 159.742 274.913 159.82V160.394H270.319V159.82C270.616 159.726 270.827 159.644 270.952 159.574C271.085 159.504 271.198 159.406 271.292 159.281C271.385 159.156 271.456 158.965 271.503 158.707C271.55 158.449 271.573 158.047 271.573 157.5V152.391C271.573 151.891 271.565 151.488 271.55 151.183C271.534 150.879 271.479 150.637 271.385 150.457C271.292 150.269 271.147 150.133 270.952 150.047C270.764 149.953 270.495 149.875 270.143 149.812V149.191L272.885 149.086H273.6L273.471 150.996ZM301.559 158.402C301.059 158.926 300.598 159.336 300.177 159.633C299.762 159.93 299.305 160.164 298.805 160.336C298.305 160.5 297.755 160.582 297.153 160.582C295.544 160.582 294.329 160.101 293.509 159.141C292.688 158.172 292.278 156.746 292.278 154.863C292.278 153.699 292.485 152.672 292.899 151.781C293.321 150.891 293.919 150.203 294.692 149.719C295.466 149.234 296.356 148.992 297.364 148.992C298.153 148.992 298.825 149.117 299.38 149.367C299.934 149.617 300.376 149.961 300.704 150.398C301.04 150.828 301.298 151.375 301.477 152.039C301.665 152.695 301.77 153.555 301.794 154.617H294.411V154.828C294.411 155.75 294.512 156.527 294.716 157.16C294.927 157.785 295.266 158.277 295.735 158.637C296.212 158.988 296.829 159.164 297.587 159.164C298.227 159.164 298.802 159.047 299.309 158.812C299.825 158.57 300.337 158.18 300.845 157.641L301.559 158.402ZM299.591 153.644C299.544 152.801 299.438 152.113 299.274 151.582C299.11 151.043 298.864 150.633 298.536 150.351C298.208 150.062 297.778 149.918 297.247 149.918C296.442 149.918 295.798 150.242 295.313 150.891C294.837 151.531 294.555 152.449 294.47 153.644H299.591ZM313.686 151.758H312.561C312.39 151.289 312.186 150.922 311.952 150.656C311.718 150.383 311.452 150.191 311.155 150.082C310.858 149.973 310.495 149.918 310.065 149.918C309.44 149.918 308.94 150.066 308.565 150.363C308.198 150.652 308.015 151.051 308.015 151.558C308.015 151.918 308.089 152.215 308.237 152.449C308.386 152.683 308.616 152.902 308.929 153.105C309.241 153.308 309.792 153.578 310.581 153.914C311.378 154.258 311.991 154.574 312.421 154.863C312.858 155.152 313.198 155.488 313.44 155.871C313.69 156.254 313.815 156.711 313.815 157.242C313.815 157.859 313.71 158.379 313.499 158.801C313.288 159.223 312.991 159.566 312.608 159.832C312.225 160.098 311.768 160.289 311.237 160.406C310.714 160.523 310.14 160.582 309.515 160.582C308.858 160.582 308.222 160.531 307.604 160.43C306.987 160.336 306.386 160.211 305.8 160.055V157.605H306.948C307.159 158.324 307.472 158.848 307.886 159.176C308.3 159.496 308.87 159.656 309.597 159.656C309.878 159.656 310.151 159.629 310.417 159.574C310.69 159.512 310.932 159.414 311.143 159.281C311.354 159.141 311.522 158.953 311.647 158.719C311.772 158.484 311.835 158.191 311.835 157.84C311.835 157.441 311.757 157.117 311.6 156.867C311.444 156.617 311.202 156.391 310.874 156.187C310.546 155.976 309.968 155.695 309.14 155.344C308.429 155.047 307.858 154.758 307.429 154.476C306.999 154.195 306.659 153.863 306.409 153.48C306.167 153.098 306.046 152.644 306.046 152.121C306.046 151.48 306.218 150.926 306.561 150.457C306.913 149.98 307.417 149.617 308.073 149.367C308.729 149.117 309.499 148.992 310.382 148.992C310.897 148.992 311.393 149.019 311.87 149.074C312.354 149.121 312.96 149.219 313.686 149.367V151.758Z" fill="#D9D9D9"/>
<path d="M480 242.394H450.811V205.605H421.515V168.82C421.515 69.058 282.075 93.9322 240 2.39441C197.925 93.9322 58.485 69.058 58.485 168.82V205.605H29.1889V242.394H0" stroke="#D9D9D9" stroke-width="2"/>
</svg>
