<?xml version="1.0" encoding="UTF-8"?>
<svg xmlns="http://www.w3.org/2000/svg" xmlns:xlink="http://www.w3.org/1999/xlink" width="3603" height="2604" viewBox="0 0 3603 2604">
<path fill-rule="evenodd" fill="rgb(100%, 100%, 100%)" fill-opacity="1" d="M 0 2603.703125 L 3602.570312 2603.703125 L 3602.570312 0.00390625 L 0 0.00390625 Z M 0 2603.703125 "/>
<path fill-rule="evenodd" fill="rgb(0%, 0%, 0%)" fill-opacity="1" d="M 1403.050781 1261.609375 L 807.773438 1261.609375 L 807.773438 419.71875 C 810.148438 275.410156 956.472656 256.730469 1105.410156 195.191406 C 1254.351562 256.730469 1400.679688 275.410156 1403.050781 419.71875 L 1403.050781 1261.609375 L 807.773438 1261.609375 "/>
<path fill-rule="evenodd" fill="rgb(0%, 0%, 0%)" fill-opacity="1" d="M 2199.519531 1261.609375 L 2794.800781 1261.609375 L 2794.800781 419.71875 C 2638.761719 419.71875 2716 234.71875 2497.160156 234.71875 C 2278.320312 234.71875 2355.558594 419.71875 2199.519531 419.71875 L 2199.519531 1261.609375 L 2794.800781 1261.609375 "/>
<path fill-rule="evenodd" fill="rgb(0%, 0%, 0%)" fill-opacity="1" d="M 3490.671875 1261.609375 L 2895.390625 1261.609375 L 2895.390625 419.71875 C 2895.390625 259.449219 3055.148438 184.160156 3193.039062 105.070312 C 3330.910156 184.160156 3490.671875 259.449219 3490.671875 419.71875 L 3490.671875 1261.609375 L 2895.390625 1261.609375 "/>
<path fill-rule="evenodd" fill="rgb(0%, 0%, 0%)" fill-opacity="1" d="M 2098.929688 1261.609375 L 1503.648438 1261.609375 L 1503.648438 419.71875 C 1503.648438 241.628906 1751.359375 356.21875 1801.289062 169.898438 C 1851.210938 356.21875 2098.929688 241.628906 2098.929688 419.71875 L 2098.929688 1261.609375 L 1503.648438 1261.609375 "/>
<path fill-rule="evenodd" fill="rgb(0%, 0%, 0%)" fill-opacity="1" d="M 111.902344 2498.632812 L 707.175781 2498.632812 L 707.175781 1656.742188 C 707.175781 1408.21875 435.984375 1520.570312 409.539062 1406.921875 C 383.089844 1520.570312 111.902344 1408.21875 111.902344 1656.742188 L 111.902344 2498.632812 L 707.175781 2498.632812 L 111.902344 2498.632812 L 707.175781 2498.632812 "/>
<path fill-rule="evenodd" fill="rgb(0%, 0%, 0%)" fill-opacity="1" d="M 2098.921875 2498.632812 L 1503.648438 2498.632812 L 1503.648438 1656.742188 L 1573.121094 1656.742188 C 1573.121094 1559.269531 1716.269531 1483.96875 1801.289062 1449.910156 C 1886.308594 1483.96875 2029.449219 1559.269531 2029.449219 1656.742188 L 2098.921875 1656.742188 L 2098.921875 2498.632812 L 1503.648438 2498.632812 Z M 2098.921875 2498.632812 "/>
<path fill-rule="evenodd" fill="rgb(0%, 0%, 0%)" fill-opacity="1" d="M 807.773438 2498.632812 L 1403.050781 2498.632812 L 1403.050781 1656.742188 L 1333.578125 1656.742188 C 1333.578125 1524.050781 1133.410156 1554.410156 1105.410156 1449.910156 C 1077.410156 1554.410156 877.246094 1524.050781 877.246094 1656.742188 L 807.773438 1656.742188 L 807.773438 2498.632812 L 1403.050781 2498.632812 "/>
<path fill-rule="evenodd" fill="rgb(0%, 0%, 0%)" fill-opacity="1" d="M 2199.519531 2498.632812 L 2794.800781 2498.632812 L 2794.800781 1656.742188 L 2758.601562 1656.742188 L 2758.601562 1620.414062 L 2722.269531 1620.414062 L 2722.269531 1584.089844 C 2722.269531 1485.578125 2549.339844 1510.140625 2497.160156 1419.75 C 2444.980469 1510.140625 2272.050781 1485.578125 2272.050781 1584.089844 L 2272.050781 1620.414062 L 2235.71875 1620.414062 L 2235.71875 1656.742188 L 2199.519531 1656.742188 L 2199.519531 2498.632812 L 2794.800781 2498.632812 "/>
<path fill-rule="evenodd" fill="rgb(0%, 0%, 0%)" fill-opacity="1" d="M 707.175781 1261.609375 L 111.902344 1261.609375 L 707.175781 1261.609375 L 111.902344 1261.609375 L 707.175781 1261.609375 L 707.175781 419.71875 C 707.175781 195.179688 443.550781 249.949219 409.539062 123.019531 C 375.527344 249.949219 111.902344 195.179688 111.902344 419.71875 L 111.902344 1261.609375 L 707.175781 1261.609375 L 111.902344 1261.609375 L 707.175781 1261.609375 L 111.902344 1261.609375 "/>
<path fill-rule="evenodd" fill="rgb(0%, 0%, 0%)" fill-opacity="1" d="M 2895.390625 2498.632812 L 3490.671875 2498.632812 L 3490.671875 1656.742188 C 3441.25 1656.742188 3245.199219 1656.742188 3193.039062 1501.410156 C 3140.871094 1656.742188 2944.820312 1656.742188 2895.390625 1656.742188 L 2895.390625 2498.632812 L 3490.671875 2498.632812 "/>
</svg>
