<svg width="319" height="139" viewBox="0 0 319 139" fill="none" xmlns="http://www.w3.org/2000/svg">
<mask id="mask0_32_3641" style="mask-type:luminance" maskUnits="userSpaceOnUse" x="261" y="93" width="18" height="3">
<path d="M261.915 93.9811H278.647V95.8249H261.915V93.9811Z" fill="white"/>
</mask>
<g mask="url(#mask0_32_3641)">
<mask id="mask1_32_3641" style="mask-type:luminance" maskUnits="userSpaceOnUse" x="261" y="93" width="18" height="3">
<path d="M278.587 93.9811C277.893 95.2878 276.623 95.7735 276.623 95.7735H263.941C263.941 95.7735 262.673 95.2878 261.976 93.9811H278.587Z" fill="white"/>
</mask>
<g mask="url(#mask1_32_3641)">
<mask id="mask2_32_3641" style="mask-type:luminance" maskUnits="userSpaceOnUse" x="261" y="93" width="18" height="3">
<path d="M278.587 93.9811C277.893 95.2878 276.623 95.7735 276.623 95.7735H263.941C263.941 95.7735 262.673 95.2878 261.976 93.9811H278.587Z" fill="white"/>
</mask>
<g mask="url(#mask2_32_3641)">
<path d="M261.221 94.405L265.906 102.886L279.344 95.3495L274.658 86.8682L261.221 94.405Z" fill="#EAEAEA"/>
</g>
</g>
</g>
<mask id="mask3_32_3641" style="mask-type:luminance" maskUnits="userSpaceOnUse" x="261" y="71" width="18" height="3">
<path d="M261.915 71.0651H278.647V73.0406H261.915V71.0651Z" fill="white"/>
</mask>
<g mask="url(#mask3_32_3641)">
<mask id="mask4_32_3641" style="mask-type:luminance" maskUnits="userSpaceOnUse" x="261" y="71" width="18" height="2">
<path d="M278.588 72.9367H261.976C262.673 71.6325 263.941 71.1443 263.941 71.1443H276.623C276.623 71.1443 277.894 71.6325 278.588 72.9367Z" fill="white"/>
</mask>
<g mask="url(#mask4_32_3641)">
<mask id="mask5_32_3641" style="mask-type:luminance" maskUnits="userSpaceOnUse" x="261" y="71" width="18" height="2">
<path d="M278.588 72.9367H261.976C262.673 71.6325 263.941 71.1443 263.941 71.1443H276.623C276.623 71.1443 277.894 71.6325 278.588 72.9367Z" fill="white"/>
</mask>
<g mask="url(#mask5_32_3641)">
<path d="M261.221 71.5682L265.906 80.0491L279.344 72.5123L274.658 64.0314L261.221 71.5682Z" fill="#ECECEC"/>
</g>
</g>
</g>
<mask id="mask6_32_3641" style="mask-type:luminance" maskUnits="userSpaceOnUse" x="263" y="57" width="14" height="14">
<path d="M263.876 57.8949H276.686V70.4065H263.876V57.8949Z" fill="white"/>
</mask>
<g mask="url(#mask6_32_3641)">
<mask id="mask7_32_3641" style="mask-type:luminance" maskUnits="userSpaceOnUse" x="263" y="57" width="14" height="14">
<path d="M274.043 67.7015C272.543 66.8311 271.384 65.2388 271.384 65.2388C271.384 65.2388 271.308 65.2188 271.374 64.9842C271.44 64.7501 272.014 64.7089 271.99 64.0293C271.97 63.3502 270.879 62.8836 270.879 62.8836C270.879 62.8836 270.876 62.7061 270.871 62.4242C271.172 62.2699 271.374 62.0013 271.374 61.6947C271.374 61.3758 271.157 61.099 270.835 60.9477C270.804 59.8478 270.758 58.6522 270.702 58.4706C270.591 58.1187 270.281 57.9911 270.281 57.9911C270.281 57.9911 269.973 58.1187 269.863 58.4706C269.805 58.6522 269.759 59.8478 269.729 60.9477C269.408 61.099 269.191 61.3758 269.191 61.6947C269.191 62.0013 269.392 62.2714 269.695 62.4252C269.69 62.7061 269.687 62.8836 269.687 62.8836C269.687 62.8836 268.595 63.3502 268.574 64.0293C268.549 64.7089 269.124 64.7501 269.191 64.9842C269.256 65.2188 269.179 65.2388 269.179 65.2388C269.179 65.2388 268.019 66.8311 266.521 67.7015C265.021 68.5705 264.094 69.2711 263.941 70.3525H276.623C276.47 69.2711 275.544 68.5705 274.043 67.7015Z" fill="white"/>
</mask>
<g mask="url(#mask7_32_3641)">
<mask id="mask8_32_3641" style="mask-type:luminance" maskUnits="userSpaceOnUse" x="263" y="57" width="14" height="14">
<path d="M274.043 67.7015C272.543 66.8311 271.384 65.2388 271.384 65.2388C271.384 65.2388 271.308 65.2188 271.374 64.9842C271.44 64.7501 272.014 64.7089 271.99 64.0293C271.97 63.3502 270.879 62.8836 270.879 62.8836C270.879 62.8836 270.876 62.7061 270.871 62.4242C271.172 62.2699 271.374 62.0013 271.374 61.6947C271.374 61.3758 271.157 61.099 270.835 60.9477C270.804 59.8478 270.758 58.6522 270.702 58.4706C270.591 58.1187 270.281 57.9911 270.281 57.9911C270.281 57.9911 269.973 58.1187 269.863 58.4706C269.805 58.6522 269.759 59.8478 269.729 60.9477C269.408 61.099 269.191 61.3758 269.191 61.6947C269.191 62.0013 269.392 62.2714 269.695 62.4252C269.69 62.7061 269.687 62.8836 269.687 62.8836C269.687 62.8836 268.595 63.3502 268.574 64.0293C268.549 64.7089 269.124 64.7501 269.191 64.9842C269.256 65.2188 269.179 65.2388 269.179 65.2388C269.179 65.2388 268.019 66.8311 266.521 67.7015C265.021 68.5705 264.094 69.2711 263.941 70.3525H276.623C276.47 69.2711 275.544 68.5705 274.043 67.7015Z" fill="white"/>
</mask>
<g mask="url(#mask8_32_3641)">
<path d="M258.727 60.9153L266.941 75.7826L281.837 67.4283L273.623 52.561L258.727 60.9153Z" fill="#D9D8D7"/>
</g>
</g>
</g>
<mask id="mask9_32_3641" style="mask-type:luminance" maskUnits="userSpaceOnUse" x="263" y="96" width="14" height="13">
<path d="M263.876 96.4834H276.686V108.995H263.876V96.4834Z" fill="white"/>
</mask>
<g mask="url(#mask9_32_3641)">
<mask id="mask10_32_3641" style="mask-type:luminance" maskUnits="userSpaceOnUse" x="263" y="96" width="14" height="13">
<path d="M263.941 96.5637C264.094 97.6461 265.021 98.3468 266.521 99.2178C268.019 100.089 269.179 101.68 269.179 101.68C269.179 101.68 269.256 101.702 269.191 101.936C269.124 102.168 268.549 102.211 268.574 102.89C268.595 103.568 269.687 104.037 269.687 104.037C269.687 104.037 269.69 104.204 269.695 104.471C269.392 104.625 269.191 104.894 269.191 105.202C269.191 105.521 269.408 105.796 269.729 105.947C269.759 107.055 269.804 108.267 269.863 108.45C269.973 108.799 270.281 108.927 270.281 108.927C270.281 108.927 270.591 108.799 270.702 108.45C270.759 108.267 270.805 107.055 270.835 105.947C271.157 105.796 271.374 105.521 271.374 105.202C271.374 104.895 271.172 104.626 270.871 104.472C270.876 104.204 270.879 104.037 270.879 104.037C270.879 104.037 271.97 103.568 271.99 102.89C272.014 102.211 271.44 102.168 271.374 101.936C271.308 101.702 271.384 101.68 271.384 101.68C271.384 101.68 272.543 100.089 274.043 99.2178C275.544 98.3468 276.47 97.6461 276.623 96.5637H263.941Z" fill="white"/>
</mask>
<g mask="url(#mask10_32_3641)">
<mask id="mask11_32_3641" style="mask-type:luminance" maskUnits="userSpaceOnUse" x="263" y="96" width="14" height="13">
<path d="M263.941 96.5637C264.094 97.6461 265.021 98.3468 266.521 99.2178C268.019 100.089 269.179 101.68 269.179 101.68C269.179 101.68 269.256 101.702 269.191 101.936C269.124 102.168 268.549 102.211 268.574 102.89C268.595 103.568 269.687 104.037 269.687 104.037C269.687 104.037 269.69 104.204 269.695 104.471C269.392 104.625 269.191 104.894 269.191 105.202C269.191 105.521 269.408 105.796 269.729 105.947C269.759 107.055 269.804 108.267 269.863 108.45C269.973 108.799 270.281 108.927 270.281 108.927C270.281 108.927 270.591 108.799 270.702 108.45C270.759 108.267 270.805 107.055 270.835 105.947C271.157 105.796 271.374 105.521 271.374 105.202C271.374 104.895 271.172 104.626 270.871 104.472C270.876 104.204 270.879 104.037 270.879 104.037C270.879 104.037 271.97 103.568 271.99 102.89C272.014 102.211 271.44 102.168 271.374 101.936C271.308 101.702 271.384 101.68 271.384 101.68C271.384 101.68 272.543 100.089 274.043 99.2178C275.544 98.3468 276.47 97.6461 276.623 96.5637H263.941Z" fill="white"/>
</mask>
<g mask="url(#mask11_32_3641)">
<path d="M258.726 99.4884L266.941 114.357L281.838 106.002L273.623 91.1336L258.726 99.4884Z" fill="#ECECEC"/>
</g>
</g>
</g>
<g filter="url(#filter0_f_32_3641)">
<mask id="mask12_32_3641" style="mask-type:luminance" maskUnits="userSpaceOnUse" x="263" y="75" width="15" height="17">
<path d="M263 75H278V92H263V75Z" fill="white"/>
</mask>
<g mask="url(#mask12_32_3641)">
<mask id="mask13_32_3641" style="mask-type:luminance" maskUnits="userSpaceOnUse" x="263" y="75" width="15" height="17">
<path d="M276.253 89.8445C276.183 89.8129 276.11 89.7807 276.034 89.7485C275.266 89.4297 274.568 88.854 274.344 87.8758C274.29 87.6345 274.309 87.3174 274.303 87.065C274.299 86.906 274.299 81.131 274.303 80.9722C274.309 80.7189 274.29 80.4025 274.344 80.1604C274.568 79.1829 275.266 78.6075 276.034 78.2888C276.11 78.2562 276.183 78.224 276.253 78.1925V89.8445ZM273.638 87.3396C273.632 87.5435 273.651 87.8001 273.601 87.9964C273.398 88.7896 272.765 89.2571 272.07 89.5154C270.741 90.0101 270.505 90.6433 270.505 90.6433C270.505 90.6433 270.269 90.0101 268.94 89.5154C268.245 89.2571 267.612 88.7896 267.409 87.9964C267.359 87.8001 267.377 87.5435 267.371 87.3396C267.368 87.2197 267.368 80.8175 267.371 80.6977C267.377 80.4935 267.359 80.2368 267.409 80.0406C267.612 79.2473 268.245 78.7798 268.94 78.5215C270.269 78.0268 270.505 77.3936 270.505 77.3936C270.505 77.3936 270.741 78.0268 272.07 78.5215C272.765 78.7798 273.398 79.2473 273.601 80.0406C273.651 80.2368 273.632 80.4935 273.638 80.6977C273.642 80.8175 273.642 87.2197 273.638 87.3396ZM266.707 87.065C266.701 87.3174 266.72 87.6345 266.665 87.8758C266.442 88.854 265.744 89.4297 264.977 89.7485C264.9 89.7807 264.827 89.8129 264.757 89.8445V78.1925C264.827 78.224 264.9 78.2562 264.977 78.2888C265.744 78.6075 266.442 79.1829 266.665 80.1604C266.72 80.4025 266.701 80.7189 266.707 80.9722C266.712 81.131 266.712 86.906 266.707 87.065ZM277.935 75.2789V75.0279H263.073V75.2789L264.092 76.1671V90.8515L263.073 91.739V91.988H277.935V91.739L276.918 90.8515V76.1671L277.935 75.2789Z" fill="white"/>
</mask>
<g mask="url(#mask13_32_3641)">
<mask id="mask14_32_3641" style="mask-type:luminance" maskUnits="userSpaceOnUse" x="263" y="75" width="15" height="17">
<path d="M276.253 89.8445C276.183 89.8129 276.11 89.7807 276.034 89.7485C275.266 89.4297 274.568 88.854 274.344 87.8758C274.29 87.6345 274.309 87.3174 274.303 87.065C274.299 86.906 274.299 81.131 274.303 80.9722C274.309 80.7189 274.29 80.4025 274.344 80.1604C274.568 79.1829 275.266 78.6075 276.034 78.2888C276.11 78.2562 276.183 78.224 276.253 78.1925V89.8445ZM273.638 87.3396C273.632 87.5435 273.651 87.8001 273.601 87.9964C273.398 88.7896 272.765 89.2571 272.07 89.5154C270.741 90.0101 270.505 90.6433 270.505 90.6433C270.505 90.6433 270.269 90.0101 268.94 89.5154C268.245 89.2571 267.612 88.7896 267.409 87.9964C267.359 87.8001 267.377 87.5435 267.371 87.3396C267.368 87.2197 267.368 80.8175 267.371 80.6977C267.377 80.4935 267.359 80.2368 267.409 80.0406C267.612 79.2473 268.245 78.7798 268.94 78.5215C270.269 78.0268 270.505 77.3936 270.505 77.3936C270.505 77.3936 270.741 78.0268 272.07 78.5215C272.765 78.7798 273.398 79.2473 273.601 80.0406C273.651 80.2368 273.632 80.4935 273.638 80.6977C273.642 80.8175 273.642 87.2197 273.638 87.3396ZM266.707 87.065C266.701 87.3174 266.72 87.6345 266.665 87.8758C266.442 88.854 265.744 89.4297 264.977 89.7485C264.9 89.7807 264.827 89.8129 264.757 89.8445V78.1925C264.827 78.224 264.9 78.2562 264.977 78.2888C265.744 78.6075 266.442 79.1829 266.665 80.1604C266.72 80.4025 266.701 80.7189 266.707 80.9722C266.712 81.131 266.712 86.906 266.707 87.065ZM277.935 75.2789V75.0279H263.073V75.2789L264.092 76.1671V90.8515L263.073 91.739V91.988H277.935V91.739L276.918 90.8515V76.1671L277.935 75.2789Z" fill="white"/>
</mask>
<g mask="url(#mask14_32_3641)">
<path d="M256.616 79.0405L266.589 99.0388L284.391 87.9758L274.419 67.9776L256.616 79.0405Z" fill="#E9C37E" fill-opacity="0.2"/>
</g>
</g>
</g>
</g>
<mask id="mask15_32_3641" style="mask-type:luminance" maskUnits="userSpaceOnUse" x="261" y="73" width="19" height="21">
<path d="M261 73.6991H279.562V93.1909H261V73.6991Z" fill="white"/>
</mask>
<g mask="url(#mask15_32_3641)">
<mask id="mask16_32_3641" style="mask-type:luminance" maskUnits="userSpaceOnUse" x="261" y="73" width="19" height="21">
<path d="M277.449 90.7307C277.362 90.6937 277.271 90.6572 277.176 90.6201C276.218 90.2538 275.349 89.5943 275.069 88.4723C275.001 88.194 275.026 87.8307 275.017 87.5411C275.012 87.358 275.012 80.7307 275.017 80.5476C275.026 80.2579 275.001 79.8942 275.069 79.6179C275.349 78.4959 276.218 77.8343 277.176 77.4685C277.271 77.433 277.362 77.396 277.449 77.359V90.7307ZM274.189 87.8554C274.181 88.09 274.205 88.3838 274.142 88.6091C273.889 89.5202 273.1 90.0553 272.234 90.3526C270.576 90.9206 270.282 91.6475 270.282 91.6475C270.282 91.6475 269.988 90.9206 268.33 90.3526C267.464 90.0553 266.674 89.5202 266.422 88.6091C266.359 88.3838 266.383 88.09 266.375 87.8554C266.371 87.7176 266.371 80.3711 266.375 80.2327C266.383 79.9997 266.359 79.7049 266.422 79.4795C266.674 78.5695 267.464 78.0334 268.33 77.7355C269.988 77.1681 270.282 76.4422 270.282 76.4422C270.282 76.4422 270.576 77.1681 272.234 77.7355C273.1 78.0334 273.889 78.5695 274.142 79.4795C274.205 79.7049 274.181 79.9997 274.189 80.2327C274.193 80.3711 274.193 87.7176 274.189 87.8554ZM265.546 87.5411C265.538 87.8307 265.563 88.194 265.495 88.4723C265.216 89.5943 264.346 90.2538 263.388 90.6201C263.293 90.6572 263.203 90.6937 263.115 90.7307V77.359C263.203 77.396 263.293 77.433 263.388 77.4685C264.346 77.8343 265.216 78.4959 265.495 79.6179C265.563 79.8942 265.538 80.2579 265.546 80.5476C265.553 80.7307 265.553 87.358 265.546 87.5411ZM279.546 74.015V73.7279H261.016V74.015L262.286 75.0346V91.8857L261.016 92.9048V93.1893H279.546V92.9048L278.278 91.8857V75.0346L279.546 74.015Z" fill="white"/>
</mask>
<g mask="url(#mask16_32_3641)">
<mask id="mask17_32_3641" style="mask-type:luminance" maskUnits="userSpaceOnUse" x="261" y="73" width="19" height="21">
<path d="M277.449 90.7307C277.362 90.6937 277.271 90.6572 277.176 90.6201C276.218 90.2538 275.349 89.5943 275.069 88.4723C275.001 88.194 275.026 87.8307 275.017 87.5411C275.012 87.358 275.012 80.7307 275.017 80.5476C275.026 80.2579 275.001 79.8942 275.069 79.6179C275.349 78.4959 276.218 77.8343 277.176 77.4685C277.271 77.433 277.362 77.396 277.449 77.359V90.7307ZM274.189 87.8554C274.181 88.09 274.205 88.3838 274.142 88.6091C273.889 89.5202 273.1 90.0553 272.234 90.3526C270.576 90.9206 270.282 91.6475 270.282 91.6475C270.282 91.6475 269.988 90.9206 268.33 90.3526C267.464 90.0553 266.674 89.5202 266.422 88.6091C266.359 88.3838 266.383 88.09 266.375 87.8554C266.371 87.7176 266.371 80.3711 266.375 80.2327C266.383 79.9997 266.359 79.7049 266.422 79.4795C266.674 78.5695 267.464 78.0334 268.33 77.7355C269.988 77.1681 270.282 76.4422 270.282 76.4422C270.282 76.4422 270.576 77.1681 272.234 77.7355C273.1 78.0334 273.889 78.5695 274.142 79.4795C274.205 79.7049 274.181 79.9997 274.189 80.2327C274.193 80.3711 274.193 87.7176 274.189 87.8554ZM265.546 87.5411C265.538 87.8307 265.563 88.194 265.495 88.4723C265.216 89.5943 264.346 90.2538 263.388 90.6201C263.293 90.6572 263.203 90.6937 263.115 90.7307V77.359C263.203 77.396 263.293 77.433 263.388 77.4685C264.346 77.8343 265.216 78.4959 265.495 79.6179C265.563 79.8942 265.538 80.2579 265.546 80.5476C265.553 80.7307 265.553 87.358 265.546 87.5411ZM279.546 74.015V73.7279H261.016V74.015L262.286 75.0346V91.8857L261.016 92.9048V93.1893H279.546V92.9048L278.278 91.8857V75.0346L279.546 74.015Z" fill="white"/>
</mask>
<g mask="url(#mask17_32_3641)">
<path d="M252.807 78.3323L265.399 101.124L287.755 88.5855L275.162 65.7939L252.807 78.3323Z" fill="#DFDFDF"/>
</g>
</g>
</g>
<mask id="mask18_32_3641" style="mask-type:luminance" maskUnits="userSpaceOnUse" x="270" y="1" width="1" height="58">
<path d="M270.064 1H270.502V58.9763H270.064V1Z" fill="white"/>
</mask>
<g mask="url(#mask18_32_3641)">
<path d="M245.61 14.716L270.168 59.1636L294.956 45.2604L270.398 0.812729L245.61 14.716Z" fill="#DFDFDF"/>
</g>
<g filter="url(#filter1_f_32_3641)">
<path d="M270.25 81L270.858 83.5547L272.5 84.5L270.858 85.4453L270.25 88L269.642 85.4453L268 84.5L269.642 83.5547L270.25 81Z" fill="#E3A025"/>
</g>
<g filter="url(#filter2_f_32_3641)">
<path d="M270.25 81L270.858 83.5547L272.5 84.5L270.858 85.4453L270.25 88L269.642 85.4453L268 84.5L269.642 83.5547L270.25 81Z" fill="#DF9C22"/>
</g>
<path d="M270.25 81L270.858 83.5547L272.5 84.5L270.858 85.4453L270.25 88L269.642 85.4453L268 84.5L269.642 83.5547L270.25 81Z" fill="#E9C37E"/>
<mask id="mask19_32_3641" style="mask-type:luminance" maskUnits="userSpaceOnUse" x="290" y="81" width="14" height="3">
<path d="M290.689 81.6239H303.437V83.1744H290.689V81.6239Z" fill="white"/>
</mask>
<g mask="url(#mask19_32_3641)">
<mask id="mask20_32_3641" style="mask-type:luminance" maskUnits="userSpaceOnUse" x="290" y="81" width="14" height="3">
<path d="M303.418 81.741C302.891 82.7282 301.923 83.0949 301.923 83.0949H292.265C292.265 83.0949 291.301 82.7282 290.77 81.741H303.418Z" fill="white"/>
</mask>
<g mask="url(#mask20_32_3641)">
<mask id="mask21_32_3641" style="mask-type:luminance" maskUnits="userSpaceOnUse" x="290" y="81" width="14" height="3">
<path d="M303.418 81.741C302.891 82.7282 301.923 83.0949 301.923 83.0949H292.265C292.265 83.0949 291.301 82.7282 290.77 81.741H303.418Z" fill="white"/>
</mask>
<g mask="url(#mask21_32_3641)">
<path d="M290.194 82.0613L293.762 88.4704L303.994 82.7746L300.426 76.3655L290.194 82.0613Z" fill="#C6C6C6"/>
</g>
</g>
</g>
<mask id="mask22_32_3641" style="mask-type:luminance" maskUnits="userSpaceOnUse" x="290" y="64" width="14" height="2">
<path d="M290.689 64.3966H303.437V65.9471H290.689V64.3966Z" fill="white"/>
</mask>
<g mask="url(#mask22_32_3641)">
<mask id="mask23_32_3641" style="mask-type:luminance" maskUnits="userSpaceOnUse" x="290" y="64" width="14" height="2">
<path d="M303.418 65.8367H290.77C291.301 64.8515 292.265 64.4807 292.265 64.4807H301.923C301.923 64.4807 302.891 64.8515 303.418 65.8367Z" fill="white"/>
</mask>
<g mask="url(#mask23_32_3641)">
<mask id="mask24_32_3641" style="mask-type:luminance" maskUnits="userSpaceOnUse" x="290" y="64" width="14" height="2">
<path d="M303.418 65.8367H290.77C291.301 64.8515 292.265 64.4807 292.265 64.4807H301.923C301.923 64.4807 302.891 64.8515 303.418 65.8367Z" fill="white"/>
</mask>
<g mask="url(#mask24_32_3641)">
<path d="M290.194 64.8018L293.762 71.2122L303.994 65.5164L300.426 59.106L290.194 64.8018Z" fill="#C6C6C6"/>
</g>
</g>
</g>
<mask id="mask25_32_3641" style="mask-type:luminance" maskUnits="userSpaceOnUse" x="292" y="54" width="11" height="11">
<path d="M292.24 54.4047H302.059V64.052H292.24V54.4047Z" fill="white"/>
</mask>
<g mask="url(#mask25_32_3641)">
<mask id="mask26_32_3641" style="mask-type:luminance" maskUnits="userSpaceOnUse" x="292" y="54" width="10" height="10">
<path d="M299.957 61.8798C298.817 61.2216 297.935 60.0191 297.935 60.0191C297.935 60.0191 297.876 60.0036 297.926 59.826C297.976 59.649 298.414 59.6194 298.396 59.1046C298.379 58.5911 297.549 58.2398 297.549 58.2398C297.549 58.2398 297.547 58.1052 297.542 57.8912C297.773 57.7742 297.926 57.5709 297.926 57.3401C297.926 57.0992 297.761 56.8906 297.516 56.7769C297.492 55.9451 297.457 55.0407 297.414 54.9027C297.33 54.6376 297.094 54.5407 297.094 54.5407C297.094 54.5407 296.86 54.6376 296.775 54.9027C296.731 55.0407 296.696 55.9451 296.673 56.7769C296.429 56.8906 296.264 57.0992 296.264 57.3401C296.264 57.5729 296.417 57.7762 296.648 57.8912C296.645 58.1052 296.643 58.2398 296.643 58.2398C296.643 58.2398 295.809 58.5911 295.793 59.1046C295.774 59.6194 296.212 59.649 296.264 59.826C296.313 60.0036 296.255 60.0191 296.255 60.0191C296.255 60.0191 295.371 61.2216 294.231 61.8798C293.089 62.5359 292.382 63.0668 292.265 63.8831H301.923C301.806 63.0668 301.101 62.5359 299.957 61.8798Z" fill="white"/>
</mask>
<g mask="url(#mask26_32_3641)">
<mask id="mask27_32_3641" style="mask-type:luminance" maskUnits="userSpaceOnUse" x="292" y="54" width="10" height="10">
<path d="M299.957 61.8798C298.817 61.2216 297.935 60.0191 297.935 60.0191C297.935 60.0191 297.876 60.0036 297.926 59.826C297.976 59.649 298.414 59.6194 298.396 59.1046C298.379 58.5911 297.549 58.2398 297.549 58.2398C297.549 58.2398 297.547 58.1052 297.542 57.8912C297.773 57.7742 297.926 57.5709 297.926 57.3401C297.926 57.0992 297.761 56.8906 297.516 56.7769C297.492 55.9451 297.457 55.0407 297.414 54.9027C297.33 54.6376 297.094 54.5407 297.094 54.5407C297.094 54.5407 296.86 54.6376 296.775 54.9027C296.731 55.0407 296.696 55.9451 296.673 56.7769C296.429 56.8906 296.264 57.0992 296.264 57.3401C296.264 57.5729 296.417 57.7762 296.648 57.8912C296.645 58.1052 296.643 58.2398 296.643 58.2398C296.643 58.2398 295.809 58.5911 295.793 59.1046C295.774 59.6194 296.212 59.649 296.264 59.826C296.313 60.0036 296.255 60.0191 296.255 60.0191C296.255 60.0191 295.371 61.2216 294.231 61.8798C293.089 62.5359 292.382 63.0668 292.265 63.8831H301.923C301.806 63.0668 301.101 62.5359 299.957 61.8798Z" fill="white"/>
</mask>
<g mask="url(#mask27_32_3641)">
<path d="M288.295 56.7512L294.55 67.9874L305.894 61.6732L299.639 50.4364L288.295 56.7512Z" fill="#D0D0D0"/>
</g>
</g>
</g>
<mask id="mask28_32_3641" style="mask-type:luminance" maskUnits="userSpaceOnUse" x="292" y="83" width="11" height="11">
<path d="M292.24 83.6912H302.059V93.1662H292.24V83.6912Z" fill="white"/>
</mask>
<g mask="url(#mask28_32_3641)">
<mask id="mask29_32_3641" style="mask-type:luminance" maskUnits="userSpaceOnUse" x="292" y="83" width="10" height="11">
<path d="M292.265 83.6932C292.382 84.5115 293.089 85.0398 294.231 85.6979C295.371 86.3581 296.255 87.5606 296.255 87.5606C296.255 87.5606 296.313 87.5761 296.264 87.7517C296.212 87.9274 295.774 87.9603 295.793 88.4738C295.809 88.9866 296.643 89.3399 296.643 89.3399C296.643 89.3399 296.645 89.4677 296.648 89.6689C296.417 89.786 296.264 89.9879 296.264 90.2201C296.264 90.4617 296.429 90.6703 296.673 90.784C296.696 91.6211 296.731 92.5377 296.775 92.675C296.86 92.9388 297.094 93.035 297.094 93.035C297.094 93.035 297.33 92.9388 297.414 92.675C297.457 92.5377 297.492 91.6211 297.516 90.784C297.761 90.6703 297.926 90.4617 297.926 90.2201C297.926 89.9893 297.773 89.786 297.542 89.6689C297.547 89.4677 297.549 89.3399 297.549 89.3399C297.549 89.3399 298.379 88.9866 298.396 88.4738C298.414 87.9603 297.976 87.9274 297.926 87.7517C297.876 87.5761 297.935 87.5606 297.935 87.5606C297.935 87.5606 298.817 86.3581 299.957 85.6979C301.101 85.0398 301.806 84.5115 301.923 83.6932H292.265Z" fill="white"/>
</mask>
<g mask="url(#mask29_32_3641)">
<mask id="mask30_32_3641" style="mask-type:luminance" maskUnits="userSpaceOnUse" x="292" y="83" width="10" height="11">
<path d="M292.265 83.6932C292.382 84.5115 293.089 85.0398 294.231 85.6979C295.371 86.3581 296.255 87.5606 296.255 87.5606C296.255 87.5606 296.313 87.5761 296.264 87.7517C296.212 87.9274 295.774 87.9603 295.793 88.4738C295.809 88.9866 296.643 89.3399 296.643 89.3399C296.643 89.3399 296.645 89.4677 296.648 89.6689C296.417 89.786 296.264 89.9879 296.264 90.2201C296.264 90.4617 296.429 90.6703 296.673 90.784C296.696 91.6211 296.731 92.5377 296.775 92.675C296.86 92.9388 297.094 93.035 297.094 93.035C297.094 93.035 297.33 92.9388 297.414 92.675C297.457 92.5377 297.492 91.6211 297.516 90.784C297.761 90.6703 297.926 90.4617 297.926 90.2201C297.926 89.9893 297.773 89.786 297.542 89.6689C297.547 89.4677 297.549 89.3399 297.549 89.3399C297.549 89.3399 298.379 88.9866 298.396 88.4738C298.414 87.9603 297.976 87.9274 297.926 87.7517C297.876 87.5761 297.935 87.5606 297.935 87.5606C297.935 87.5606 298.817 86.3581 299.957 85.6979C301.101 85.0398 301.806 84.5115 301.923 83.6932H292.265Z" fill="white"/>
</mask>
<g mask="url(#mask30_32_3641)">
<path d="M288.295 85.9032L294.55 97.1393L305.894 90.8251L299.639 79.589L288.295 85.9032Z" fill="#C8C8C8"/>
</g>
</g>
</g>
<g filter="url(#filter3_f_32_3641)">
<mask id="mask31_32_3641" style="mask-type:luminance" maskUnits="userSpaceOnUse" x="291" y="67" width="12" height="13">
<path d="M291 67H303V80H291V67Z" fill="white"/>
</mask>
<g mask="url(#mask31_32_3641)">
<mask id="mask32_32_3641" style="mask-type:luminance" maskUnits="userSpaceOnUse" x="291" y="67" width="12" height="13">
<path d="M301.602 78.3516C301.547 78.3275 301.488 78.3029 301.427 78.2783C300.813 78.0345 300.255 77.5942 300.075 76.8462C300.032 76.6616 300.048 76.4192 300.042 76.2262C300.039 76.1046 300.039 71.6884 300.042 71.567C300.048 71.3733 300.032 71.1313 300.075 70.9462C300.255 70.1987 300.813 69.7587 301.427 69.5149C301.488 69.4901 301.547 69.4654 301.602 69.4413V78.3516ZM299.511 76.4362C299.506 76.5921 299.52 76.7883 299.481 76.9384C299.318 77.545 298.812 77.9025 298.256 78.1C297.193 78.4783 297.004 78.9625 297.004 78.9625C297.004 78.9625 296.815 78.4783 295.752 78.1C295.196 77.9025 294.689 77.545 294.527 76.9384C294.487 76.7883 294.502 76.5921 294.497 76.4362C294.495 76.3445 294.495 71.4487 294.497 71.357C294.502 71.2009 294.487 71.0046 294.527 70.8546C294.689 70.248 295.196 69.8905 295.752 69.6929C296.815 69.3146 297.004 68.8304 297.004 68.8304C297.004 68.8304 297.193 69.3146 298.256 69.6929C298.812 69.8905 299.318 70.248 299.481 70.8546C299.52 71.0046 299.506 71.2009 299.511 71.357C299.513 71.4487 299.513 76.3445 299.511 76.4362ZM293.966 76.2262C293.96 76.4192 293.976 76.6616 293.932 76.8462C293.753 77.5942 293.195 78.0345 292.581 78.2783C292.52 78.3029 292.462 78.3275 292.405 78.3516V69.4413C292.462 69.4654 292.52 69.4901 292.581 69.5149C293.195 69.7587 293.753 70.1987 293.932 70.9462C293.976 71.1313 293.96 71.3733 293.966 71.567C293.969 71.6884 293.969 76.1046 293.966 76.2262ZM302.948 67.2133V67.0213H291.058V67.2133L291.873 67.8925V79.1217L291.058 79.8004V79.9909H302.948V79.8004L302.134 79.1217V67.8925L302.948 67.2133Z" fill="white"/>
</mask>
<g mask="url(#mask32_32_3641)">
<mask id="mask33_32_3641" style="mask-type:luminance" maskUnits="userSpaceOnUse" x="291" y="67" width="12" height="13">
<path d="M301.602 78.3516C301.547 78.3275 301.488 78.3029 301.427 78.2783C300.813 78.0345 300.255 77.5942 300.075 76.8462C300.032 76.6616 300.048 76.4192 300.042 76.2262C300.039 76.1046 300.039 71.6884 300.042 71.567C300.048 71.3733 300.032 71.1313 300.075 70.9462C300.255 70.1987 300.813 69.7587 301.427 69.5149C301.488 69.4901 301.547 69.4654 301.602 69.4413V78.3516ZM299.511 76.4362C299.506 76.5921 299.52 76.7883 299.481 76.9384C299.318 77.545 298.812 77.9025 298.256 78.1C297.193 78.4783 297.004 78.9625 297.004 78.9625C297.004 78.9625 296.815 78.4783 295.752 78.1C295.196 77.9025 294.689 77.545 294.527 76.9384C294.487 76.7883 294.502 76.5921 294.497 76.4362C294.495 76.3445 294.495 71.4487 294.497 71.357C294.502 71.2009 294.487 71.0046 294.527 70.8546C294.689 70.248 295.196 69.8905 295.752 69.6929C296.815 69.3146 297.004 68.8304 297.004 68.8304C297.004 68.8304 297.193 69.3146 298.256 69.6929C298.812 69.8905 299.318 70.248 299.481 70.8546C299.52 71.0046 299.506 71.2009 299.511 71.357C299.513 71.4487 299.513 76.3445 299.511 76.4362ZM293.966 76.2262C293.96 76.4192 293.976 76.6616 293.932 76.8462C293.753 77.5942 293.195 78.0345 292.581 78.2783C292.52 78.3029 292.462 78.3275 292.405 78.3516V69.4413C292.462 69.4654 292.52 69.4901 292.581 69.5149C293.195 69.7587 293.753 70.1987 293.932 70.9462C293.976 71.1313 293.96 71.3733 293.966 71.567C293.969 71.6884 293.969 76.1046 293.966 76.2262ZM302.948 67.2133V67.0213H291.058V67.2133L291.873 67.8925V79.1217L291.058 79.8004V79.9909H302.948V79.8004L302.134 79.1217V67.8925L302.948 67.2133Z" fill="white"/>
</mask>
<g mask="url(#mask33_32_3641)">
<path d="M285.893 70.0898L293.871 85.3826L308.113 76.9227L300.135 61.6299L285.893 70.0898Z" fill="#E9C37E" fill-opacity="0.11"/>
</g>
</g>
</g>
</g>
<mask id="mask34_32_3641" style="mask-type:luminance" maskUnits="userSpaceOnUse" x="290" y="66" width="15" height="16">
<path d="M290 66.2916H304.299V81.2794H290V66.2916Z" fill="white"/>
</mask>
<g mask="url(#mask34_32_3641)">
<mask id="mask35_32_3641" style="mask-type:luminance" maskUnits="userSpaceOnUse" x="290" y="66" width="15" height="16">
<path d="M302.552 79.2847C302.484 79.2571 302.417 79.2295 302.343 79.1999C301.615 78.924 300.951 78.4247 300.739 77.5775C300.688 77.3668 300.706 77.093 300.7 76.8742C300.696 76.735 300.696 71.7269 300.7 71.589C300.706 71.3703 300.688 71.0943 300.739 70.8864C300.951 70.0365 301.615 69.5392 302.343 69.2613C302.417 69.2337 302.484 69.2067 302.552 69.1792V79.2847ZM300.069 77.1118C300.065 77.2874 300.081 77.5115 300.033 77.6804C299.842 78.3695 299.241 78.7746 298.581 78.9987C297.318 79.4274 297.094 79.9772 297.094 79.9772C297.094 79.9772 296.87 79.4274 295.609 78.9987C294.947 78.7746 294.348 78.3695 294.155 77.6804C294.107 77.5115 294.126 77.2874 294.119 77.1118C294.116 77.0068 294.116 71.4544 294.119 71.3514C294.126 71.1738 294.107 70.9517 294.155 70.7808C294.348 70.0937 294.947 69.6886 295.609 69.4631C296.87 69.0345 297.094 68.486 297.094 68.486C297.094 68.486 297.318 69.0345 298.581 69.4631C299.241 69.6886 299.842 70.0937 300.033 70.7808C300.081 70.9517 300.065 71.1738 300.069 71.3514C300.073 71.4544 300.073 77.0068 300.069 77.1118ZM293.489 76.8742C293.483 77.093 293.502 77.3668 293.449 77.5775C293.237 78.4247 292.574 78.924 291.845 79.1999C291.773 79.2295 291.704 79.2571 291.637 79.2847V69.1792C291.704 69.2067 291.773 69.2337 291.845 69.2613C292.574 69.5392 293.237 70.0365 293.449 70.8864C293.502 71.0943 293.483 71.3703 293.489 71.589C293.494 71.7269 293.494 76.735 293.489 76.8742ZM304.149 66.6516V66.4342H290.038V66.6516L291.006 67.4214V80.1575L290.038 80.9281V81.1434H304.149V80.9281L303.182 80.1575V67.4214L304.149 66.6516Z" fill="white"/>
</mask>
<g mask="url(#mask35_32_3641)">
<mask id="mask36_32_3641" style="mask-type:luminance" maskUnits="userSpaceOnUse" x="290" y="66" width="15" height="16">
<path d="M302.552 79.2847C302.484 79.2571 302.417 79.2295 302.343 79.1999C301.615 78.924 300.951 78.4247 300.739 77.5775C300.688 77.3668 300.706 77.093 300.7 76.8742C300.696 76.735 300.696 71.7269 300.7 71.589C300.706 71.3703 300.688 71.0943 300.739 70.8864C300.951 70.0365 301.615 69.5392 302.343 69.2613C302.417 69.2337 302.484 69.2067 302.552 69.1792V79.2847ZM300.069 77.1118C300.065 77.2874 300.081 77.5115 300.033 77.6804C299.842 78.3695 299.241 78.7746 298.581 78.9987C297.318 79.4274 297.094 79.9772 297.094 79.9772C297.094 79.9772 296.87 79.4274 295.609 78.9987C294.947 78.7746 294.348 78.3695 294.155 77.6804C294.107 77.5115 294.126 77.2874 294.119 77.1118C294.116 77.0068 294.116 71.4544 294.119 71.3514C294.126 71.1738 294.107 70.9517 294.155 70.7808C294.348 70.0937 294.947 69.6886 295.609 69.4631C296.87 69.0345 297.094 68.486 297.094 68.486C297.094 68.486 297.318 69.0345 298.581 69.4631C299.241 69.6886 299.842 70.0937 300.033 70.7808C300.081 70.9517 300.065 71.1738 300.069 71.3514C300.073 71.4544 300.073 77.0068 300.069 77.1118ZM293.489 76.8742C293.483 77.093 293.502 77.3668 293.449 77.5775C293.237 78.4247 292.574 78.924 291.845 79.1999C291.773 79.2295 291.704 79.2571 291.637 79.2847V69.1792C291.704 69.2067 291.773 69.2337 291.845 69.2613C292.574 69.5392 293.237 70.0365 293.449 70.8864C293.502 71.0943 293.483 71.3703 293.489 71.589C293.494 71.7269 293.494 76.735 293.489 76.8742ZM304.149 66.6516V66.4342H290.038V66.6516L291.006 67.4214V80.1575L290.038 80.9281V81.1434H304.149V80.9281L303.182 80.1575V67.4214L304.149 66.6516Z" fill="white"/>
</mask>
<g mask="url(#mask36_32_3641)">
<path d="M283.787 69.914L293.376 87.14L310.399 77.6637L300.811 60.4377L283.787 69.914Z" fill="#CCCCCC"/>
</g>
</g>
</g>
<mask id="mask37_32_3641" style="mask-type:luminance" maskUnits="userSpaceOnUse" x="296" y="1" width="2" height="55">
<path d="M296.808 1H297.383V55.8293H296.808V1Z" fill="white"/>
</mask>
<g mask="url(#mask37_32_3641)">
<path d="M273.507 13.971L296.944 56.0736L320.685 42.8584L297.247 0.755737L273.507 13.971Z" fill="#C7C7C7"/>
</g>
<g filter="url(#filter4_f_32_3641)">
<path d="M296.945 72L297.471 73.4199L298.891 73.9453L297.471 74.4707L296.945 75.8906L296.42 74.4707L295 73.9453L296.42 73.4199L296.945 72Z" fill="#E59E1D"/>
</g>
<g filter="url(#filter5_f_32_3641)">
<path d="M296.945 72L297.471 73.4199L298.891 73.9453L297.471 74.4707L296.945 75.8906L296.42 74.4707L295 73.9453L296.42 73.4199L296.945 72Z" fill="#DA9C2A"/>
</g>
<path d="M297 72L297.54 73.4598L299 74L297.54 74.5402L297 76L296.46 74.5402L295 74L296.46 73.4598L297 72Z" fill="#E9C37E"/>
<mask id="mask38_32_3641" style="mask-type:luminance" maskUnits="userSpaceOnUse" x="15" y="97" width="15" height="3">
<path d="M15.8614 97.9899H29.6433V99.7126H15.8614V97.9899Z" fill="white"/>
</mask>
<g mask="url(#mask38_32_3641)">
<mask id="mask39_32_3641" style="mask-type:luminance" maskUnits="userSpaceOnUse" x="15" y="98" width="15" height="2">
<path d="M29.6069 98.1171C29.0336 99.1904 27.9824 99.5888 27.9824 99.5888H17.4912C17.4912 99.5888 16.4428 99.1904 15.8668 98.1171H29.6069Z" fill="white"/>
</mask>
<g mask="url(#mask39_32_3641)">
<mask id="mask40_32_3641" style="mask-type:luminance" maskUnits="userSpaceOnUse" x="15" y="98" width="15" height="2">
<path d="M29.6069 98.1171C29.0336 99.1904 27.9824 99.5888 27.9824 99.5888H17.4912C17.4912 99.5888 16.4428 99.1904 15.8668 98.1171H29.6069Z" fill="white"/>
</mask>
<g mask="url(#mask40_32_3641)">
<path d="M15.2416 98.4657L19.1178 105.428L30.2321 99.2402L26.3566 92.278L15.2416 98.4657Z" fill="#C3C0C0"/>
</g>
</g>
</g>
<mask id="mask41_32_3641" style="mask-type:luminance" maskUnits="userSpaceOnUse" x="15" y="79" width="15" height="2">
<path d="M15.8614 79.2121H29.6433V80.9348H15.8614V79.2121Z" fill="white"/>
</mask>
<g mask="url(#mask41_32_3641)">
<mask id="mask42_32_3641" style="mask-type:luminance" maskUnits="userSpaceOnUse" x="15" y="79" width="15" height="2">
<path d="M29.6069 80.8419H15.8668C16.4428 79.7719 17.4912 79.3709 17.4912 79.3709H27.9824C27.9824 79.3709 29.0336 79.7719 29.6069 80.8419Z" fill="white"/>
</mask>
<g mask="url(#mask42_32_3641)">
<mask id="mask43_32_3641" style="mask-type:luminance" maskUnits="userSpaceOnUse" x="15" y="79" width="15" height="2">
<path d="M29.6069 80.8419H15.8668C16.4428 79.7719 17.4912 79.3709 17.4912 79.3709H27.9824C27.9824 79.3709 29.0336 79.7719 29.6069 80.8419Z" fill="white"/>
</mask>
<g mask="url(#mask43_32_3641)">
<path d="M15.2416 79.7188L19.1178 86.6811L30.2321 80.494L26.3566 73.5311L15.2416 79.7188Z" fill="url(#paint0_linear_32_3641)"/>
</g>
</g>
</g>
<mask id="mask44_32_3641" style="mask-type:luminance" maskUnits="userSpaceOnUse" x="17" y="68" width="12" height="11">
<path d="M17.4118 68.5312H28.0927V78.8676H17.4118V68.5312Z" fill="white"/>
</mask>
<g mask="url(#mask44_32_3641)">
<mask id="mask45_32_3641" style="mask-type:luminance" maskUnits="userSpaceOnUse" x="17" y="68" width="11" height="11">
<path d="M25.8465 76.5452C24.6076 75.8306 23.648 74.5231 23.648 74.5231C23.648 74.5231 23.584 74.5056 23.6392 74.3144C23.6944 74.1213 24.1702 74.089 24.1493 73.5305C24.1325 72.9726 23.2314 72.5897 23.2314 72.5897C23.2314 72.5897 23.228 72.4437 23.2227 72.2128C23.4743 72.085 23.6392 71.8649 23.6392 71.6132C23.6392 71.3515 23.4602 71.1254 23.1931 71.0015C23.1695 70.0971 23.1311 69.1153 23.0834 68.9652C22.9918 68.6779 22.7348 68.5722 22.7348 68.5722C22.7348 68.5722 22.4818 68.6779 22.3902 68.9652C22.3425 69.1153 22.3041 70.0971 22.2805 70.9995C22.0134 71.124 21.8344 71.3515 21.8344 71.6132C21.8344 71.8649 22.0013 72.087 22.253 72.2128C22.2476 72.4437 22.2456 72.5897 22.2456 72.5897C22.2456 72.5897 21.3411 72.9726 21.3243 73.5305C21.3034 74.089 21.7792 74.1213 21.8344 74.3144C21.8875 74.5056 21.8256 74.5231 21.8256 74.5231C21.8256 74.5231 20.866 75.8306 19.6271 76.5452C18.3849 77.2586 17.6184 77.8319 17.4912 78.7209H27.9824C27.8552 77.8319 27.0887 77.2586 25.8465 76.5452Z" fill="white"/>
</mask>
<g mask="url(#mask45_32_3641)">
<mask id="mask46_32_3641" style="mask-type:luminance" maskUnits="userSpaceOnUse" x="17" y="68" width="11" height="11">
<path d="M25.8465 76.5452C24.6076 75.8306 23.648 74.5231 23.648 74.5231C23.648 74.5231 23.584 74.5056 23.6392 74.3144C23.6944 74.1213 24.1702 74.089 24.1493 73.5305C24.1325 72.9726 23.2314 72.5897 23.2314 72.5897C23.2314 72.5897 23.228 72.4437 23.2227 72.2128C23.4743 72.085 23.6392 71.8649 23.6392 71.6132C23.6392 71.3515 23.4602 71.1254 23.1931 71.0015C23.1695 70.0971 23.1311 69.1153 23.0834 68.9652C22.9918 68.6779 22.7348 68.5722 22.7348 68.5722C22.7348 68.5722 22.4818 68.6779 22.3902 68.9652C22.3425 69.1153 22.3041 70.0971 22.2805 70.9995C22.0134 71.124 21.8344 71.3515 21.8344 71.6132C21.8344 71.8649 22.0013 72.087 22.253 72.2128C22.2476 72.4437 22.2456 72.5897 22.2456 72.5897C22.2456 72.5897 21.3411 72.9726 21.3243 73.5305C21.3034 74.089 21.7792 74.1213 21.8344 74.3144C21.8875 74.5056 21.8256 74.5231 21.8256 74.5231C21.8256 74.5231 20.866 75.8306 19.6271 76.5452C18.3849 77.2586 17.6184 77.8319 17.4912 78.7209H27.9824C27.8552 77.8319 27.0887 77.2586 25.8465 76.5452Z" fill="white"/>
</mask>
<g mask="url(#mask46_32_3641)">
<path d="M13.1783 70.9733L19.973 83.1798L32.2952 76.3205L25.5005 64.114L13.1783 70.9733Z" fill="url(#paint1_linear_32_3641)"/>
</g>
</g>
</g>
<mask id="mask47_32_3641" style="mask-type:luminance" maskUnits="userSpaceOnUse" x="17" y="100" width="12" height="11">
<path d="M17.4118 100.229H28.0927V110.394H17.4118V100.229Z" fill="white"/>
</mask>
<g mask="url(#mask47_32_3641)">
<mask id="mask48_32_3641" style="mask-type:luminance" maskUnits="userSpaceOnUse" x="17" y="100" width="11" height="11">
<path d="M17.4912 100.238C17.6184 101.127 18.3849 101.703 19.6271 102.417C20.866 103.133 21.8256 104.438 21.8256 104.438C21.8256 104.438 21.8875 104.456 21.8344 104.648C21.7792 104.838 21.3034 104.874 21.3243 105.432C21.3411 105.988 22.2456 106.373 22.2456 106.373C22.2456 106.373 22.2476 106.511 22.2509 106.729C22.0013 106.855 21.8344 107.077 21.8344 107.329C21.8344 107.591 22.0134 107.816 22.2785 107.941C22.3041 108.85 22.3404 109.844 22.3902 109.996C22.4818 110.282 22.7348 110.387 22.7348 110.387C22.7348 110.387 22.9918 110.282 23.0834 109.996C23.1311 109.844 23.1695 108.85 23.1951 107.941C23.4602 107.816 23.6392 107.591 23.6392 107.329C23.6392 107.077 23.4743 106.857 23.224 106.729C23.228 106.511 23.2314 106.373 23.2314 106.373C23.2314 106.373 24.1325 105.988 24.1493 105.432C24.1702 104.874 23.6944 104.838 23.6392 104.648C23.584 104.456 23.648 104.438 23.648 104.438C23.648 104.438 24.6076 103.133 25.8465 102.417C27.0887 101.703 27.8552 101.127 27.9824 100.238H17.4912Z" fill="white"/>
</mask>
<g mask="url(#mask48_32_3641)">
<mask id="mask49_32_3641" style="mask-type:luminance" maskUnits="userSpaceOnUse" x="17" y="100" width="11" height="11">
<path d="M17.4912 100.238C17.6184 101.127 18.3849 101.703 19.6271 102.417C20.866 103.133 21.8256 104.438 21.8256 104.438C21.8256 104.438 21.8875 104.456 21.8344 104.648C21.7792 104.838 21.3034 104.874 21.3243 105.432C21.3411 105.988 22.2456 106.373 22.2456 106.373C22.2456 106.373 22.2476 106.511 22.2509 106.729C22.0013 106.855 21.8344 107.077 21.8344 107.329C21.8344 107.591 22.0134 107.816 22.2785 107.941C22.3041 108.85 22.3404 109.844 22.3902 109.996C22.4818 110.282 22.7348 110.387 22.7348 110.387C22.7348 110.387 22.9918 110.282 23.0834 109.996C23.1311 109.844 23.1695 108.85 23.1951 107.941C23.4602 107.816 23.6392 107.591 23.6392 107.329C23.6392 107.077 23.4743 106.857 23.224 106.729C23.228 106.511 23.2314 106.373 23.2314 106.373C23.2314 106.373 24.1325 105.988 24.1493 105.432C24.1702 104.874 23.6944 104.838 23.6392 104.648C23.584 104.456 23.648 104.438 23.648 104.438C23.648 104.438 24.6076 103.133 25.8465 102.417C27.0887 101.703 27.8552 101.127 27.9824 100.238H17.4912Z" fill="white"/>
</mask>
<g mask="url(#mask49_32_3641)">
<path d="M13.1783 102.639L19.973 114.845L32.2952 107.986L25.5005 95.7793L13.1783 102.639Z" fill="url(#paint2_linear_32_3641)"/>
</g>
</g>
</g>
<g filter="url(#filter6_f_32_3641)">
<mask id="mask50_32_3641" style="mask-type:luminance" maskUnits="userSpaceOnUse" x="16" y="82" width="14" height="15">
<path d="M16 82H30V97H16V82Z" fill="white"/>
</mask>
<g mask="url(#mask50_32_3641)">
<mask id="mask51_32_3641" style="mask-type:luminance" maskUnits="userSpaceOnUse" x="16" y="82" width="14" height="15">
<path d="M28.3696 95.098C28.3044 95.0702 28.2361 95.0418 28.165 95.0134C27.448 94.7321 26.797 94.2241 26.5879 93.361C26.5369 93.148 26.5555 92.8683 26.5491 92.6456C26.5455 92.5053 26.5455 87.4097 26.5491 87.2696C26.5555 87.0461 26.5369 86.7669 26.5879 86.5533C26.797 85.6908 27.448 85.1831 28.165 84.9019C28.2361 84.8731 28.3044 84.8447 28.3696 84.8169V95.098ZM25.9292 92.8879C25.9236 93.0678 25.9406 93.2942 25.8945 93.4674C25.7046 94.1673 25.1142 94.5798 24.4654 94.8077C23.2254 95.2442 23.0049 95.8029 23.0049 95.8029C23.0049 95.8029 22.7845 95.2442 21.5439 94.8077C20.8949 94.5798 20.3044 94.1673 20.1154 93.4674C20.0685 93.2942 20.0854 93.0678 20.0799 92.8879C20.0771 92.7821 20.0771 87.1331 20.0799 87.0273C20.0854 86.8472 20.0685 86.6207 20.1154 86.4476C20.3044 85.7477 20.8949 85.3352 21.5439 85.1072C22.7845 84.6707 23.0049 84.112 23.0049 84.112C23.0049 84.112 23.2254 84.6707 24.4654 85.1072C25.1142 85.3352 25.7046 85.7477 25.8945 86.4476C25.9406 86.6207 25.9236 86.8472 25.9292 87.0273C25.9323 87.1331 25.9323 92.7821 25.9292 92.8879ZM19.4603 92.6456C19.4539 92.8683 19.4722 93.148 19.4211 93.361C19.2121 94.2241 18.5611 94.7321 17.8449 95.0134C17.773 95.0418 17.7055 95.0702 17.6395 95.098V84.8169C17.7055 84.8447 17.773 84.8731 17.8449 84.9019C18.5611 85.1831 19.2121 85.6908 19.4211 86.5533C19.4722 86.7669 19.4539 87.0461 19.4603 87.2696C19.4644 87.4097 19.4644 92.5053 19.4603 92.6456ZM29.9389 82.2461V82.0246H16.0682V82.2461L17.019 83.0298V95.9866L16.0682 96.7697V96.9895H29.9389V96.7697L28.99 95.9866V83.0298L29.9389 82.2461Z" fill="white"/>
</mask>
<g mask="url(#mask51_32_3641)">
<mask id="mask52_32_3641" style="mask-type:luminance" maskUnits="userSpaceOnUse" x="16" y="82" width="14" height="15">
<path d="M28.3696 95.098C28.3044 95.0702 28.2361 95.0418 28.165 95.0134C27.448 94.7321 26.797 94.2241 26.5879 93.361C26.5369 93.148 26.5555 92.8683 26.5491 92.6456C26.5455 92.5053 26.5455 87.4097 26.5491 87.2696C26.5555 87.0461 26.5369 86.7669 26.5879 86.5533C26.797 85.6908 27.448 85.1831 28.165 84.9019C28.2361 84.8731 28.3044 84.8447 28.3696 84.8169V95.098ZM25.9292 92.8879C25.9236 93.0678 25.9406 93.2942 25.8945 93.4674C25.7046 94.1673 25.1142 94.5798 24.4654 94.8077C23.2254 95.2442 23.0049 95.8029 23.0049 95.8029C23.0049 95.8029 22.7845 95.2442 21.5439 94.8077C20.8949 94.5798 20.3044 94.1673 20.1154 93.4674C20.0685 93.2942 20.0854 93.0678 20.0799 92.8879C20.0771 92.7821 20.0771 87.1331 20.0799 87.0273C20.0854 86.8472 20.0685 86.6207 20.1154 86.4476C20.3044 85.7477 20.8949 85.3352 21.5439 85.1072C22.7845 84.6707 23.0049 84.112 23.0049 84.112C23.0049 84.112 23.2254 84.6707 24.4654 85.1072C25.1142 85.3352 25.7046 85.7477 25.8945 86.4476C25.9406 86.6207 25.9236 86.8472 25.9292 87.0273C25.9323 87.1331 25.9323 92.7821 25.9292 92.8879ZM19.4603 92.6456C19.4539 92.8683 19.4722 93.148 19.4211 93.361C19.2121 94.2241 18.5611 94.7321 17.8449 95.0134C17.773 95.0418 17.7055 95.0702 17.6395 95.098V84.8169C17.7055 84.8447 17.773 84.8731 17.8449 84.9019C18.5611 85.1831 19.2121 85.6908 19.4211 86.5533C19.4722 86.7669 19.4539 87.0461 19.4603 87.2696C19.4644 87.4097 19.4644 92.5053 19.4603 92.6456ZM29.9389 82.2461V82.0246H16.0682V82.2461L17.019 83.0298V95.9866L16.0682 96.7697V96.9895H29.9389V96.7697L28.99 95.9866V83.0298L29.9389 82.2461Z" fill="white"/>
</mask>
<g mask="url(#mask52_32_3641)">
<path d="M10.0421 85.5652L19.3495 103.211L35.965 93.4492L26.6573 75.8037L10.0421 85.5652Z" fill="#E9C37E" fill-opacity="0.15"/>
</g>
</g>
</g>
</g>
<mask id="mask53_32_3641" style="mask-type:luminance" maskUnits="userSpaceOnUse" x="15" y="81" width="16" height="17">
<path d="M15 81.4516H30.5046V97.473H15V81.4516Z" fill="white"/>
</mask>
<g mask="url(#mask53_32_3641)">
<mask id="mask54_32_3641" style="mask-type:luminance" maskUnits="userSpaceOnUse" x="15" y="81" width="16" height="17">
<path d="M28.6647 95.4488C28.5921 95.4192 28.518 95.3883 28.4393 95.3593C27.6466 95.0578 26.9265 94.5148 26.6957 93.5949C26.6385 93.3681 26.6594 93.0679 26.6526 92.8304C26.6493 92.6803 26.6493 87.2403 26.6526 87.0902C26.6594 86.8527 26.6385 86.5545 26.6957 86.3271C26.9265 85.4052 27.6466 84.8628 28.4393 84.5626C28.518 84.5317 28.5921 84.5027 28.6647 84.4718V95.4488ZM25.9689 93.0888C25.9615 93.2819 25.9804 93.5229 25.9292 93.7086C25.7206 94.4549 25.0679 94.8957 24.3512 95.1386C22.9797 95.6056 22.7368 96.2018 22.7368 96.2018C22.7368 96.2018 22.4938 95.6056 21.1224 95.1386C20.4057 94.8957 19.7529 94.4549 19.5443 93.7086C19.4925 93.5229 19.512 93.2819 19.5046 93.0888C19.5013 92.9764 19.5013 86.9455 19.5046 86.8318C19.512 86.6407 19.4925 86.3977 19.5443 86.2134C19.7529 85.4657 20.4057 85.0263 21.1224 84.7813C22.4938 84.3163 22.7368 83.7188 22.7368 83.7188C22.7368 83.7188 22.9797 84.3163 24.3512 84.7813C25.0679 85.0263 25.7206 85.4657 25.9292 86.2134C25.9804 86.3977 25.9615 86.6407 25.9689 86.8318C25.9723 86.9455 25.9723 92.9764 25.9689 93.0888ZM18.8209 92.8304C18.8142 93.0679 18.833 93.3681 18.7779 93.5949C18.547 94.5148 17.827 95.0578 17.0343 95.3593C16.9555 95.3883 16.8815 95.4192 16.8088 95.4488V84.4718C16.8815 84.5027 16.9555 84.5317 17.0343 84.5626C17.827 84.8628 18.547 85.4052 18.7779 86.3271C18.833 86.5545 18.8142 86.8527 18.8209 87.0902C18.8243 87.2403 18.8243 92.6803 18.8209 92.8304ZM30.3996 81.7275V81.4913H15.072V81.7275L16.1231 82.5647V96.3983L15.072 97.2335V97.4676H30.3996V97.2335L29.3505 96.3983V82.5647L30.3996 81.7275Z" fill="white"/>
</mask>
<g mask="url(#mask54_32_3641)">
<mask id="mask55_32_3641" style="mask-type:luminance" maskUnits="userSpaceOnUse" x="15" y="81" width="16" height="17">
<path d="M28.6647 95.4488C28.5921 95.4192 28.518 95.3883 28.4393 95.3593C27.6466 95.0578 26.9265 94.5148 26.6957 93.5949C26.6385 93.3681 26.6594 93.0679 26.6526 92.8304C26.6493 92.6803 26.6493 87.2403 26.6526 87.0902C26.6594 86.8527 26.6385 86.5545 26.6957 86.3271C26.9265 85.4052 27.6466 84.8628 28.4393 84.5626C28.518 84.5317 28.5921 84.5027 28.6647 84.4718V95.4488ZM25.9689 93.0888C25.9615 93.2819 25.9804 93.5229 25.9292 93.7086C25.7206 94.4549 25.0679 94.8957 24.3512 95.1386C22.9797 95.6056 22.7368 96.2018 22.7368 96.2018C22.7368 96.2018 22.4938 95.6056 21.1224 95.1386C20.4057 94.8957 19.7529 94.4549 19.5443 93.7086C19.4925 93.5229 19.512 93.2819 19.5046 93.0888C19.5013 92.9764 19.5013 86.9455 19.5046 86.8318C19.512 86.6407 19.4925 86.3977 19.5443 86.2134C19.7529 85.4657 20.4057 85.0263 21.1224 84.7813C22.4938 84.3163 22.7368 83.7188 22.7368 83.7188C22.7368 83.7188 22.9797 84.3163 24.3512 84.7813C25.0679 85.0263 25.7206 85.4657 25.9292 86.2134C25.9804 86.3977 25.9615 86.6407 25.9689 86.8318C25.9723 86.9455 25.9723 92.9764 25.9689 93.0888ZM18.8209 92.8304C18.8142 93.0679 18.833 93.3681 18.7779 93.5949C18.547 94.5148 17.827 95.0578 17.0343 95.3593C16.9555 95.3883 16.8815 95.4192 16.8088 95.4488V84.4718C16.8815 84.5027 16.9555 84.5317 17.0343 84.5626C17.827 84.8628 18.547 85.4052 18.7779 86.3271C18.833 86.5545 18.8142 86.8527 18.8209 87.0902C18.8243 87.2403 18.8243 92.6803 18.8209 92.8304ZM30.3996 81.7275V81.4913H15.072V81.7275L16.1231 82.5647V96.3983L15.072 97.2335V97.4676H30.3996V97.2335L29.3505 96.3983V82.5647L30.3996 81.7275Z" fill="white"/>
</mask>
<g mask="url(#mask55_32_3641)">
<path d="M8.28259 85.2713L18.6984 103.982L37.1888 93.6884L26.773 74.9773L8.28259 85.2713Z" fill="url(#paint3_linear_32_3641)"/>
</g>
</g>
</g>
<mask id="mask56_32_3641" style="mask-type:luminance" maskUnits="userSpaceOnUse" x="22" y="1" width="2" height="70">
<path d="M22.3836 1H23.0936V70.161H22.3836V1Z" fill="white"/>
</mask>
<g mask="url(#mask56_32_3641)">
<path d="M-7.00854 17.3619L22.5518 70.4625L52.4856 53.7991L22.9253 0.698532L-7.00854 17.3619Z" fill="#D2D2D2"/>
</g>
<g filter="url(#filter7_f_32_3641)">
<path d="M22.8609 88.2033L23.3863 89.6232L24.8062 90.1486L23.3863 90.674L22.8609 92.0939L22.3355 90.674L20.9156 90.1486L22.3355 89.6232L22.8609 88.2033Z" fill="#E29E21" fill-opacity="0.92"/>
</g>
<g filter="url(#filter8_f_32_3641)">
<path d="M22.8609 88.2033L23.3863 89.6232L24.8062 90.1486L23.3863 90.674L22.8609 92.0939L22.3355 90.674L20.9156 90.1486L22.3355 89.6232L22.8609 88.2033Z" fill="#E29E21" fill-opacity="0.47"/>
</g>
<path d="M22.861 88.2033L23.3864 89.6232L24.8063 90.1486L23.3864 90.674L22.861 92.0939L22.3356 90.674L20.9157 90.1486L22.3356 89.6232L22.861 88.2033Z" fill="#E9C37E"/>
<mask id="mask57_32_3641" style="mask-type:luminance" maskUnits="userSpaceOnUse" x="48" y="116" width="27" height="4">
<path d="M48.6179 116.994H74.5051V119.833H48.6179V116.994Z" fill="white"/>
</mask>
<g mask="url(#mask57_32_3641)">
<mask id="mask58_32_3641" style="mask-type:luminance" maskUnits="userSpaceOnUse" x="48" y="117" width="27" height="3">
<path d="M74.3655 117.13C73.29 119.033 71.3221 119.741 71.3221 119.741H51.6729C51.6729 119.741 49.7096 119.033 48.6295 117.13H74.3655Z" fill="white"/>
</mask>
<g mask="url(#mask58_32_3641)">
<mask id="mask59_32_3641" style="mask-type:luminance" maskUnits="userSpaceOnUse" x="48" y="117" width="27" height="3">
<path d="M74.3655 117.13C73.29 119.033 71.3221 119.741 71.3221 119.741H51.6729C51.6729 119.741 49.7096 119.033 48.6295 117.13H74.3655Z" fill="white"/>
</mask>
<g mask="url(#mask59_32_3641)">
<path d="M47.4802 117.748L54.7179 130.298L75.5151 119.123L68.2769 106.573L47.4802 117.748Z" fill="#D6D6D5"/>
</g>
</g>
</g>
<mask id="mask60_32_3641" style="mask-type:luminance" maskUnits="userSpaceOnUse" x="48" y="83" width="27" height="4">
<path d="M48.6179 83.7716H74.5051V86.6111H48.6179V83.7716Z" fill="white"/>
</mask>
<g mask="url(#mask60_32_3641)">
<mask id="mask61_32_3641" style="mask-type:luminance" maskUnits="userSpaceOnUse" x="48" y="83" width="27" height="4">
<path d="M74.3655 86.5018H48.6295C49.7096 84.6035 51.6729 83.8908 51.6729 83.8908H71.3221C71.3221 83.8908 73.29 84.6035 74.3655 86.5018Z" fill="white"/>
</mask>
<g mask="url(#mask61_32_3641)">
<mask id="mask62_32_3641" style="mask-type:luminance" maskUnits="userSpaceOnUse" x="48" y="83" width="27" height="4">
<path d="M74.3655 86.5018H48.6295C49.7096 84.6035 51.6729 83.8908 51.6729 83.8908H71.3221C71.3221 83.8908 73.29 84.6035 74.3655 86.5018Z" fill="white"/>
</mask>
<g mask="url(#mask62_32_3641)">
<path d="M47.4802 84.5087L54.7179 97.0591L75.5151 85.8841L68.2769 73.3337L47.4802 84.5087Z" fill="#CFCECD"/>
</g>
</g>
</g>
<mask id="mask63_32_3641" style="mask-type:luminance" maskUnits="userSpaceOnUse" x="51" y="64" width="21" height="19">
<path d="M51.5596 64.7469H71.4162V82.7778H51.5596V64.7469Z" fill="white"/>
</mask>
<g mask="url(#mask63_32_3641)">
<mask id="mask64_32_3641" style="mask-type:luminance" maskUnits="userSpaceOnUse" x="51" y="64" width="21" height="19">
<path d="M67.3232 78.8819C65.002 77.6141 63.2059 75.297 63.2059 75.297C63.2059 75.297 63.087 75.2676 63.1898 74.9265C63.2927 74.586 64.1827 74.5261 64.1459 73.5367C64.112 72.5473 62.4222 71.8685 62.4222 71.8685C62.4222 71.8685 62.4176 71.6101 62.409 71.1997C62.8778 70.9756 63.1898 70.5835 63.1898 70.1376C63.1898 69.6734 62.8514 69.2719 62.3544 69.0517C62.3073 67.4501 62.2349 65.7098 62.1482 65.4441C61.9746 64.9328 61.4955 64.7487 61.4955 64.7487C61.4955 64.7487 61.0203 64.9328 60.8479 65.4441C60.7572 65.7098 60.6876 67.4501 60.6422 69.0517C60.1435 69.2719 59.8051 69.6734 59.8051 70.1376C59.8051 70.5852 60.12 70.9767 60.5894 71.2013C60.5819 71.6101 60.5773 71.8685 60.5773 71.8685C60.5773 71.8685 58.883 72.5473 58.8508 73.5367C58.814 74.5261 59.704 74.586 59.8051 74.9265C59.9085 75.2676 59.789 75.297 59.789 75.297C59.789 75.297 57.993 77.6141 55.6723 78.8819C53.3465 80.1458 51.9113 81.1651 51.6729 82.7407H71.3221C71.0837 81.1651 69.6484 80.1458 67.3232 78.8819Z" fill="white"/>
</mask>
<g mask="url(#mask64_32_3641)">
<mask id="mask65_32_3641" style="mask-type:luminance" maskUnits="userSpaceOnUse" x="51" y="64" width="21" height="19">
<path d="M67.3232 78.8819C65.002 77.6141 63.2059 75.297 63.2059 75.297C63.2059 75.297 63.087 75.2676 63.1898 74.9265C63.2927 74.586 64.1827 74.5261 64.1459 73.5367C64.112 72.5473 62.4222 71.8685 62.4222 71.8685C62.4222 71.8685 62.4176 71.6101 62.409 71.1997C62.8778 70.9756 63.1898 70.5835 63.1898 70.1376C63.1898 69.6734 62.8514 69.2719 62.3544 69.0517C62.3073 67.4501 62.2349 65.7098 62.1482 65.4441C61.9746 64.9328 61.4955 64.7487 61.4955 64.7487C61.4955 64.7487 61.0203 64.9328 60.8479 65.4441C60.7572 65.7098 60.6876 67.4501 60.6422 69.0517C60.1435 69.2719 59.8051 69.6734 59.8051 70.1376C59.8051 70.5852 60.12 70.9767 60.5894 71.2013C60.5819 71.6101 60.5773 71.8685 60.5773 71.8685C60.5773 71.8685 58.883 72.5473 58.8508 73.5367C58.814 74.5261 59.704 74.586 59.8051 74.9265C59.9085 75.2676 59.789 75.297 59.789 75.297C59.789 75.297 57.993 77.6141 55.6723 78.8819C53.3465 80.1458 51.9113 81.1651 51.6729 82.7407H71.3221C71.0837 81.1651 69.6484 80.1458 67.3232 78.8819Z" fill="white"/>
</mask>
<g mask="url(#mask65_32_3641)">
<path d="M43.7515 69.0051L56.3216 90.8011L79.2441 78.4842L66.674 56.6882L43.7515 69.0051Z" fill="#DDDDDD"/>
</g>
</g>
</g>
<mask id="mask66_32_3641" style="mask-type:luminance" maskUnits="userSpaceOnUse" x="51" y="120" width="21" height="19">
<path d="M51.5596 120.827H71.4162V139H51.5596V120.827Z" fill="white"/>
</mask>
<g mask="url(#mask66_32_3641)">
<mask id="mask67_32_3641" style="mask-type:luminance" maskUnits="userSpaceOnUse" x="51" y="120" width="21" height="19">
<path d="M51.6729 120.891C51.9113 122.467 53.3465 123.486 55.6723 124.754C57.993 126.022 59.789 128.339 59.789 128.339C59.789 128.339 59.9085 128.367 59.8051 128.71C59.704 129.046 58.814 129.11 58.8508 130.099C58.883 131.085 60.5773 131.768 60.5773 131.768C60.5773 131.768 60.5802 132.011 60.5894 132.4C60.1188 132.624 59.8051 133.016 59.8051 133.463C59.8051 133.927 60.1435 134.328 60.6405 134.549C60.6865 136.161 60.7572 137.924 60.8479 138.191C61.0203 138.699 61.4955 138.884 61.4955 138.884C61.4955 138.884 61.9746 138.699 62.1482 138.191C62.2366 137.924 62.3073 136.161 62.3556 134.548C62.8531 134.328 63.1898 133.927 63.1898 133.463C63.1898 133.017 62.8778 132.626 62.4102 132.401C62.4176 132.012 62.4222 131.768 62.4222 131.768C62.4222 131.768 64.112 131.085 64.1459 130.099C64.1827 129.11 63.2927 129.046 63.1898 128.71C63.087 128.367 63.2059 128.339 63.2059 128.339C63.2059 128.339 65.002 126.022 67.3232 124.754C69.6484 123.486 71.0837 122.467 71.3221 120.891H51.6729Z" fill="white"/>
</mask>
<g mask="url(#mask67_32_3641)">
<mask id="mask68_32_3641" style="mask-type:luminance" maskUnits="userSpaceOnUse" x="51" y="120" width="21" height="19">
<path d="M51.6729 120.891C51.9113 122.467 53.3465 123.486 55.6723 124.754C57.993 126.022 59.789 128.339 59.789 128.339C59.789 128.339 59.9085 128.367 59.8051 128.71C59.704 129.046 58.814 129.11 58.8508 130.099C58.883 131.085 60.5773 131.768 60.5773 131.768C60.5773 131.768 60.5802 132.011 60.5894 132.4C60.1188 132.624 59.8051 133.016 59.8051 133.463C59.8051 133.927 60.1435 134.328 60.6405 134.549C60.6865 136.161 60.7572 137.924 60.8479 138.191C61.0203 138.699 61.4955 138.884 61.4955 138.884C61.4955 138.884 61.9746 138.699 62.1482 138.191C62.2366 137.924 62.3073 136.161 62.3556 134.548C62.8531 134.328 63.1898 133.927 63.1898 133.463C63.1898 133.017 62.8778 132.626 62.4102 132.401C62.4176 132.012 62.4222 131.768 62.4222 131.768C62.4222 131.768 64.112 131.085 64.1459 130.099C64.1827 129.11 63.2927 129.046 63.1898 128.71C63.087 128.367 63.2059 128.339 63.2059 128.339C63.2059 128.339 65.002 126.022 67.3232 124.754C69.6484 123.486 71.0837 122.467 71.3221 120.891H51.6729Z" fill="white"/>
</mask>
<g mask="url(#mask68_32_3641)">
<path d="M43.7515 125.147L56.3216 146.944L79.2441 134.627L66.674 112.831L43.7515 125.147Z" fill="#DADADA"/>
</g>
</g>
</g>
<g filter="url(#filter9_f_32_3641)">
<mask id="mask69_32_3641" style="mask-type:luminance" maskUnits="userSpaceOnUse" x="49" y="90" width="25" height="24">
<path d="M49 90H74V114H49V90Z" fill="white"/>
</mask>
<g mask="url(#mask69_32_3641)">
<mask id="mask70_32_3641" style="mask-type:luminance" maskUnits="userSpaceOnUse" x="49" y="90" width="25" height="24">
<path d="M71.0885 110.957C70.972 110.912 70.8501 110.867 70.7232 110.821C69.4428 110.371 68.2803 109.559 67.907 108.178C67.8158 107.837 67.849 107.389 67.8376 107.033C67.8312 106.808 67.8312 98.6555 67.8376 98.4314C67.849 98.0738 67.8158 97.627 67.907 97.2853C68.2803 95.9053 69.4428 95.093 70.7232 94.643C70.8501 94.597 70.972 94.5516 71.0885 94.507V110.957ZM66.7307 107.421C66.7208 107.708 66.751 108.071 66.6687 108.348C66.3297 109.468 65.2753 110.128 64.1168 110.492C61.9024 111.191 61.5088 112.085 61.5088 112.085C61.5088 112.085 61.1152 111.191 58.8998 110.492C57.7409 110.128 56.6865 109.468 56.3489 108.348C56.2651 108.071 56.2953 107.708 56.2854 107.421C56.2805 107.251 56.2805 98.213 56.2854 98.0438C56.2953 97.7555 56.2651 97.3931 56.3489 97.1161C56.6865 95.9963 57.7409 95.3363 58.8998 94.9716C61.1152 94.2731 61.5088 93.3792 61.5088 93.3792C61.5088 93.3792 61.9024 94.2731 64.1168 94.9716C65.2753 95.3363 66.3297 95.9963 66.6687 97.1161C66.751 97.3931 66.7208 97.7555 66.7307 98.0438C66.7361 98.213 66.7361 107.251 66.7307 107.421ZM55.179 107.033C55.1676 107.389 55.2003 107.837 55.1091 108.178C54.7358 109.559 53.5734 110.371 52.2944 110.821C52.166 110.867 52.0456 110.912 51.9276 110.957V94.507C52.0456 94.5516 52.166 94.597 52.2944 94.643C53.5734 95.093 54.7358 95.9053 55.1091 97.2853C55.2003 97.627 55.1676 98.0738 55.179 98.4314C55.1864 98.6555 55.1864 106.808 55.179 107.033ZM73.8908 90.3938V90.0394H49.1218V90.3938L50.8197 91.6477V112.379L49.1218 113.632V113.983H73.8908V113.632L72.1965 112.379V91.6477L73.8908 90.3938Z" fill="white"/>
</mask>
<g mask="url(#mask70_32_3641)">
<mask id="mask71_32_3641" style="mask-type:luminance" maskUnits="userSpaceOnUse" x="49" y="90" width="25" height="24">
<path d="M71.0885 110.957C70.972 110.912 70.8501 110.867 70.7232 110.821C69.4428 110.371 68.2803 109.559 67.907 108.178C67.8158 107.837 67.849 107.389 67.8376 107.033C67.8312 106.808 67.8312 98.6555 67.8376 98.4314C67.849 98.0738 67.8158 97.627 67.907 97.2853C68.2803 95.9053 69.4428 95.093 70.7232 94.643C70.8501 94.597 70.972 94.5516 71.0885 94.507V110.957ZM66.7307 107.421C66.7208 107.708 66.751 108.071 66.6687 108.348C66.3297 109.468 65.2753 110.128 64.1168 110.492C61.9024 111.191 61.5088 112.085 61.5088 112.085C61.5088 112.085 61.1152 111.191 58.8998 110.492C57.7409 110.128 56.6865 109.468 56.3489 108.348C56.2651 108.071 56.2953 107.708 56.2854 107.421C56.2805 107.251 56.2805 98.213 56.2854 98.0438C56.2953 97.7555 56.2651 97.3931 56.3489 97.1161C56.6865 95.9963 57.7409 95.3363 58.8998 94.9716C61.1152 94.2731 61.5088 93.3792 61.5088 93.3792C61.5088 93.3792 61.9024 94.2731 64.1168 94.9716C65.2753 95.3363 66.3297 95.9963 66.6687 97.1161C66.751 97.3931 66.7208 97.7555 66.7307 98.0438C66.7361 98.213 66.7361 107.251 66.7307 107.421ZM55.179 107.033C55.1676 107.389 55.2003 107.837 55.1091 108.178C54.7358 109.559 53.5734 110.371 52.2944 110.821C52.166 110.867 52.0456 110.912 51.9276 110.957V94.507C52.0456 94.5516 52.166 94.597 52.2944 94.643C53.5734 95.093 54.7358 95.9053 55.1091 97.2853C55.2003 97.627 55.1676 98.0738 55.179 98.4314C55.1864 98.6555 55.1864 106.808 55.179 107.033ZM73.8908 90.3938V90.0394H49.1218V90.3938L50.8197 91.6477V112.379L49.1218 113.632V113.983H73.8908V113.632L72.1965 112.379V91.6477L73.8908 90.3938Z" fill="white"/>
</mask>
<g mask="url(#mask71_32_3641)">
<path d="M38.3608 95.7043L54.9812 123.937L84.6519 108.319L68.031 80.086L38.3608 95.7043Z" fill="#E9C37E" fill-opacity="0.2"/>
</g>
</g>
</g>
</g>
<mask id="mask72_32_3641" style="mask-type:luminance" maskUnits="userSpaceOnUse" x="47" y="87" width="29" height="29">
<path d="M47 87.6049H75.976V116H47V87.6049Z" fill="white"/>
</mask>
<g mask="url(#mask72_32_3641)">
<mask id="mask73_32_3641" style="mask-type:luminance" maskUnits="userSpaceOnUse" x="47" y="87" width="29" height="29">
<path d="M72.6015 112.4C72.4665 112.347 72.3252 112.293 72.1781 112.239C70.694 111.707 69.3467 110.745 68.914 109.111C68.8083 108.708 68.8468 108.179 68.8336 107.757C68.8261 107.491 68.8261 97.8455 68.8336 97.5804C68.8468 97.1572 68.8083 96.6287 68.914 96.2244C69.3467 94.5917 70.694 93.6306 72.1781 93.0982C72.3252 93.0438 72.4665 92.99 72.6015 92.9373V112.4ZM67.5506 108.216C67.5391 108.556 67.5742 108.985 67.4788 109.313C67.0858 110.638 65.8637 111.419 64.521 111.85C61.9544 112.676 61.4982 113.734 61.4982 113.734C61.4982 113.734 61.042 112.676 58.4744 111.85C57.131 111.419 55.909 110.638 55.5177 109.313C55.4206 108.985 55.4556 108.556 55.4441 108.216C55.4384 108.016 55.4384 97.3219 55.4441 97.1217C55.4556 96.7807 55.4206 96.352 55.5177 96.0242C55.909 94.6993 57.131 93.9184 58.4744 93.4869C61.042 92.6606 61.4982 91.603 61.4982 91.603C61.4982 91.603 61.9544 92.6606 64.521 93.4869C65.8637 93.9184 67.0858 94.6993 67.4788 96.0242C67.5742 96.352 67.5391 96.7807 67.5506 97.1217C67.5569 97.3219 67.5569 108.016 67.5506 108.216ZM54.1617 107.757C54.1485 108.179 54.1864 108.708 54.0807 109.111C53.6481 110.745 52.3007 111.707 50.8184 112.239C50.6696 112.293 50.53 112.347 50.3932 112.4V92.9373C50.53 92.99 50.6696 93.0438 50.8184 93.0982C52.3007 93.6306 53.6481 94.5917 54.0807 96.2244C54.1864 96.6287 54.1485 97.1572 54.1617 97.5804C54.1704 97.8455 54.1704 107.491 54.1617 107.757ZM75.8495 88.0708V87.6515H47.1412V88.0708L49.1091 89.5543V114.082L47.1412 115.564V115.98H75.8495V115.564L73.8857 114.082V89.5543L75.8495 88.0708Z" fill="white"/>
</mask>
<g mask="url(#mask73_32_3641)">
<mask id="mask74_32_3641" style="mask-type:luminance" maskUnits="userSpaceOnUse" x="47" y="87" width="29" height="29">
<path d="M72.6015 112.4C72.4665 112.347 72.3252 112.293 72.1781 112.239C70.694 111.707 69.3467 110.745 68.914 109.111C68.8083 108.708 68.8468 108.179 68.8336 107.757C68.8261 107.491 68.8261 97.8455 68.8336 97.5804C68.8468 97.1572 68.8083 96.6287 68.914 96.2244C69.3467 94.5917 70.694 93.6306 72.1781 93.0982C72.3252 93.0438 72.4665 92.99 72.6015 92.9373V112.4ZM67.5506 108.216C67.5391 108.556 67.5742 108.985 67.4788 109.313C67.0858 110.638 65.8637 111.419 64.521 111.85C61.9544 112.676 61.4982 113.734 61.4982 113.734C61.4982 113.734 61.042 112.676 58.4744 111.85C57.131 111.419 55.909 110.638 55.5177 109.313C55.4206 108.985 55.4556 108.556 55.4441 108.216C55.4384 108.016 55.4384 97.3219 55.4441 97.1217C55.4556 96.7807 55.4206 96.352 55.5177 96.0242C55.909 94.6993 57.131 93.9184 58.4744 93.4869C61.042 92.6606 61.4982 91.603 61.4982 91.603C61.4982 91.603 61.9544 92.6606 64.521 93.4869C65.8637 93.9184 67.0858 94.6993 67.4788 96.0242C67.5742 96.352 67.5391 96.7807 67.5506 97.1217C67.5569 97.3219 67.5569 108.016 67.5506 108.216ZM54.1617 107.757C54.1485 108.179 54.1864 108.708 54.0807 109.111C53.6481 110.745 52.3007 111.707 50.8184 112.239C50.6696 112.293 50.53 112.347 50.3932 112.4V92.9373C50.53 92.99 50.6696 93.0438 50.8184 93.0982C52.3007 93.6306 53.6481 94.5917 54.0807 96.2244C54.1864 96.6287 54.1485 97.1572 54.1617 97.5804C54.1704 97.8455 54.1704 107.491 54.1617 107.757ZM75.8495 88.0708V87.6515H47.1412V88.0708L49.1091 89.5543V114.082L47.1412 115.564V115.98H75.8495V115.564L73.8857 114.082V89.5543L75.8495 88.0708Z" fill="white"/>
</mask>
<g mask="url(#mask74_32_3641)">
<path d="M34.6688 94.3538L53.9325 127.757L88.322 109.278L69.0577 75.8754L34.6688 94.3538Z" fill="#D2D1D1"/>
</g>
</g>
</g>
<mask id="mask75_32_3641" style="mask-type:luminance" maskUnits="userSpaceOnUse" x="61" y="1" width="1" height="65">
<path d="M61.2466 1H61.7482V65.809H61.2466V1Z" fill="white"/>
</mask>
<g mask="url(#mask75_32_3641)">
<path d="M32.7131 16.3322L61.3656 66.0147L90.2825 50.4767L61.6299 0.794266L32.7131 16.3322Z" fill="#E5E5E5"/>
</g>
<g filter="url(#filter10_f_32_3641)">
<path d="M61.3736 97.9925L62.4951 101.503L65.5259 102.802L62.4951 104.101L61.3736 107.612L60.2521 104.101L57.2214 102.802L60.2521 101.503L61.3736 97.9925Z" fill="#EDA625"/>
</g>
<g filter="url(#filter11_f_32_3641)">
<path d="M61.3736 97.9925L62.4951 101.503L65.5259 102.802L62.4951 104.101L61.3736 107.612L60.2521 104.101L57.2214 102.802L60.2521 101.503L61.3736 97.9925Z" fill="#EDA625"/>
</g>
<path d="M61.3736 97.9925L62.4951 101.503L65.5259 102.802L62.4951 104.101L61.3736 107.612L60.2521 104.101L57.2214 102.802L60.2521 101.503L61.3736 97.9925Z" fill="#E9C37E"/>
<line x1="3.66313e-05" y1="0.5" x2="319" y2="0.523371" stroke="#D9D9D9"/>
<g filter="url(#filter12_d_32_3641)">
<path d="M144.295 59.5396C144.312 59.5398 144.33 59.5345 144.344 59.5247C144.359 59.5148 144.37 59.5007 144.377 59.4844C144.383 59.468 144.384 59.4501 144.38 59.4329C144.376 59.4158 144.367 59.4004 144.354 59.3886C143.829 58.9001 143.038 58.1309 141.981 57.0811C141.685 56.7865 141.539 56.4294 141.543 56.0099C141.565 52.5976 141.568 49.8277 141.551 47.7001C141.551 47.6726 141.562 47.6463 141.582 47.6269C141.601 47.6075 141.628 47.5966 141.655 47.5966H150.463C150.574 47.5967 150.682 47.641 150.761 47.7197L153.383 50.332C153.398 50.347 153.417 50.3573 153.438 50.3615C153.459 50.3656 153.481 50.3635 153.5 50.3554C153.52 50.3473 153.537 50.3336 153.548 50.3159C153.56 50.2983 153.566 50.2776 153.566 50.2565V46.4974C153.566 46.4399 153.578 46.383 153.6 46.3302C153.622 46.2774 153.655 46.2296 153.695 46.1897L159.852 40.0616C159.892 40.0221 159.946 40 160.002 40C160.059 40 160.113 40.0221 160.153 40.0616L166.242 46.1198C166.37 46.249 166.442 46.4228 166.442 46.6037V50.1838C166.442 50.2041 166.448 50.224 166.459 50.2408C166.471 50.2577 166.487 50.2708 166.506 50.2786C166.525 50.2863 166.546 50.2884 166.566 50.2844C166.586 50.2805 166.604 50.2708 166.619 50.2565L169.022 47.8623C169.197 47.6904 169.431 47.594 169.674 47.5938H178.271C178.317 47.5938 178.36 47.6115 178.392 47.643C178.425 47.6744 178.443 47.7171 178.443 47.7616C178.443 49.6897 178.446 52.3953 178.454 55.8784C178.454 56.4005 178.32 56.7837 178.052 57.028C177.435 57.5929 176.651 58.3686 175.699 59.355C175.683 59.3716 175.672 59.3924 175.668 59.415C175.664 59.4375 175.667 59.4608 175.675 59.4819C175.684 59.503 175.699 59.521 175.719 59.5338C175.738 59.5465 175.76 59.5534 175.783 59.5536H179.334C179.416 59.5536 179.497 59.5697 179.572 59.6009C179.647 59.6321 179.715 59.6778 179.772 59.7354L185.949 65.8803C185.965 65.8965 185.978 65.9156 185.987 65.9368C185.995 65.9579 186 65.9805 186 66.0034C186 66.0263 185.995 66.0489 185.987 66.0701C185.978 66.0912 185.965 66.1104 185.949 66.1265L179.784 72.2602C179.729 72.3151 179.664 72.3587 179.593 72.3884C179.522 72.4182 179.445 72.4336 179.367 72.4336H175.702C175.684 72.4332 175.666 72.4382 175.651 72.448C175.635 72.4578 175.623 72.472 175.617 72.4886C175.61 72.5052 175.608 72.5235 175.611 72.5412C175.615 72.5588 175.624 72.5749 175.637 72.5875C177.02 73.9272 177.993 74.6936 178.378 75.4376C178.42 75.5184 178.443 75.6086 178.443 75.7005V84.2955C178.443 84.3222 178.432 84.3479 178.413 84.3667C178.394 84.3856 178.368 84.3962 178.341 84.3962H169.562C169.434 84.3961 169.312 84.3458 169.222 84.2564L166.607 81.6552C166.593 81.6419 166.576 81.6328 166.557 81.6291C166.538 81.6254 166.518 81.6272 166.5 81.6344C166.483 81.6416 166.468 81.6538 166.457 81.6694C166.447 81.6851 166.441 81.7035 166.442 81.7223C166.447 82.7106 166.437 83.9021 166.411 85.2969C166.407 85.5933 166.25 85.8917 165.941 86.1919C163.752 88.3306 161.839 90.241 160.201 91.9229C160.178 91.947 160.15 91.9663 160.12 91.9795C160.089 91.9928 160.056 91.9997 160.023 92C159.989 92.0003 159.956 91.9938 159.926 91.981C159.895 91.9683 159.867 91.9494 159.844 91.9257C159.834 91.9145 157.905 89.9976 154.055 86.1751C153.709 85.832 153.537 85.4843 153.541 85.1318C153.556 84.0261 153.56 82.9232 153.552 81.823C153.552 81.8021 153.545 81.7818 153.533 81.7646C153.521 81.7475 153.504 81.7342 153.485 81.7264C153.465 81.7186 153.444 81.7168 153.424 81.721C153.403 81.7253 153.384 81.7355 153.369 81.7503L150.949 84.1585C150.792 84.3126 150.581 84.399 150.361 84.399H141.72C141.676 84.399 141.634 84.3819 141.602 84.3515C141.571 84.3211 141.554 84.2798 141.554 84.2368V75.6949C141.554 75.5973 141.573 75.5007 141.611 75.4104C141.648 75.3202 141.704 75.2382 141.773 75.1691L144.312 72.6434C144.328 72.6264 144.34 72.6049 144.344 72.5816C144.348 72.5584 144.346 72.5343 144.336 72.5125C144.327 72.4907 144.311 72.4721 144.292 72.459C144.272 72.446 144.248 72.4391 144.225 72.4392H140.705C140.514 72.4391 140.332 72.3647 140.199 72.2322L134.045 66.1069C134.031 66.0933 134.02 66.0771 134.012 66.0592C134.004 66.0413 134 66.0221 134 66.0026C134 65.9831 134.003 65.9638 134.011 65.9457C134.018 65.9276 134.029 65.9111 134.042 65.8971C135.774 64.1481 137.826 62.0961 140.199 59.741C140.46 59.4837 141.034 59.5648 141.396 59.5648C142.482 59.5648 143.448 59.5564 144.295 59.5396ZM155.52 49.7726C155.514 51.1152 155.514 51.9272 155.52 52.2088C155.523 52.3348 155.573 52.4548 155.661 52.5444C157.203 54.1014 158.611 55.5111 159.886 56.7734C159.894 56.7818 159.948 56.793 159.956 56.793C159.962 56.793 160.015 56.7818 160.024 56.7734C161.309 55.5204 162.729 54.121 164.283 52.5752C164.371 52.486 164.423 52.366 164.426 52.2396C164.432 51.9599 164.437 51.1487 164.443 49.8062C164.448 48.4618 164.449 47.6498 164.446 47.3701C164.443 47.2426 164.392 47.1215 164.302 47.0316C162.76 45.4746 161.351 44.065 160.077 42.8026C160.069 42.7942 160.015 42.7858 160.007 42.7858C160.001 42.7858 159.948 42.7942 159.939 42.8026C158.654 44.0557 157.234 45.4551 155.68 47.0009C155.591 47.09 155.54 47.2101 155.537 47.3365C155.531 47.6162 155.526 48.4282 155.52 49.7726ZM151.66 51.4312C150.712 50.4877 150.137 49.92 149.937 49.7279C149.846 49.641 149.725 49.5919 149.6 49.5908C147.418 49.5834 145.435 49.5852 143.651 49.5964C143.64 49.5964 143.595 49.6272 143.589 49.6328C143.584 49.6384 143.555 49.6803 143.555 49.6915C143.544 51.4685 143.542 53.4413 143.55 55.6099C143.551 55.7349 143.6 55.855 143.688 55.9455C143.881 56.1469 144.451 56.7184 145.4 57.6601C146.348 58.6017 146.922 59.1695 147.123 59.3634C147.214 59.4504 147.335 59.4994 147.46 59.5005C149.64 59.5079 151.623 59.5061 153.409 59.4949C153.42 59.4949 153.465 59.4641 153.471 59.4585C153.476 59.4529 153.504 59.4082 153.504 59.397C153.516 57.6219 153.517 55.6491 153.51 53.4786C153.509 53.3536 153.46 53.2335 153.372 53.143C153.177 52.9435 152.607 52.3729 151.66 51.4312ZM168.277 51.4564C167.333 52.3999 166.763 52.9724 166.568 53.1738C166.482 53.2647 166.433 53.3847 166.433 53.5094C166.429 55.678 166.435 57.6508 166.45 59.4278C166.45 59.4389 166.481 59.4837 166.486 59.4893C166.489 59.4921 166.534 59.5229 166.546 59.5229C168.332 59.5303 170.314 59.5275 172.494 59.5145C172.619 59.5141 172.74 59.4661 172.831 59.3802C173.032 59.1863 173.605 58.6166 174.552 57.6713C175.496 56.7278 176.065 56.1553 176.258 55.9539C176.346 55.8634 176.395 55.7433 176.396 55.6183C176.4 53.4497 176.394 51.4769 176.379 49.6999C176.379 49.6887 176.348 49.644 176.343 49.6384C176.337 49.6356 176.295 49.6048 176.284 49.6048C174.498 49.5974 172.515 49.6002 170.335 49.6132C170.21 49.6135 170.089 49.6616 169.998 49.7475C169.797 49.9414 169.224 50.511 168.277 51.4564ZM158.511 58.3425C158.52 58.3342 158.527 58.3242 158.531 58.3131C158.536 58.3021 158.539 58.2902 158.539 58.2782C158.539 58.2662 158.536 58.2543 158.531 58.2433C158.527 58.2322 158.52 58.2222 158.511 58.2139L155.675 55.3917C155.662 55.379 155.646 55.3702 155.629 55.3664C155.611 55.3627 155.593 55.3643 155.577 55.3709C155.56 55.3775 155.546 55.3888 155.536 55.4035C155.526 55.4182 155.52 55.4355 155.52 55.4533V59.4501C155.52 59.4739 155.529 59.4966 155.546 59.5134C155.563 59.5302 155.586 59.5396 155.61 59.5396H157.274C157.297 59.5395 157.319 59.5304 157.336 59.5145L158.511 58.3425ZM162.689 59.4893C162.987 59.6124 163.892 59.5452 164.266 59.5201C164.305 59.5172 164.342 59.4996 164.369 59.4706C164.396 59.4416 164.411 59.4033 164.412 59.3634L164.415 55.3666C164.414 55.3634 164.412 55.3604 164.41 55.3579C164.407 55.3555 164.404 55.3536 164.401 55.3526C164.399 55.3507 164.396 55.3489 164.392 55.347C164.392 55.347 164.39 55.347 164.387 55.347C164.383 55.3453 164.38 55.3443 164.376 55.3443C164.373 55.3443 164.37 55.3453 164.367 55.347L161.553 58.1999C161.525 58.2287 161.51 58.2665 161.509 58.3058C161.508 58.3451 161.521 58.3832 161.547 58.4125C161.797 58.6922 162.393 59.3718 162.689 59.4893ZM158.12 61.5395C158.083 61.5544 158.049 61.5628 158.019 61.5646C157.44 61.574 156.642 61.5861 155.624 61.601C155.607 61.601 155.59 61.615 155.576 61.629C155.562 61.643 155.548 61.6597 155.548 61.6793C155.533 62.6899 155.52 63.4843 155.509 64.0623C155.509 64.0922 155.501 64.1257 155.486 64.163C155.469 64.1984 155.451 64.2273 155.43 64.2497C155.027 64.6655 154.471 65.2361 153.763 65.9615C153.752 65.9754 153.749 65.995 153.749 66.0146C153.749 66.037 153.752 66.0566 153.763 66.0705C154.471 66.7959 155.027 67.3665 155.43 67.7823C155.451 67.8047 155.468 67.8336 155.483 67.869C155.5 67.9063 155.509 67.9398 155.509 67.9697C155.518 68.5477 155.531 69.3421 155.548 70.3527C155.548 70.3723 155.559 70.3891 155.573 70.403C155.59 70.417 155.604 70.431 155.624 70.431C156.642 70.4459 157.44 70.459 158.019 70.4702C158.049 70.4702 158.083 70.4776 158.12 70.4925C158.158 70.5075 158.187 70.5261 158.207 70.5485C158.625 70.9475 159.199 71.4994 159.928 72.2043C159.942 72.2183 159.964 72.2211 159.984 72.2211C160.004 72.2211 160.024 72.2183 160.038 72.2043C160.768 71.4994 161.342 70.9475 161.758 70.5485C161.781 70.5261 161.811 70.5075 161.848 70.4925C161.885 70.4776 161.919 70.4702 161.949 70.4702C162.528 70.459 163.327 70.4459 164.344 70.431C164.364 70.431 164.378 70.417 164.392 70.403C164.409 70.3891 164.42 70.3723 164.42 70.3555C164.437 69.343 164.45 68.5486 164.46 67.9725C164.46 67.9426 164.468 67.9091 164.485 67.8718C164.5 67.8345 164.518 67.8047 164.538 67.7823C164.941 67.3683 165.497 66.7977 166.205 66.0705C166.219 66.0566 166.219 66.037 166.219 66.0174C166.219 65.995 166.219 65.9754 166.205 65.9615C165.497 65.2361 164.941 64.6655 164.538 64.2497C164.518 64.2292 164.5 64.2003 164.485 64.163C164.468 64.1257 164.46 64.0922 164.46 64.0623C164.45 63.4861 164.438 62.6918 164.423 61.6793C164.423 61.6597 164.409 61.6457 164.395 61.629C164.378 61.615 164.364 61.601 164.344 61.601C163.327 61.5861 162.528 61.574 161.949 61.5646C161.919 61.5628 161.885 61.5544 161.848 61.5395C161.811 61.5245 161.781 61.5068 161.761 61.4863C161.343 61.0854 160.769 60.5326 160.04 59.8277C160.026 59.8137 160.007 59.8137 159.984 59.8137C159.964 59.8137 159.945 59.8137 159.931 59.8277C159.2 60.5326 158.626 61.0854 158.21 61.4863C158.188 61.5068 158.158 61.5245 158.12 61.5395ZM153.547 63.3883C153.566 63.369 153.577 63.3429 153.577 63.3155V61.6346C153.577 61.621 153.575 61.6075 153.57 61.595C153.564 61.5824 153.557 61.571 153.547 61.5614C153.537 61.5518 153.526 61.5442 153.513 61.539C153.501 61.5337 153.487 61.5311 153.473 61.5311H149.535C149.514 61.5312 149.495 61.5374 149.478 61.5488C149.461 61.5602 149.447 61.5763 149.44 61.5951C149.432 61.6139 149.43 61.6345 149.434 61.6545C149.438 61.6745 149.447 61.6928 149.462 61.7073L152.276 64.507C152.295 64.5262 152.322 64.5369 152.349 64.5369C152.376 64.5369 152.403 64.5262 152.422 64.507L153.547 63.3883ZM167.566 64.5014C167.584 64.5192 167.608 64.5292 167.633 64.5292C167.659 64.5292 167.683 64.5192 167.701 64.5014L170.529 61.6849C170.542 61.6716 170.551 61.6547 170.555 61.6363C170.559 61.6178 170.557 61.5988 170.55 61.5814C170.542 61.5641 170.53 61.5492 170.515 61.5388C170.499 61.5283 170.48 61.5227 170.462 61.5227H166.568C166.543 61.5227 166.518 61.5327 166.5 61.5505C166.483 61.5684 166.472 61.5926 166.472 61.6178V63.3743C166.472 63.3995 166.483 63.4236 166.501 63.4414L167.566 64.5014ZM143.848 61.5562C142.497 61.5544 141.68 61.5553 141.399 61.559C141.272 61.5624 141.152 61.6134 141.062 61.7017C139.499 63.2419 138.083 64.6478 136.814 65.9195C136.809 65.9279 136.797 65.981 136.797 65.9866C136.797 65.995 136.806 66.0482 136.814 66.0566C138.077 67.332 139.489 68.7416 141.048 70.2856C141.137 70.3739 141.258 70.4249 141.385 70.4282C141.666 70.4338 142.483 70.4385 143.834 70.4422C145.187 70.4441 146.004 70.4422 146.285 70.4366C146.412 70.4333 146.533 70.3823 146.622 70.294C148.186 68.7556 149.6 67.3497 150.867 66.0761C150.876 66.0705 150.887 66.0174 150.887 66.009C150.887 66.0006 150.876 65.9503 150.867 65.9419C149.604 64.6646 148.194 63.254 146.637 61.7101C146.547 61.6218 146.426 61.5707 146.299 61.5674C146.018 61.5618 145.201 61.5581 143.848 61.5562ZM176.163 61.5395C174.81 61.5339 173.991 61.5329 173.708 61.5367C173.581 61.5393 173.459 61.5904 173.368 61.6793C171.798 63.2176 170.376 64.6226 169.104 65.8943C169.095 65.9027 169.084 65.9559 169.084 65.9643C169.084 65.9699 169.095 66.023 169.104 66.0314C170.367 67.3143 171.777 68.7314 173.335 70.2828C173.425 70.3711 173.545 70.4221 173.672 70.4254C173.955 70.4329 174.774 70.4385 176.129 70.4422C177.484 70.4478 178.302 70.4487 178.583 70.445C178.711 70.4431 178.832 70.3931 178.923 70.3051C180.494 68.7649 181.915 67.359 183.188 66.0873C183.196 66.0789 183.208 66.0258 183.208 66.0202C183.208 66.0118 183.196 65.9587 183.188 65.9503C181.927 64.6674 180.516 63.2503 178.957 61.6989C178.867 61.6106 178.746 61.5596 178.62 61.5562C178.337 61.5506 177.518 61.5451 176.163 61.5395ZM170.515 70.4841C170.533 70.4838 170.551 70.4782 170.566 70.468C170.58 70.4579 170.592 70.4436 170.599 70.4269C170.606 70.4103 170.608 70.392 170.604 70.3744C170.601 70.3567 170.592 70.3404 170.58 70.3275L167.836 67.5334C167.817 67.5144 167.795 67.4994 167.77 67.4893C167.745 67.4792 167.719 67.4741 167.692 67.4743C167.665 67.4746 167.639 67.4802 167.614 67.4908C167.59 67.5014 167.568 67.5169 167.549 67.5361L166.562 68.5431C166.492 68.6157 166.452 68.7131 166.453 68.8144L166.45 70.294C166.45 70.3392 166.468 70.3826 166.5 70.4146C166.532 70.4466 166.576 70.4646 166.621 70.4646L170.515 70.4841ZM149.498 70.459L153.347 70.4674C153.392 70.4674 153.436 70.4494 153.468 70.4174C153.5 70.3854 153.518 70.342 153.518 70.2967L153.524 68.8367C153.526 68.7369 153.488 68.6406 153.42 68.5682L152.45 67.5641C152.432 67.5449 152.41 67.5295 152.386 67.519C152.361 67.5084 152.335 67.5028 152.309 67.5025C152.282 67.5022 152.256 67.5073 152.231 67.5174C152.207 67.5275 152.185 67.5425 152.166 67.5613L149.434 70.3023C149.421 70.3152 149.413 70.3315 149.409 70.3492C149.406 70.3668 149.408 70.3851 149.414 70.4018C149.421 70.4184 149.433 70.4327 149.448 70.4428C149.463 70.453 149.48 70.4586 149.498 70.459ZM151.697 80.5644C152.647 79.6153 153.219 79.041 153.414 78.8415C153.501 78.7496 153.549 78.6286 153.549 78.503C153.553 76.3251 153.547 74.3449 153.532 72.5623C153.532 72.5511 153.504 72.5064 153.499 72.5008C153.493 72.4952 153.448 72.4672 153.437 72.4672C151.645 72.4597 149.655 72.4616 147.466 72.4728C147.339 72.4734 147.218 72.5225 147.126 72.6098C146.925 72.8038 146.35 73.3753 145.4 74.3244C144.451 75.2716 143.88 75.8459 143.685 76.0473C143.598 76.1391 143.55 76.2602 143.55 76.3857C143.546 78.5636 143.552 80.5439 143.567 82.3265C143.567 82.3377 143.595 82.3824 143.6 82.388C143.606 82.3936 143.651 82.4216 143.662 82.4216C145.454 82.429 147.444 82.4272 149.633 82.416C149.759 82.4146 149.879 82.3656 149.971 82.2789C150.173 82.0831 150.748 81.5116 151.697 80.5644ZM155.683 76.6151L158.475 73.8517C158.491 73.8356 158.504 73.8164 158.513 73.7953C158.522 73.7742 158.526 73.7515 158.526 73.7286C158.526 73.7057 158.522 73.6831 158.513 73.662C158.504 73.6408 158.491 73.6217 158.475 73.6056L157.418 72.5427C157.346 72.47 157.249 72.4279 157.148 72.4252L155.717 72.3945C155.69 72.3937 155.663 72.3984 155.638 72.4082C155.612 72.418 155.589 72.4327 155.57 72.4514C155.551 72.4702 155.535 72.4927 155.525 72.5175C155.514 72.5423 155.509 72.5689 155.509 72.5959L155.523 76.548C155.522 76.5668 155.527 76.5854 155.537 76.6013C155.547 76.6172 155.562 76.6296 155.579 76.6369C155.597 76.6442 155.616 76.646 155.635 76.6421C155.653 76.6382 155.67 76.6288 155.683 76.6151ZM162.663 72.4952C162.36 72.621 161.758 73.3147 161.508 73.5972C161.482 73.6273 161.468 73.6661 161.469 73.7059C161.47 73.7458 161.486 73.7838 161.513 73.8125L164.378 76.6906C164.381 76.6934 164.384 76.6952 164.388 76.6957C164.392 76.6963 164.397 76.6954 164.401 76.6934C164.404 76.6915 164.407 76.6897 164.409 76.6878C164.409 76.6897 164.411 76.6897 164.415 76.6878C164.419 76.6866 164.422 76.6843 164.425 76.6813C164.427 76.6782 164.429 76.6746 164.429 76.671L164.406 72.621C164.406 72.5802 164.391 72.5408 164.362 72.5112C164.334 72.4815 164.295 72.4638 164.254 72.4616C163.878 72.4392 162.958 72.3749 162.663 72.4952ZM168.258 80.5336C169.2 81.4827 169.772 82.0542 169.972 82.2482C170.064 82.3351 170.184 82.3841 170.31 82.3852C172.493 82.4057 174.479 82.4151 176.267 82.4132C176.278 82.4132 176.323 82.3852 176.329 82.3796C176.334 82.374 176.362 82.3321 176.362 82.3181C176.385 80.5411 176.398 78.5664 176.402 76.3941C176.402 76.2688 176.354 76.1477 176.267 76.0557C176.074 75.8543 175.505 75.2791 174.56 74.33C173.618 73.3809 173.046 72.8094 172.845 72.6154C172.755 72.5275 172.634 72.4775 172.508 72.4756C170.325 72.4569 168.339 72.4476 166.551 72.4476C166.54 72.4476 166.495 72.4784 166.492 72.4812C166.486 72.4868 166.456 72.5315 166.456 72.5427C166.435 74.3216 166.422 76.2972 166.416 78.4695C166.417 78.5938 166.465 78.7138 166.551 78.8051C166.744 79.0084 167.313 79.5845 168.258 80.5336ZM155.551 82.2006C155.549 83.5413 155.55 84.3506 155.554 84.6284C155.557 84.7546 155.608 84.8747 155.697 84.964C157.238 86.5135 158.645 87.9167 159.92 89.1734C159.928 89.179 159.981 89.1902 159.99 89.1902C159.995 89.1902 160.049 89.179 160.057 89.1734C161.335 87.9204 162.748 86.5219 164.294 84.978C164.382 84.8882 164.432 84.7682 164.434 84.6424C164.44 84.3627 164.444 83.5534 164.446 82.2146C164.447 80.8739 164.447 80.0637 164.443 79.784C164.439 79.6588 164.388 79.5398 164.299 79.4512C162.759 77.9017 161.351 76.4985 160.077 75.2418C160.069 75.2334 160.015 75.225 160.009 75.225C160.001 75.225 159.948 75.2334 159.939 75.2418C158.661 76.4948 157.25 77.8933 155.706 79.4372C155.617 79.5266 155.565 79.6466 155.562 79.7729C155.557 80.0526 155.553 80.8618 155.551 82.2006Z" fill="#D9D9D9"/>
</g>
<defs>
<filter id="filter0_f_32_3641" x="261.673" y="73.6279" width="17.6614" height="19.7601" filterUnits="userSpaceOnUse" color-interpolation-filters="sRGB">
<feFlood flood-opacity="0" result="BackgroundImageFix"/>
<feBlend mode="normal" in="SourceGraphic" in2="BackgroundImageFix" result="shape"/>
<feGaussianBlur stdDeviation="0.7" result="effect1_foregroundBlur_32_3641"/>
</filter>
<filter id="filter1_f_32_3641" x="260.2" y="73.2" width="20.1" height="22.6" filterUnits="userSpaceOnUse" color-interpolation-filters="sRGB">
<feFlood flood-opacity="0" result="BackgroundImageFix"/>
<feBlend mode="normal" in="SourceGraphic" in2="BackgroundImageFix" result="shape"/>
<feGaussianBlur stdDeviation="3.9" result="effect1_foregroundBlur_32_3641"/>
</filter>
<filter id="filter2_f_32_3641" x="265.9" y="78.9" width="8.7" height="11.2" filterUnits="userSpaceOnUse" color-interpolation-filters="sRGB">
<feFlood flood-opacity="0" result="BackgroundImageFix"/>
<feBlend mode="normal" in="SourceGraphic" in2="BackgroundImageFix" result="shape"/>
<feGaussianBlur stdDeviation="1.05" result="effect1_foregroundBlur_32_3641"/>
</filter>
<filter id="filter3_f_32_3641" x="289.658" y="65.6213" width="14.6891" height="15.7695" filterUnits="userSpaceOnUse" color-interpolation-filters="sRGB">
<feFlood flood-opacity="0" result="BackgroundImageFix"/>
<feBlend mode="normal" in="SourceGraphic" in2="BackgroundImageFix" result="shape"/>
<feGaussianBlur stdDeviation="0.7" result="effect1_foregroundBlur_32_3641"/>
</filter>
<filter id="filter4_f_32_3641" x="290.5" y="67.5" width="12.8906" height="12.8906" filterUnits="userSpaceOnUse" color-interpolation-filters="sRGB">
<feFlood flood-opacity="0" result="BackgroundImageFix"/>
<feBlend mode="normal" in="SourceGraphic" in2="BackgroundImageFix" result="shape"/>
<feGaussianBlur stdDeviation="2.1" result="effect1_foregroundBlur_32_3641"/>
</filter>
<filter id="filter5_f_32_3641" x="290.5" y="67.5" width="12.8906" height="12.8906" filterUnits="userSpaceOnUse" color-interpolation-filters="sRGB">
<feFlood flood-opacity="0" result="BackgroundImageFix"/>
<feBlend mode="normal" in="SourceGraphic" in2="BackgroundImageFix" result="shape"/>
<feGaussianBlur stdDeviation="1.9" result="effect1_foregroundBlur_32_3641"/>
</filter>
<filter id="filter6_f_32_3641" x="14.6682" y="80.6246" width="16.6707" height="17.7648" filterUnits="userSpaceOnUse" color-interpolation-filters="sRGB">
<feFlood flood-opacity="0" result="BackgroundImageFix"/>
<feBlend mode="normal" in="SourceGraphic" in2="BackgroundImageFix" result="shape"/>
<feGaussianBlur stdDeviation="0.7" result="effect1_foregroundBlur_32_3641"/>
</filter>
<filter id="filter7_f_32_3641" x="14.9156" y="82.2033" width="15.8906" height="15.8906" filterUnits="userSpaceOnUse" color-interpolation-filters="sRGB">
<feFlood flood-opacity="0" result="BackgroundImageFix"/>
<feBlend mode="normal" in="SourceGraphic" in2="BackgroundImageFix" result="shape"/>
<feGaussianBlur stdDeviation="3" result="effect1_foregroundBlur_32_3641"/>
</filter>
<filter id="filter8_f_32_3641" x="18.4156" y="85.7033" width="8.89062" height="8.89061" filterUnits="userSpaceOnUse" color-interpolation-filters="sRGB">
<feFlood flood-opacity="0" result="BackgroundImageFix"/>
<feBlend mode="normal" in="SourceGraphic" in2="BackgroundImageFix" result="shape"/>
<feGaussianBlur stdDeviation="1" result="effect1_foregroundBlur_32_3641"/>
</filter>
<filter id="filter9_f_32_3641" x="47.7218" y="88.6394" width="27.569" height="26.7437" filterUnits="userSpaceOnUse" color-interpolation-filters="sRGB">
<feFlood flood-opacity="0" result="BackgroundImageFix"/>
<feBlend mode="normal" in="SourceGraphic" in2="BackgroundImageFix" result="shape"/>
<feGaussianBlur stdDeviation="0.7" result="effect1_foregroundBlur_32_3641"/>
</filter>
<filter id="filter10_f_32_3641" x="47.5214" y="88.2925" width="27.7045" height="29.0191" filterUnits="userSpaceOnUse" color-interpolation-filters="sRGB">
<feFlood flood-opacity="0" result="BackgroundImageFix"/>
<feBlend mode="normal" in="SourceGraphic" in2="BackgroundImageFix" result="shape"/>
<feGaussianBlur stdDeviation="4.15" result="effect1_foregroundBlur_32_3641"/>
</filter>
<filter id="filter11_f_32_3641" x="49.2214" y="89.9925" width="24.3045" height="25.6191" filterUnits="userSpaceOnUse" color-interpolation-filters="sRGB">
<feFlood flood-opacity="0" result="BackgroundImageFix"/>
<feBlend mode="normal" in="SourceGraphic" in2="BackgroundImageFix" result="shape"/>
<feGaussianBlur stdDeviation="2.25" result="effect1_foregroundBlur_32_3641"/>
</filter>
<filter id="filter12_d_32_3641" x="130" y="40" width="60" height="60" filterUnits="userSpaceOnUse" color-interpolation-filters="sRGB">
<feFlood flood-opacity="0" result="BackgroundImageFix"/>
<feColorMatrix in="SourceAlpha" type="matrix" values="0 0 0 0 0 0 0 0 0 0 0 0 0 0 0 0 0 0 127 0" result="hardAlpha"/>
<feOffset dy="4"/>
<feGaussianBlur stdDeviation="2"/>
<feComposite in2="hardAlpha" operator="out"/>
<feColorMatrix type="matrix" values="0 0 0 0 0 0 0 0 0 0 0 0 0 0 0 0 0 0 0.25 0"/>
<feBlend mode="normal" in2="BackgroundImageFix" result="effect1_dropShadow_32_3641"/>
<feBlend mode="normal" in="SourceGraphic" in2="effect1_dropShadow_32_3641" result="shape"/>
</filter>
<linearGradient id="paint0_linear_32_3641" x1="17.3679" y1="83.538" x2="28.4827" y2="77.3507" gradientUnits="userSpaceOnUse">
<stop stop-color="#D3D3D3"/>
<stop offset="0.125" stop-color="#D8D8D8"/>
<stop offset="0.25" stop-color="#D3D3D3"/>
<stop offset="0.375" stop-color="#D3D3D3"/>
<stop offset="0.5" stop-color="#D3D3D3"/>
<stop offset="0.625" stop-color="#D3D3D3"/>
<stop offset="0.75" stop-color="#D3D3D3"/>
<stop offset="0.875" stop-color="#D3D3D3"/>
<stop offset="1" stop-color="#D3D3D3"/>
</linearGradient>
<linearGradient id="paint1_linear_32_3641" x1="17.1958" y1="78.1909" x2="29.5183" y2="71.3313" gradientUnits="userSpaceOnUse">
<stop stop-color="#D1D1D1"/>
<stop offset="0.125" stop-color="#CFCFCF"/>
<stop offset="0.25" stop-color="#D4D4D4"/>
<stop offset="0.375" stop-color="#CDCDCD"/>
<stop offset="0.5" stop-color="#D8D7D5"/>
<stop offset="0.625" stop-color="#CCCCCC"/>
<stop offset="0.75" stop-color="#CECECE"/>
<stop offset="0.875" stop-color="#D2D2D2"/>
<stop offset="1" stop-color="#D5AA5A"/>
</linearGradient>
<linearGradient id="paint2_linear_32_3641" x1="15.9555" y1="107.628" x2="28.278" y2="100.769" gradientUnits="userSpaceOnUse">
<stop stop-color="#C4C4C4"/>
<stop offset="0.125" stop-color="#B9B9B9"/>
<stop offset="0.25" stop-color="#BABABA"/>
<stop offset="0.375" stop-color="#B9B9B9"/>
<stop offset="0.5" stop-color="#B8B8B8"/>
<stop offset="0.625" stop-color="#B8B8B8"/>
<stop offset="0.75" stop-color="#BABABA"/>
<stop offset="0.875" stop-color="#C1C1C1"/>
<stop offset="1" stop-color="#BFBFBF"/>
</linearGradient>
<linearGradient id="paint3_linear_32_3641" x1="13.4903" y1="94.6261" x2="31.9812" y2="84.3327" gradientUnits="userSpaceOnUse">
<stop stop-color="#C4C4C4"/>
<stop offset="0.0625" stop-color="#CBCBCB"/>
<stop offset="0.125" stop-color="#C8C8C8"/>
<stop offset="0.1875" stop-color="#CDCDCD"/>
<stop offset="0.25" stop-color="#C8C8C8"/>
<stop offset="0.3125" stop-color="#C6C6C6"/>
<stop offset="0.375" stop-color="#CCCCCC"/>
<stop offset="0.5" stop-color="#CCCCCC"/>
<stop offset="0.625" stop-color="#CDCDCD"/>
<stop offset="0.75" stop-color="#E5E5E5"/>
<stop offset="0.875" stop-color="#DEDEDE"/>
<stop offset="1" stop-color="#D8D8D8"/>
</linearGradient>
</defs>
</svg>
