<svg width="320" height="161" viewBox="0 0 320 161" fill="none" xmlns="http://www.w3.org/2000/svg">
<mask id="mask0_32_3641" style="mask-type:luminance" maskUnits="userSpaceOnUse" x="270" y="101" width="22" height="3">
<path d="M270.183 101.119H291.817V103.104H270.183V101.119Z" fill="white"/>
</mask>
<g mask="url(#mask0_32_3641)">
<mask id="mask1_32_3641" style="mask-type:luminance" maskUnits="userSpaceOnUse" x="270" y="101" width="22" height="3">
<path d="M291.74 101.119C290.842 102.526 289.2 103.049 289.2 103.049H272.802C272.802 103.049 271.163 102.526 270.262 101.119H291.74Z" fill="white"/>
</mask>
<g mask="url(#mask1_32_3641)">
<mask id="mask2_32_3641" style="mask-type:luminance" maskUnits="userSpaceOnUse" x="270" y="101" width="22" height="3">
<path d="M291.74 101.119C290.842 102.526 289.2 103.049 289.2 103.049H272.802C272.802 103.049 271.163 102.526 270.262 101.119H291.74Z" fill="white"/>
</mask>
<g mask="url(#mask2_32_3641)">
<path d="M269.285 101.575L275.344 110.708L292.718 102.592L286.659 93.4598L269.285 101.575Z" fill="#EAEAEA"/>
</g>
</g>
</g>
<mask id="mask3_32_3641" style="mask-type:luminance" maskUnits="userSpaceOnUse" x="270" y="76" width="22" height="3">
<path d="M270.183 76.4435H291.817V78.5707H270.183V76.4435Z" fill="white"/>
</mask>
<g mask="url(#mask3_32_3641)">
<mask id="mask4_32_3641" style="mask-type:luminance" maskUnits="userSpaceOnUse" x="270" y="76" width="22" height="3">
<path d="M291.741 78.4588H270.262C271.164 77.0545 272.803 76.5288 272.803 76.5288H289.2C289.2 76.5288 290.843 77.0545 291.741 78.4588Z" fill="white"/>
</mask>
<g mask="url(#mask4_32_3641)">
<mask id="mask5_32_3641" style="mask-type:luminance" maskUnits="userSpaceOnUse" x="270" y="76" width="22" height="3">
<path d="M291.741 78.4588H270.262C271.164 77.0545 272.803 76.5288 272.803 76.5288H289.2C289.2 76.5288 290.843 77.0545 291.741 78.4588Z" fill="white"/>
</mask>
<g mask="url(#mask5_32_3641)">
<path d="M269.285 76.9853L275.344 86.1172L292.718 78.0018L286.659 68.8699L269.285 76.9853Z" fill="#ECECEC"/>
</g>
</g>
</g>
<mask id="mask6_32_3641" style="mask-type:luminance" maskUnits="userSpaceOnUse" x="272" y="62" width="18" height="14">
<path d="M272.718 62.2624H289.282V75.7345H272.718V62.2624Z" fill="white"/>
</mask>
<g mask="url(#mask6_32_3641)">
<mask id="mask7_32_3641" style="mask-type:luminance" maskUnits="userSpaceOnUse" x="272" y="62" width="18" height="14">
<path d="M285.864 72.8218C283.925 71.8845 282.427 70.17 282.427 70.17C282.427 70.17 282.328 70.1484 282.413 69.8958C282.499 69.6438 283.241 69.5995 283.21 68.8677C283.184 68.1365 281.774 67.634 281.774 67.634C281.774 67.634 281.769 67.4429 281.763 67.1394C282.153 66.9732 282.413 66.684 282.413 66.3539C282.413 66.0104 282.132 65.7124 281.716 65.5495C281.676 64.3652 281.617 63.0778 281.544 62.8823C281.401 62.5034 281 62.366 281 62.366C281 62.366 280.603 62.5034 280.459 62.8823C280.385 63.0778 280.326 64.3652 280.287 65.5495C279.871 65.7124 279.59 66.0104 279.59 66.3539C279.59 66.684 279.851 66.9748 280.243 67.1405C280.236 67.4429 280.233 67.634 280.233 67.634C280.233 67.634 278.82 68.1365 278.793 68.8677C278.761 69.5995 279.504 69.6438 279.59 69.8958C279.675 70.1484 279.575 70.17 279.575 70.17C279.575 70.17 278.076 71.8845 276.139 72.8218C274.199 73.7574 273.001 74.5119 272.803 75.6763H289.2C289.003 74.5119 287.805 73.7574 285.864 72.8218Z" fill="white"/>
</mask>
<g mask="url(#mask7_32_3641)">
<mask id="mask8_32_3641" style="mask-type:luminance" maskUnits="userSpaceOnUse" x="272" y="62" width="18" height="14">
<path d="M285.864 72.8218C283.925 71.8845 282.427 70.17 282.427 70.17C282.427 70.17 282.328 70.1484 282.413 69.8958C282.499 69.6438 283.241 69.5995 283.21 68.8677C283.184 68.1365 281.774 67.634 281.774 67.634C281.774 67.634 281.769 67.4429 281.763 67.1394C282.153 66.9732 282.413 66.684 282.413 66.3539C282.413 66.0104 282.132 65.7124 281.716 65.5495C281.676 64.3652 281.617 63.0778 281.544 62.8823C281.401 62.5034 281 62.366 281 62.366C281 62.366 280.603 62.5034 280.459 62.8823C280.385 63.0778 280.326 64.3652 280.287 65.5495C279.871 65.7124 279.59 66.0104 279.59 66.3539C279.59 66.684 279.851 66.9748 280.243 67.1405C280.236 67.4429 280.233 67.634 280.233 67.634C280.233 67.634 278.82 68.1365 278.793 68.8677C278.761 69.5995 279.504 69.6438 279.59 69.8958C279.675 70.1484 279.575 70.17 279.575 70.17C279.575 70.17 278.076 71.8845 276.139 72.8218C274.199 73.7574 273.001 74.5119 272.803 75.6763H289.2C289.003 74.5119 287.805 73.7574 285.864 72.8218Z" fill="white"/>
</mask>
<g mask="url(#mask8_32_3641)">
<path d="M266.061 65.5146L276.682 81.5232L295.943 72.5276L285.321 56.519L266.061 65.5146Z" fill="#D9D8D7"/>
</g>
</g>
</g>
<mask id="mask9_32_3641" style="mask-type:luminance" maskUnits="userSpaceOnUse" x="272" y="103" width="18" height="15">
<path d="M272.718 103.813H289.282V117.285H272.718V103.813Z" fill="white"/>
</mask>
<g mask="url(#mask9_32_3641)">
<mask id="mask10_32_3641" style="mask-type:luminance" maskUnits="userSpaceOnUse" x="272" y="103" width="18" height="15">
<path d="M272.803 103.899C273.001 105.065 274.199 105.819 276.139 106.757C278.076 107.696 279.575 109.409 279.575 109.409C279.575 109.409 279.675 109.432 279.59 109.684C279.504 109.934 278.761 109.98 278.793 110.712C278.82 111.441 280.233 111.946 280.233 111.946C280.233 111.946 280.236 112.126 280.243 112.414C279.851 112.58 279.59 112.869 279.59 113.201C279.59 113.544 279.871 113.841 280.287 114.004C280.326 115.196 280.383 116.501 280.459 116.698C280.603 117.074 281 117.211 281 117.211C281 117.211 281.401 117.074 281.544 116.698C281.619 116.501 281.678 115.196 281.716 114.004C282.132 113.841 282.413 113.544 282.413 113.201C282.413 112.871 282.153 112.581 281.763 112.415C281.769 112.126 281.774 111.946 281.774 111.946C281.774 111.946 283.184 111.441 283.21 110.712C283.241 109.98 282.499 109.934 282.413 109.684C282.328 109.432 282.427 109.409 282.427 109.409C282.427 109.409 283.925 107.696 285.864 106.757C287.805 105.819 289.003 105.065 289.2 103.899H272.803Z" fill="white"/>
</mask>
<g mask="url(#mask10_32_3641)">
<mask id="mask11_32_3641" style="mask-type:luminance" maskUnits="userSpaceOnUse" x="272" y="103" width="18" height="15">
<path d="M272.803 103.899C273.001 105.065 274.199 105.819 276.139 106.757C278.076 107.696 279.575 109.409 279.575 109.409C279.575 109.409 279.675 109.432 279.59 109.684C279.504 109.934 278.761 109.98 278.793 110.712C278.82 111.441 280.233 111.946 280.233 111.946C280.233 111.946 280.236 112.126 280.243 112.414C279.851 112.58 279.59 112.869 279.59 113.201C279.59 113.544 279.871 113.841 280.287 114.004C280.326 115.196 280.383 116.501 280.459 116.698C280.603 117.074 281 117.211 281 117.211C281 117.211 281.401 117.074 281.544 116.698C281.619 116.501 281.678 115.196 281.716 114.004C282.132 113.841 282.413 113.544 282.413 113.201C282.413 112.871 282.153 112.581 281.763 112.415C281.769 112.126 281.774 111.946 281.774 111.946C281.774 111.946 283.184 111.441 283.21 110.712C283.241 109.98 282.499 109.934 282.413 109.684C282.328 109.432 282.427 109.409 282.427 109.409C282.427 109.409 283.925 107.696 285.864 106.757C287.805 105.819 289.003 105.065 289.2 103.899H272.803Z" fill="white"/>
</mask>
<g mask="url(#mask11_32_3641)">
<path d="M266.06 107.049L276.682 123.058L295.943 114.062L285.321 98.0526L266.06 107.049Z" fill="#ECECEC"/>
</g>
</g>
</g>
<g filter="url(#filter0_f_32_3641)">
<mask id="mask12_32_3641" style="mask-type:luminance" maskUnits="userSpaceOnUse" x="271" y="80" width="20" height="19">
<path d="M271.586 80.6805H290.981V98.9855H271.586V80.6805Z" fill="white"/>
</mask>
<g mask="url(#mask12_32_3641)">
<mask id="mask13_32_3641" style="mask-type:luminance" maskUnits="userSpaceOnUse" x="271" y="80" width="20" height="19">
<path d="M288.722 96.6645C288.632 96.6305 288.537 96.5958 288.439 96.5612C287.445 96.2179 286.543 95.598 286.254 94.5447C286.183 94.2848 286.209 93.9434 286.2 93.6717C286.195 93.5004 286.195 87.2821 286.2 87.1112C286.209 86.8384 286.183 86.4977 286.254 86.2371C286.543 85.1845 287.445 84.565 288.439 84.2217C288.537 84.1867 288.632 84.152 288.722 84.1181V96.6645ZM285.341 93.9674C285.334 94.1869 285.357 94.4632 285.293 94.6745C285.03 95.5286 284.212 96.032 283.313 96.3102C281.596 96.8429 281.29 97.5247 281.29 97.5247C281.29 97.5247 280.985 96.8429 279.266 96.3102C278.367 96.032 277.549 95.5286 277.287 94.6745C277.222 94.4632 277.246 94.1869 277.238 93.9674C277.234 93.8383 277.234 86.9446 277.238 86.8155C277.246 86.5957 277.222 86.3193 277.287 86.108C277.549 85.2539 278.367 84.7505 279.266 84.4724C280.985 83.9397 281.29 83.2579 281.29 83.2579C281.29 83.2579 281.596 83.9397 283.313 84.4724C284.212 84.7505 285.03 85.2539 285.293 86.108C285.357 86.3193 285.334 86.5957 285.341 86.8155C285.346 86.9446 285.346 93.8383 285.341 93.9674ZM276.38 93.6717C276.371 93.9434 276.396 94.2848 276.325 94.5447C276.036 95.598 275.134 96.2179 274.142 96.5612C274.042 96.5958 273.949 96.6305 273.857 96.6645V84.1181C273.949 84.152 274.042 84.1867 274.142 84.2217C275.134 84.565 276.036 85.1845 276.325 86.2371C276.396 86.4977 276.371 86.8384 276.38 87.1112C276.385 87.2821 276.385 93.5004 276.38 93.6717ZM290.896 80.9808V80.7105H271.68V80.9808L272.998 81.9372V97.7488L271.68 98.7045V98.9726H290.896V98.7045L289.582 97.7488V81.9372L290.896 80.9808Z" fill="white"/>
</mask>
<g mask="url(#mask13_32_3641)">
<mask id="mask14_32_3641" style="mask-type:luminance" maskUnits="userSpaceOnUse" x="271" y="80" width="20" height="19">
<path d="M288.722 96.6645C288.632 96.6305 288.537 96.5958 288.439 96.5612C287.445 96.2179 286.543 95.598 286.254 94.5447C286.183 94.2848 286.209 93.9434 286.2 93.6717C286.195 93.5004 286.195 87.2821 286.2 87.1112C286.209 86.8384 286.183 86.4977 286.254 86.2371C286.543 85.1845 287.445 84.565 288.439 84.2217C288.537 84.1867 288.632 84.152 288.722 84.1181V96.6645ZM285.341 93.9674C285.334 94.1869 285.357 94.4632 285.293 94.6745C285.03 95.5286 284.212 96.032 283.313 96.3102C281.596 96.8429 281.29 97.5247 281.29 97.5247C281.29 97.5247 280.985 96.8429 279.266 96.3102C278.367 96.032 277.549 95.5286 277.287 94.6745C277.222 94.4632 277.246 94.1869 277.238 93.9674C277.234 93.8383 277.234 86.9446 277.238 86.8155C277.246 86.5957 277.222 86.3193 277.287 86.108C277.549 85.2539 278.367 84.7505 279.266 84.4724C280.985 83.9397 281.29 83.2579 281.29 83.2579C281.29 83.2579 281.596 83.9397 283.313 84.4724C284.212 84.7505 285.03 85.2539 285.293 86.108C285.357 86.3193 285.334 86.5957 285.341 86.8155C285.346 86.9446 285.346 93.8383 285.341 93.9674ZM276.38 93.6717C276.371 93.9434 276.396 94.2848 276.325 94.5447C276.036 95.598 275.134 96.2179 274.142 96.5612C274.042 96.5958 273.949 96.6305 273.857 96.6645V84.1181C273.949 84.152 274.042 84.1867 274.142 84.2217C275.134 84.565 276.036 85.1845 276.325 86.2371C276.396 86.4977 276.371 86.8384 276.38 87.1112C276.385 87.2821 276.385 93.5004 276.38 93.6717ZM290.896 80.9808V80.7105H271.68V80.9808L272.998 81.9372V97.7488L271.68 98.7045V98.9726H290.896V98.7045L289.582 97.7488V81.9372L290.896 80.9808Z" fill="white"/>
</mask>
<g mask="url(#mask14_32_3641)">
<path d="M263.332 85.0312L276.226 106.565L299.244 94.6524L286.35 73.119L263.332 85.0312Z" fill="#E9C37E" fill-opacity="0.2"/>
</g>
</g>
</g>
</g>
<mask id="mask15_32_3641" style="mask-type:luminance" maskUnits="userSpaceOnUse" x="269" y="79" width="24" height="22">
<path d="M269 79.2798H293V100.268H269V79.2798Z" fill="white"/>
</mask>
<g mask="url(#mask15_32_3641)">
<mask id="mask16_32_3641" style="mask-type:luminance" maskUnits="userSpaceOnUse" x="269" y="79" width="24" height="22">
<path d="M290.269 97.6188C290.156 97.5789 290.039 97.5396 289.915 97.4997C288.677 97.1053 287.552 96.3951 287.191 95.187C287.103 94.8873 287.135 94.4962 287.123 94.1843C287.117 93.9871 287.117 86.8511 287.123 86.6539C287.135 86.3421 287.103 85.9504 287.191 85.6529C287.552 84.4448 288.677 83.7324 289.915 83.3385C290.039 83.3003 290.156 83.2604 290.269 83.2206V97.6188ZM286.053 94.5228C286.043 94.7754 286.074 95.0917 285.992 95.3343C285.665 96.3154 284.646 96.8915 283.525 97.2117C281.382 97.8232 281.002 98.606 281.002 98.606C281.002 98.606 280.622 97.8232 278.478 97.2117C277.357 96.8915 276.337 96.3154 276.011 95.3343C275.929 95.0917 275.96 94.7754 275.95 94.5228C275.945 94.3743 275.945 86.4639 275.95 86.3149C275.96 86.064 275.929 85.7466 276.011 85.5039C276.337 84.524 277.357 83.9468 278.478 83.626C280.622 83.015 281.002 82.2334 281.002 82.2334C281.002 82.2334 281.382 83.015 283.525 83.626C284.646 83.9468 285.665 84.524 285.992 85.5039C286.074 85.7466 286.043 86.064 286.053 86.3149C286.058 86.4639 286.058 94.3743 286.053 94.5228ZM274.878 94.1843C274.868 94.4962 274.9 94.8873 274.812 95.187C274.451 96.3951 273.327 97.1053 272.088 97.4997C271.964 97.5396 271.848 97.5789 271.734 97.6188V83.2206C271.848 83.2604 271.964 83.3003 272.088 83.3385C273.327 83.7324 274.451 84.4448 274.812 85.6529C274.9 85.9504 274.868 86.3421 274.878 86.6539C274.886 86.8511 274.886 93.9871 274.878 94.1843ZM292.979 79.6199V79.3108H269.02V79.6199L270.663 80.7178V98.8624L269.02 99.9598V100.266H292.979V99.9598L291.34 98.8624V80.7178L292.979 79.6199Z" fill="white"/>
</mask>
<g mask="url(#mask16_32_3641)">
<mask id="mask17_32_3641" style="mask-type:luminance" maskUnits="userSpaceOnUse" x="269" y="79" width="24" height="22">
<path d="M290.269 97.6188C290.156 97.5789 290.039 97.5396 289.915 97.4997C288.677 97.1053 287.552 96.3951 287.191 95.187C287.103 94.8873 287.135 94.4962 287.123 94.1843C287.117 93.9871 287.117 86.8511 287.123 86.6539C287.135 86.3421 287.103 85.9504 287.191 85.6529C287.552 84.4448 288.677 83.7324 289.915 83.3385C290.039 83.3003 290.156 83.2604 290.269 83.2206V97.6188ZM286.053 94.5228C286.043 94.7754 286.074 95.0917 285.992 95.3343C285.665 96.3154 284.646 96.8915 283.525 97.2117C281.382 97.8232 281.002 98.606 281.002 98.606C281.002 98.606 280.622 97.8232 278.478 97.2117C277.357 96.8915 276.337 96.3154 276.011 95.3343C275.929 95.0917 275.96 94.7754 275.95 94.5228C275.945 94.3743 275.945 86.4639 275.95 86.3149C275.96 86.064 275.929 85.7466 276.011 85.5039C276.337 84.524 277.357 83.9468 278.478 83.626C280.622 83.015 281.002 82.2334 281.002 82.2334C281.002 82.2334 281.382 83.015 283.525 83.626C284.646 83.9468 285.665 84.524 285.992 85.5039C286.074 85.7466 286.043 86.064 286.053 86.3149C286.058 86.4639 286.058 94.3743 286.053 94.5228ZM274.878 94.1843C274.868 94.4962 274.9 94.8873 274.812 95.187C274.451 96.3951 273.327 97.1053 272.088 97.4997C271.964 97.5396 271.848 97.5789 271.734 97.6188V83.2206C271.848 83.2604 271.964 83.3003 272.088 83.3385C273.327 83.7324 274.451 84.4448 274.812 85.6529C274.9 85.9504 274.868 86.3421 274.878 86.6539C274.886 86.8511 274.886 93.9871 274.878 94.1843ZM292.979 79.6199V79.3108H269.02V79.6199L270.663 80.7178V98.8624L269.02 99.9598V100.266H292.979V99.9598L291.34 98.8624V80.7178L292.979 79.6199Z" fill="white"/>
</mask>
<g mask="url(#mask17_32_3641)">
<path d="M258.406 84.2686L274.688 108.81L303.594 95.3088L287.312 70.7678L258.406 84.2686Z" fill="#DFDFDF"/>
</g>
</g>
</g>
<mask id="mask18_32_3641" style="mask-type:luminance" maskUnits="userSpaceOnUse" x="280" y="1" width="2" height="63">
<path d="M280.719 1H281.286V63.4268H280.719V1Z" fill="white"/>
</mask>
<g mask="url(#mask18_32_3641)">
<path d="M249.101 15.7688L280.853 63.6284L312.905 48.6579L281.152 0.79834L249.101 15.7688Z" fill="#DFDFDF"/>
</g>
<g filter="url(#filter1_f_32_3641)">
<path d="M280.96 87.1411L281.746 89.8919L283.869 90.9098L281.746 91.9277L280.96 94.6784L280.174 91.9277L278.051 90.9098L280.174 89.8919L280.96 87.1411Z" fill="#E3A025"/>
</g>
<g filter="url(#filter2_f_32_3641)">
<path d="M280.96 87.1411L281.746 89.8919L283.869 90.9098L281.746 91.9277L280.96 94.6784L280.174 91.9277L278.051 90.9098L280.174 89.8919L280.96 87.1411Z" fill="#DF9C22"/>
</g>
<path d="M280.96 87.1411L281.746 89.8919L283.869 90.9098L281.746 91.9277L280.96 94.6784L280.174 91.9277L278.051 90.9098L280.174 89.8919L280.96 87.1411Z" fill="#E9C37E"/>
<mask id="mask19_32_3641" style="mask-type:luminance" maskUnits="userSpaceOnUse" x="298" y="76" width="17" height="3">
<path d="M298.867 76.9794H314.916V78.4598H298.867V76.9794Z" fill="white"/>
</mask>
<g mask="url(#mask19_32_3641)">
<mask id="mask20_32_3641" style="mask-type:luminance" maskUnits="userSpaceOnUse" x="298" y="77" width="17" height="2">
<path d="M314.892 77.0912C314.228 78.0338 313.01 78.384 313.01 78.384H300.851C300.851 78.384 299.637 78.0338 298.969 77.0912H314.892Z" fill="white"/>
</mask>
<g mask="url(#mask20_32_3641)">
<mask id="mask21_32_3641" style="mask-type:luminance" maskUnits="userSpaceOnUse" x="298" y="77" width="17" height="2">
<path d="M314.892 77.0912C314.228 78.0338 313.01 78.384 313.01 78.384H300.851C300.851 78.384 299.637 78.0338 298.969 77.0912H314.892Z" fill="white"/>
</mask>
<g mask="url(#mask21_32_3641)">
<path d="M298.245 77.397L302.736 83.5164L315.616 78.0781L311.125 71.9587L298.245 77.397Z" fill="#C6C6C6"/>
</g>
</g>
</g>
<mask id="mask22_32_3641" style="mask-type:luminance" maskUnits="userSpaceOnUse" x="298" y="60" width="17" height="3">
<path d="M298.867 60.5309H314.916V62.0112H298.867V60.5309Z" fill="white"/>
</mask>
<g mask="url(#mask22_32_3641)">
<mask id="mask23_32_3641" style="mask-type:luminance" maskUnits="userSpaceOnUse" x="298" y="60" width="17" height="2">
<path d="M314.892 61.9059H298.969C299.637 60.9652 300.851 60.6112 300.851 60.6112H313.01C313.01 60.6112 314.228 60.9652 314.892 61.9059Z" fill="white"/>
</mask>
<g mask="url(#mask23_32_3641)">
<mask id="mask24_32_3641" style="mask-type:luminance" maskUnits="userSpaceOnUse" x="298" y="60" width="17" height="2">
<path d="M314.892 61.9059H298.969C299.637 60.9652 300.851 60.6112 300.851 60.6112H313.01C313.01 60.6112 314.228 60.9652 314.892 61.9059Z" fill="white"/>
</mask>
<g mask="url(#mask24_32_3641)">
<path d="M298.244 60.9177L302.736 67.0384L315.617 61.6001L311.125 55.4794L298.244 60.9177Z" fill="#C6C6C6"/>
</g>
</g>
</g>
<mask id="mask25_32_3641" style="mask-type:luminance" maskUnits="userSpaceOnUse" x="300" y="50" width="14" height="11">
<path d="M300.819 50.9907H313.181V60.2019H300.819V50.9907Z" fill="white"/>
</mask>
<g mask="url(#mask25_32_3641)">
<mask id="mask26_32_3641" style="mask-type:luminance" maskUnits="userSpaceOnUse" x="300" y="51" width="14" height="10">
<path d="M310.535 58.1278C309.099 57.4994 307.988 56.3513 307.988 56.3513C307.988 56.3513 307.915 56.3365 307.978 56.1668C308.041 55.9979 308.592 55.9696 308.57 55.4781C308.548 54.9878 307.503 54.6524 307.503 54.6524C307.503 54.6524 307.5 54.5239 307.495 54.3196C307.785 54.2078 307.978 54.0138 307.978 53.7934C307.978 53.5633 307.77 53.3642 307.461 53.2556C307.431 52.4614 307.388 51.5979 307.334 51.4661C307.228 51.213 306.93 51.1205 306.93 51.1205C306.93 51.1205 306.636 51.213 306.529 51.4661C306.473 51.5979 306.43 52.4614 306.401 53.2556C306.093 53.3642 305.885 53.5633 305.885 53.7934C305.885 54.0157 306.078 54.2097 306.369 54.3196C306.364 54.5239 306.362 54.6524 306.362 54.6524C306.362 54.6524 305.312 54.9878 305.293 55.4781C305.269 55.9696 305.82 55.9979 305.885 56.1668C305.948 56.3365 305.874 56.3513 305.874 56.3513C305.874 56.3513 304.762 57.4994 303.326 58.1278C301.888 58.7543 300.999 59.2612 300.851 60.0406H313.009C312.862 59.2612 311.975 58.7543 310.535 58.1278Z" fill="white"/>
</mask>
<g mask="url(#mask26_32_3641)">
<mask id="mask27_32_3641" style="mask-type:luminance" maskUnits="userSpaceOnUse" x="300" y="51" width="14" height="10">
<path d="M310.535 58.1278C309.099 57.4994 307.988 56.3513 307.988 56.3513C307.988 56.3513 307.915 56.3365 307.978 56.1668C308.041 55.9979 308.592 55.9696 308.57 55.4781C308.548 54.9878 307.503 54.6524 307.503 54.6524C307.503 54.6524 307.5 54.5239 307.495 54.3196C307.785 54.2078 307.978 54.0138 307.978 53.7934C307.978 53.5633 307.77 53.3642 307.461 53.2556C307.431 52.4614 307.388 51.5979 307.334 51.4661C307.228 51.213 306.93 51.1205 306.93 51.1205C306.93 51.1205 306.636 51.213 306.529 51.4661C306.473 51.5979 306.43 52.4614 306.401 53.2556C306.093 53.3642 305.885 53.5633 305.885 53.7934C305.885 54.0157 306.078 54.2097 306.369 54.3196C306.364 54.5239 306.362 54.6524 306.362 54.6524C306.362 54.6524 305.312 54.9878 305.293 55.4781C305.269 55.9696 305.82 55.9979 305.885 56.1668C305.948 56.3365 305.874 56.3513 305.874 56.3513C305.874 56.3513 304.762 57.4994 303.326 58.1278C301.888 58.7543 300.999 59.2612 300.851 60.0406H313.009C312.862 59.2612 311.975 58.7543 310.535 58.1278Z" fill="white"/>
</mask>
<g mask="url(#mask27_32_3641)">
<path d="M295.853 53.2311L303.728 63.9593L318.008 57.9305L310.134 47.2017L295.853 53.2311Z" fill="#D0D0D0"/>
</g>
</g>
</g>
<mask id="mask28_32_3641" style="mask-type:luminance" maskUnits="userSpaceOnUse" x="300" y="78" width="14" height="10">
<path d="M300.819 78.9533H313.181V88H300.819V78.9533Z" fill="white"/>
</mask>
<g mask="url(#mask28_32_3641)">
<mask id="mask29_32_3641" style="mask-type:luminance" maskUnits="userSpaceOnUse" x="300" y="78" width="14" height="10">
<path d="M300.851 78.9555C300.999 79.7368 301.888 80.2412 303.326 80.8696C304.762 81.4999 305.874 82.6481 305.874 82.6481C305.874 82.6481 305.948 82.6628 305.885 82.8305C305.82 82.9982 305.269 83.0297 305.293 83.52C305.312 84.0096 306.362 84.3469 306.362 84.3469C306.362 84.3469 306.364 84.469 306.369 84.6611C306.078 84.7729 305.885 84.9656 305.885 85.1873C305.885 85.418 306.093 85.6172 306.401 85.7257C306.43 86.525 306.473 87.4002 306.529 87.5312C306.636 87.7831 306.93 87.875 306.93 87.875C306.93 87.875 307.228 87.7831 307.334 87.5312C307.388 87.4002 307.431 86.525 307.461 85.7257C307.77 85.6172 307.978 85.418 307.978 85.1873C307.978 84.9669 307.785 84.7729 307.495 84.6611C307.5 84.469 307.503 84.3469 307.503 84.3469C307.503 84.3469 308.548 84.0096 308.57 83.52C308.592 83.0297 308.041 82.9982 307.978 82.8305C307.915 82.6628 307.988 82.6481 307.988 82.6481C307.988 82.6481 309.099 81.4999 310.535 80.8696C311.975 80.2412 312.862 79.7368 313.009 78.9555H300.851Z" fill="white"/>
</mask>
<g mask="url(#mask29_32_3641)">
<mask id="mask30_32_3641" style="mask-type:luminance" maskUnits="userSpaceOnUse" x="300" y="78" width="14" height="10">
<path d="M300.851 78.9555C300.999 79.7368 301.888 80.2412 303.326 80.8696C304.762 81.4999 305.874 82.6481 305.874 82.6481C305.874 82.6481 305.948 82.6628 305.885 82.8305C305.82 82.9982 305.269 83.0297 305.293 83.52C305.312 84.0096 306.362 84.3469 306.362 84.3469C306.362 84.3469 306.364 84.469 306.369 84.6611C306.078 84.7729 305.885 84.9656 305.885 85.1873C305.885 85.418 306.093 85.6172 306.401 85.7257C306.43 86.525 306.473 87.4002 306.529 87.5312C306.636 87.7831 306.93 87.875 306.93 87.875C306.93 87.875 307.228 87.7831 307.334 87.5312C307.388 87.4002 307.431 86.525 307.461 85.7257C307.77 85.6172 307.978 85.418 307.978 85.1873C307.978 84.9669 307.785 84.7729 307.495 84.6611C307.5 84.469 307.503 84.3469 307.503 84.3469C307.503 84.3469 308.548 84.0096 308.57 83.52C308.592 83.0297 308.041 82.9982 307.978 82.8305C307.915 82.6628 307.988 82.6481 307.988 82.6481C307.988 82.6481 309.099 81.4999 310.535 80.8696C311.975 80.2412 312.862 79.7368 313.009 78.9555H300.851Z" fill="white"/>
</mask>
<g mask="url(#mask30_32_3641)">
<path d="M295.853 81.0653L303.728 91.7935L318.008 85.7647L310.134 75.0365L295.853 81.0653Z" fill="#C8C8C8"/>
</g>
</g>
</g>
<g filter="url(#filter3_f_32_3641)">
<mask id="mask31_32_3641" style="mask-type:luminance" maskUnits="userSpaceOnUse" x="299" y="63" width="16" height="13">
<path d="M299.259 63.0166H314.365V75.4289H299.259V63.0166Z" fill="white"/>
</mask>
<g mask="url(#mask31_32_3641)">
<mask id="mask32_32_3641" style="mask-type:luminance" maskUnits="userSpaceOnUse" x="299" y="63" width="16" height="13">
<path d="M312.606 73.8551C312.535 73.8321 312.462 73.8086 312.385 73.785C311.611 73.5523 310.909 73.1319 310.683 72.4177C310.628 72.2415 310.648 72.01 310.642 71.8257C310.638 71.7096 310.638 67.493 310.642 67.3772C310.648 67.1922 310.628 66.9612 310.683 66.7844C310.909 66.0707 311.611 65.6506 312.385 65.4179C312.462 65.3941 312.535 65.3706 312.606 65.3475V73.8551ZM309.973 72.0262C309.967 72.1751 309.985 72.3625 309.935 72.5057C309.73 73.0849 309.093 73.4262 308.393 73.6149C307.055 73.9761 306.817 74.4384 306.817 74.4384C306.817 74.4384 306.579 73.9761 305.241 73.6149C304.541 73.4262 303.903 73.0849 303.699 72.5057C303.649 72.3625 303.667 72.1751 303.661 72.0262C303.658 71.9387 303.658 67.2642 303.661 67.1767C303.667 67.0276 303.649 66.8402 303.699 66.6969C303.903 66.1177 304.541 65.7764 305.241 65.5878C306.579 65.2266 306.817 64.7643 306.817 64.7643C306.817 64.7643 307.055 65.2266 308.393 65.5878C309.093 65.7764 309.73 66.1177 309.935 66.6969C309.985 66.8402 309.967 67.0276 309.973 67.1767C309.976 67.2642 309.976 71.9387 309.973 72.0262ZM302.993 71.8257C302.986 72.01 303.005 72.2415 302.95 72.4177C302.725 73.1319 302.022 73.5523 301.249 73.785C301.172 73.8086 301.099 73.8321 301.028 73.8551V65.3475C301.099 65.3706 301.172 65.3941 301.249 65.4179C302.022 65.6506 302.725 66.0707 302.95 66.7844C303.005 66.9612 302.986 67.1922 302.993 67.3772C302.997 67.493 302.997 71.7096 302.993 71.8257ZM314.299 63.2202V63.037H299.332V63.2202L300.358 63.8687V74.5904L299.332 75.2384V75.4202H314.299V75.2384L313.275 74.5904V63.8687L314.299 63.2202Z" fill="white"/>
</mask>
<g mask="url(#mask32_32_3641)">
<mask id="mask33_32_3641" style="mask-type:luminance" maskUnits="userSpaceOnUse" x="299" y="63" width="16" height="13">
<path d="M312.606 73.8551C312.535 73.8321 312.462 73.8086 312.385 73.785C311.611 73.5523 310.909 73.1319 310.683 72.4177C310.628 72.2415 310.648 72.01 310.642 71.8257C310.638 71.7096 310.638 67.493 310.642 67.3772C310.648 67.1922 310.628 66.9612 310.683 66.7844C310.909 66.0707 311.611 65.6506 312.385 65.4179C312.462 65.3941 312.535 65.3706 312.606 65.3475V73.8551ZM309.973 72.0262C309.967 72.1751 309.985 72.3625 309.935 72.5057C309.73 73.0849 309.093 73.4262 308.393 73.6149C307.055 73.9761 306.817 74.4384 306.817 74.4384C306.817 74.4384 306.579 73.9761 305.241 73.6149C304.541 73.4262 303.903 73.0849 303.699 72.5057C303.649 72.3625 303.667 72.1751 303.661 72.0262C303.658 71.9387 303.658 67.2642 303.661 67.1767C303.667 67.0276 303.649 66.8402 303.699 66.6969C303.903 66.1177 304.541 65.7764 305.241 65.5878C306.579 65.2266 306.817 64.7643 306.817 64.7643C306.817 64.7643 307.055 65.2266 308.393 65.5878C309.093 65.7764 309.73 66.1177 309.935 66.6969C309.985 66.8402 309.967 67.0276 309.973 67.1767C309.976 67.2642 309.976 71.9387 309.973 72.0262ZM302.993 71.8257C302.986 72.01 303.005 72.2415 302.95 72.4177C302.725 73.1319 302.022 73.5523 301.249 73.785C301.172 73.8086 301.099 73.8321 301.028 73.8551V65.3475C301.099 65.3706 301.172 65.3941 301.249 65.4179C302.022 65.6506 302.725 66.0707 302.95 66.7844C303.005 66.9612 302.986 67.1922 302.993 67.3772C302.997 67.493 302.997 71.7096 302.993 71.8257ZM314.299 63.2202V63.037H299.332V63.2202L300.358 63.8687V74.5904L299.332 75.2384V75.4202H314.299V75.2384L313.275 74.5904V63.8687L314.299 63.2202Z" fill="white"/>
</mask>
<g mask="url(#mask33_32_3641)">
<path d="M292.83 65.9667L302.873 80.5682L320.802 72.4907L310.758 57.8892L292.83 65.9667Z" fill="#E9C37E" fill-opacity="0.11"/>
</g>
</g>
</g>
</g>
<mask id="mask34_32_3641" style="mask-type:luminance" maskUnits="userSpaceOnUse" x="298" y="62" width="18" height="15">
<path d="M298 62.3402H316V76.6505H298V62.3402Z" fill="white"/>
</mask>
<g mask="url(#mask34_32_3641)">
<mask id="mask35_32_3641" style="mask-type:luminance" maskUnits="userSpaceOnUse" x="298" y="62" width="18" height="15">
<path d="M313.801 74.746C313.716 74.7197 313.631 74.6933 313.538 74.6651C312.622 74.4016 311.786 73.9249 311.519 73.1159C311.454 72.9148 311.478 72.6533 311.469 72.4445C311.465 72.3115 311.465 67.5298 311.469 67.3981C311.478 67.1893 311.454 66.9259 311.519 66.7273C311.786 65.9158 312.622 65.441 313.538 65.1756C313.631 65.1493 313.716 65.1236 313.801 65.0972V74.746ZM310.676 72.6713C310.67 72.839 310.691 73.053 310.63 73.2142C310.389 73.8722 309.633 74.259 308.802 74.4729C307.213 74.8822 306.93 75.4072 306.93 75.4072C306.93 75.4072 306.648 74.8822 305.061 74.4729C304.228 74.259 303.473 73.8722 303.231 73.2142C303.17 73.053 303.194 72.839 303.185 72.6713C303.181 72.5711 303.181 67.2696 303.185 67.1713C303.194 67.0017 303.17 66.7897 303.231 66.6265C303.473 65.9704 304.228 65.5836 305.061 65.3684C306.648 64.9591 306.93 64.4354 306.93 64.4354C306.93 64.4354 307.213 64.9591 308.802 65.3684C309.633 65.5836 310.389 65.9704 310.63 66.6265C310.691 66.7897 310.67 67.0017 310.676 67.1713C310.68 67.2696 310.68 72.5711 310.676 72.6713ZM302.391 72.4445C302.385 72.6533 302.408 72.9148 302.342 73.1159C302.075 73.9249 301.24 74.4016 300.323 74.6651C300.231 74.6933 300.145 74.7197 300.06 74.746V65.0972C300.145 65.1236 300.231 65.1493 300.323 65.1756C301.24 65.441 302.075 65.9158 302.342 66.7273C302.408 66.9259 302.385 67.1893 302.391 67.3981C302.398 67.5298 302.398 72.3115 302.391 72.4445ZM315.811 62.6839V62.4764H298.047V62.6839L299.266 63.419V75.5794L298.047 76.3151V76.5207H315.811V76.3151L314.595 75.5794V63.419L315.811 62.6839Z" fill="white"/>
</mask>
<g mask="url(#mask35_32_3641)">
<mask id="mask36_32_3641" style="mask-type:luminance" maskUnits="userSpaceOnUse" x="298" y="62" width="18" height="15">
<path d="M313.801 74.746C313.716 74.7197 313.631 74.6933 313.538 74.6651C312.622 74.4016 311.786 73.9249 311.519 73.1159C311.454 72.9148 311.478 72.6533 311.469 72.4445C311.465 72.3115 311.465 67.5298 311.469 67.3981C311.478 67.1893 311.454 66.9259 311.519 66.7273C311.786 65.9158 312.622 65.441 313.538 65.1756C313.631 65.1493 313.716 65.1236 313.801 65.0972V74.746ZM310.676 72.6713C310.67 72.839 310.691 73.053 310.63 73.2142C310.389 73.8722 309.633 74.259 308.802 74.4729C307.213 74.8822 306.93 75.4072 306.93 75.4072C306.93 75.4072 306.648 74.8822 305.061 74.4729C304.228 74.259 303.473 73.8722 303.231 73.2142C303.17 73.053 303.194 72.839 303.185 72.6713C303.181 72.5711 303.181 67.2696 303.185 67.1713C303.194 67.0017 303.17 66.7897 303.231 66.6265C303.473 65.9704 304.228 65.5836 305.061 65.3684C306.648 64.9591 306.93 64.4354 306.93 64.4354C306.93 64.4354 307.213 64.9591 308.802 65.3684C309.633 65.5836 310.389 65.9704 310.63 66.6265C310.691 66.7897 310.67 67.0017 310.676 67.1713C310.68 67.2696 310.68 72.5711 310.676 72.6713ZM302.391 72.4445C302.385 72.6533 302.408 72.9148 302.342 73.1159C302.075 73.9249 301.24 74.4016 300.323 74.6651C300.231 74.6933 300.145 74.7197 300.06 74.746V65.0972C300.145 65.1236 300.231 65.1493 300.323 65.1756C301.24 65.441 302.075 65.9158 302.342 66.7273C302.408 66.9259 302.385 67.1893 302.391 67.3981C302.398 67.5298 302.398 72.3115 302.391 72.4445ZM315.811 62.6839V62.4764H298.047V62.6839L299.266 63.419V75.5794L298.047 76.3151V76.5207H315.811V76.3151L314.595 75.5794V63.419L315.811 62.6839Z" fill="white"/>
</mask>
<g mask="url(#mask36_32_3641)">
<path d="M290.178 65.7989L302.25 82.2462L323.68 73.1982L311.609 56.7509L290.178 65.7989Z" fill="#CCCCCC"/>
</g>
</g>
</g>
<mask id="mask37_32_3641" style="mask-type:luminance" maskUnits="userSpaceOnUse" x="306" y="0" width="2" height="53">
<path d="M306.57 0H307.295V52.3509H306.57V0Z" fill="white"/>
</mask>
<g mask="url(#mask37_32_3641)">
<path d="M277.237 12.3847L306.741 52.5841L336.628 39.9663L307.124 -0.233215L277.237 12.3847Z" fill="#C7C7C7"/>
</g>
<g filter="url(#filter4_f_32_3641)">
<path d="M306.743 67.5152L307.319 69.0719L308.876 69.648L307.319 70.224L306.743 71.7807L306.167 70.224L304.611 69.648L306.167 69.0719L306.743 67.5152Z" fill="#E59E1D"/>
</g>
<g filter="url(#filter5_f_32_3641)">
<path d="M306.743 67.5152L307.319 69.0719L308.876 69.648L307.319 70.224L306.743 71.7807L306.167 70.224L304.611 69.648L306.167 69.0719L306.743 67.5152Z" fill="#DA9C2A"/>
</g>
<path d="M306.812 67.7906L307.492 69.1844L309.33 69.7002L307.492 70.2159L306.812 71.6098L306.132 70.2159L304.294 69.7002L306.132 69.1844L306.812 67.7906Z" fill="#E9C37E"/>
<mask id="mask38_32_3641" style="mask-type:luminance" maskUnits="userSpaceOnUse" x="5" y="92" width="18" height="2">
<path d="M5.11108 92.2078H22.8889V93.8456H5.11108V92.2078Z" fill="white"/>
</mask>
<g mask="url(#mask38_32_3641)">
<mask id="mask39_32_3641" style="mask-type:luminance" maskUnits="userSpaceOnUse" x="5" y="92" width="18" height="2">
<path d="M22.842 92.3288C22.1024 93.3492 20.7465 93.7279 20.7465 93.7279H7.21353C7.21353 93.7279 5.8611 93.3492 5.11804 92.3288H22.842Z" fill="white"/>
</mask>
<g mask="url(#mask39_32_3641)">
<mask id="mask40_32_3641" style="mask-type:luminance" maskUnits="userSpaceOnUse" x="5" y="92" width="18" height="2">
<path d="M22.842 92.3288C22.1024 93.3492 20.7465 93.7279 20.7465 93.7279H7.21353C7.21353 93.7279 5.8611 93.3492 5.11804 92.3288H22.842Z" fill="white"/>
</mask>
<g mask="url(#mask40_32_3641)">
<path d="M4.31171 92.6602L9.31171 99.2792L23.6485 93.3966L18.6494 86.7776L4.31171 92.6602Z" fill="#C3C0C0"/>
</g>
</g>
</g>
<mask id="mask41_32_3641" style="mask-type:luminance" maskUnits="userSpaceOnUse" x="5" y="74" width="18" height="2">
<path d="M5.11108 74.3559H22.8889V75.9937H5.11108V74.3559Z" fill="white"/>
</mask>
<g mask="url(#mask41_32_3641)">
<mask id="mask42_32_3641" style="mask-type:luminance" maskUnits="userSpaceOnUse" x="5" y="74" width="18" height="2">
<path d="M22.842 75.9054H5.11804C5.8611 74.8881 7.21353 74.5068 7.21353 74.5068H20.7465C20.7465 74.5068 22.1024 74.8881 22.842 75.9054Z" fill="white"/>
</mask>
<g mask="url(#mask42_32_3641)">
<mask id="mask43_32_3641" style="mask-type:luminance" maskUnits="userSpaceOnUse" x="5" y="74" width="18" height="2">
<path d="M22.842 75.9054H5.11804C5.8611 74.8881 7.21353 74.5068 7.21353 74.5068H20.7465C20.7465 74.5068 22.1024 74.8881 22.842 75.9054Z" fill="white"/>
</mask>
<g mask="url(#mask43_32_3641)">
<path d="M4.31171 74.8376L9.31171 81.4566L23.6485 75.5746L18.6494 68.955L4.31171 74.8376Z" fill="url(#paint0_linear_32_3641)"/>
</g>
</g>
</g>
<mask id="mask44_32_3641" style="mask-type:luminance" maskUnits="userSpaceOnUse" x="7" y="64" width="14" height="11">
<path d="M7.11108 64.2016H20.8889V74.0283H7.11108V64.2016Z" fill="white"/>
</mask>
<g mask="url(#mask44_32_3641)">
<mask id="mask45_32_3641" style="mask-type:luminance" maskUnits="userSpaceOnUse" x="7" y="64" width="14" height="10">
<path d="M17.9913 71.8205C16.3932 71.1411 15.1553 69.898 15.1553 69.898C15.1553 69.898 15.0729 69.8814 15.1441 69.6997C15.2152 69.5161 15.829 69.4854 15.802 68.9544C15.7803 68.424 14.618 68.06 14.618 68.06C14.618 68.06 14.6137 67.9212 14.6067 67.7017C14.9314 67.5802 15.1441 67.371 15.1441 67.1317C15.1441 66.8828 14.9132 66.6679 14.5685 66.5502C14.5382 65.6903 14.4887 64.7569 14.427 64.6142C14.309 64.3411 13.9774 64.2406 13.9774 64.2406C13.9774 64.2406 13.651 64.3411 13.5329 64.6142C13.4713 64.7569 13.4218 65.6903 13.3915 66.5482C13.0468 66.6666 12.8159 66.8828 12.8159 67.1317C12.8159 67.371 13.0312 67.5821 13.3559 67.7017C13.3489 67.9212 13.3463 68.06 13.3463 68.06C13.3463 68.06 12.1796 68.424 12.1579 68.9544C12.131 69.4854 12.7448 69.5161 12.8159 69.6997C12.8845 69.8814 12.8046 69.898 12.8046 69.898C12.8046 69.898 11.5668 71.1411 9.96871 71.8205C8.36628 72.4987 7.37756 73.0438 7.2135 73.8889H20.7465C20.5824 73.0438 19.5937 72.4987 17.9913 71.8205Z" fill="white"/>
</mask>
<g mask="url(#mask45_32_3641)">
<mask id="mask46_32_3641" style="mask-type:luminance" maskUnits="userSpaceOnUse" x="7" y="64" width="14" height="10">
<path d="M17.9913 71.8205C16.3932 71.1411 15.1553 69.898 15.1553 69.898C15.1553 69.898 15.0729 69.8814 15.1441 69.6997C15.2152 69.5161 15.829 69.4854 15.802 68.9544C15.7803 68.424 14.618 68.06 14.618 68.06C14.618 68.06 14.6137 67.9212 14.6067 67.7017C14.9314 67.5802 15.1441 67.371 15.1441 67.1317C15.1441 66.8828 14.9132 66.6679 14.5685 66.5502C14.5382 65.6903 14.4887 64.7569 14.427 64.6142C14.309 64.3411 13.9774 64.2406 13.9774 64.2406C13.9774 64.2406 13.651 64.3411 13.5329 64.6142C13.4713 64.7569 13.4218 65.6903 13.3915 66.5482C13.0468 66.6666 12.8159 66.8828 12.8159 67.1317C12.8159 67.371 13.0312 67.5821 13.3559 67.7017C13.3489 67.9212 13.3463 68.06 13.3463 68.06C13.3463 68.06 12.1796 68.424 12.1579 68.9544C12.131 69.4854 12.7448 69.5161 12.8159 69.6997C12.8845 69.8814 12.8046 69.898 12.8046 69.898C12.8046 69.898 11.5668 71.1411 9.96871 71.8205C8.36628 72.4987 7.37756 73.0438 7.2135 73.8889H20.7465C20.5824 73.0438 19.5937 72.4987 17.9913 71.8205Z" fill="white"/>
</mask>
<g mask="url(#mask46_32_3641)">
<path d="M1.65009 66.5233L10.4148 78.128L26.3098 71.6069L17.545 60.0022L1.65009 66.5233Z" fill="url(#paint1_linear_32_3641)"/>
</g>
</g>
</g>
<mask id="mask47_32_3641" style="mask-type:luminance" maskUnits="userSpaceOnUse" x="7" y="94" width="14" height="10">
<path d="M7.11108 94.337H20.8889V104H7.11108V94.337Z" fill="white"/>
</mask>
<g mask="url(#mask47_32_3641)">
<mask id="mask48_32_3641" style="mask-type:luminance" maskUnits="userSpaceOnUse" x="7" y="94" width="14" height="10">
<path d="M7.2135 94.3453C7.37756 95.1904 8.36628 95.7374 9.96871 96.4169C11.5668 97.0969 12.8046 98.3381 12.8046 98.3381C12.8046 98.3381 12.8845 98.3547 12.8159 98.5377C12.7448 98.7181 12.131 98.7527 12.1579 99.283C12.1796 99.8121 13.3463 100.177 13.3463 100.177C13.3463 100.177 13.3489 100.309 13.3533 100.516C13.0312 100.636 12.8159 100.847 12.8159 101.087C12.8159 101.335 13.0468 101.55 13.3888 101.668C13.4218 102.532 13.4687 103.477 13.5329 103.622C13.651 103.894 13.9774 103.994 13.9774 103.994C13.9774 103.994 14.309 103.894 14.427 103.622C14.4887 103.477 14.5382 102.532 14.5711 101.668C14.9132 101.55 15.1441 101.335 15.1441 101.087C15.1441 100.847 14.9314 100.637 14.6085 100.516C14.6137 100.309 14.618 100.177 14.618 100.177C14.618 100.177 15.7803 99.8121 15.802 99.283C15.829 98.7527 15.2152 98.7181 15.1441 98.5377C15.0729 98.3547 15.1553 98.3381 15.1553 98.3381C15.1553 98.3381 16.3932 97.0969 17.9913 96.4169C19.5937 95.7374 20.5824 95.1904 20.7465 94.3453H7.2135Z" fill="white"/>
</mask>
<g mask="url(#mask48_32_3641)">
<mask id="mask49_32_3641" style="mask-type:luminance" maskUnits="userSpaceOnUse" x="7" y="94" width="14" height="10">
<path d="M7.2135 94.3453C7.37756 95.1904 8.36628 95.7374 9.96871 96.4169C11.5668 97.0969 12.8046 98.3381 12.8046 98.3381C12.8046 98.3381 12.8845 98.3547 12.8159 98.5377C12.7448 98.7181 12.131 98.7527 12.1579 99.283C12.1796 99.8121 13.3463 100.177 13.3463 100.177C13.3463 100.177 13.3489 100.309 13.3533 100.516C13.0312 100.636 12.8159 100.847 12.8159 101.087C12.8159 101.335 13.0468 101.55 13.3888 101.668C13.4218 102.532 13.4687 103.477 13.5329 103.622C13.651 103.894 13.9774 103.994 13.9774 103.994C13.9774 103.994 14.309 103.894 14.427 103.622C14.4887 103.477 14.5382 102.532 14.5711 101.668C14.9132 101.55 15.1441 101.335 15.1441 101.087C15.1441 100.847 14.9314 100.637 14.6085 100.516C14.6137 100.309 14.618 100.177 14.618 100.177C14.618 100.177 15.7803 99.8121 15.802 99.283C15.829 98.7527 15.2152 98.7181 15.1441 98.5377C15.0729 98.3547 15.1553 98.3381 15.1553 98.3381C15.1553 98.3381 16.3932 97.0969 17.9913 96.4169C19.5937 95.7374 20.5824 95.1904 20.7465 94.3453H7.2135Z" fill="white"/>
</mask>
<g mask="url(#mask49_32_3641)">
<path d="M1.65009 96.628L10.4148 108.232L26.3098 101.711L17.545 90.1062L1.65009 96.628Z" fill="url(#paint2_linear_32_3641)"/>
</g>
</g>
</g>
<g filter="url(#filter6_f_32_3641)">
<mask id="mask50_32_3641" style="mask-type:luminance" maskUnits="userSpaceOnUse" x="5" y="77" width="19" height="15">
<path d="M5.28986 77.0063H23.349V91.2668H5.28986V77.0063Z" fill="white"/>
</mask>
<g mask="url(#mask50_32_3641)">
<mask id="mask51_32_3641" style="mask-type:luminance" maskUnits="userSpaceOnUse" x="5" y="77" width="19" height="15">
<path d="M21.2459 89.4586C21.1618 89.4321 21.0737 89.4051 20.982 89.3781C20.0571 89.1107 19.2174 88.6278 18.9477 87.8072C18.8818 87.6047 18.9058 87.3388 18.8976 87.1271C18.8929 86.9937 18.8929 82.1493 18.8976 82.0162C18.9058 81.8036 18.8818 81.5382 18.9477 81.3352C19.2174 80.5152 20.0571 80.0325 20.982 79.7651C21.0737 79.7378 21.1618 79.7108 21.2459 79.6844V89.4586ZM18.098 87.3574C18.0908 87.5284 18.1127 87.7437 18.0532 87.9083C17.8083 88.5737 17.0466 88.9659 16.2098 89.1826C14.6102 89.5976 14.3259 90.1287 14.3259 90.1287C14.3259 90.1287 14.0415 89.5976 12.4412 89.1826C11.604 88.9659 10.8424 88.5737 10.5985 87.9083C10.538 87.7437 10.5598 87.5284 10.5527 87.3574C10.5491 87.2569 10.5491 81.8864 10.5527 81.7858C10.5598 81.6145 10.538 81.3992 10.5985 81.2346C10.8424 80.5692 11.604 80.1771 12.4412 79.9604C14.0415 79.5454 14.3259 79.0142 14.3259 79.0142C14.3259 79.0142 14.6102 79.5454 16.2098 79.9604C17.0466 80.1771 17.8083 80.5692 18.0532 81.2346C18.1127 81.3992 18.0908 81.6145 18.098 81.7858C18.1019 81.8864 18.1019 87.2569 18.098 87.3574ZM9.75342 87.1271C9.74519 87.3388 9.76882 87.6047 9.70293 87.8072C9.43329 88.6278 8.59357 89.1107 7.6697 89.3781C7.57696 89.4051 7.48994 89.4321 7.40471 89.4586V79.6844C7.48994 79.7108 7.57696 79.7378 7.6697 79.7651C8.59357 80.0325 9.43329 80.5152 9.70293 81.3352C9.76882 81.5382 9.74519 81.8036 9.75342 82.0162C9.75879 82.1493 9.75879 86.9937 9.75342 87.1271ZM23.2702 77.2403V77.0297H5.37793V77.2403L6.60439 77.9854V90.3034L5.37793 91.0479V91.2567H23.2702V91.0479L22.0463 90.3034V77.9854L23.2702 77.2403Z" fill="white"/>
</mask>
<g mask="url(#mask51_32_3641)">
<mask id="mask52_32_3641" style="mask-type:luminance" maskUnits="userSpaceOnUse" x="5" y="77" width="19" height="15">
<path d="M21.2459 89.4586C21.1618 89.4321 21.0737 89.4051 20.982 89.3781C20.0571 89.1107 19.2174 88.6278 18.9477 87.8072C18.8818 87.6047 18.9058 87.3388 18.8976 87.1271C18.8929 86.9937 18.8929 82.1493 18.8976 82.0162C18.9058 81.8036 18.8818 81.5382 18.9477 81.3352C19.2174 80.5152 20.0571 80.0325 20.982 79.7651C21.0737 79.7378 21.1618 79.7108 21.2459 79.6844V89.4586ZM18.098 87.3574C18.0908 87.5284 18.1127 87.7437 18.0532 87.9083C17.8083 88.5737 17.0466 88.9659 16.2098 89.1826C14.6102 89.5976 14.3259 90.1287 14.3259 90.1287C14.3259 90.1287 14.0415 89.5976 12.4412 89.1826C11.604 88.9659 10.8424 88.5737 10.5985 87.9083C10.538 87.7437 10.5598 87.5284 10.5527 87.3574C10.5491 87.2569 10.5491 81.8864 10.5527 81.7858C10.5598 81.6145 10.538 81.3992 10.5985 81.2346C10.8424 80.5692 11.604 80.1771 12.4412 79.9604C14.0415 79.5454 14.3259 79.0142 14.3259 79.0142C14.3259 79.0142 14.6102 79.5454 16.2098 79.9604C17.0466 80.1771 17.8083 80.5692 18.0532 81.2346C18.1127 81.3992 18.0908 81.6145 18.098 81.7858C18.1019 81.8864 18.1019 87.2569 18.098 87.3574ZM9.75342 87.1271C9.74519 87.3388 9.76882 87.6047 9.70293 87.8072C9.43329 88.6278 8.59357 89.1107 7.6697 89.3781C7.57696 89.4051 7.48994 89.4321 7.40471 89.4586V79.6844C7.48994 79.7108 7.57696 79.7378 7.6697 79.7651C8.59357 80.0325 9.43329 80.5152 9.70293 81.3352C9.76882 81.5382 9.74519 81.8036 9.75342 82.0162C9.75879 82.1493 9.75879 86.9937 9.75342 87.1271ZM23.2702 77.2403V77.0297H5.37793V77.2403L6.60439 77.9854V90.3034L5.37793 91.0479V91.2567H23.2702V91.0479L22.0463 90.3034V77.9854L23.2702 77.2403Z" fill="white"/>
</mask>
<g mask="url(#mask52_32_3641)">
<path d="M-2.39545 80.3957L9.61057 97.1712L31.0436 87.8911L19.0373 71.1156L-2.39545 80.3957Z" fill="#E9C37E" fill-opacity="0.15"/>
</g>
</g>
</g>
</g>
<mask id="mask53_32_3641" style="mask-type:luminance" maskUnits="userSpaceOnUse" x="4" y="76" width="20" height="16">
<path d="M4 76.485H24V91.7165H4V76.485Z" fill="white"/>
</mask>
<g mask="url(#mask53_32_3641)">
<mask id="mask54_32_3641" style="mask-type:luminance" maskUnits="userSpaceOnUse" x="4" y="76" width="20" height="16">
<path d="M21.6266 89.7921C21.5329 89.7639 21.4374 89.7345 21.3358 89.707C20.3133 89.4204 19.3844 88.9041 19.0867 88.0295C19.0129 87.8139 19.0398 87.5286 19.0311 87.3028C19.0268 87.1601 19.0268 81.9882 19.0311 81.8456C19.0398 81.6197 19.0129 81.3363 19.0867 81.1201C19.3844 80.2436 20.3133 79.728 21.3358 79.4426C21.4374 79.4132 21.5329 79.3857 21.6266 79.3562V89.7921ZM18.1492 87.5484C18.1397 87.732 18.164 87.9611 18.098 88.1376C17.8289 88.8471 16.9869 89.2662 16.0624 89.4971C14.2933 89.9411 13.9799 90.508 13.9799 90.508C13.9799 90.508 13.6666 89.9411 11.8975 89.4971C10.973 89.2662 10.131 88.8471 9.86187 88.1376C9.79503 87.9611 9.8202 87.732 9.81066 87.5484C9.80632 87.4416 9.80632 81.708 9.81066 81.5999C9.8202 81.4182 9.79503 81.1873 9.86187 81.012C10.131 80.3012 10.973 79.8834 11.8975 79.6505C13.6666 79.2085 13.9799 78.6404 13.9799 78.6404C13.9799 78.6404 14.2933 79.2085 16.0624 79.6505C16.9869 79.8834 17.8289 80.3012 18.098 81.012C18.164 81.1873 18.1397 81.4182 18.1492 81.5999C18.1535 81.708 18.1535 87.4416 18.1492 87.5484ZM8.92871 87.3028C8.92003 87.5286 8.94434 87.8139 8.87316 88.0295C8.57541 88.9041 7.64659 89.4204 6.62402 89.707C6.52246 89.7345 6.42698 89.7639 6.33323 89.7921V79.3562C6.42698 79.3857 6.52246 79.4132 6.62402 79.4426C7.64659 79.728 8.57541 80.2436 8.87316 81.1201C8.94434 81.3363 8.92003 81.6197 8.92871 81.8456C8.93305 81.9882 8.93305 87.1601 8.92871 87.3028ZM23.8645 76.7473V76.5227H4.09277V76.7473L5.44868 77.5432V90.6948L4.09277 91.4887V91.7114H23.8645V91.4887L22.5112 90.6948V77.5432L23.8645 76.7473Z" fill="white"/>
</mask>
<g mask="url(#mask54_32_3641)">
<mask id="mask55_32_3641" style="mask-type:luminance" maskUnits="userSpaceOnUse" x="4" y="76" width="20" height="16">
<path d="M21.6266 89.7921C21.5329 89.7639 21.4374 89.7345 21.3358 89.707C20.3133 89.4204 19.3844 88.9041 19.0867 88.0295C19.0129 87.8139 19.0398 87.5286 19.0311 87.3028C19.0268 87.1601 19.0268 81.9882 19.0311 81.8456C19.0398 81.6197 19.0129 81.3363 19.0867 81.1201C19.3844 80.2436 20.3133 79.728 21.3358 79.4426C21.4374 79.4132 21.5329 79.3857 21.6266 79.3562V89.7921ZM18.1492 87.5484C18.1397 87.732 18.164 87.9611 18.098 88.1376C17.8289 88.8471 16.9869 89.2662 16.0624 89.4971C14.2933 89.9411 13.9799 90.508 13.9799 90.508C13.9799 90.508 13.6666 89.9411 11.8975 89.4971C10.973 89.2662 10.131 88.8471 9.86187 88.1376C9.79503 87.9611 9.8202 87.732 9.81066 87.5484C9.80632 87.4416 9.80632 81.708 9.81066 81.5999C9.8202 81.4182 9.79503 81.1873 9.86187 81.012C10.131 80.3012 10.973 79.8834 11.8975 79.6505C13.6666 79.2085 13.9799 78.6404 13.9799 78.6404C13.9799 78.6404 14.2933 79.2085 16.0624 79.6505C16.9869 79.8834 17.8289 80.3012 18.098 81.012C18.164 81.1873 18.1397 81.4182 18.1492 81.5999C18.1535 81.708 18.1535 87.4416 18.1492 87.5484ZM8.92871 87.3028C8.92003 87.5286 8.94434 87.8139 8.87316 88.0295C8.57541 88.9041 7.64659 89.4204 6.62402 89.707C6.52246 89.7345 6.42698 89.7639 6.33323 89.7921V79.3562C6.42698 79.3857 6.52246 79.4132 6.62402 79.4426C7.64659 79.728 8.57541 80.2436 8.87316 81.1201C8.94434 81.3363 8.92003 81.6197 8.92871 81.8456C8.93305 81.9882 8.93305 87.1601 8.92871 87.3028ZM23.8645 76.7473V76.5227H4.09277V76.7473L5.44868 77.5432V90.6948L4.09277 91.4887V91.7114H23.8645V91.4887L22.5112 90.6948V77.5432L23.8645 76.7473Z" fill="white"/>
</mask>
<g mask="url(#mask55_32_3641)">
<path d="M-4.6651 80.1163L8.77066 97.9043L32.6222 88.1185L19.1865 70.3299L-4.6651 80.1163Z" fill="url(#paint3_linear_32_3641)"/>
</g>
</g>
</g>
<mask id="mask56_32_3641" style="mask-type:luminance" maskUnits="userSpaceOnUse" x="13" y="0" width="2" height="66">
<path d="M13.5244 0H14.4402V65.7511H13.5244V0Z" fill="white"/>
</mask>
<g mask="url(#mask56_32_3641)">
<path d="M-24.3897 15.5552L13.7414 66.0377L52.3542 50.1959L14.2231 -0.286606L-24.3897 15.5552Z" fill="#D2D2D2"/>
</g>
<g filter="url(#filter7_f_32_3641)">
<path d="M14.1401 82.599L14.722 84.1714L16.2944 84.7532L14.722 85.335L14.1401 86.9074L13.5583 85.335L11.9859 84.7532L13.5583 84.1714L14.1401 82.599Z" fill="#E29E21" fill-opacity="0.92"/>
</g>
<g filter="url(#filter8_f_32_3641)">
<path d="M14.1401 82.599L14.722 84.1714L16.2944 84.7532L14.722 85.335L14.1401 86.9074L13.5583 85.335L11.9859 84.7532L13.5583 84.1714L14.1401 82.599Z" fill="#E29E21" fill-opacity="0.47"/>
</g>
<path d="M14.1402 82.599L14.7221 84.1714L16.2945 84.7532L14.7221 85.335L14.1402 86.9074L13.5584 85.335L11.986 84.7532L13.5584 84.1714L14.1402 82.599Z" fill="#E9C37E"/>
<mask id="mask57_32_3641" style="mask-type:luminance" maskUnits="userSpaceOnUse" x="37" y="135" width="33" height="4">
<path d="M37.0101 135.486H69.1726V138.778H37.0101V135.486Z" fill="white"/>
</mask>
<g mask="url(#mask57_32_3641)">
<mask id="mask58_32_3641" style="mask-type:luminance" maskUnits="userSpaceOnUse" x="37" y="135" width="32" height="4">
<path d="M68.9992 135.644C67.6629 137.849 65.2181 138.671 65.2181 138.671H40.8057C40.8057 138.671 38.3665 137.849 37.0245 135.644H68.9992Z" fill="white"/>
</mask>
<g mask="url(#mask58_32_3641)">
<mask id="mask59_32_3641" style="mask-type:luminance" maskUnits="userSpaceOnUse" x="37" y="135" width="32" height="4">
<path d="M68.9992 135.644C67.6629 137.849 65.2181 138.671 65.2181 138.671H40.8057C40.8057 138.671 38.3665 137.849 37.0245 135.644H68.9992Z" fill="white"/>
</mask>
<g mask="url(#mask59_32_3641)">
<path d="M35.5966 136.36L44.5888 150.911L70.4274 137.955L61.4345 123.404L35.5966 136.36Z" fill="#D6D6D5"/>
</g>
</g>
</g>
<mask id="mask60_32_3641" style="mask-type:luminance" maskUnits="userSpaceOnUse" x="37" y="96" width="33" height="5">
<path d="M37.0101 96.967H69.1726V100.259H37.0101V96.967Z" fill="white"/>
</mask>
<g mask="url(#mask60_32_3641)">
<mask id="mask61_32_3641" style="mask-type:luminance" maskUnits="userSpaceOnUse" x="37" y="97" width="32" height="4">
<path d="M68.9992 100.133H37.0245C38.3665 97.9316 40.8057 97.1053 40.8057 97.1053H65.2181C65.2181 97.1053 67.6629 97.9316 68.9992 100.133Z" fill="white"/>
</mask>
<g mask="url(#mask61_32_3641)">
<mask id="mask62_32_3641" style="mask-type:luminance" maskUnits="userSpaceOnUse" x="37" y="97" width="32" height="4">
<path d="M68.9992 100.133H37.0245C38.3665 97.9316 40.8057 97.1053 40.8057 97.1053H65.2181C65.2181 97.1053 67.6629 97.9316 68.9992 100.133Z" fill="white"/>
</mask>
<g mask="url(#mask62_32_3641)">
<path d="M35.5966 97.8216L44.5888 112.373L70.4274 99.4163L61.4345 84.8651L35.5966 97.8216Z" fill="#CFCECD"/>
</g>
</g>
</g>
<mask id="mask63_32_3641" style="mask-type:luminance" maskUnits="userSpaceOnUse" x="40" y="74" width="26" height="22">
<path d="M40.6649 74.9095H65.3349V95.8148H40.6649V74.9095Z" fill="white"/>
</mask>
<g mask="url(#mask63_32_3641)">
<mask id="mask64_32_3641" style="mask-type:luminance" maskUnits="userSpaceOnUse" x="40" y="74" width="26" height="22">
<path d="M60.2497 91.298C57.3658 89.828 55.1344 87.1416 55.1344 87.1416C55.1344 87.1416 54.9866 87.1075 55.1144 86.712C55.2422 86.3172 56.3479 86.2478 56.3022 85.1007C56.2601 83.9536 54.1607 83.1665 54.1607 83.1665C54.1607 83.1665 54.155 82.8669 54.1443 82.3911C54.7268 82.1313 55.1144 81.6767 55.1144 81.1597C55.1144 80.6215 54.6939 80.156 54.0765 79.9007C54.0179 78.0437 53.928 76.026 53.8202 75.718C53.6046 75.1251 53.0093 74.9116 53.0093 74.9116C53.0093 74.9116 52.4189 75.1251 52.2048 75.718C52.092 76.026 52.0056 78.0437 51.9492 79.9007C51.3296 80.156 50.9092 80.6215 50.9092 81.1597C50.9092 81.6786 51.3004 82.1326 51.8836 82.393C51.8743 82.8669 51.8686 83.1665 51.8686 83.1665C51.8686 83.1665 49.7635 83.9536 49.7235 85.1007C49.6778 86.2478 50.7836 86.3172 50.9092 86.712C51.0377 87.1075 50.8892 87.1416 50.8892 87.1416C50.8892 87.1416 48.6578 89.828 45.7746 91.298C42.885 92.7634 41.1018 93.9452 40.8056 95.772H65.218C64.9217 93.9452 63.1386 92.7634 60.2497 91.298Z" fill="white"/>
</mask>
<g mask="url(#mask64_32_3641)">
<mask id="mask65_32_3641" style="mask-type:luminance" maskUnits="userSpaceOnUse" x="40" y="74" width="26" height="22">
<path d="M60.2497 91.298C57.3658 89.828 55.1344 87.1416 55.1344 87.1416C55.1344 87.1416 54.9866 87.1075 55.1144 86.712C55.2422 86.3172 56.3479 86.2478 56.3022 85.1007C56.2601 83.9536 54.1607 83.1665 54.1607 83.1665C54.1607 83.1665 54.155 82.8669 54.1443 82.3911C54.7268 82.1313 55.1144 81.6767 55.1144 81.1597C55.1144 80.6215 54.6939 80.156 54.0765 79.9007C54.0179 78.0437 53.928 76.026 53.8202 75.718C53.6046 75.1251 53.0093 74.9116 53.0093 74.9116C53.0093 74.9116 52.4189 75.1251 52.2048 75.718C52.092 76.026 52.0056 78.0437 51.9492 79.9007C51.3296 80.156 50.9092 80.6215 50.9092 81.1597C50.9092 81.6786 51.3004 82.1326 51.8836 82.393C51.8743 82.8669 51.8686 83.1665 51.8686 83.1665C51.8686 83.1665 49.7635 83.9536 49.7235 85.1007C49.6778 86.2478 50.7836 86.3172 50.9092 86.712C51.0377 87.1075 50.8892 87.1416 50.8892 87.1416C50.8892 87.1416 48.6578 89.828 45.7746 91.298C42.885 92.7634 41.1018 93.9452 40.8056 95.772H65.218C64.9217 93.9452 63.1386 92.7634 60.2497 91.298Z" fill="white"/>
</mask>
<g mask="url(#mask65_32_3641)">
<path d="M30.9639 79.8465L46.5812 105.117L75.0602 90.8367L59.443 65.566L30.9639 79.8465Z" fill="#DDDDDD"/>
</g>
</g>
</g>
<mask id="mask66_32_3641" style="mask-type:luminance" maskUnits="userSpaceOnUse" x="40" y="139" width="26" height="22">
<path d="M40.6649 139.93H65.3349V161H40.6649V139.93Z" fill="white"/>
</mask>
<g mask="url(#mask66_32_3641)">
<mask id="mask67_32_3641" style="mask-type:luminance" maskUnits="userSpaceOnUse" x="40" y="140" width="26" height="21">
<path d="M40.8056 140.004C41.1018 141.831 42.885 143.013 45.7746 144.483C48.6578 145.953 50.8892 148.64 50.8892 148.64C50.8892 148.64 51.0377 148.672 50.9092 149.069C50.7836 149.459 49.6778 149.533 49.7235 150.68C49.7635 151.823 51.8686 152.615 51.8686 152.615C51.8686 152.615 51.8721 152.896 51.8836 153.348C51.2989 153.607 50.9092 154.062 50.9092 154.58C50.9092 155.118 51.3296 155.583 51.9471 155.839C52.0042 157.708 52.092 159.753 52.2048 160.062C52.4189 160.651 53.0093 160.865 53.0093 160.865C53.0093 160.865 53.6046 160.651 53.8202 160.062C53.9301 159.753 54.0179 157.708 54.0779 155.838C54.6961 155.583 55.1144 155.118 55.1144 154.58C55.1144 154.063 54.7268 153.609 54.1457 153.349C54.155 152.898 54.1607 152.615 54.1607 152.615C54.1607 152.615 56.2601 151.823 56.3022 150.68C56.3479 149.533 55.2422 149.459 55.1144 149.069C54.9866 148.672 55.1344 148.64 55.1344 148.64C55.1344 148.64 57.3658 145.953 60.2497 144.483C63.1386 143.013 64.9217 141.831 65.218 140.004H40.8056Z" fill="white"/>
</mask>
<g mask="url(#mask67_32_3641)">
<mask id="mask68_32_3641" style="mask-type:luminance" maskUnits="userSpaceOnUse" x="40" y="140" width="26" height="21">
<path d="M40.8056 140.004C41.1018 141.831 42.885 143.013 45.7746 144.483C48.6578 145.953 50.8892 148.64 50.8892 148.64C50.8892 148.64 51.0377 148.672 50.9092 149.069C50.7836 149.459 49.6778 149.533 49.7235 150.68C49.7635 151.823 51.8686 152.615 51.8686 152.615C51.8686 152.615 51.8721 152.896 51.8836 153.348C51.2989 153.607 50.9092 154.062 50.9092 154.58C50.9092 155.118 51.3296 155.583 51.9471 155.839C52.0042 157.708 52.092 159.753 52.2048 160.062C52.4189 160.651 53.0093 160.865 53.0093 160.865C53.0093 160.865 53.6046 160.651 53.8202 160.062C53.9301 159.753 54.0179 157.708 54.0779 155.838C54.6961 155.583 55.1144 155.118 55.1144 154.58C55.1144 154.063 54.7268 153.609 54.1457 153.349C54.155 152.898 54.1607 152.615 54.1607 152.615C54.1607 152.615 56.2601 151.823 56.3022 150.68C56.3479 149.533 55.2422 149.459 55.1144 149.069C54.9866 148.672 55.1344 148.64 55.1344 148.64C55.1344 148.64 57.3658 145.953 60.2497 144.483C63.1386 143.013 64.9217 141.831 65.218 140.004H40.8056Z" fill="white"/>
</mask>
<g mask="url(#mask68_32_3641)">
<path d="M30.9639 144.939L46.5812 170.21L75.0602 155.93L59.443 130.659L30.9639 144.939Z" fill="#DADADA"/>
</g>
</g>
</g>
<g filter="url(#filter9_f_32_3641)">
<mask id="mask69_32_3641" style="mask-type:luminance" maskUnits="userSpaceOnUse" x="37" y="104" width="32" height="29">
<path d="M37.4849 104.188H68.545V132.014H37.4849V104.188Z" fill="white"/>
</mask>
<g mask="url(#mask69_32_3641)">
<mask id="mask70_32_3641" style="mask-type:luminance" maskUnits="userSpaceOnUse" x="37" y="104" width="32" height="28">
<path d="M64.9278 128.486C64.7831 128.435 64.6316 128.382 64.4739 128.329C62.8831 127.807 61.4389 126.865 60.9751 125.264C60.8618 124.869 60.903 124.35 60.8889 123.937C60.8809 123.676 60.8809 114.224 60.8889 113.964C60.903 113.549 60.8618 113.031 60.9751 112.635C61.4389 111.035 62.8831 110.093 64.4739 109.572C64.6316 109.518 64.7831 109.466 64.9278 109.414V128.486ZM59.5136 124.386C59.5013 124.72 59.5389 125.14 59.4366 125.461C59.0154 126.76 57.7054 127.525 56.2661 127.948C53.5149 128.757 53.0259 129.794 53.0259 129.794C53.0259 129.794 52.5369 128.757 49.7845 127.948C48.3446 127.525 47.0346 126.76 46.6152 125.461C46.5111 125.14 46.5487 124.72 46.5363 124.386C46.5302 124.19 46.5302 113.711 46.5363 113.514C46.5487 113.18 46.5111 112.76 46.6152 112.439C47.0346 111.141 48.3446 110.375 49.7845 109.953C52.5369 109.143 53.0259 108.106 53.0259 108.106C53.0259 108.106 53.5149 109.143 56.2661 109.953C57.7054 110.375 59.0154 111.141 59.4366 112.439C59.5389 112.76 59.5013 113.18 59.5136 113.514C59.5204 113.711 59.5204 124.19 59.5136 124.386ZM45.1617 123.937C45.1475 124.35 45.1882 124.869 45.0749 125.264C44.6111 126.865 43.1669 127.807 41.5779 128.329C41.4184 128.382 41.2687 128.435 41.1221 128.486V109.414C41.2687 109.466 41.4184 109.518 41.5779 109.572C43.1669 110.093 44.6111 111.035 45.0749 112.635C45.1882 113.031 45.1475 113.549 45.1617 113.964C45.1709 114.224 45.1709 123.676 45.1617 123.937ZM68.4094 104.645V104.234H37.6362V104.645L39.7456 106.099V130.135L37.6362 131.587V131.995H68.4094V131.587L66.3043 130.135V106.099L68.4094 104.645Z" fill="white"/>
</mask>
<g mask="url(#mask70_32_3641)">
<mask id="mask71_32_3641" style="mask-type:luminance" maskUnits="userSpaceOnUse" x="37" y="104" width="32" height="28">
<path d="M64.9278 128.486C64.7831 128.435 64.6316 128.382 64.4739 128.329C62.8831 127.807 61.4389 126.865 60.9751 125.264C60.8618 124.869 60.903 124.35 60.8889 123.937C60.8809 123.676 60.8809 114.224 60.8889 113.964C60.903 113.549 60.8618 113.031 60.9751 112.635C61.4389 111.035 62.8831 110.093 64.4739 109.572C64.6316 109.518 64.7831 109.466 64.9278 109.414V128.486ZM59.5136 124.386C59.5013 124.72 59.5389 125.14 59.4366 125.461C59.0154 126.76 57.7054 127.525 56.2661 127.948C53.5149 128.757 53.0259 129.794 53.0259 129.794C53.0259 129.794 52.5369 128.757 49.7845 127.948C48.3446 127.525 47.0346 126.76 46.6152 125.461C46.5111 125.14 46.5487 124.72 46.5363 124.386C46.5302 124.19 46.5302 113.711 46.5363 113.514C46.5487 113.18 46.5111 112.76 46.6152 112.439C47.0346 111.141 48.3446 110.375 49.7845 109.953C52.5369 109.143 53.0259 108.106 53.0259 108.106C53.0259 108.106 53.5149 109.143 56.2661 109.953C57.7054 110.375 59.0154 111.141 59.4366 112.439C59.5389 112.76 59.5013 113.18 59.5136 113.514C59.5204 113.711 59.5204 124.19 59.5136 124.386ZM45.1617 123.937C45.1475 124.35 45.1882 124.869 45.0749 125.264C44.6111 126.865 43.1669 127.807 41.5779 128.329C41.4184 128.382 41.2687 128.435 41.1221 128.486V109.414C41.2687 109.466 41.4184 109.518 41.5779 109.572C43.1669 110.093 44.6111 111.035 45.0749 112.635C45.1882 113.031 45.1475 113.549 45.1617 113.964C45.1709 114.224 45.1709 123.676 45.1617 123.937ZM68.4094 104.645V104.234H37.6362V104.645L39.7456 106.099V130.135L37.6362 131.587V131.995H68.4094V131.587L66.3043 130.135V106.099L68.4094 104.645Z" fill="white"/>
</mask>
<g mask="url(#mask71_32_3641)">
<path d="M24.2667 110.802L44.916 143.536L81.779 125.428L61.1291 92.6939L24.2667 110.802Z" fill="#E9C37E" fill-opacity="0.2"/>
</g>
</g>
</g>
</g>
<mask id="mask72_32_3641" style="mask-type:luminance" maskUnits="userSpaceOnUse" x="35" y="101" width="36" height="34">
<path d="M35 101.412H71V134.333H35V101.412Z" fill="white"/>
</mask>
<g mask="url(#mask72_32_3641)">
<mask id="mask73_32_3641" style="mask-type:luminance" maskUnits="userSpaceOnUse" x="35" y="101" width="36" height="34">
<path d="M66.8076 130.159C66.6398 130.098 66.4642 130.036 66.2815 129.973C64.4377 129.356 62.7637 128.241 62.2262 126.347C62.0949 125.879 62.1427 125.265 62.1263 124.776C62.117 124.468 62.117 113.285 62.1263 112.977C62.1427 112.487 62.0949 111.874 62.2262 111.405C62.7637 109.512 64.4377 108.398 66.2815 107.78C66.4642 107.717 66.6398 107.655 66.8076 107.594V130.159ZM60.5323 125.308C60.518 125.703 60.5616 126.2 60.4431 126.58C59.9548 128.116 58.4365 129.021 56.7683 129.522C53.5796 130.48 53.0128 131.706 53.0128 131.706C53.0128 131.706 52.446 130.48 49.2559 129.522C47.5869 129.021 46.0686 128.116 45.5825 126.58C45.4619 126.2 45.5054 125.703 45.4911 125.308C45.484 125.076 45.484 112.678 45.4911 112.445C45.5054 112.05 45.4619 111.553 45.5825 111.173C46.0686 109.637 47.5869 108.731 49.2559 108.231C52.446 107.273 53.0128 106.047 53.0128 106.047C53.0128 106.047 53.5796 107.273 56.7683 108.231C58.4365 108.731 59.9548 109.637 60.4431 111.173C60.5616 111.553 60.518 112.05 60.5323 112.445C60.5401 112.678 60.5401 125.076 60.5323 125.308ZM43.8979 124.776C43.8814 125.265 43.9286 125.879 43.7972 126.347C43.2597 128.241 41.5858 129.356 39.7441 129.973C39.5592 130.036 39.3857 130.098 39.2158 130.159V107.594C39.3857 107.655 39.5592 107.717 39.7441 107.78C41.5858 108.398 43.2597 109.512 43.7972 111.405C43.9286 111.874 43.8814 112.487 43.8979 112.977C43.9086 113.285 43.9086 124.468 43.8979 124.776ZM70.8429 101.952V101.466H35.1755V101.952L37.6204 103.672V132.109L35.1755 133.828V134.31H70.8429V133.828L68.403 132.109V103.672L70.8429 101.952Z" fill="white"/>
</mask>
<g mask="url(#mask73_32_3641)">
<mask id="mask74_32_3641" style="mask-type:luminance" maskUnits="userSpaceOnUse" x="35" y="101" width="36" height="34">
<path d="M66.8076 130.159C66.6398 130.098 66.4642 130.036 66.2815 129.973C64.4377 129.356 62.7637 128.241 62.2262 126.347C62.0949 125.879 62.1427 125.265 62.1263 124.776C62.117 124.468 62.117 113.285 62.1263 112.977C62.1427 112.487 62.0949 111.874 62.2262 111.405C62.7637 109.512 64.4377 108.398 66.2815 107.78C66.4642 107.717 66.6398 107.655 66.8076 107.594V130.159ZM60.5323 125.308C60.518 125.703 60.5616 126.2 60.4431 126.58C59.9548 128.116 58.4365 129.021 56.7683 129.522C53.5796 130.48 53.0128 131.706 53.0128 131.706C53.0128 131.706 52.446 130.48 49.2559 129.522C47.5869 129.021 46.0686 128.116 45.5825 126.58C45.4619 126.2 45.5054 125.703 45.4911 125.308C45.484 125.076 45.484 112.678 45.4911 112.445C45.5054 112.05 45.4619 111.553 45.5825 111.173C46.0686 109.637 47.5869 108.731 49.2559 108.231C52.446 107.273 53.0128 106.047 53.0128 106.047C53.0128 106.047 53.5796 107.273 56.7683 108.231C58.4365 108.731 59.9548 109.637 60.4431 111.173C60.5616 111.553 60.518 112.05 60.5323 112.445C60.5401 112.678 60.5401 125.076 60.5323 125.308ZM43.8979 124.776C43.8814 125.265 43.9286 125.879 43.7972 126.347C43.2597 128.241 41.5858 129.356 39.7441 129.973C39.5592 130.036 39.3857 130.098 39.2158 130.159V107.594C39.3857 107.655 39.5592 107.717 39.7441 107.78C41.5858 108.398 43.2597 109.512 43.7972 111.405C43.9286 111.874 43.8814 112.487 43.8979 112.977C43.9086 113.285 43.9086 124.468 43.8979 124.776ZM70.8429 101.952V101.466H35.1755V101.952L37.6204 103.672V132.109L35.1755 133.828V134.31H70.8429V133.828L68.403 132.109V103.672L70.8429 101.952Z" fill="white"/>
</mask>
<g mask="url(#mask74_32_3641)">
<path d="M19.6796 109.236L43.613 147.964L86.3387 126.54L62.4046 87.812L19.6796 109.236Z" fill="#D2D1D1"/>
</g>
</g>
</g>
<mask id="mask75_32_3641" style="mask-type:luminance" maskUnits="userSpaceOnUse" x="52" y="1" width="2" height="76">
<path d="M52.7001 1H53.3233V76.1408H52.7001V1Z" fill="white"/>
</mask>
<g mask="url(#mask75_32_3641)">
<path d="M17.2499 18.7765L52.848 76.3794L88.7745 58.3643L53.1764 0.761459L17.2499 18.7765Z" fill="#E5E5E5"/>
</g>
<g filter="url(#filter10_f_32_3641)">
<path d="M52.8579 113.455L54.2513 117.525L58.0167 119.031L54.2513 120.537L52.8579 124.608L51.4646 120.537L47.6992 119.031L51.4646 117.525L52.8579 113.455Z" fill="#EDA625"/>
</g>
<g filter="url(#filter11_f_32_3641)">
<path d="M52.8579 113.455L54.2513 117.525L58.0167 119.031L54.2513 120.537L52.8579 124.608L51.4646 120.537L47.6992 119.031L51.4646 117.525L52.8579 113.455Z" fill="#EDA625"/>
</g>
<path d="M52.8579 113.455L54.2513 117.525L58.0167 119.031L54.2513 120.537L52.8579 124.608L51.4646 120.537L47.6992 119.031L51.4646 117.525L52.8579 113.455Z" fill="#E9C37E"/>
<line x1="3.66313e-05" y1="0.5" x2="320" y2="0.523444" stroke="#D9D9D9"/>
<g filter="url(#filter12_d_32_3641)">
<path d="M142.838 56.061C142.865 56.0612 142.892 56.0531 142.914 56.0379C142.937 56.0228 142.954 56.0011 142.964 55.9759C142.974 55.9507 142.976 55.9232 142.97 55.8968C142.963 55.8705 142.949 55.8467 142.929 55.8286C142.122 55.077 140.905 53.8937 139.279 52.2786C138.823 51.8254 138.598 51.276 138.604 50.6306C138.639 45.3809 138.643 41.1195 138.617 37.8463C138.617 37.8041 138.634 37.7636 138.664 37.7337C138.694 37.7039 138.735 37.6871 138.777 37.6871H152.327C152.499 37.6872 152.664 37.7553 152.786 37.8764L156.821 41.8954C156.844 41.9185 156.873 41.9343 156.905 41.9407C156.937 41.9471 156.97 41.9439 157.001 41.9314C157.031 41.9189 157.056 41.8978 157.074 41.8707C157.093 41.8436 157.102 41.8118 157.102 41.7793V35.996C157.102 35.9075 157.119 35.8201 157.154 35.7388C157.188 35.6575 157.238 35.584 157.301 35.5227L166.772 26.0948C166.834 26.0341 166.917 26 167.004 26C167.09 26 167.174 26.0341 167.235 26.0948L176.603 35.4151C176.8 35.6139 176.91 35.8813 176.91 36.1595V41.6674C176.91 41.6987 176.92 41.7292 176.937 41.7551C176.955 41.781 176.98 41.8012 177.009 41.8132C177.038 41.8251 177.07 41.8282 177.101 41.8222C177.132 41.8162 177.16 41.8012 177.183 41.7793L180.88 38.0959C181.149 37.8314 181.51 37.683 181.884 37.6828H195.109C195.179 37.6828 195.246 37.71 195.296 37.7584C195.345 37.8068 195.373 37.8725 195.373 37.941C195.373 40.9072 195.379 45.0696 195.39 50.4283C195.39 51.2316 195.184 51.8211 194.772 52.1969C193.823 53.0661 192.617 54.2594 191.152 55.777C191.128 55.8025 191.111 55.8345 191.105 55.8692C191.098 55.9039 191.102 55.9396 191.116 55.9721C191.13 56.0046 191.153 56.0323 191.182 56.0519C191.212 56.0716 191.246 56.0822 191.282 56.0825H196.744C196.87 56.0825 196.995 56.1072 197.111 56.1552C197.227 56.2032 197.331 56.2736 197.419 56.3622L206.921 65.8159C206.946 65.8407 206.966 65.8702 206.979 65.9027C206.993 65.9352 207 65.9701 207 66.0053C207 66.0405 206.993 66.0753 206.979 66.1078C206.966 66.1403 206.946 66.1698 206.921 66.1946L197.436 75.6311C197.353 75.7155 197.253 75.7826 197.143 75.8284C197.033 75.8742 196.915 75.8978 196.796 75.8979H191.156C191.129 75.8972 191.101 75.9049 191.078 75.92C191.054 75.9351 191.036 75.9569 191.025 75.9824C191.015 76.008 191.012 76.0362 191.018 76.0633C191.023 76.0905 191.037 76.1153 191.057 76.1346C193.185 78.1957 194.681 79.3747 195.274 80.5193C195.339 80.6437 195.373 80.7825 195.373 80.9238V94.147C195.373 94.1881 195.357 94.2275 195.328 94.2565C195.298 94.2856 195.259 94.3019 195.218 94.3019H181.711C181.514 94.3017 181.326 94.2243 181.187 94.0867L177.165 90.0849C177.144 90.0644 177.117 90.0504 177.087 90.0447C177.058 90.039 177.028 90.0419 177.001 90.0529C176.973 90.064 176.95 90.0827 176.934 90.1068C176.918 90.1309 176.91 90.1592 176.91 90.1882C176.919 91.7086 176.903 93.5417 176.862 95.6875C176.857 96.1436 176.616 96.6026 176.14 97.0644C172.772 100.355 169.829 103.294 167.309 105.881C167.273 105.918 167.231 105.948 167.184 105.968C167.137 105.989 167.086 106 167.035 106C166.984 106 166.933 105.99 166.885 105.971C166.838 105.951 166.795 105.922 166.759 105.886C166.745 105.868 163.777 102.919 157.854 97.0386C157.321 96.5108 157.057 95.9758 157.063 95.4336C157.086 93.7325 157.092 92.0356 157.08 90.3431C157.08 90.311 157.069 90.2797 157.051 90.2533C157.033 90.2269 157.007 90.2064 156.977 90.1945C156.947 90.1825 156.914 90.1796 156.882 90.1862C156.851 90.1927 156.822 90.2084 156.799 90.2312L153.075 93.9361C152.834 94.1732 152.509 94.3061 152.171 94.3062H138.877C138.809 94.3062 138.744 94.2799 138.696 94.2331C138.648 94.1863 138.621 94.1228 138.621 94.0566V80.9152C138.621 80.7651 138.651 80.6164 138.709 80.4776C138.767 80.3388 138.852 80.2126 138.959 80.1062L142.864 76.2206C142.89 76.1945 142.907 76.1614 142.914 76.1256C142.92 76.0898 142.916 76.0528 142.902 76.0192C142.888 75.9856 142.864 75.957 142.833 75.937C142.803 75.9169 142.767 75.9063 142.73 75.9065H137.315C137.022 75.9063 136.742 75.7918 136.537 75.5881L127.069 66.1645C127.048 66.1436 127.031 66.1186 127.019 66.0911C127.007 66.0636 127 66.034 127 66.004C127 65.974 127.005 65.9443 127.016 65.9164C127.028 65.8886 127.044 65.8632 127.065 65.8417C129.729 63.1509 132.886 59.9939 136.537 56.3708C136.939 55.9749 137.821 56.0997 138.379 56.0997C140.049 56.0997 141.535 56.0868 142.838 56.061ZM160.108 41.0348C160.099 43.1003 160.099 44.3496 160.108 44.7828C160.112 44.9767 160.189 45.1613 160.324 45.2991C162.697 47.6945 164.864 49.8632 166.824 51.8053C166.837 51.8182 166.919 51.8354 166.932 51.8354C166.941 51.8354 167.023 51.8182 167.036 51.8053C169.014 49.8775 171.198 47.7246 173.588 45.3465C173.725 45.2093 173.804 45.0246 173.809 44.8301C173.818 44.3998 173.826 43.1519 173.835 41.0865C173.844 39.0182 173.845 37.7688 173.839 37.3385C173.835 37.1425 173.756 36.9561 173.619 36.8179C171.246 34.4225 169.079 32.2538 167.118 30.3117C167.105 30.2988 167.023 30.2859 167.01 30.2859C167.002 30.2859 166.919 30.2988 166.906 30.3117C164.929 32.2395 162.744 34.3924 160.354 36.7705C160.218 36.9077 160.139 37.0924 160.134 37.2869C160.125 37.7172 160.116 38.9665 160.108 41.0348ZM154.169 43.5865C152.711 42.135 151.827 41.2615 151.518 40.966C151.378 40.8322 151.193 40.7568 150.999 40.7551C147.643 40.7437 144.593 40.7465 141.848 40.7637C141.83 40.7637 141.761 40.8111 141.753 40.8197C141.744 40.8283 141.701 40.8928 141.701 40.91C141.683 43.6439 141.681 46.679 141.692 50.0152C141.694 50.2076 141.77 50.3923 141.904 50.5316C142.201 50.8414 143.079 51.7207 144.538 53.1693C145.997 54.618 146.881 55.4915 147.189 55.7899C147.329 55.9236 147.515 55.9991 147.708 56.0007C151.061 56.0122 154.112 56.0093 156.86 55.9921C156.877 55.9921 156.946 55.9448 156.955 55.9362C156.963 55.9276 157.007 55.8587 157.007 55.8415C157.024 53.1105 157.027 50.0755 157.015 46.7363C157.014 46.544 156.938 46.3593 156.803 46.22C156.504 45.913 155.626 45.0352 154.169 43.5865ZM179.734 43.6253C178.281 45.0768 177.405 45.9575 177.105 46.2673C176.972 46.4073 176.898 46.5919 176.897 46.7837C176.891 50.1199 176.9 53.155 176.923 55.8889C176.923 55.9061 176.971 55.9749 176.979 55.9835C176.984 55.9878 177.053 56.0352 177.07 56.0352C179.818 56.0466 182.868 56.0423 186.222 56.0222C186.414 56.0217 186.6 55.9479 186.741 55.8157C187.049 55.5174 187.931 54.641 189.387 53.1866C190.841 51.735 191.716 50.8543 192.013 50.5445C192.147 50.4052 192.223 50.2205 192.225 50.0281C192.23 46.6919 192.222 43.6568 192.199 40.923C192.199 40.9057 192.151 40.8369 192.142 40.8283C192.134 40.824 192.069 40.7767 192.052 40.7767C189.304 40.7652 186.253 40.7695 182.9 40.7896C182.707 40.7901 182.522 40.8639 182.381 40.9961C182.073 41.2945 181.19 42.1708 179.734 43.6253ZM164.709 54.2193C164.723 54.2064 164.733 54.1911 164.741 54.1741C164.748 54.1571 164.752 54.1388 164.752 54.1203C164.752 54.1018 164.748 54.0836 164.741 54.0666C164.733 54.0496 164.723 54.0342 164.709 54.0213L160.346 49.6796C160.326 49.66 160.302 49.6464 160.275 49.6407C160.248 49.635 160.22 49.6373 160.195 49.6475C160.169 49.6576 160.147 49.6751 160.132 49.6977C160.116 49.7203 160.108 49.7469 160.108 49.7743V55.9233C160.108 55.9598 160.122 55.9948 160.148 56.0206C160.174 56.0465 160.209 56.061 160.246 56.061H162.806C162.842 56.0607 162.876 56.0468 162.902 56.0222L164.709 54.2193ZM171.136 55.9835C171.595 56.1729 172.987 56.0696 173.563 56.0309C173.623 56.0265 173.68 55.9994 173.721 55.9548C173.763 55.9101 173.787 55.8513 173.787 55.7899L173.792 49.6409C173.791 49.636 173.788 49.6314 173.784 49.6276C173.781 49.6238 173.776 49.6209 173.77 49.6194C173.767 49.6165 173.763 49.6136 173.757 49.6108C173.757 49.6108 173.754 49.6108 173.749 49.6108C173.744 49.6081 173.738 49.6067 173.733 49.6067C173.727 49.6067 173.722 49.6081 173.718 49.6108L169.389 53.9998C169.347 54.0442 169.323 54.1023 169.321 54.1628C169.319 54.2233 169.341 54.2818 169.38 54.3269C169.765 54.7572 170.682 55.8028 171.136 55.9835ZM164.108 59.1376C164.051 59.1606 163.999 59.1735 163.953 59.1764C163.062 59.1907 161.833 59.2093 160.268 59.2323C160.242 59.2323 160.216 59.2538 160.194 59.2753C160.173 59.2968 160.151 59.3227 160.151 59.3528C160.128 60.9076 160.108 62.1297 160.09 63.019C160.09 63.0649 160.079 63.1165 160.056 63.1739C160.03 63.2284 160.001 63.2728 159.969 63.3073C159.349 63.947 158.494 64.8248 157.405 65.9407C157.387 65.9622 157.383 65.9923 157.383 66.0225C157.383 66.0569 157.387 66.087 157.405 66.1085C158.494 67.2244 159.349 68.1023 159.969 68.742C160.001 68.7764 160.028 68.8209 160.051 68.8754C160.077 68.9327 160.09 68.9844 160.09 69.0303C160.105 69.9196 160.125 71.1416 160.151 72.6964C160.151 72.7266 160.168 72.7524 160.19 72.7739C160.216 72.7954 160.237 72.8169 160.268 72.8169C161.833 72.8399 163.062 72.86 163.953 72.8772C163.999 72.8772 164.051 72.8886 164.108 72.9116C164.166 72.9345 164.211 72.9632 164.242 72.9977C164.885 73.6116 165.768 74.4607 166.889 75.545C166.911 75.5666 166.945 75.5709 166.976 75.5709C167.006 75.5709 167.036 75.5666 167.058 75.545C168.182 74.4607 169.065 73.6116 169.705 72.9977C169.739 72.9632 169.785 72.9345 169.843 72.9116C169.901 72.8886 169.953 72.8772 169.999 72.8772C170.89 72.86 172.118 72.8399 173.684 72.8169C173.714 72.8169 173.736 72.7954 173.757 72.7739C173.783 72.7524 173.8 72.7266 173.8 72.7007C173.826 71.1431 173.847 69.921 173.861 69.0346C173.861 68.9887 173.874 68.937 173.9 68.8797C173.923 68.8223 173.95 68.7764 173.982 68.742C174.602 68.1051 175.457 67.2273 176.547 66.1085C176.568 66.087 176.568 66.0569 176.568 66.0268C176.568 65.9923 176.568 65.9622 176.547 65.9407C175.457 64.8248 174.602 63.947 173.982 63.3073C173.95 63.2757 173.923 63.2312 173.9 63.1739C173.874 63.1165 173.861 63.0649 173.861 63.019C173.847 62.1325 173.828 60.9105 173.805 59.3528C173.805 59.3227 173.783 59.3012 173.761 59.2753C173.736 59.2538 173.714 59.2323 173.684 59.2323C172.118 59.2093 170.89 59.1907 169.999 59.1764C169.953 59.1735 169.901 59.1606 169.843 59.1376C169.785 59.1147 169.741 59.0874 169.709 59.0559C169.066 58.4391 168.184 57.5885 167.062 56.5042C167.041 56.4827 167.01 56.4827 166.976 56.4827C166.945 56.4827 166.915 56.4827 166.893 56.5042C165.769 57.5885 164.887 58.4391 164.247 59.0559C164.212 59.0874 164.166 59.1147 164.108 59.1376ZM157.072 61.9819C157.102 61.9524 157.119 61.9121 157.119 61.8701V59.2839C157.119 59.263 157.115 59.2423 157.107 59.223C157.099 59.2037 157.087 59.1861 157.072 59.1714C157.057 59.1566 157.04 59.1448 157.02 59.1368C157.001 59.1288 156.98 59.1247 156.959 59.1247H150.9C150.868 59.125 150.838 59.1345 150.812 59.152C150.786 59.1695 150.765 59.1943 150.753 59.2232C150.741 59.2521 150.738 59.2839 150.744 59.3146C150.75 59.3453 150.765 59.3736 150.787 59.3958L155.117 63.7031C155.147 63.7326 155.187 63.7491 155.229 63.7491C155.271 63.7491 155.312 63.7326 155.342 63.7031L157.072 61.9819ZM178.64 63.6945C178.668 63.7219 178.705 63.7372 178.744 63.7372C178.783 63.7372 178.82 63.7219 178.848 63.6945L183.198 59.3614C183.219 59.3409 183.233 59.3149 183.239 59.2866C183.244 59.2582 183.241 59.2289 183.23 59.2022C183.219 59.1755 183.2 59.1527 183.176 59.1366C183.152 59.1205 183.124 59.1119 183.095 59.1118H177.105C177.066 59.1118 177.028 59.1272 177.001 59.1547C176.973 59.1821 176.958 59.2193 176.958 59.2581V61.9604C176.958 61.9992 176.973 62.0363 177.001 62.0637L178.64 63.6945ZM142.151 59.1634C140.072 59.1606 138.816 59.162 138.383 59.1678C138.188 59.1728 138.002 59.2513 137.864 59.3872C135.46 61.7567 133.281 63.9197 131.329 65.8762C131.321 65.8891 131.304 65.9708 131.304 65.9794C131.304 65.9923 131.317 66.0741 131.329 66.087C133.273 68.0492 135.444 70.2179 137.843 72.5932C137.981 72.729 138.166 72.8075 138.362 72.8126C138.794 72.8212 140.05 72.8284 142.129 72.8341C144.211 72.837 145.468 72.8341 145.9 72.8255C146.096 72.8204 146.281 72.742 146.419 72.6061C148.824 70.2394 151.001 68.0764 152.95 66.1171C152.963 66.1085 152.98 66.0268 152.98 66.0139C152.98 66.0009 152.963 65.9235 152.95 65.9106C151.007 63.9455 148.837 61.7754 146.441 59.4001C146.303 59.2642 146.117 59.1858 145.922 59.1807C145.489 59.1721 144.232 59.1663 142.151 59.1634ZM191.866 59.1376C189.784 59.129 188.525 59.1276 188.09 59.1333C187.893 59.1374 187.706 59.2159 187.567 59.3528C185.15 61.7194 182.963 63.881 181.006 65.8374C180.993 65.8503 180.975 65.9321 180.975 65.945C180.975 65.9536 180.993 66.0354 181.006 66.0483C182.949 68.0219 185.119 70.2021 187.515 72.5889C187.653 72.7247 187.839 72.8032 188.034 72.8083C188.469 72.8198 189.729 72.8284 191.814 72.8341C193.898 72.8427 195.157 72.8442 195.589 72.8384C195.785 72.8355 195.973 72.7586 196.113 72.6233C198.529 70.2538 200.716 68.0908 202.674 66.1343C202.687 66.1214 202.704 66.0397 202.704 66.0311C202.704 66.0182 202.687 65.9364 202.674 65.9235C200.733 63.9498 198.564 61.7696 196.165 59.3829C196.026 59.2471 195.841 59.1686 195.646 59.1634C195.21 59.1548 193.95 59.1462 191.866 59.1376ZM183.177 72.8987C183.205 72.8981 183.232 72.8895 183.255 72.8739C183.278 72.8582 183.295 72.8363 183.306 72.8107C183.317 72.7851 183.319 72.7569 183.314 72.7298C183.309 72.7026 183.296 72.6776 183.276 72.6577L179.055 68.359C179.026 68.3299 178.992 68.3068 178.954 68.2912C178.916 68.2756 178.875 68.2678 178.834 68.2682C178.793 68.2686 178.752 68.2772 178.714 68.2936C178.676 68.3099 178.642 68.3336 178.614 68.3633L177.096 69.9124C176.987 70.0241 176.926 70.174 176.927 70.3298L176.923 72.6061C176.923 72.6757 176.951 72.7425 177 72.7917C177.05 72.8409 177.117 72.8686 177.187 72.8686L183.177 72.8987ZM150.844 72.86L156.764 72.8729C156.834 72.8729 156.902 72.8452 156.951 72.796C157 72.7468 157.028 72.68 157.028 72.6104L157.037 70.3642C157.04 70.2106 156.982 70.0624 156.877 69.9511L155.385 68.4063C155.357 68.3768 155.323 68.3531 155.286 68.3368C155.248 68.3206 155.208 68.312 155.167 68.3116C155.127 68.3112 155.086 68.319 155.048 68.3345C155.011 68.3501 154.977 68.373 154.948 68.402L150.744 72.619C150.725 72.6388 150.712 72.6639 150.706 72.691C150.701 72.7182 150.704 72.7463 150.714 72.7719C150.725 72.7975 150.743 72.8195 150.766 72.8351C150.789 72.8508 150.816 72.8594 150.844 72.86ZM154.226 88.4068C155.688 86.9466 156.568 86.0631 156.868 85.7561C157.002 85.6148 157.076 85.4286 157.076 85.2354C157.082 81.8848 157.073 78.8383 157.05 76.0958C157.05 76.0786 157.007 76.0098 156.998 76.0012C156.989 75.9926 156.92 75.9495 156.903 75.9495C154.146 75.9381 151.084 75.9409 147.717 75.9581C147.522 75.9591 147.335 76.0346 147.193 76.169C146.885 76.4673 146 77.3466 144.538 78.8067C143.079 80.264 142.2 81.1476 141.9 81.4574C141.766 81.5987 141.692 81.7849 141.692 81.9781C141.686 85.3287 141.695 88.3752 141.718 91.1177C141.718 91.1349 141.761 91.2037 141.77 91.2123C141.779 91.2209 141.848 91.264 141.865 91.264C144.621 91.2754 147.684 91.2726 151.051 91.2554C151.244 91.2533 151.43 91.1779 151.57 91.0445C151.882 90.7433 152.767 89.8641 154.226 88.4068ZM160.358 82.3309L164.653 78.0795C164.678 78.0547 164.698 78.0252 164.712 77.9927C164.725 77.9602 164.732 77.9254 164.732 77.8902C164.732 77.855 164.725 77.8201 164.712 77.7876C164.698 77.7551 164.678 77.7257 164.653 77.7009L163.027 76.0657C162.917 75.9539 162.768 75.8891 162.612 75.885L160.41 75.8376C160.369 75.8365 160.327 75.8437 160.289 75.8587C160.25 75.8738 160.214 75.8964 160.185 75.9253C160.155 75.9542 160.131 75.9887 160.115 76.0269C160.099 76.065 160.09 76.106 160.09 76.1475L160.112 82.2276C160.111 82.2566 160.118 82.2852 160.134 82.3096C160.15 82.3341 160.172 82.3532 160.199 82.3644C160.226 82.3757 160.256 82.3785 160.284 82.3725C160.313 82.3665 160.339 82.352 160.358 82.3309ZM171.097 75.9926C170.63 76.1862 169.705 77.2533 169.32 77.6879C169.279 77.7342 169.258 77.7939 169.259 77.8553C169.261 77.9166 169.286 77.9751 169.328 78.0193L173.736 82.4471C173.739 82.4514 173.745 82.4542 173.751 82.455C173.757 82.4558 173.764 82.4545 173.77 82.4514C173.776 82.4485 173.78 82.4456 173.783 82.4428C173.783 82.4456 173.786 82.4456 173.792 82.4428C173.798 82.4409 173.803 82.4373 173.807 82.4327C173.811 82.428 173.813 82.4225 173.813 82.417L173.779 76.1862C173.779 76.1233 173.755 76.0628 173.711 76.0172C173.668 75.9715 173.608 75.9442 173.545 75.9409C172.966 75.9065 171.551 75.8075 171.097 75.9926ZM179.704 88.3594C181.154 89.8196 182.034 90.6988 182.342 90.9972C182.483 91.1309 182.668 91.2063 182.861 91.208C186.22 91.2396 189.275 91.2539 192.026 91.2511C192.043 91.2511 192.112 91.208 192.121 91.1994C192.129 91.1908 192.173 91.1263 192.173 91.1048C192.207 88.3709 192.228 85.333 192.233 81.991C192.234 81.7981 192.16 81.6118 192.026 81.4703C191.729 81.1605 190.854 80.2755 189.4 78.8153C187.95 77.3552 187.071 76.4759 186.762 76.1776C186.622 76.0423 186.437 75.9653 186.243 75.9624C182.884 75.9337 179.829 75.9194 177.079 75.9194C177.061 75.9194 176.992 75.9667 176.988 75.971C176.979 75.9796 176.932 76.0485 176.932 76.0657C176.9 78.8024 176.88 81.8418 176.871 85.1838C176.872 85.3751 176.946 85.5597 177.079 85.7002C177.376 86.0128 178.251 86.8993 179.704 88.3594ZM160.155 90.924C160.152 92.9866 160.154 94.2316 160.16 94.659C160.164 94.8532 160.243 95.038 160.38 95.1754C162.75 97.5593 164.916 99.718 166.876 101.651C166.889 101.66 166.971 101.677 166.984 101.677C166.993 101.677 167.075 101.66 167.088 101.651C169.054 99.7237 171.227 97.5722 173.606 95.1969C173.741 95.0588 173.818 94.8742 173.822 94.6806C173.831 94.2503 173.836 93.0053 173.839 90.9455C173.842 88.883 173.841 87.6365 173.835 87.2062C173.829 87.0135 173.75 86.8305 173.614 86.6942C171.244 84.3103 169.079 82.1516 167.118 80.2181C167.105 80.2052 167.023 80.1923 167.015 80.1923C167.002 80.1923 166.919 80.2052 166.906 80.2181C164.94 82.1459 162.769 84.2974 160.393 86.6726C160.256 86.8101 160.177 86.9948 160.173 87.189C160.164 87.6193 160.158 88.8643 160.155 90.924Z" fill="#D9D9D9"/>
</g>
<defs>
<filter id="filter0_f_32_3641" x="270.28" y="79.3105" width="22.0156" height="21.0621" filterUnits="userSpaceOnUse" color-interpolation-filters="sRGB">
<feFlood flood-opacity="0" result="BackgroundImageFix"/>
<feBlend mode="normal" in="SourceGraphic" in2="BackgroundImageFix" result="shape"/>
<feGaussianBlur stdDeviation="0.7" result="effect1_foregroundBlur_32_3641"/>
</filter>
<filter id="filter1_f_32_3641" x="270.251" y="79.3411" width="21.4184" height="23.1373" filterUnits="userSpaceOnUse" color-interpolation-filters="sRGB">
<feFlood flood-opacity="0" result="BackgroundImageFix"/>
<feBlend mode="normal" in="SourceGraphic" in2="BackgroundImageFix" result="shape"/>
<feGaussianBlur stdDeviation="3.9" result="effect1_foregroundBlur_32_3641"/>
</filter>
<filter id="filter2_f_32_3641" x="275.951" y="85.0411" width="10.0184" height="11.7373" filterUnits="userSpaceOnUse" color-interpolation-filters="sRGB">
<feFlood flood-opacity="0" result="BackgroundImageFix"/>
<feBlend mode="normal" in="SourceGraphic" in2="BackgroundImageFix" result="shape"/>
<feGaussianBlur stdDeviation="1.05" result="effect1_foregroundBlur_32_3641"/>
</filter>
<filter id="filter3_f_32_3641" x="297.932" y="61.637" width="17.7667" height="15.1833" filterUnits="userSpaceOnUse" color-interpolation-filters="sRGB">
<feFlood flood-opacity="0" result="BackgroundImageFix"/>
<feBlend mode="normal" in="SourceGraphic" in2="BackgroundImageFix" result="shape"/>
<feGaussianBlur stdDeviation="0.7" result="effect1_foregroundBlur_32_3641"/>
</filter>
<filter id="filter4_f_32_3641" x="300.111" y="63.0152" width="13.2654" height="13.2654" filterUnits="userSpaceOnUse" color-interpolation-filters="sRGB">
<feFlood flood-opacity="0" result="BackgroundImageFix"/>
<feBlend mode="normal" in="SourceGraphic" in2="BackgroundImageFix" result="shape"/>
<feGaussianBlur stdDeviation="2.1" result="effect1_foregroundBlur_32_3641"/>
</filter>
<filter id="filter5_f_32_3641" x="300.111" y="63.0152" width="13.2654" height="13.2654" filterUnits="userSpaceOnUse" color-interpolation-filters="sRGB">
<feFlood flood-opacity="0" result="BackgroundImageFix"/>
<feBlend mode="normal" in="SourceGraphic" in2="BackgroundImageFix" result="shape"/>
<feGaussianBlur stdDeviation="1.9" result="effect1_foregroundBlur_32_3641"/>
</filter>
<filter id="filter6_f_32_3641" x="3.97793" y="75.6297" width="20.6923" height="17.027" filterUnits="userSpaceOnUse" color-interpolation-filters="sRGB">
<feFlood flood-opacity="0" result="BackgroundImageFix"/>
<feBlend mode="normal" in="SourceGraphic" in2="BackgroundImageFix" result="shape"/>
<feGaussianBlur stdDeviation="0.7" result="effect1_foregroundBlur_32_3641"/>
</filter>
<filter id="filter7_f_32_3641" x="5.9859" y="76.599" width="16.3085" height="16.3085" filterUnits="userSpaceOnUse" color-interpolation-filters="sRGB">
<feFlood flood-opacity="0" result="BackgroundImageFix"/>
<feBlend mode="normal" in="SourceGraphic" in2="BackgroundImageFix" result="shape"/>
<feGaussianBlur stdDeviation="3" result="effect1_foregroundBlur_32_3641"/>
</filter>
<filter id="filter8_f_32_3641" x="9.4859" y="80.099" width="9.30847" height="9.30847" filterUnits="userSpaceOnUse" color-interpolation-filters="sRGB">
<feFlood flood-opacity="0" result="BackgroundImageFix"/>
<feBlend mode="normal" in="SourceGraphic" in2="BackgroundImageFix" result="shape"/>
<feGaussianBlur stdDeviation="1" result="effect1_foregroundBlur_32_3641"/>
</filter>
<filter id="filter9_f_32_3641" x="36.2362" y="102.834" width="33.5732" height="30.5609" filterUnits="userSpaceOnUse" color-interpolation-filters="sRGB">
<feFlood flood-opacity="0" result="BackgroundImageFix"/>
<feBlend mode="normal" in="SourceGraphic" in2="BackgroundImageFix" result="shape"/>
<feGaussianBlur stdDeviation="0.7" result="effect1_foregroundBlur_32_3641"/>
</filter>
<filter id="filter10_f_32_3641" x="37.9992" y="103.755" width="29.7176" height="30.5526" filterUnits="userSpaceOnUse" color-interpolation-filters="sRGB">
<feFlood flood-opacity="0" result="BackgroundImageFix"/>
<feBlend mode="normal" in="SourceGraphic" in2="BackgroundImageFix" result="shape"/>
<feGaussianBlur stdDeviation="4.15" result="effect1_foregroundBlur_32_3641"/>
</filter>
<filter id="filter11_f_32_3641" x="39.6992" y="105.455" width="26.3176" height="27.1526" filterUnits="userSpaceOnUse" color-interpolation-filters="sRGB">
<feFlood flood-opacity="0" result="BackgroundImageFix"/>
<feBlend mode="normal" in="SourceGraphic" in2="BackgroundImageFix" result="shape"/>
<feGaussianBlur stdDeviation="2.25" result="effect1_foregroundBlur_32_3641"/>
</filter>
<filter id="filter12_d_32_3641" x="123" y="26" width="88" height="88" filterUnits="userSpaceOnUse" color-interpolation-filters="sRGB">
<feFlood flood-opacity="0" result="BackgroundImageFix"/>
<feColorMatrix in="SourceAlpha" type="matrix" values="0 0 0 0 0 0 0 0 0 0 0 0 0 0 0 0 0 0 127 0" result="hardAlpha"/>
<feOffset dy="4"/>
<feGaussianBlur stdDeviation="2"/>
<feComposite in2="hardAlpha" operator="out"/>
<feColorMatrix type="matrix" values="0 0 0 0 0 0 0 0 0 0 0 0 0 0 0 0 0 0 0.25 0"/>
<feBlend mode="normal" in2="BackgroundImageFix" result="effect1_dropShadow_32_3641"/>
<feBlend mode="normal" in="SourceGraphic" in2="effect1_dropShadow_32_3641" result="shape"/>
</filter>
<linearGradient id="paint0_linear_32_3641" x1="7.05451" y1="78.4685" x2="19.0126" y2="69.4363" gradientUnits="userSpaceOnUse">
<stop stop-color="#D3D3D3"/>
<stop offset="0.125" stop-color="#D8D8D8"/>
<stop offset="0.25" stop-color="#D3D3D3"/>
<stop offset="0.375" stop-color="#D3D3D3"/>
<stop offset="0.5" stop-color="#D3D3D3"/>
<stop offset="0.625" stop-color="#D3D3D3"/>
<stop offset="0.75" stop-color="#D3D3D3"/>
<stop offset="0.875" stop-color="#D3D3D3"/>
<stop offset="1" stop-color="#D3D3D3"/>
</linearGradient>
<linearGradient id="paint1_linear_32_3641" x1="6.8324" y1="73.3851" x2="20.09" y2="63.3714" gradientUnits="userSpaceOnUse">
<stop stop-color="#D1D1D1"/>
<stop offset="0.125" stop-color="#CFCFCF"/>
<stop offset="0.25" stop-color="#D4D4D4"/>
<stop offset="0.375" stop-color="#CDCDCD"/>
<stop offset="0.5" stop-color="#D8D7D5"/>
<stop offset="0.625" stop-color="#CCCCCC"/>
<stop offset="0.75" stop-color="#CECECE"/>
<stop offset="0.875" stop-color="#D2D2D2"/>
<stop offset="1" stop-color="#D5AA5A"/>
</linearGradient>
<linearGradient id="paint2_linear_32_3641" x1="5.23251" y1="101.371" x2="18.4901" y2="91.3574" gradientUnits="userSpaceOnUse">
<stop stop-color="#C4C4C4"/>
<stop offset="0.125" stop-color="#B9B9B9"/>
<stop offset="0.25" stop-color="#BABABA"/>
<stop offset="0.375" stop-color="#B9B9B9"/>
<stop offset="0.5" stop-color="#B8B8B8"/>
<stop offset="0.625" stop-color="#B8B8B8"/>
<stop offset="0.75" stop-color="#BABABA"/>
<stop offset="0.875" stop-color="#C1C1C1"/>
<stop offset="1" stop-color="#BFBFBF"/>
</linearGradient>
<linearGradient id="paint3_linear_32_3641" x1="2.05252" y1="89.01" x2="21.9466" y2="73.9836" gradientUnits="userSpaceOnUse">
<stop stop-color="#C4C4C4"/>
<stop offset="0.0625" stop-color="#CBCBCB"/>
<stop offset="0.125" stop-color="#C8C8C8"/>
<stop offset="0.1875" stop-color="#CDCDCD"/>
<stop offset="0.25" stop-color="#C8C8C8"/>
<stop offset="0.3125" stop-color="#C6C6C6"/>
<stop offset="0.375" stop-color="#CCCCCC"/>
<stop offset="0.5" stop-color="#CCCCCC"/>
<stop offset="0.625" stop-color="#CDCDCD"/>
<stop offset="0.75" stop-color="#E5E5E5"/>
<stop offset="0.875" stop-color="#DEDEDE"/>
<stop offset="1" stop-color="#D8D8D8"/>
</linearGradient>
</defs>
</svg>
