<svg width="480" height="161" viewBox="0 0 480 161" fill="none" xmlns="http://www.w3.org/2000/svg">
<mask id="mask0_32_3641" style="mask-type:luminance" maskUnits="userSpaceOnUse" x="443" y="77" width="19" height="3">
<path d="M443.964 77.9794H461.795V79.4598H443.964V77.9794Z" fill="white"/>
</mask>
<g mask="url(#mask0_32_3641)">
<mask id="mask1_32_3641" style="mask-type:luminance" maskUnits="userSpaceOnUse" x="444" y="78" width="18" height="2">
<path d="M461.769 78.0912C461.031 79.0338 459.677 79.384 459.677 79.384H446.168C446.168 79.384 444.819 79.0338 444.077 78.0912H461.769Z" fill="white"/>
</mask>
<g mask="url(#mask1_32_3641)">
<mask id="mask2_32_3641" style="mask-type:luminance" maskUnits="userSpaceOnUse" x="444" y="78" width="18" height="2">
<path d="M461.769 78.0912C461.031 79.0338 459.677 79.384 459.677 79.384H446.168C446.168 79.384 444.819 79.0338 444.077 78.0912H461.769Z" fill="white"/>
</mask>
<g mask="url(#mask2_32_3641)">
<path d="M443.272 78.397L448.262 84.5164L462.573 79.0781L457.583 72.9587L443.272 78.397Z" fill="#C6C6C6"/>
</g>
</g>
</g>
<mask id="mask3_32_3641" style="mask-type:luminance" maskUnits="userSpaceOnUse" x="443" y="61" width="19" height="3">
<path d="M443.964 61.5309H461.795V63.0112H443.964V61.5309Z" fill="white"/>
</mask>
<g mask="url(#mask3_32_3641)">
<mask id="mask4_32_3641" style="mask-type:luminance" maskUnits="userSpaceOnUse" x="444" y="61" width="18" height="2">
<path d="M461.769 62.9059H444.077C444.819 61.9652 446.168 61.6112 446.168 61.6112H459.677C459.677 61.6112 461.031 61.9652 461.769 62.9059Z" fill="white"/>
</mask>
<g mask="url(#mask4_32_3641)">
<mask id="mask5_32_3641" style="mask-type:luminance" maskUnits="userSpaceOnUse" x="444" y="61" width="18" height="2">
<path d="M461.769 62.9059H444.077C444.819 61.9652 446.168 61.6112 446.168 61.6112H459.677C459.677 61.6112 461.031 61.9652 461.769 62.9059Z" fill="white"/>
</mask>
<g mask="url(#mask5_32_3641)">
<path d="M443.271 61.9177L448.263 68.0384L462.575 62.6001L457.583 56.4794L443.271 61.9177Z" fill="#C6C6C6"/>
</g>
</g>
</g>
<mask id="mask6_32_3641" style="mask-type:luminance" maskUnits="userSpaceOnUse" x="446" y="51" width="14" height="11">
<path d="M446.132 51.9907H459.867V61.2019H446.132V51.9907Z" fill="white"/>
</mask>
<g mask="url(#mask6_32_3641)">
<mask id="mask7_32_3641" style="mask-type:luminance" maskUnits="userSpaceOnUse" x="446" y="52" width="14" height="10">
<path d="M456.928 59.1278C455.332 58.4994 454.098 57.3513 454.098 57.3513C454.098 57.3513 454.016 57.3365 454.087 57.1668C454.157 56.9979 454.768 56.9696 454.744 56.4781C454.72 55.9878 453.559 55.6524 453.559 55.6524C453.559 55.6524 453.556 55.5239 453.549 55.3196C453.872 55.2078 454.087 55.0138 454.087 54.7934C454.087 54.5633 453.855 54.3642 453.513 54.2556C453.479 53.4614 453.431 52.5979 453.371 52.4661C453.253 52.213 452.923 52.1205 452.923 52.1205C452.923 52.1205 452.595 52.213 452.476 52.4661C452.414 52.5979 452.366 53.4614 452.334 54.2556C451.993 54.3642 451.761 54.5633 451.761 54.7934C451.761 55.0157 451.976 55.2097 452.299 55.3196C452.294 55.5239 452.291 55.6524 452.291 55.6524C452.291 55.6524 451.125 55.9878 451.103 56.4781C451.077 56.9696 451.689 56.9979 451.761 57.1668C451.831 57.3365 451.749 57.3513 451.749 57.3513C451.749 57.3513 450.513 58.4994 448.918 59.1278C447.32 59.7543 446.332 60.2612 446.168 61.0406H459.677C459.513 60.2612 458.528 59.7543 456.928 59.1278Z" fill="white"/>
</mask>
<g mask="url(#mask7_32_3641)">
<mask id="mask8_32_3641" style="mask-type:luminance" maskUnits="userSpaceOnUse" x="446" y="52" width="14" height="10">
<path d="M456.928 59.1278C455.332 58.4994 454.098 57.3513 454.098 57.3513C454.098 57.3513 454.016 57.3365 454.087 57.1668C454.157 56.9979 454.768 56.9696 454.744 56.4781C454.72 55.9878 453.559 55.6524 453.559 55.6524C453.559 55.6524 453.556 55.5239 453.549 55.3196C453.872 55.2078 454.087 55.0138 454.087 54.7934C454.087 54.5633 453.855 54.3642 453.513 54.2556C453.479 53.4614 453.431 52.5979 453.371 52.4661C453.253 52.213 452.923 52.1205 452.923 52.1205C452.923 52.1205 452.595 52.213 452.476 52.4661C452.414 52.5979 452.366 53.4614 452.334 54.2556C451.993 54.3642 451.761 54.5633 451.761 54.7934C451.761 55.0157 451.976 55.2097 452.299 55.3196C452.294 55.5239 452.291 55.6524 452.291 55.6524C452.291 55.6524 451.125 55.9878 451.103 56.4781C451.077 56.9696 451.689 56.9979 451.761 57.1668C451.831 57.3365 451.749 57.3513 451.749 57.3513C451.749 57.3513 450.513 58.4994 448.918 59.1278C447.32 59.7543 446.332 60.2612 446.168 61.0406H459.677C459.513 60.2612 458.528 59.7543 456.928 59.1278Z" fill="white"/>
</mask>
<g mask="url(#mask8_32_3641)">
<path d="M440.615 54.2311L449.365 64.9593L465.231 58.9305L456.482 48.2017L440.615 54.2311Z" fill="#D0D0D0"/>
</g>
</g>
</g>
<mask id="mask9_32_3641" style="mask-type:luminance" maskUnits="userSpaceOnUse" x="446" y="79" width="14" height="10">
<path d="M446.132 79.9533H459.867V89H446.132V79.9533Z" fill="white"/>
</mask>
<g mask="url(#mask9_32_3641)">
<mask id="mask10_32_3641" style="mask-type:luminance" maskUnits="userSpaceOnUse" x="446" y="79" width="14" height="10">
<path d="M446.168 79.9555C446.332 80.7368 447.32 81.2412 448.918 81.8696C450.513 82.4999 451.749 83.6481 451.749 83.6481C451.749 83.6481 451.831 83.6628 451.761 83.8305C451.689 83.9982 451.077 84.0297 451.103 84.52C451.125 85.0096 452.291 85.3469 452.291 85.3469C452.291 85.3469 452.294 85.469 452.299 85.6611C451.976 85.7729 451.761 85.9656 451.761 86.1873C451.761 86.418 451.993 86.6172 452.334 86.7257C452.366 87.525 452.414 88.4002 452.476 88.5312C452.595 88.7831 452.923 88.875 452.923 88.875C452.923 88.875 453.253 88.7831 453.371 88.5312C453.431 88.4002 453.479 87.525 453.513 86.7257C453.855 86.6172 454.087 86.418 454.087 86.1873C454.087 85.9669 453.872 85.7729 453.549 85.6611C453.556 85.469 453.559 85.3469 453.559 85.3469C453.559 85.3469 454.72 85.0096 454.744 84.52C454.768 84.0297 454.157 83.9982 454.087 83.8305C454.016 83.6628 454.098 83.6481 454.098 83.6481C454.098 83.6481 455.332 82.4999 456.928 81.8696C458.528 81.2412 459.513 80.7368 459.677 79.9555H446.168Z" fill="white"/>
</mask>
<g mask="url(#mask10_32_3641)">
<mask id="mask11_32_3641" style="mask-type:luminance" maskUnits="userSpaceOnUse" x="446" y="79" width="14" height="10">
<path d="M446.168 79.9555C446.332 80.7368 447.32 81.2412 448.918 81.8696C450.513 82.4999 451.749 83.6481 451.749 83.6481C451.749 83.6481 451.831 83.6628 451.761 83.8305C451.689 83.9982 451.077 84.0297 451.103 84.52C451.125 85.0096 452.291 85.3469 452.291 85.3469C452.291 85.3469 452.294 85.469 452.299 85.6611C451.976 85.7729 451.761 85.9656 451.761 86.1873C451.761 86.418 451.993 86.6172 452.334 86.7257C452.366 87.525 452.414 88.4002 452.476 88.5312C452.595 88.7831 452.923 88.875 452.923 88.875C452.923 88.875 453.253 88.7831 453.371 88.5312C453.431 88.4002 453.479 87.525 453.513 86.7257C453.855 86.6172 454.087 86.418 454.087 86.1873C454.087 85.9669 453.872 85.7729 453.549 85.6611C453.556 85.469 453.559 85.3469 453.559 85.3469C453.559 85.3469 454.72 85.0096 454.744 84.52C454.768 84.0297 454.157 83.9982 454.087 83.8305C454.016 83.6628 454.098 83.6481 454.098 83.6481C454.098 83.6481 455.332 82.4999 456.928 81.8696C458.528 81.2412 459.513 80.7368 459.677 79.9555H446.168Z" fill="white"/>
</mask>
<g mask="url(#mask11_32_3641)">
<path d="M440.615 82.0653L449.365 92.7935L465.231 86.7647L456.482 76.0365L440.615 82.0653Z" fill="#C8C8C8"/>
</g>
</g>
</g>
<g filter="url(#filter0_f_32_3641)">
<mask id="mask12_32_3641" style="mask-type:luminance" maskUnits="userSpaceOnUse" x="444" y="64" width="18" height="13">
<path d="M444.399 64.0166H461.183V76.4289H444.399V64.0166Z" fill="white"/>
</mask>
<g mask="url(#mask12_32_3641)">
<mask id="mask13_32_3641" style="mask-type:luminance" maskUnits="userSpaceOnUse" x="444" y="64" width="18" height="13">
<path d="M459.229 74.8551C459.151 74.8321 459.069 74.8086 458.983 74.785C458.124 74.5523 457.343 74.1319 457.093 73.4177C457.031 73.2415 457.054 73.01 457.046 72.8257C457.042 72.7096 457.042 68.493 457.046 68.3772C457.054 68.1922 457.031 67.9612 457.093 67.7844C457.343 67.0707 458.124 66.6506 458.983 66.4179C459.069 66.3941 459.151 66.3706 459.229 66.3475V74.8551ZM456.303 73.0262C456.296 73.1751 456.317 73.3625 456.261 73.5057C456.034 74.0849 455.326 74.4262 454.548 74.6149C453.061 74.9761 452.797 75.4384 452.797 75.4384C452.797 75.4384 452.533 74.9761 451.045 74.6149C450.267 74.4262 449.559 74.0849 449.333 73.5057C449.276 73.3625 449.297 73.1751 449.29 73.0262C449.287 72.9387 449.287 68.2642 449.29 68.1767C449.297 68.0276 449.276 67.8402 449.333 67.6969C449.559 67.1177 450.267 66.7764 451.045 66.5878C452.533 66.2266 452.797 65.7643 452.797 65.7643C452.797 65.7643 453.061 66.2266 454.548 66.5878C455.326 66.7764 456.034 67.1177 456.261 67.6969C456.317 67.8402 456.296 68.0276 456.303 68.1767C456.307 68.2642 456.307 72.9387 456.303 73.0262ZM448.547 72.8257C448.54 73.01 448.562 73.2415 448.5 73.4177C448.25 74.1319 447.469 74.5523 446.611 74.785C446.524 74.8086 446.443 74.8321 446.364 74.8551V66.3475C446.443 66.3706 446.524 66.3941 446.611 66.4179C447.469 66.6506 448.25 67.0707 448.5 67.7844C448.562 67.9612 448.54 68.1922 448.547 68.3772C448.552 68.493 448.552 72.7096 448.547 72.8257ZM461.11 64.2202V64.037H444.481V64.2202L445.62 64.8687V75.5904L444.481 76.2384V76.4202H461.11V76.2384L459.973 75.5904V64.8687L461.11 64.2202Z" fill="white"/>
</mask>
<g mask="url(#mask13_32_3641)">
<mask id="mask14_32_3641" style="mask-type:luminance" maskUnits="userSpaceOnUse" x="444" y="64" width="18" height="13">
<path d="M459.229 74.8551C459.151 74.8321 459.069 74.8086 458.983 74.785C458.124 74.5523 457.343 74.1319 457.093 73.4177C457.031 73.2415 457.054 73.01 457.046 72.8257C457.042 72.7096 457.042 68.493 457.046 68.3772C457.054 68.1922 457.031 67.9612 457.093 67.7844C457.343 67.0707 458.124 66.6506 458.983 66.4179C459.069 66.3941 459.151 66.3706 459.229 66.3475V74.8551ZM456.303 73.0262C456.296 73.1751 456.317 73.3625 456.261 73.5057C456.034 74.0849 455.326 74.4262 454.548 74.6149C453.061 74.9761 452.797 75.4384 452.797 75.4384C452.797 75.4384 452.533 74.9761 451.045 74.6149C450.267 74.4262 449.559 74.0849 449.333 73.5057C449.276 73.3625 449.297 73.1751 449.29 73.0262C449.287 72.9387 449.287 68.2642 449.29 68.1767C449.297 68.0276 449.276 67.8402 449.333 67.6969C449.559 67.1177 450.267 66.7764 451.045 66.5878C452.533 66.2266 452.797 65.7643 452.797 65.7643C452.797 65.7643 453.061 66.2266 454.548 66.5878C455.326 66.7764 456.034 67.1177 456.261 67.6969C456.317 67.8402 456.296 68.0276 456.303 68.1767C456.307 68.2642 456.307 72.9387 456.303 73.0262ZM448.547 72.8257C448.54 73.01 448.562 73.2415 448.5 73.4177C448.25 74.1319 447.469 74.5523 446.611 74.785C446.524 74.8086 446.443 74.8321 446.364 74.8551V66.3475C446.443 66.3706 446.524 66.3941 446.611 66.4179C447.469 66.6506 448.25 67.0707 448.5 67.7844C448.562 67.9612 448.54 68.1922 448.547 68.3772C448.552 68.493 448.552 72.7096 448.547 72.8257ZM461.11 64.2202V64.037H444.481V64.2202L445.62 64.8687V75.5904L444.481 76.2384V76.4202H461.11V76.2384L459.973 75.5904V64.8687L461.11 64.2202Z" fill="white"/>
</mask>
<g mask="url(#mask14_32_3641)">
<path d="M437.256 66.9667L448.414 81.5682L468.335 73.4907L457.176 58.8892L437.256 66.9667Z" fill="#E9C37E" fill-opacity="0.11"/>
</g>
</g>
</g>
</g>
<mask id="mask15_32_3641" style="mask-type:luminance" maskUnits="userSpaceOnUse" x="443" y="63" width="20" height="15">
<path d="M443 63.3402H463V77.6505H443V63.3402Z" fill="white"/>
</mask>
<g mask="url(#mask15_32_3641)">
<mask id="mask16_32_3641" style="mask-type:luminance" maskUnits="userSpaceOnUse" x="443" y="63" width="20" height="15">
<path d="M460.556 75.746C460.462 75.7197 460.368 75.6933 460.265 75.6651C459.246 75.4016 458.318 74.9249 458.022 74.1159C457.949 73.9148 457.975 73.6533 457.966 73.4445C457.961 73.3115 457.961 68.5298 457.966 68.3981C457.975 68.1893 457.949 67.9259 458.022 67.7273C458.318 66.9158 459.246 66.441 460.265 66.1756C460.368 66.1493 460.462 66.1236 460.556 66.0972V75.746ZM457.084 73.6713C457.077 73.839 457.101 74.053 457.033 74.2142C456.766 74.8722 455.925 75.259 455.002 75.4729C453.236 75.8822 452.923 76.4072 452.923 76.4072C452.923 76.4072 452.609 75.8822 450.845 75.4729C449.92 75.259 449.081 74.8722 448.812 74.2142C448.744 74.053 448.771 73.839 448.761 73.6713C448.757 73.5711 448.757 68.2696 448.761 68.1713C448.771 68.0017 448.744 67.7897 448.812 67.6265C449.081 66.9704 449.92 66.5836 450.845 66.3684C452.609 65.9591 452.923 65.4354 452.923 65.4354C452.923 65.4354 453.236 65.9591 455.002 66.3684C455.925 66.5836 456.766 66.9704 457.033 67.6265C457.101 67.7897 457.077 68.0017 457.084 68.1713C457.089 68.2696 457.089 73.5711 457.084 73.6713ZM447.879 73.4445C447.872 73.6533 447.898 73.9148 447.824 74.1159C447.527 74.9249 446.6 75.4016 445.581 75.6651C445.479 75.6933 445.383 75.7197 445.289 75.746V66.0972C445.383 66.1236 445.479 66.1493 445.581 66.1756C446.6 66.441 447.527 66.9158 447.824 67.7273C447.898 67.9259 447.872 68.1893 447.879 68.3981C447.887 68.5298 447.887 73.3115 447.879 73.4445ZM462.79 63.6839V63.4764H443.053V63.6839L444.407 64.419V76.5794L443.053 77.3151V77.5207H462.79V77.3151L461.438 76.5794V64.419L462.79 63.6839Z" fill="white"/>
</mask>
<g mask="url(#mask16_32_3641)">
<mask id="mask17_32_3641" style="mask-type:luminance" maskUnits="userSpaceOnUse" x="443" y="63" width="20" height="15">
<path d="M460.556 75.746C460.462 75.7197 460.368 75.6933 460.265 75.6651C459.246 75.4016 458.318 74.9249 458.022 74.1159C457.949 73.9148 457.975 73.6533 457.966 73.4445C457.961 73.3115 457.961 68.5298 457.966 68.3981C457.975 68.1893 457.949 67.9259 458.022 67.7273C458.318 66.9158 459.246 66.441 460.265 66.1756C460.368 66.1493 460.462 66.1236 460.556 66.0972V75.746ZM457.084 73.6713C457.077 73.839 457.101 74.053 457.033 74.2142C456.766 74.8722 455.925 75.259 455.002 75.4729C453.236 75.8822 452.923 76.4072 452.923 76.4072C452.923 76.4072 452.609 75.8822 450.845 75.4729C449.92 75.259 449.081 74.8722 448.812 74.2142C448.744 74.053 448.771 73.839 448.761 73.6713C448.757 73.5711 448.757 68.2696 448.761 68.1713C448.771 68.0017 448.744 67.7897 448.812 67.6265C449.081 66.9704 449.92 66.5836 450.845 66.3684C452.609 65.9591 452.923 65.4354 452.923 65.4354C452.923 65.4354 453.236 65.9591 455.002 66.3684C455.925 66.5836 456.766 66.9704 457.033 67.6265C457.101 67.7897 457.077 68.0017 457.084 68.1713C457.089 68.2696 457.089 73.5711 457.084 73.6713ZM447.879 73.4445C447.872 73.6533 447.898 73.9148 447.824 74.1159C447.527 74.9249 446.6 75.4016 445.581 75.6651C445.479 75.6933 445.383 75.7197 445.289 75.746V66.0972C445.383 66.1236 445.479 66.1493 445.581 66.1756C446.6 66.441 447.527 66.9158 447.824 67.7273C447.898 67.9259 447.872 68.1893 447.879 68.3981C447.887 68.5298 447.887 73.3115 447.879 73.4445ZM462.79 63.6839V63.4764H443.053V63.6839L444.407 64.419V76.5794L443.053 77.3151V77.5207H462.79V77.3151L461.438 76.5794V64.419L462.79 63.6839Z" fill="white"/>
</mask>
<g mask="url(#mask17_32_3641)">
<path d="M434.309 66.7989L447.722 83.2462L471.533 74.1982L458.121 57.7509L434.309 66.7989Z" fill="#CCCCCC"/>
</g>
</g>
</g>
<mask id="mask18_32_3641" style="mask-type:luminance" maskUnits="userSpaceOnUse" x="452" y="1" width="2" height="53">
<path d="M452.523 1H453.327V53.3509H452.523V1Z" fill="white"/>
</mask>
<g mask="url(#mask18_32_3641)">
<path d="M419.93 13.3847L452.713 53.5841L485.92 40.9663L453.137 0.766785L419.93 13.3847Z" fill="#C7C7C7"/>
</g>
<g filter="url(#filter1_f_32_3641)">
<path d="M452.715 68.3999L453.322 70.0408L454.963 70.6479L453.322 71.2551L452.715 72.896L452.108 71.2551L450.467 70.6479L452.108 70.0408L452.715 68.3999Z" fill="#E59E1D"/>
</g>
<g filter="url(#filter2_f_32_3641)">
<path d="M452.715 68.3999L453.322 70.0408L454.963 70.6479L453.322 71.2551L452.715 72.896L452.108 71.2551L450.467 70.6479L452.108 70.0408L452.715 68.3999Z" fill="#DA9C2A"/>
</g>
<path d="M452.791 68.7906L453.547 70.1844L455.589 70.7002L453.547 71.2159L452.791 72.6098L452.036 71.2159L449.994 70.7002L452.036 70.1844L452.791 68.7906Z" fill="#E9C37E"/>
<mask id="mask19_32_3641" style="mask-type:luminance" maskUnits="userSpaceOnUse" x="399" y="100" width="26" height="3">
<path d="M399.38 100.119H424.62V102.104H399.38V100.119Z" fill="white"/>
</mask>
<g mask="url(#mask19_32_3641)">
<mask id="mask20_32_3641" style="mask-type:luminance" maskUnits="userSpaceOnUse" x="399" y="100" width="26" height="3">
<path d="M424.53 100.119C423.483 101.526 421.567 102.049 421.567 102.049H402.436C402.436 102.049 400.523 101.526 399.472 100.119H424.53Z" fill="white"/>
</mask>
<g mask="url(#mask20_32_3641)">
<mask id="mask21_32_3641" style="mask-type:luminance" maskUnits="userSpaceOnUse" x="399" y="100" width="26" height="3">
<path d="M424.53 100.119C423.483 101.526 421.567 102.049 421.567 102.049H402.436C402.436 102.049 400.523 101.526 399.472 100.119H424.53Z" fill="white"/>
</mask>
<g mask="url(#mask21_32_3641)">
<path d="M398.333 100.575L405.401 109.708L425.671 101.592L418.603 92.4598L398.333 100.575Z" fill="#EAEAEA"/>
</g>
</g>
</g>
<mask id="mask22_32_3641" style="mask-type:luminance" maskUnits="userSpaceOnUse" x="399" y="75" width="26" height="3">
<path d="M399.38 75.4435H424.62V77.5707H399.38V75.4435Z" fill="white"/>
</mask>
<g mask="url(#mask22_32_3641)">
<mask id="mask23_32_3641" style="mask-type:luminance" maskUnits="userSpaceOnUse" x="399" y="75" width="26" height="3">
<path d="M424.531 77.4588H399.473C400.524 76.0545 402.437 75.5288 402.437 75.5288H421.567C421.567 75.5288 423.484 76.0545 424.531 77.4588Z" fill="white"/>
</mask>
<g mask="url(#mask23_32_3641)">
<mask id="mask24_32_3641" style="mask-type:luminance" maskUnits="userSpaceOnUse" x="399" y="75" width="26" height="3">
<path d="M424.531 77.4588H399.473C400.524 76.0545 402.437 75.5288 402.437 75.5288H421.567C421.567 75.5288 423.484 76.0545 424.531 77.4588Z" fill="white"/>
</mask>
<g mask="url(#mask24_32_3641)">
<path d="M398.333 75.9853L405.401 85.1172L425.671 77.0018L418.603 67.8699L398.333 75.9853Z" fill="#ECECEC"/>
</g>
</g>
</g>
<mask id="mask25_32_3641" style="mask-type:luminance" maskUnits="userSpaceOnUse" x="402" y="61" width="20" height="14">
<path d="M402.338 61.2624H421.662V74.7345H402.338V61.2624Z" fill="white"/>
</mask>
<g mask="url(#mask25_32_3641)">
<mask id="mask26_32_3641" style="mask-type:luminance" maskUnits="userSpaceOnUse" x="402" y="61" width="20" height="14">
<path d="M417.675 71.8218C415.413 70.8845 413.664 69.17 413.664 69.17C413.664 69.17 413.55 69.1484 413.648 68.8958C413.749 68.6438 414.615 68.5995 414.579 67.8677C414.548 67.1365 412.903 66.634 412.903 66.634C412.903 66.634 412.897 66.4429 412.89 66.1394C413.345 65.9732 413.648 65.684 413.648 65.3539C413.648 65.0104 413.321 64.7124 412.836 64.5495C412.789 63.3652 412.719 62.0778 412.635 61.8823C412.468 61.5034 412 61.366 412 61.366C412 61.366 411.536 61.5034 411.369 61.8823C411.282 62.0778 411.214 63.3652 411.168 64.5495C410.683 64.7124 410.355 65.0104 410.355 65.3539C410.355 65.684 410.659 65.9748 411.116 66.1405C411.109 66.4429 411.105 66.634 411.105 66.634C411.105 66.634 409.457 67.1365 409.425 67.8677C409.387 68.5995 410.255 68.6438 410.355 68.8958C410.454 69.1484 410.338 69.17 410.338 69.17C410.338 69.17 408.589 70.8845 406.329 71.8218C404.066 72.7574 402.668 73.5119 402.437 74.6763H421.567C421.337 73.5119 419.939 72.7574 417.675 71.8218Z" fill="white"/>
</mask>
<g mask="url(#mask26_32_3641)">
<mask id="mask27_32_3641" style="mask-type:luminance" maskUnits="userSpaceOnUse" x="402" y="61" width="20" height="14">
<path d="M417.675 71.8218C415.413 70.8845 413.664 69.17 413.664 69.17C413.664 69.17 413.55 69.1484 413.648 68.8958C413.749 68.6438 414.615 68.5995 414.579 67.8677C414.548 67.1365 412.903 66.634 412.903 66.634C412.903 66.634 412.897 66.4429 412.89 66.1394C413.345 65.9732 413.648 65.684 413.648 65.3539C413.648 65.0104 413.321 64.7124 412.836 64.5495C412.789 63.3652 412.719 62.0778 412.635 61.8823C412.468 61.5034 412 61.366 412 61.366C412 61.366 411.536 61.5034 411.369 61.8823C411.282 62.0778 411.214 63.3652 411.168 64.5495C410.683 64.7124 410.355 65.0104 410.355 65.3539C410.355 65.684 410.659 65.9748 411.116 66.1405C411.109 66.4429 411.105 66.634 411.105 66.634C411.105 66.634 409.457 67.1365 409.425 67.8677C409.387 68.5995 410.255 68.6438 410.355 68.8958C410.454 69.1484 410.338 69.17 410.338 69.17C410.338 69.17 408.589 70.8845 406.329 71.8218C404.066 72.7574 402.668 73.5119 402.437 74.6763H421.567C421.337 73.5119 419.939 72.7574 417.675 71.8218Z" fill="white"/>
</mask>
<g mask="url(#mask27_32_3641)">
<path d="M394.572 64.5146L406.962 80.5232L429.433 71.5276L417.041 55.519L394.572 64.5146Z" fill="#D9D8D7"/>
</g>
</g>
</g>
<mask id="mask28_32_3641" style="mask-type:luminance" maskUnits="userSpaceOnUse" x="402" y="102" width="20" height="15">
<path d="M402.338 102.813H421.662V116.285H402.338V102.813Z" fill="white"/>
</mask>
<g mask="url(#mask28_32_3641)">
<mask id="mask29_32_3641" style="mask-type:luminance" maskUnits="userSpaceOnUse" x="402" y="102" width="20" height="15">
<path d="M402.437 102.899C402.668 104.065 404.066 104.819 406.329 105.757C408.589 106.696 410.338 108.409 410.338 108.409C410.338 108.409 410.454 108.432 410.355 108.684C410.255 108.934 409.387 108.98 409.425 109.712C409.457 110.441 411.105 110.946 411.105 110.946C411.105 110.946 411.109 111.126 411.116 111.414C410.659 111.58 410.355 111.869 410.355 112.201C410.355 112.544 410.683 112.841 411.168 113.004C411.214 114.196 411.281 115.501 411.369 115.698C411.536 116.074 412 116.211 412 116.211C412 116.211 412.468 116.074 412.635 115.698C412.722 115.501 412.791 114.196 412.836 113.004C413.321 112.841 413.648 112.544 413.648 112.201C413.648 111.871 413.345 111.581 412.89 111.415C412.897 111.126 412.903 110.946 412.903 110.946C412.903 110.946 414.548 110.441 414.579 109.712C414.615 108.98 413.749 108.934 413.648 108.684C413.55 108.432 413.664 108.409 413.664 108.409C413.664 108.409 415.413 106.696 417.675 105.757C419.939 104.819 421.337 104.065 421.567 102.899H402.437Z" fill="white"/>
</mask>
<g mask="url(#mask29_32_3641)">
<mask id="mask30_32_3641" style="mask-type:luminance" maskUnits="userSpaceOnUse" x="402" y="102" width="20" height="15">
<path d="M402.437 102.899C402.668 104.065 404.066 104.819 406.329 105.757C408.589 106.696 410.338 108.409 410.338 108.409C410.338 108.409 410.454 108.432 410.355 108.684C410.255 108.934 409.387 108.98 409.425 109.712C409.457 110.441 411.105 110.946 411.105 110.946C411.105 110.946 411.109 111.126 411.116 111.414C410.659 111.58 410.355 111.869 410.355 112.201C410.355 112.544 410.683 112.841 411.168 113.004C411.214 114.196 411.281 115.501 411.369 115.698C411.536 116.074 412 116.211 412 116.211C412 116.211 412.468 116.074 412.635 115.698C412.722 115.501 412.791 114.196 412.836 113.004C413.321 112.841 413.648 112.544 413.648 112.201C413.648 111.871 413.345 111.581 412.89 111.415C412.897 111.126 412.903 110.946 412.903 110.946C412.903 110.946 414.548 110.441 414.579 109.712C414.615 108.98 413.749 108.934 413.648 108.684C413.55 108.432 413.664 108.409 413.664 108.409C413.664 108.409 415.413 106.696 417.675 105.757C419.939 104.819 421.337 104.065 421.567 102.899H402.437Z" fill="white"/>
</mask>
<g mask="url(#mask30_32_3641)">
<path d="M394.57 106.049L406.963 122.058L429.434 113.062L417.041 97.0526L394.57 106.049Z" fill="#ECECEC"/>
</g>
</g>
</g>
<g filter="url(#filter3_f_32_3641)">
<mask id="mask31_32_3641" style="mask-type:luminance" maskUnits="userSpaceOnUse" x="401" y="79" width="23" height="19">
<path d="M401.017 79.6805H423.644V97.9855H401.017V79.6805Z" fill="white"/>
</mask>
<g mask="url(#mask31_32_3641)">
<mask id="mask32_32_3641" style="mask-type:luminance" maskUnits="userSpaceOnUse" x="401" y="79" width="23" height="19">
<path d="M421.009 95.6645C420.904 95.6305 420.793 95.5958 420.678 95.5612C419.52 95.2179 418.467 94.598 418.13 93.5447C418.047 93.2848 418.077 92.9434 418.067 92.6717C418.061 92.5004 418.061 86.2821 418.067 86.1112C418.077 85.8384 418.047 85.4977 418.13 85.2371C418.467 84.1845 419.52 83.565 420.678 83.2217C420.793 83.1867 420.904 83.152 421.009 83.1181V95.6645ZM417.065 92.9674C417.056 93.1869 417.083 93.4632 417.009 93.6745C416.702 94.5286 415.748 95.032 414.699 95.3102C412.695 95.8429 412.339 96.5247 412.339 96.5247C412.339 96.5247 411.982 95.8429 409.977 95.3102C408.928 95.032 407.974 94.5286 407.668 93.6745C407.593 93.4632 407.62 93.1869 407.611 92.9674C407.606 92.8383 407.606 85.9446 407.611 85.8155C407.62 85.5957 407.593 85.3193 407.668 85.108C407.974 84.2539 408.928 83.7505 409.977 83.4724C411.982 82.9397 412.339 82.2579 412.339 82.2579C412.339 82.2579 412.695 82.9397 414.699 83.4724C415.748 83.7505 416.702 84.2539 417.009 85.108C417.083 85.3193 417.056 85.5957 417.065 85.8155C417.07 85.9446 417.07 92.8383 417.065 92.9674ZM406.609 92.6717C406.599 92.9434 406.629 93.2848 406.546 93.5447C406.208 94.598 405.156 95.2179 403.999 95.5612C403.882 95.5958 403.773 95.6305 403.667 95.6645V83.1181C403.773 83.152 403.882 83.1867 403.999 83.2217C405.156 83.565 406.208 84.1845 406.546 85.2371C406.629 85.4977 406.599 85.8384 406.609 86.1112C406.616 86.2821 406.616 92.5004 406.609 92.6717ZM423.545 79.9808V79.7105H401.127V79.9808L402.664 80.9372V96.7488L401.127 97.7045V97.9726H423.545V97.7045L422.012 96.7488V80.9372L423.545 79.9808Z" fill="white"/>
</mask>
<g mask="url(#mask32_32_3641)">
<mask id="mask33_32_3641" style="mask-type:luminance" maskUnits="userSpaceOnUse" x="401" y="79" width="23" height="19">
<path d="M421.009 95.6645C420.904 95.6305 420.793 95.5958 420.678 95.5612C419.52 95.2179 418.467 94.598 418.13 93.5447C418.047 93.2848 418.077 92.9434 418.067 92.6717C418.061 92.5004 418.061 86.2821 418.067 86.1112C418.077 85.8384 418.047 85.4977 418.13 85.2371C418.467 84.1845 419.52 83.565 420.678 83.2217C420.793 83.1867 420.904 83.152 421.009 83.1181V95.6645ZM417.065 92.9674C417.056 93.1869 417.083 93.4632 417.009 93.6745C416.702 94.5286 415.748 95.032 414.699 95.3102C412.695 95.8429 412.339 96.5247 412.339 96.5247C412.339 96.5247 411.982 95.8429 409.977 95.3102C408.928 95.032 407.974 94.5286 407.668 93.6745C407.593 93.4632 407.62 93.1869 407.611 92.9674C407.606 92.8383 407.606 85.9446 407.611 85.8155C407.62 85.5957 407.593 85.3193 407.668 85.108C407.974 84.2539 408.928 83.7505 409.977 83.4724C411.982 82.9397 412.339 82.2579 412.339 82.2579C412.339 82.2579 412.695 82.9397 414.699 83.4724C415.748 83.7505 416.702 84.2539 417.009 85.108C417.083 85.3193 417.056 85.5957 417.065 85.8155C417.07 85.9446 417.07 92.8383 417.065 92.9674ZM406.609 92.6717C406.599 92.9434 406.629 93.2848 406.546 93.5447C406.208 94.598 405.156 95.2179 403.999 95.5612C403.882 95.5958 403.773 95.6305 403.667 95.6645V83.1181C403.773 83.152 403.882 83.1867 403.999 83.2217C405.156 83.565 406.208 84.1845 406.546 85.2371C406.629 85.4977 406.599 85.8384 406.609 86.1112C406.616 86.2821 406.616 92.5004 406.609 92.6717ZM423.545 79.9808V79.7105H401.127V79.9808L402.664 80.9372V96.7488L401.127 97.7045V97.9726H423.545V97.7045L422.012 96.7488V80.9372L423.545 79.9808Z" fill="white"/>
</mask>
<g mask="url(#mask33_32_3641)">
<path d="M391.387 84.0312L406.43 105.565L433.285 93.6524L418.242 72.119L391.387 84.0312Z" fill="#E9C37E" fill-opacity="0.2"/>
</g>
</g>
</g>
</g>
<mask id="mask34_32_3641" style="mask-type:luminance" maskUnits="userSpaceOnUse" x="398" y="78" width="28" height="22">
<path d="M398 78.2798H426V99.2678H398V78.2798Z" fill="white"/>
</mask>
<g mask="url(#mask34_32_3641)">
<mask id="mask35_32_3641" style="mask-type:luminance" maskUnits="userSpaceOnUse" x="398" y="78" width="28" height="22">
<path d="M422.813 96.6188C422.682 96.5789 422.545 96.5396 422.401 96.4997C420.956 96.1053 419.644 95.3951 419.222 94.187C419.12 93.8873 419.158 93.4962 419.144 93.1843C419.136 92.9871 419.136 85.8511 419.144 85.6539C419.158 85.3421 419.12 84.9504 419.222 84.6529C419.644 83.4448 420.956 82.7324 422.401 82.3385C422.545 82.3003 422.682 82.2604 422.813 82.2206V96.6188ZM417.895 93.5228C417.884 93.7754 417.919 94.0917 417.824 94.3343C417.442 95.3154 416.253 95.8915 414.946 96.2117C412.446 96.8232 412.002 97.606 412.002 97.606C412.002 97.606 411.558 96.8232 409.057 96.2117C407.75 95.8915 406.56 95.3154 406.179 94.3343C406.084 94.0917 406.12 93.7754 406.108 93.5228C406.102 93.3743 406.102 85.4639 406.108 85.3149C406.12 85.064 406.084 84.7466 406.179 84.5039C406.56 83.524 407.75 82.9468 409.057 82.626C411.558 82.015 412.002 81.2334 412.002 81.2334C412.002 81.2334 412.446 82.015 414.946 82.626C416.253 82.9468 417.442 83.524 417.824 84.5039C417.919 84.7466 417.884 85.064 417.895 85.3149C417.901 85.4639 417.901 93.3743 417.895 93.5228ZM404.858 93.1843C404.846 93.4962 404.883 93.8873 404.781 94.187C404.359 95.3951 403.048 96.1053 401.602 96.4997C401.458 96.5396 401.323 96.5789 401.19 96.6188V82.2206C401.323 82.2604 401.458 82.3003 401.602 82.3385C403.048 82.7324 404.359 83.4448 404.781 84.6529C404.883 84.9504 404.846 85.3421 404.858 85.6539C404.867 85.8511 404.867 92.9871 404.858 93.1843ZM425.976 78.6199V78.3108H398.024V78.6199L399.94 79.7178V97.8624L398.024 98.9598V99.2661H425.976V98.9598L424.063 97.8624V79.7178L425.976 78.6199Z" fill="white"/>
</mask>
<g mask="url(#mask35_32_3641)">
<mask id="mask36_32_3641" style="mask-type:luminance" maskUnits="userSpaceOnUse" x="398" y="78" width="28" height="22">
<path d="M422.813 96.6188C422.682 96.5789 422.545 96.5396 422.401 96.4997C420.956 96.1053 419.644 95.3951 419.222 94.187C419.12 93.8873 419.158 93.4962 419.144 93.1843C419.136 92.9871 419.136 85.8511 419.144 85.6539C419.158 85.3421 419.12 84.9504 419.222 84.6529C419.644 83.4448 420.956 82.7324 422.401 82.3385C422.545 82.3003 422.682 82.2604 422.813 82.2206V96.6188ZM417.895 93.5228C417.884 93.7754 417.919 94.0917 417.824 94.3343C417.442 95.3154 416.253 95.8915 414.946 96.2117C412.446 96.8232 412.002 97.606 412.002 97.606C412.002 97.606 411.558 96.8232 409.057 96.2117C407.75 95.8915 406.56 95.3154 406.179 94.3343C406.084 94.0917 406.12 93.7754 406.108 93.5228C406.102 93.3743 406.102 85.4639 406.108 85.3149C406.12 85.064 406.084 84.7466 406.179 84.5039C406.56 83.524 407.75 82.9468 409.057 82.626C411.558 82.015 412.002 81.2334 412.002 81.2334C412.002 81.2334 412.446 82.015 414.946 82.626C416.253 82.9468 417.442 83.524 417.824 84.5039C417.919 84.7466 417.884 85.064 417.895 85.3149C417.901 85.4639 417.901 93.3743 417.895 93.5228ZM404.858 93.1843C404.846 93.4962 404.883 93.8873 404.781 94.187C404.359 95.3951 403.048 96.1053 401.602 96.4997C401.458 96.5396 401.323 96.5789 401.19 96.6188V82.2206C401.323 82.2604 401.458 82.3003 401.602 82.3385C403.048 82.7324 404.359 83.4448 404.781 84.6529C404.883 84.9504 404.846 85.3421 404.858 85.6539C404.867 85.8511 404.867 92.9871 404.858 93.1843ZM425.976 78.6199V78.3108H398.024V78.6199L399.94 79.7178V97.8624L398.024 98.9598V99.2661H425.976V98.9598L424.063 97.8624V79.7178L425.976 78.6199Z" fill="white"/>
</mask>
<g mask="url(#mask36_32_3641)">
<path d="M385.641 83.2686L404.636 107.81L438.359 94.3088L419.364 69.7678L385.641 83.2686Z" fill="#DFDFDF"/>
</g>
</g>
</g>
<mask id="mask37_32_3641" style="mask-type:luminance" maskUnits="userSpaceOnUse" x="411" y="0" width="2" height="63">
<path d="M411.673 0H412.334V62.4268H411.673V0Z" fill="white"/>
</mask>
<g mask="url(#mask37_32_3641)">
<path d="M374.784 14.7688L411.829 62.6284L449.222 47.6579L412.177 -0.20166L374.784 14.7688Z" fill="#DFDFDF"/>
</g>
<g filter="url(#filter4_f_32_3641)">
<path d="M411.953 86.1411L412.87 88.8919L415.348 89.9098L412.87 90.9277L411.953 93.6784L411.037 90.9277L408.559 89.9098L411.037 88.8919L411.953 86.1411Z" fill="#E3A025"/>
</g>
<g filter="url(#filter5_f_32_3641)">
<path d="M411.953 86.1411L412.87 88.8919L415.348 89.9098L412.87 90.9277L411.953 93.6784L411.037 90.9277L408.559 89.9098L411.037 88.8919L411.953 86.1411Z" fill="#DF9C22"/>
</g>
<path d="M411.953 86.1411L412.87 88.8919L415.348 89.9098L412.87 90.9277L411.953 93.6784L411.037 90.9277L408.559 89.9098L411.037 88.8919L411.953 86.1411Z" fill="#E9C37E"/>
<mask id="mask38_32_3641" style="mask-type:luminance" maskUnits="userSpaceOnUse" x="24" y="100" width="22" height="3">
<path d="M24.3333 100.301H45.6666V102.065H24.3333V100.301Z" fill="white"/>
</mask>
<g mask="url(#mask38_32_3641)">
<mask id="mask39_32_3641" style="mask-type:luminance" maskUnits="userSpaceOnUse" x="24" y="100" width="22" height="2">
<path d="M45.6104 100.431C44.7229 101.53 43.0958 101.938 43.0958 101.938H26.8563C26.8563 101.938 25.2333 101.53 24.3417 100.431H45.6104Z" fill="white"/>
</mask>
<g mask="url(#mask39_32_3641)">
<mask id="mask40_32_3641" style="mask-type:luminance" maskUnits="userSpaceOnUse" x="24" y="100" width="22" height="2">
<path d="M45.6104 100.431C44.7229 101.53 43.0958 101.938 43.0958 101.938H26.8563C26.8563 101.938 25.2333 101.53 24.3417 100.431H45.6104Z" fill="white"/>
</mask>
<g mask="url(#mask40_32_3641)">
<path d="M23.374 100.788L29.374 107.916L46.5782 101.581L40.5792 94.4528L23.374 100.788Z" fill="#C3C0C0"/>
</g>
</g>
</g>
<mask id="mask41_32_3641" style="mask-type:luminance" maskUnits="userSpaceOnUse" x="24" y="81" width="22" height="2">
<path d="M24.3333 81.0756H45.6666V82.8394H24.3333V81.0756Z" fill="white"/>
</mask>
<g mask="url(#mask41_32_3641)">
<mask id="mask42_32_3641" style="mask-type:luminance" maskUnits="userSpaceOnUse" x="24" y="81" width="22" height="2">
<path d="M45.6104 82.7443H24.3417C25.2333 81.6488 26.8563 81.2382 26.8563 81.2382H43.0958C43.0958 81.2382 44.7229 81.6488 45.6104 82.7443Z" fill="white"/>
</mask>
<g mask="url(#mask42_32_3641)">
<mask id="mask43_32_3641" style="mask-type:luminance" maskUnits="userSpaceOnUse" x="24" y="81" width="22" height="2">
<path d="M45.6104 82.7443H24.3417C25.2333 81.6488 26.8563 81.2382 26.8563 81.2382H43.0958C43.0958 81.2382 44.7229 81.6488 45.6104 82.7443Z" fill="white"/>
</mask>
<g mask="url(#mask43_32_3641)">
<path d="M23.374 81.5943L29.374 88.7225L46.5782 82.388L40.5792 75.2592L23.374 81.5943Z" fill="url(#paint0_linear_32_3641)"/>
</g>
</g>
</g>
<mask id="mask44_32_3641" style="mask-type:luminance" maskUnits="userSpaceOnUse" x="26" y="70" width="18" height="11">
<path d="M26.7333 70.1402H43.2666V80.7228H26.7333V70.1402Z" fill="white"/>
</mask>
<g mask="url(#mask44_32_3641)">
<mask id="mask45_32_3641" style="mask-type:luminance" maskUnits="userSpaceOnUse" x="26" y="70" width="18" height="11">
<path d="M39.7895 78.3451C37.8718 77.6135 36.3864 76.2748 36.3864 76.2748C36.3864 76.2748 36.2875 76.2569 36.3729 76.0612C36.4583 75.8635 37.1947 75.8304 37.1625 75.2585C37.1364 74.6874 35.7416 74.2953 35.7416 74.2953C35.7416 74.2953 35.7364 74.1458 35.7281 73.9095C36.1177 73.7786 36.3729 73.5533 36.3729 73.2956C36.3729 73.0276 36.0958 72.7961 35.6822 72.6694C35.6458 71.7434 35.5864 70.7382 35.5125 70.5845C35.3708 70.2903 34.9729 70.1822 34.9729 70.1822C34.9729 70.1822 34.5812 70.2903 34.4395 70.5845C34.3656 70.7382 34.3062 71.7434 34.2697 72.6673C33.8562 72.7948 33.5791 73.0276 33.5791 73.2956C33.5791 73.5533 33.8375 73.7807 34.227 73.9095C34.2187 74.1458 34.2156 74.2953 34.2156 74.2953C34.2156 74.2953 32.8156 74.6874 32.7895 75.2585C32.7572 75.8304 33.4937 75.8635 33.5791 76.0612C33.6614 76.2569 33.5656 76.2748 33.5656 76.2748C33.5656 76.2748 32.0802 77.6135 30.1625 78.3451C28.2395 79.0755 27.0531 79.6625 26.8562 80.5726H43.0958C42.8989 79.6625 41.7125 79.0755 39.7895 78.3451Z" fill="white"/>
</mask>
<g mask="url(#mask45_32_3641)">
<mask id="mask46_32_3641" style="mask-type:luminance" maskUnits="userSpaceOnUse" x="26" y="70" width="18" height="11">
<path d="M39.7895 78.3451C37.8718 77.6135 36.3864 76.2748 36.3864 76.2748C36.3864 76.2748 36.2875 76.2569 36.3729 76.0612C36.4583 75.8635 37.1947 75.8304 37.1625 75.2585C37.1364 74.6874 35.7416 74.2953 35.7416 74.2953C35.7416 74.2953 35.7364 74.1458 35.7281 73.9095C36.1177 73.7786 36.3729 73.5533 36.3729 73.2956C36.3729 73.0276 36.0958 72.7961 35.6822 72.6694C35.6458 71.7434 35.5864 70.7382 35.5125 70.5845C35.3708 70.2903 34.9729 70.1822 34.9729 70.1822C34.9729 70.1822 34.5812 70.2903 34.4395 70.5845C34.3656 70.7382 34.3062 71.7434 34.2697 72.6673C33.8562 72.7948 33.5791 73.0276 33.5791 73.2956C33.5791 73.5533 33.8375 73.7807 34.227 73.9095C34.2187 74.1458 34.2156 74.2953 34.2156 74.2953C34.2156 74.2953 32.8156 74.6874 32.7895 75.2585C32.7572 75.8304 33.4937 75.8635 33.5791 76.0612C33.6614 76.2569 33.5656 76.2748 33.5656 76.2748C33.5656 76.2748 32.0802 77.6135 30.1625 78.3451C28.2395 79.0755 27.0531 79.6625 26.8562 80.5726H43.0958C42.8989 79.6625 41.7125 79.0755 39.7895 78.3451Z" fill="white"/>
</mask>
<g mask="url(#mask46_32_3641)">
<path d="M20.1801 72.6405L30.6978 85.1378L49.7718 78.1151L39.2541 65.6178L20.1801 72.6405Z" fill="url(#paint1_linear_32_3641)"/>
</g>
</g>
</g>
<mask id="mask47_32_3641" style="mask-type:luminance" maskUnits="userSpaceOnUse" x="26" y="102" width="18" height="11">
<path d="M26.7333 102.594H43.2666V113H26.7333V102.594Z" fill="white"/>
</mask>
<g mask="url(#mask47_32_3641)">
<mask id="mask48_32_3641" style="mask-type:luminance" maskUnits="userSpaceOnUse" x="26" y="102" width="18" height="11">
<path d="M26.8562 102.602C27.0531 103.512 28.2395 104.101 30.1625 104.833C32.0802 105.565 33.5656 106.902 33.5656 106.902C33.5656 106.902 33.6614 106.92 33.5791 107.117C33.4937 107.311 32.7572 107.348 32.7895 107.92C32.8156 108.489 34.2156 108.883 34.2156 108.883C34.2156 108.883 34.2187 109.024 34.2239 109.248C33.8375 109.377 33.5791 109.604 33.5791 109.862C33.5791 110.13 33.8562 110.361 34.2666 110.488C34.3062 111.419 34.3625 112.436 34.4395 112.592C34.5812 112.885 34.9729 112.992 34.9729 112.992C34.9729 112.992 35.3708 112.885 35.5125 112.592C35.5864 112.436 35.6458 111.419 35.6854 110.488C36.0958 110.361 36.3729 110.13 36.3729 109.862C36.3729 109.604 36.1177 109.378 35.7302 109.248C35.7364 109.024 35.7416 108.883 35.7416 108.883C35.7416 108.883 37.1364 108.489 37.1625 107.92C37.1947 107.348 36.4583 107.311 36.3729 107.117C36.2875 106.92 36.3864 106.902 36.3864 106.902C36.3864 106.902 37.8718 105.565 39.7895 104.833C41.7125 104.101 42.8989 103.512 43.0958 102.602H26.8562Z" fill="white"/>
</mask>
<g mask="url(#mask48_32_3641)">
<mask id="mask49_32_3641" style="mask-type:luminance" maskUnits="userSpaceOnUse" x="26" y="102" width="18" height="11">
<path d="M26.8562 102.602C27.0531 103.512 28.2395 104.101 30.1625 104.833C32.0802 105.565 33.5656 106.902 33.5656 106.902C33.5656 106.902 33.6614 106.92 33.5791 107.117C33.4937 107.311 32.7572 107.348 32.7895 107.92C32.8156 108.489 34.2156 108.883 34.2156 108.883C34.2156 108.883 34.2187 109.024 34.2239 109.248C33.8375 109.377 33.5791 109.604 33.5791 109.862C33.5791 110.13 33.8562 110.361 34.2666 110.488C34.3062 111.419 34.3625 112.436 34.4395 112.592C34.5812 112.885 34.9729 112.992 34.9729 112.992C34.9729 112.992 35.3708 112.885 35.5125 112.592C35.5864 112.436 35.6458 111.419 35.6854 110.488C36.0958 110.361 36.3729 110.13 36.3729 109.862C36.3729 109.604 36.1177 109.378 35.7302 109.248C35.7364 109.024 35.7416 108.883 35.7416 108.883C35.7416 108.883 37.1364 108.489 37.1625 107.92C37.1947 107.348 36.4583 107.311 36.3729 107.117C36.2875 106.92 36.3864 106.902 36.3864 106.902C36.3864 106.902 37.8718 105.565 39.7895 104.833C41.7125 104.101 42.8989 103.512 43.0958 102.602H26.8562Z" fill="white"/>
</mask>
<g mask="url(#mask49_32_3641)">
<path d="M20.1801 105.061L30.6978 117.558L49.7718 110.535L39.2541 98.0375L20.1801 105.061Z" fill="url(#paint2_linear_32_3641)"/>
</g>
</g>
</g>
<g filter="url(#filter6_f_32_3641)">
<mask id="mask50_32_3641" style="mask-type:luminance" maskUnits="userSpaceOnUse" x="24" y="83" width="23" height="17">
<path d="M24.5479 83.9299H46.2188V99.2873H24.5479V83.9299Z" fill="white"/>
</mask>
<g mask="url(#mask50_32_3641)">
<mask id="mask51_32_3641" style="mask-type:luminance" maskUnits="userSpaceOnUse" x="24" y="83" width="23" height="17">
<path d="M43.6951 97.3387C43.5941 97.3102 43.4884 97.2811 43.3784 97.252C42.2685 96.964 41.2608 96.4439 40.9373 95.5603C40.8582 95.3422 40.887 95.0558 40.8771 94.8278C40.8715 94.6841 40.8715 89.4671 40.8771 89.3237C40.887 89.0949 40.8582 88.809 40.9373 88.5904C41.2608 87.7073 42.2685 87.1875 43.3784 86.8995C43.4884 86.8702 43.5941 86.8411 43.6951 86.8126V97.3387ZM39.9176 95.0759C39.909 95.26 39.9352 95.4919 39.8638 95.6692C39.5699 96.3857 38.6559 96.8081 37.6517 97.0414C35.7322 97.4883 35.391 98.0604 35.391 98.0604C35.391 98.0604 35.0498 97.4883 33.1295 97.0414C32.1248 96.8081 31.2108 96.3857 30.9182 95.6692C30.8456 95.4919 30.8718 95.26 30.8632 95.0759C30.8589 94.9676 30.8589 89.184 30.8632 89.0757C30.8718 88.8912 30.8456 88.6594 30.9182 88.4821C31.2108 87.7655 32.1248 87.3432 33.1295 87.1098C35.0498 86.6629 35.391 86.0909 35.391 86.0909C35.391 86.0909 35.7322 86.6629 37.6517 87.1098C38.6559 87.3432 39.5699 87.7655 39.8638 88.4821C39.9352 88.6594 39.909 88.8912 39.9176 89.0757C39.9223 89.184 39.9223 94.9676 39.9176 95.0759ZM29.9041 94.8278C29.8942 95.0558 29.9226 95.3422 29.8435 95.5603C29.5199 96.4439 28.5123 96.964 27.4036 97.252C27.2923 97.2811 27.1879 97.3102 27.0856 97.3387V86.8126C27.1879 86.8411 27.2923 86.8702 27.4036 86.8995C28.5123 87.1875 29.5199 87.7073 29.8435 88.5904C29.9226 88.809 29.8942 89.0949 29.9041 89.3237C29.9105 89.4671 29.9105 94.6841 29.9041 94.8278ZM46.1242 84.1805V83.9538H24.6535V84.1805L26.1253 84.9829V98.2484L24.6535 99.0502V99.2751H46.1242V99.0502L44.6555 98.2484V84.9829L46.1242 84.1805Z" fill="white"/>
</mask>
<g mask="url(#mask51_32_3641)">
<mask id="mask52_32_3641" style="mask-type:luminance" maskUnits="userSpaceOnUse" x="24" y="83" width="23" height="17">
<path d="M43.6951 97.3387C43.5941 97.3102 43.4884 97.2811 43.3784 97.252C42.2685 96.964 41.2608 96.4439 40.9373 95.5603C40.8582 95.3422 40.887 95.0558 40.8771 94.8278C40.8715 94.6841 40.8715 89.4671 40.8771 89.3237C40.887 89.0949 40.8582 88.809 40.9373 88.5904C41.2608 87.7073 42.2685 87.1875 43.3784 86.8995C43.4884 86.8702 43.5941 86.8411 43.6951 86.8126V97.3387ZM39.9176 95.0759C39.909 95.26 39.9352 95.4919 39.8638 95.6692C39.5699 96.3857 38.6559 96.8081 37.6517 97.0414C35.7322 97.4883 35.391 98.0604 35.391 98.0604C35.391 98.0604 35.0498 97.4883 33.1295 97.0414C32.1248 96.8081 31.2108 96.3857 30.9182 95.6692C30.8456 95.4919 30.8718 95.26 30.8632 95.0759C30.8589 94.9676 30.8589 89.184 30.8632 89.0757C30.8718 88.8912 30.8456 88.6594 30.9182 88.4821C31.2108 87.7655 32.1248 87.3432 33.1295 87.1098C35.0498 86.6629 35.391 86.0909 35.391 86.0909C35.391 86.0909 35.7322 86.6629 37.6517 87.1098C38.6559 87.3432 39.5699 87.7655 39.8638 88.4821C39.9352 88.6594 39.909 88.8912 39.9176 89.0757C39.9223 89.184 39.9223 94.9676 39.9176 95.0759ZM29.9041 94.8278C29.8942 95.0558 29.9226 95.3422 29.8435 95.5603C29.5199 96.4439 28.5123 96.964 27.4036 97.252C27.2923 97.2811 27.1879 97.3102 27.0856 97.3387V86.8126C27.1879 86.8411 27.2923 86.8702 27.4036 86.8995C28.5123 87.1875 29.5199 87.7073 29.8435 88.5904C29.9226 88.809 29.8942 89.0949 29.9041 89.3237C29.9105 89.4671 29.9105 94.6841 29.9041 94.8278ZM46.1242 84.1805V83.9538H24.6535V84.1805L26.1253 84.9829V98.2484L24.6535 99.0502V99.2751H46.1242V99.0502L44.6555 98.2484V84.9829L46.1242 84.1805Z" fill="white"/>
</mask>
<g mask="url(#mask52_32_3641)">
<path d="M15.3254 87.58L29.7327 105.646L55.4524 95.652L41.0447 77.586L15.3254 87.58Z" fill="#E9C37E" fill-opacity="0.15"/>
</g>
</g>
</g>
</g>
<mask id="mask53_32_3641" style="mask-type:luminance" maskUnits="userSpaceOnUse" x="23" y="83" width="24" height="17">
<path d="M23 83.3685H47V99.7717H23V83.3685Z" fill="white"/>
</mask>
<g mask="url(#mask53_32_3641)">
<mask id="mask54_32_3641" style="mask-type:luminance" maskUnits="userSpaceOnUse" x="23" y="83" width="24" height="17">
<path d="M44.152 97.6991C44.0395 97.6688 43.9249 97.6371 43.803 97.6075C42.5759 97.2988 41.4613 96.7428 41.104 95.801C41.0155 95.5688 41.0478 95.2615 41.0374 95.0183C41.0322 94.8647 41.0322 89.295 41.0374 89.1414C41.0478 88.8982 41.0155 88.5929 41.104 88.3601C41.4613 87.4162 42.5759 86.8609 43.803 86.5536C43.9249 86.5219 44.0395 86.4923 44.152 86.4606V97.6991ZM39.979 95.2829C39.9676 95.4806 39.9967 95.7273 39.9176 95.9175C39.5947 96.6815 38.5842 97.1328 37.4749 97.3815C35.352 97.8597 34.9759 98.4701 34.9759 98.4701C34.9759 98.4701 34.5999 97.8597 32.477 97.3815C31.3676 97.1328 30.3572 96.6815 30.0342 95.9175C29.954 95.7273 29.9842 95.4806 29.9728 95.2829C29.9676 95.1678 29.9676 88.9932 29.9728 88.8768C29.9842 88.6811 29.954 88.4324 30.0342 88.2436C30.3572 87.4782 31.3676 87.0283 32.477 86.7775C34.5999 86.3014 34.9759 85.6896 34.9759 85.6896C34.9759 85.6896 35.352 86.3014 37.4749 86.7775C38.5842 87.0283 39.5947 87.4782 39.9176 88.2436C39.9967 88.4324 39.9676 88.6811 39.979 88.8768C39.9842 88.9932 39.9842 95.1678 39.979 95.2829ZM28.9145 95.0183C28.904 95.2615 28.9332 95.5688 28.8478 95.801C28.4905 96.7428 27.3759 97.2988 26.1488 97.6075C26.027 97.6371 25.9124 97.6688 25.7999 97.6991V86.4606C25.9124 86.4923 26.027 86.5219 26.1488 86.5536C27.3759 86.8609 28.4905 87.4162 28.8478 88.3601C28.9332 88.5929 28.904 88.8982 28.9145 89.1414C28.9197 89.295 28.9197 94.8647 28.9145 95.0183ZM46.8374 83.6509V83.4091H23.1113V83.6509L24.7384 84.508V98.6713L23.1113 99.5263V99.7661H46.8374V99.5263L45.2134 98.6713V84.508L46.8374 83.6509Z" fill="white"/>
</mask>
<g mask="url(#mask54_32_3641)">
<mask id="mask55_32_3641" style="mask-type:luminance" maskUnits="userSpaceOnUse" x="23" y="83" width="24" height="17">
<path d="M44.152 97.6991C44.0395 97.6688 43.9249 97.6371 43.803 97.6075C42.5759 97.2988 41.4613 96.7428 41.104 95.801C41.0155 95.5688 41.0478 95.2615 41.0374 95.0183C41.0322 94.8647 41.0322 89.295 41.0374 89.1414C41.0478 88.8982 41.0155 88.5929 41.104 88.3601C41.4613 87.4162 42.5759 86.8609 43.803 86.5536C43.9249 86.5219 44.0395 86.4923 44.152 86.4606V97.6991ZM39.979 95.2829C39.9676 95.4806 39.9967 95.7273 39.9176 95.9175C39.5947 96.6815 38.5842 97.1328 37.4749 97.3815C35.352 97.8597 34.9759 98.4701 34.9759 98.4701C34.9759 98.4701 34.5999 97.8597 32.477 97.3815C31.3676 97.1328 30.3572 96.6815 30.0342 95.9175C29.954 95.7273 29.9842 95.4806 29.9728 95.2829C29.9676 95.1678 29.9676 88.9932 29.9728 88.8768C29.9842 88.6811 29.954 88.4324 30.0342 88.2436C30.3572 87.4782 31.3676 87.0283 32.477 86.7775C34.5999 86.3014 34.9759 85.6896 34.9759 85.6896C34.9759 85.6896 35.352 86.3014 37.4749 86.7775C38.5842 87.0283 39.5947 87.4782 39.9176 88.2436C39.9967 88.4324 39.9676 88.6811 39.979 88.8768C39.9842 88.9932 39.9842 95.1678 39.979 95.2829ZM28.9145 95.0183C28.904 95.2615 28.9332 95.5688 28.8478 95.801C28.4905 96.7428 27.3759 97.2988 26.1488 97.6075C26.027 97.6371 25.9124 97.6688 25.7999 97.6991V86.4606C25.9124 86.4923 26.027 86.5219 26.1488 86.5536C27.3759 86.8609 28.4905 87.4162 28.8478 88.3601C28.9332 88.5929 28.904 88.8982 28.9145 89.1414C28.9197 89.295 28.9197 94.8647 28.9145 95.0183ZM46.8374 83.6509V83.4091H23.1113V83.6509L24.7384 84.508V98.6713L23.1113 99.5263V99.7661H46.8374V99.5263L45.2134 98.6713V84.508L46.8374 83.6509Z" fill="white"/>
</mask>
<g mask="url(#mask55_32_3641)">
<path d="M12.6019 87.2792L28.7248 106.435L57.3467 95.8969L41.2237 76.7399L12.6019 87.2792Z" fill="url(#paint3_linear_32_3641)"/>
</g>
</g>
</g>
<mask id="mask56_32_3641" style="mask-type:luminance" maskUnits="userSpaceOnUse" x="34" y="1" width="2" height="71">
<path d="M34.4293 1H35.5283V71.8089H34.4293V1Z" fill="white"/>
</mask>
<g mask="url(#mask56_32_3641)">
<path d="M-11.0676 17.7517L34.6897 72.1175L81.0251 55.057L35.2678 0.691315L-11.0676 17.7517Z" fill="#D2D2D2"/>
</g>
<g filter="url(#filter7_f_32_3641)">
<path d="M35.1681 89.8237L35.8295 91.6112L37.617 92.2727L35.8295 92.9341L35.1681 94.7216L34.5067 92.9341L32.7192 92.2727L34.5067 91.6112L35.1681 89.8237Z" fill="#E29E21" fill-opacity="0.92"/>
</g>
<g filter="url(#filter8_f_32_3641)">
<path d="M35.1681 89.8237L35.8295 91.6112L37.617 92.2727L35.8295 92.9341L35.1681 94.7216L34.5067 92.9341L32.7192 92.2727L34.5067 91.6112L35.1681 89.8237Z" fill="#E29E21" fill-opacity="0.47"/>
</g>
<path d="M35.1682 89.8237L35.8296 91.6112L37.6171 92.2727L35.8296 92.9341L35.1682 94.7216L34.5068 92.9341L32.7193 92.2727L34.5068 91.6112L35.1682 89.8237Z" fill="#E9C37E"/>
<mask id="mask57_32_3641" style="mask-type:luminance" maskUnits="userSpaceOnUse" x="65" y="135" width="33" height="4">
<path d="M65.0101 135.486H97.1726V138.778H65.0101V135.486Z" fill="white"/>
</mask>
<g mask="url(#mask57_32_3641)">
<mask id="mask58_32_3641" style="mask-type:luminance" maskUnits="userSpaceOnUse" x="65" y="135" width="32" height="4">
<path d="M96.9992 135.644C95.6629 137.849 93.2181 138.671 93.2181 138.671H68.8057C68.8057 138.671 66.3665 137.849 65.0245 135.644H96.9992Z" fill="white"/>
</mask>
<g mask="url(#mask58_32_3641)">
<mask id="mask59_32_3641" style="mask-type:luminance" maskUnits="userSpaceOnUse" x="65" y="135" width="32" height="4">
<path d="M96.9992 135.644C95.6629 137.849 93.2181 138.671 93.2181 138.671H68.8057C68.8057 138.671 66.3665 137.849 65.0245 135.644H96.9992Z" fill="white"/>
</mask>
<g mask="url(#mask59_32_3641)">
<path d="M63.5966 136.36L72.5888 150.911L98.4274 137.955L89.4345 123.404L63.5966 136.36Z" fill="#D6D6D5"/>
</g>
</g>
</g>
<mask id="mask60_32_3641" style="mask-type:luminance" maskUnits="userSpaceOnUse" x="65" y="96" width="33" height="5">
<path d="M65.0101 96.967H97.1726V100.259H65.0101V96.967Z" fill="white"/>
</mask>
<g mask="url(#mask60_32_3641)">
<mask id="mask61_32_3641" style="mask-type:luminance" maskUnits="userSpaceOnUse" x="65" y="97" width="32" height="4">
<path d="M96.9992 100.133H65.0245C66.3665 97.9316 68.8057 97.1053 68.8057 97.1053H93.2181C93.2181 97.1053 95.6629 97.9316 96.9992 100.133Z" fill="white"/>
</mask>
<g mask="url(#mask61_32_3641)">
<mask id="mask62_32_3641" style="mask-type:luminance" maskUnits="userSpaceOnUse" x="65" y="97" width="32" height="4">
<path d="M96.9992 100.133H65.0245C66.3665 97.9316 68.8057 97.1053 68.8057 97.1053H93.2181C93.2181 97.1053 95.6629 97.9316 96.9992 100.133Z" fill="white"/>
</mask>
<g mask="url(#mask62_32_3641)">
<path d="M63.5966 97.8216L72.5888 112.373L98.4274 99.4163L89.4345 84.8651L63.5966 97.8216Z" fill="#CFCECD"/>
</g>
</g>
</g>
<mask id="mask63_32_3641" style="mask-type:luminance" maskUnits="userSpaceOnUse" x="68" y="74" width="26" height="22">
<path d="M68.6649 74.9095H93.3349V95.8148H68.6649V74.9095Z" fill="white"/>
</mask>
<g mask="url(#mask63_32_3641)">
<mask id="mask64_32_3641" style="mask-type:luminance" maskUnits="userSpaceOnUse" x="68" y="74" width="26" height="22">
<path d="M88.2497 91.298C85.3658 89.828 83.1344 87.1416 83.1344 87.1416C83.1344 87.1416 82.9866 87.1075 83.1144 86.712C83.2422 86.3172 84.3479 86.2478 84.3022 85.1007C84.2601 83.9536 82.1607 83.1665 82.1607 83.1665C82.1607 83.1665 82.155 82.8669 82.1443 82.3911C82.7268 82.1313 83.1144 81.6767 83.1144 81.1597C83.1144 80.6215 82.6939 80.156 82.0765 79.9007C82.0179 78.0437 81.928 76.026 81.8202 75.718C81.6046 75.1251 81.0093 74.9116 81.0093 74.9116C81.0093 74.9116 80.4189 75.1251 80.2048 75.718C80.092 76.026 80.0056 78.0437 79.9492 79.9007C79.3296 80.156 78.9092 80.6215 78.9092 81.1597C78.9092 81.6786 79.3004 82.1326 79.8836 82.393C79.8743 82.8669 79.8686 83.1665 79.8686 83.1665C79.8686 83.1665 77.7635 83.9536 77.7235 85.1007C77.6778 86.2478 78.7836 86.3172 78.9092 86.712C79.0377 87.1075 78.8892 87.1416 78.8892 87.1416C78.8892 87.1416 76.6578 89.828 73.7746 91.298C70.885 92.7634 69.1018 93.9452 68.8056 95.772H93.218C92.9217 93.9452 91.1386 92.7634 88.2497 91.298Z" fill="white"/>
</mask>
<g mask="url(#mask64_32_3641)">
<mask id="mask65_32_3641" style="mask-type:luminance" maskUnits="userSpaceOnUse" x="68" y="74" width="26" height="22">
<path d="M88.2497 91.298C85.3658 89.828 83.1344 87.1416 83.1344 87.1416C83.1344 87.1416 82.9866 87.1075 83.1144 86.712C83.2422 86.3172 84.3479 86.2478 84.3022 85.1007C84.2601 83.9536 82.1607 83.1665 82.1607 83.1665C82.1607 83.1665 82.155 82.8669 82.1443 82.3911C82.7268 82.1313 83.1144 81.6767 83.1144 81.1597C83.1144 80.6215 82.6939 80.156 82.0765 79.9007C82.0179 78.0437 81.928 76.026 81.8202 75.718C81.6046 75.1251 81.0093 74.9116 81.0093 74.9116C81.0093 74.9116 80.4189 75.1251 80.2048 75.718C80.092 76.026 80.0056 78.0437 79.9492 79.9007C79.3296 80.156 78.9092 80.6215 78.9092 81.1597C78.9092 81.6786 79.3004 82.1326 79.8836 82.393C79.8743 82.8669 79.8686 83.1665 79.8686 83.1665C79.8686 83.1665 77.7635 83.9536 77.7235 85.1007C77.6778 86.2478 78.7836 86.3172 78.9092 86.712C79.0377 87.1075 78.8892 87.1416 78.8892 87.1416C78.8892 87.1416 76.6578 89.828 73.7746 91.298C70.885 92.7634 69.1018 93.9452 68.8056 95.772H93.218C92.9217 93.9452 91.1386 92.7634 88.2497 91.298Z" fill="white"/>
</mask>
<g mask="url(#mask65_32_3641)">
<path d="M58.9639 79.8465L74.5812 105.117L103.06 90.8367L87.443 65.566L58.9639 79.8465Z" fill="#DDDDDD"/>
</g>
</g>
</g>
<mask id="mask66_32_3641" style="mask-type:luminance" maskUnits="userSpaceOnUse" x="68" y="139" width="26" height="22">
<path d="M68.6649 139.93H93.3349V161H68.6649V139.93Z" fill="white"/>
</mask>
<g mask="url(#mask66_32_3641)">
<mask id="mask67_32_3641" style="mask-type:luminance" maskUnits="userSpaceOnUse" x="68" y="140" width="26" height="21">
<path d="M68.8056 140.004C69.1018 141.831 70.885 143.013 73.7746 144.483C76.6578 145.953 78.8892 148.64 78.8892 148.64C78.8892 148.64 79.0377 148.672 78.9092 149.069C78.7836 149.459 77.6778 149.533 77.7235 150.68C77.7635 151.823 79.8686 152.615 79.8686 152.615C79.8686 152.615 79.8721 152.896 79.8836 153.348C79.2989 153.607 78.9092 154.062 78.9092 154.58C78.9092 155.118 79.3296 155.583 79.9471 155.839C80.0042 157.708 80.092 159.753 80.2048 160.062C80.4189 160.651 81.0093 160.865 81.0093 160.865C81.0093 160.865 81.6046 160.651 81.8202 160.062C81.9301 159.753 82.0179 157.708 82.0779 155.838C82.6961 155.583 83.1144 155.118 83.1144 154.58C83.1144 154.063 82.7268 153.609 82.1457 153.349C82.155 152.898 82.1607 152.615 82.1607 152.615C82.1607 152.615 84.2601 151.823 84.3022 150.68C84.3479 149.533 83.2422 149.459 83.1144 149.069C82.9866 148.672 83.1344 148.64 83.1344 148.64C83.1344 148.64 85.3658 145.953 88.2497 144.483C91.1386 143.013 92.9217 141.831 93.218 140.004H68.8056Z" fill="white"/>
</mask>
<g mask="url(#mask67_32_3641)">
<mask id="mask68_32_3641" style="mask-type:luminance" maskUnits="userSpaceOnUse" x="68" y="140" width="26" height="21">
<path d="M68.8056 140.004C69.1018 141.831 70.885 143.013 73.7746 144.483C76.6578 145.953 78.8892 148.64 78.8892 148.64C78.8892 148.64 79.0377 148.672 78.9092 149.069C78.7836 149.459 77.6778 149.533 77.7235 150.68C77.7635 151.823 79.8686 152.615 79.8686 152.615C79.8686 152.615 79.8721 152.896 79.8836 153.348C79.2989 153.607 78.9092 154.062 78.9092 154.58C78.9092 155.118 79.3296 155.583 79.9471 155.839C80.0042 157.708 80.092 159.753 80.2048 160.062C80.4189 160.651 81.0093 160.865 81.0093 160.865C81.0093 160.865 81.6046 160.651 81.8202 160.062C81.9301 159.753 82.0179 157.708 82.0779 155.838C82.6961 155.583 83.1144 155.118 83.1144 154.58C83.1144 154.063 82.7268 153.609 82.1457 153.349C82.155 152.898 82.1607 152.615 82.1607 152.615C82.1607 152.615 84.2601 151.823 84.3022 150.68C84.3479 149.533 83.2422 149.459 83.1144 149.069C82.9866 148.672 83.1344 148.64 83.1344 148.64C83.1344 148.64 85.3658 145.953 88.2497 144.483C91.1386 143.013 92.9217 141.831 93.218 140.004H68.8056Z" fill="white"/>
</mask>
<g mask="url(#mask68_32_3641)">
<path d="M58.9639 144.939L74.5812 170.21L103.06 155.93L87.443 130.659L58.9639 144.939Z" fill="#DADADA"/>
</g>
</g>
</g>
<g filter="url(#filter9_f_32_3641)">
<mask id="mask69_32_3641" style="mask-type:luminance" maskUnits="userSpaceOnUse" x="65" y="104" width="32" height="29">
<path d="M65.4849 104.188H96.545V132.014H65.4849V104.188Z" fill="white"/>
</mask>
<g mask="url(#mask69_32_3641)">
<mask id="mask70_32_3641" style="mask-type:luminance" maskUnits="userSpaceOnUse" x="65" y="104" width="32" height="28">
<path d="M92.9278 128.486C92.7831 128.435 92.6316 128.382 92.4739 128.329C90.8831 127.807 89.4389 126.865 88.9751 125.264C88.8618 124.869 88.903 124.35 88.8889 123.937C88.8809 123.676 88.8809 114.224 88.8889 113.964C88.903 113.549 88.8618 113.031 88.9751 112.635C89.4389 111.035 90.8831 110.093 92.4739 109.572C92.6316 109.518 92.7831 109.466 92.9278 109.414V128.486ZM87.5136 124.386C87.5013 124.72 87.5389 125.14 87.4366 125.461C87.0154 126.76 85.7054 127.525 84.2661 127.948C81.5149 128.757 81.0259 129.794 81.0259 129.794C81.0259 129.794 80.5369 128.757 77.7845 127.948C76.3446 127.525 75.0346 126.76 74.6152 125.461C74.5111 125.14 74.5487 124.72 74.5363 124.386C74.5302 124.19 74.5302 113.711 74.5363 113.514C74.5487 113.18 74.5111 112.76 74.6152 112.439C75.0346 111.141 76.3446 110.375 77.7845 109.953C80.5369 109.143 81.0259 108.106 81.0259 108.106C81.0259 108.106 81.5149 109.143 84.2661 109.953C85.7054 110.375 87.0154 111.141 87.4366 112.439C87.5389 112.76 87.5013 113.18 87.5136 113.514C87.5204 113.711 87.5204 124.19 87.5136 124.386ZM73.1617 123.937C73.1475 124.35 73.1882 124.869 73.0749 125.264C72.6111 126.865 71.1669 127.807 69.5779 128.329C69.4184 128.382 69.2687 128.435 69.1221 128.486V109.414C69.2687 109.466 69.4184 109.518 69.5779 109.572C71.1669 110.093 72.6111 111.035 73.0749 112.635C73.1882 113.031 73.1475 113.549 73.1617 113.964C73.1709 114.224 73.1709 123.676 73.1617 123.937ZM96.4094 104.645V104.234H65.6362V104.645L67.7456 106.099V130.135L65.6362 131.587V131.995H96.4094V131.587L94.3043 130.135V106.099L96.4094 104.645Z" fill="white"/>
</mask>
<g mask="url(#mask70_32_3641)">
<mask id="mask71_32_3641" style="mask-type:luminance" maskUnits="userSpaceOnUse" x="65" y="104" width="32" height="28">
<path d="M92.9278 128.486C92.7831 128.435 92.6316 128.382 92.4739 128.329C90.8831 127.807 89.4389 126.865 88.9751 125.264C88.8618 124.869 88.903 124.35 88.8889 123.937C88.8809 123.676 88.8809 114.224 88.8889 113.964C88.903 113.549 88.8618 113.031 88.9751 112.635C89.4389 111.035 90.8831 110.093 92.4739 109.572C92.6316 109.518 92.7831 109.466 92.9278 109.414V128.486ZM87.5136 124.386C87.5013 124.72 87.5389 125.14 87.4366 125.461C87.0154 126.76 85.7054 127.525 84.2661 127.948C81.5149 128.757 81.0259 129.794 81.0259 129.794C81.0259 129.794 80.5369 128.757 77.7845 127.948C76.3446 127.525 75.0346 126.76 74.6152 125.461C74.5111 125.14 74.5487 124.72 74.5363 124.386C74.5302 124.19 74.5302 113.711 74.5363 113.514C74.5487 113.18 74.5111 112.76 74.6152 112.439C75.0346 111.141 76.3446 110.375 77.7845 109.953C80.5369 109.143 81.0259 108.106 81.0259 108.106C81.0259 108.106 81.5149 109.143 84.2661 109.953C85.7054 110.375 87.0154 111.141 87.4366 112.439C87.5389 112.76 87.5013 113.18 87.5136 113.514C87.5204 113.711 87.5204 124.19 87.5136 124.386ZM73.1617 123.937C73.1475 124.35 73.1882 124.869 73.0749 125.264C72.6111 126.865 71.1669 127.807 69.5779 128.329C69.4184 128.382 69.2687 128.435 69.1221 128.486V109.414C69.2687 109.466 69.4184 109.518 69.5779 109.572C71.1669 110.093 72.6111 111.035 73.0749 112.635C73.1882 113.031 73.1475 113.549 73.1617 113.964C73.1709 114.224 73.1709 123.676 73.1617 123.937ZM96.4094 104.645V104.234H65.6362V104.645L67.7456 106.099V130.135L65.6362 131.587V131.995H96.4094V131.587L94.3043 130.135V106.099L96.4094 104.645Z" fill="white"/>
</mask>
<g mask="url(#mask71_32_3641)">
<path d="M52.2667 110.802L72.916 143.536L109.779 125.428L89.1291 92.6939L52.2667 110.802Z" fill="#E9C37E" fill-opacity="0.2"/>
</g>
</g>
</g>
</g>
<mask id="mask72_32_3641" style="mask-type:luminance" maskUnits="userSpaceOnUse" x="63" y="101" width="36" height="34">
<path d="M63 101.412H99V134.333H63V101.412Z" fill="white"/>
</mask>
<g mask="url(#mask72_32_3641)">
<mask id="mask73_32_3641" style="mask-type:luminance" maskUnits="userSpaceOnUse" x="63" y="101" width="36" height="34">
<path d="M94.8076 130.159C94.6398 130.098 94.4642 130.036 94.2815 129.973C92.4377 129.356 90.7637 128.241 90.2262 126.347C90.0949 125.879 90.1427 125.265 90.1263 124.776C90.117 124.468 90.117 113.285 90.1263 112.977C90.1427 112.487 90.0949 111.874 90.2262 111.405C90.7637 109.512 92.4377 108.398 94.2815 107.78C94.4642 107.717 94.6398 107.655 94.8076 107.594V130.159ZM88.5323 125.308C88.518 125.703 88.5616 126.2 88.4431 126.58C87.9548 128.116 86.4365 129.021 84.7683 129.522C81.5796 130.48 81.0128 131.706 81.0128 131.706C81.0128 131.706 80.446 130.48 77.2559 129.522C75.5869 129.021 74.0686 128.116 73.5825 126.58C73.4619 126.2 73.5054 125.703 73.4911 125.308C73.484 125.076 73.484 112.678 73.4911 112.445C73.5054 112.05 73.4619 111.553 73.5825 111.173C74.0686 109.637 75.5869 108.731 77.2559 108.231C80.446 107.273 81.0128 106.047 81.0128 106.047C81.0128 106.047 81.5796 107.273 84.7683 108.231C86.4365 108.731 87.9548 109.637 88.4431 111.173C88.5616 111.553 88.518 112.05 88.5323 112.445C88.5401 112.678 88.5401 125.076 88.5323 125.308ZM71.8979 124.776C71.8814 125.265 71.9286 125.879 71.7972 126.347C71.2597 128.241 69.5858 129.356 67.7441 129.973C67.5592 130.036 67.3857 130.098 67.2158 130.159V107.594C67.3857 107.655 67.5592 107.717 67.7441 107.78C69.5858 108.398 71.2597 109.512 71.7972 111.405C71.9286 111.874 71.8814 112.487 71.8979 112.977C71.9086 113.285 71.9086 124.468 71.8979 124.776ZM98.8429 101.952V101.466H63.1755V101.952L65.6204 103.672V132.109L63.1755 133.828V134.31H98.8429V133.828L96.403 132.109V103.672L98.8429 101.952Z" fill="white"/>
</mask>
<g mask="url(#mask73_32_3641)">
<mask id="mask74_32_3641" style="mask-type:luminance" maskUnits="userSpaceOnUse" x="63" y="101" width="36" height="34">
<path d="M94.8076 130.159C94.6398 130.098 94.4642 130.036 94.2815 129.973C92.4377 129.356 90.7637 128.241 90.2262 126.347C90.0949 125.879 90.1427 125.265 90.1263 124.776C90.117 124.468 90.117 113.285 90.1263 112.977C90.1427 112.487 90.0949 111.874 90.2262 111.405C90.7637 109.512 92.4377 108.398 94.2815 107.78C94.4642 107.717 94.6398 107.655 94.8076 107.594V130.159ZM88.5323 125.308C88.518 125.703 88.5616 126.2 88.4431 126.58C87.9548 128.116 86.4365 129.021 84.7683 129.522C81.5796 130.48 81.0128 131.706 81.0128 131.706C81.0128 131.706 80.446 130.48 77.2559 129.522C75.5869 129.021 74.0686 128.116 73.5825 126.58C73.4619 126.2 73.5054 125.703 73.4911 125.308C73.484 125.076 73.484 112.678 73.4911 112.445C73.5054 112.05 73.4619 111.553 73.5825 111.173C74.0686 109.637 75.5869 108.731 77.2559 108.231C80.446 107.273 81.0128 106.047 81.0128 106.047C81.0128 106.047 81.5796 107.273 84.7683 108.231C86.4365 108.731 87.9548 109.637 88.4431 111.173C88.5616 111.553 88.518 112.05 88.5323 112.445C88.5401 112.678 88.5401 125.076 88.5323 125.308ZM71.8979 124.776C71.8814 125.265 71.9286 125.879 71.7972 126.347C71.2597 128.241 69.5858 129.356 67.7441 129.973C67.5592 130.036 67.3857 130.098 67.2158 130.159V107.594C67.3857 107.655 67.5592 107.717 67.7441 107.78C69.5858 108.398 71.2597 109.512 71.7972 111.405C71.9286 111.874 71.8814 112.487 71.8979 112.977C71.9086 113.285 71.9086 124.468 71.8979 124.776ZM98.8429 101.952V101.466H63.1755V101.952L65.6204 103.672V132.109L63.1755 133.828V134.31H98.8429V133.828L96.403 132.109V103.672L98.8429 101.952Z" fill="white"/>
</mask>
<g mask="url(#mask74_32_3641)">
<path d="M47.6796 109.236L71.613 147.964L114.339 126.54L90.4046 87.812L47.6796 109.236Z" fill="#D2D1D1"/>
</g>
</g>
</g>
<mask id="mask75_32_3641" style="mask-type:luminance" maskUnits="userSpaceOnUse" x="80" y="1" width="2" height="76">
<path d="M80.7001 1H81.3233V76.1408H80.7001V1Z" fill="white"/>
</mask>
<g mask="url(#mask75_32_3641)">
<path d="M45.2499 18.7765L80.848 76.3794L116.774 58.3643L81.1764 0.761459L45.2499 18.7765Z" fill="#E5E5E5"/>
</g>
<g filter="url(#filter10_f_32_3641)">
<path d="M80.8579 113.455L82.2513 117.525L86.0167 119.031L82.2513 120.537L80.8579 124.608L79.4646 120.537L75.6992 119.031L79.4646 117.525L80.8579 113.455Z" fill="#EDA625"/>
</g>
<g filter="url(#filter11_f_32_3641)">
<path d="M80.8579 113.455L82.2513 117.525L86.0167 119.031L82.2513 120.537L80.8579 124.608L79.4646 120.537L75.6992 119.031L79.4646 117.525L80.8579 113.455Z" fill="#EDA625"/>
</g>
<g filter="url(#filter12_f_32_3641)">
<path d="M80.8579 113.455L82.2513 117.525L86.0167 119.031L82.2513 120.537L80.8579 124.608L79.4646 120.537L75.6992 119.031L79.4646 117.525L80.8579 113.455Z" fill="#EDA625"/>
</g>
<g filter="url(#filter13_d_32_3641)">
<path d="M80.8579 113.455L82.2513 117.525L86.0167 119.031L82.2513 120.537L80.8579 124.608L79.4646 120.537L75.6992 119.031L79.4646 117.525L80.8579 113.455Z" fill="#E9C37E"/>
</g>
<line x1="3.66313e-05" y1="0.5" x2="480" y2="0.535166" stroke="#D9D9D9"/>
<g filter="url(#filter14_d_32_3641)">
<path d="M210.349 54.9108C210.382 54.911 210.414 54.9012 210.442 54.8825C210.469 54.8639 210.49 54.8373 210.502 54.8064C210.514 54.7754 210.517 54.7416 210.509 54.7093C210.501 54.677 210.484 54.6477 210.46 54.6255C209.473 53.7026 207.987 52.2497 206 50.2666C205.444 49.7101 205.169 49.0355 205.176 48.243C205.218 41.7971 205.224 36.5646 205.192 32.5456C205.192 32.4938 205.212 32.4441 205.249 32.4074C205.286 32.3708 205.335 32.3502 205.387 32.3502H221.941C222.151 32.3503 222.352 32.434 222.501 32.5826L227.43 37.5174C227.458 37.5458 227.494 37.5651 227.533 37.573C227.572 37.5809 227.613 37.5769 227.65 37.5616C227.687 37.5463 227.718 37.5203 227.74 37.4871C227.762 37.4538 227.774 37.4147 227.774 37.3748V30.2737C227.774 30.1651 227.795 30.0577 227.837 29.9579C227.879 29.8581 227.94 29.7679 228.017 29.6925L239.588 18.1163C239.663 18.0418 239.764 18 239.87 18C239.976 18 240.078 18.0418 240.153 18.1163L251.597 29.5605C251.837 29.8045 251.972 30.1329 251.972 30.4745V37.2374C251.972 37.2758 251.984 37.3133 252.006 37.3451C252.027 37.377 252.058 37.4018 252.093 37.4164C252.129 37.4311 252.168 37.4349 252.205 37.4275C252.243 37.4201 252.278 37.4018 252.305 37.3748L256.822 32.8521C257.151 32.5274 257.591 32.3451 258.048 32.3449H274.205C274.291 32.3449 274.373 32.3783 274.433 32.4377C274.494 32.4972 274.528 32.5778 274.528 32.6619C274.528 36.304 274.535 41.4149 274.549 47.9947C274.549 48.9809 274.297 49.7048 273.793 50.1662C272.634 51.2335 271.16 52.6988 269.371 54.5621C269.341 54.5934 269.321 54.6328 269.313 54.6753C269.305 54.7179 269.31 54.7618 269.327 54.8017C269.344 54.8416 269.372 54.8756 269.408 54.8997C269.444 54.9238 269.486 54.9368 269.529 54.9372H276.202C276.356 54.9372 276.509 54.9675 276.65 55.0265C276.792 55.0855 276.92 55.1719 277.027 55.2806L288.635 66.8885C288.665 66.919 288.69 66.9552 288.706 66.9951C288.723 67.035 288.731 67.0778 288.731 67.121C288.731 67.1642 288.723 67.207 288.706 67.2469C288.69 67.2868 288.665 67.323 288.635 67.3535L277.048 78.9403C276.946 79.0439 276.824 79.1263 276.69 79.1825C276.555 79.2387 276.411 79.2677 276.266 79.2678H269.376C269.342 79.267 269.309 79.2765 269.28 79.295C269.251 79.3135 269.229 79.3402 269.216 79.3716C269.203 79.403 269.2 79.4376 269.206 79.471C269.213 79.5043 269.23 79.5348 269.255 79.5584C271.854 82.0892 273.682 83.5369 274.406 84.9423C274.486 85.095 274.528 85.2655 274.528 85.439V101.675C274.528 101.726 274.507 101.774 274.472 101.81C274.436 101.845 274.388 101.865 274.337 101.865H257.837C257.597 101.865 257.367 101.77 257.198 101.601L252.284 96.6876C252.258 96.6624 252.225 96.6452 252.189 96.6382C252.153 96.6312 252.116 96.6347 252.083 96.6483C252.049 96.6618 252.021 96.6849 252.001 96.7144C251.982 96.744 251.972 96.7788 251.972 96.8144C251.983 98.6813 251.963 100.932 251.914 103.567C251.907 104.127 251.613 104.69 251.032 105.257C246.918 109.298 243.321 112.906 240.243 116.083C240.2 116.129 240.148 116.165 240.09 116.19C240.033 116.215 239.971 116.229 239.908 116.229C239.846 116.23 239.784 116.217 239.726 116.193C239.668 116.169 239.615 116.134 239.572 116.089C239.554 116.068 235.928 112.447 228.693 105.226C228.041 104.578 227.719 103.921 227.726 103.255C227.754 101.166 227.761 99.0828 227.747 97.0046C227.746 96.9652 227.734 96.9268 227.712 96.8943C227.689 96.8619 227.658 96.8367 227.621 96.8221C227.584 96.8074 227.544 96.8039 227.506 96.8119C227.467 96.82 227.432 96.8392 227.404 96.8672L222.855 101.416C222.56 101.707 222.163 101.871 221.75 101.871H205.509C205.426 101.871 205.347 101.838 205.288 101.781C205.23 101.724 205.197 101.646 205.197 101.564V85.4284C205.197 85.2441 205.233 85.0615 205.304 84.8911C205.375 84.7206 205.478 84.5657 205.609 84.4351L210.38 79.6641C210.411 79.632 210.433 79.5915 210.441 79.5475C210.449 79.5035 210.444 79.458 210.427 79.4168C210.409 79.3756 210.38 79.3405 210.342 79.3159C210.305 79.2912 210.261 79.2782 210.216 79.2784H203.602C203.243 79.2782 202.901 79.1376 202.65 78.8874L191.085 67.3165C191.058 67.2909 191.037 67.2602 191.023 67.2264C191.008 67.1926 191.001 67.1563 191 67.1195C191 67.0827 191.006 67.0461 191.02 67.0119C191.034 66.9778 191.054 66.9466 191.08 66.9202C194.334 63.6163 198.191 59.7399 202.65 55.2912C203.142 54.8051 204.22 54.9584 204.901 54.9584C206.941 54.9584 208.756 54.9425 210.349 54.9108ZM231.446 36.4607C231.435 38.9968 231.435 40.5308 231.446 41.0627C231.451 41.3008 231.545 41.5274 231.71 41.6967C234.609 44.6379 237.256 47.3008 239.651 49.6854C239.667 49.7012 239.767 49.7224 239.783 49.7224C239.794 49.7224 239.894 49.7012 239.91 49.6854C242.326 47.3184 244.994 44.6749 247.914 41.7548C248.081 41.5864 248.178 41.3596 248.184 41.1208C248.194 40.5925 248.205 39.0602 248.216 36.5241C248.226 33.9845 248.228 32.4505 248.221 31.9222C248.216 31.6815 248.119 31.4526 247.951 31.2829C245.053 28.3417 242.405 25.6788 240.01 23.2942C239.994 23.2784 239.894 23.2625 239.878 23.2625C239.868 23.2625 239.767 23.2784 239.751 23.2942C237.335 25.6612 234.667 28.3047 231.747 31.2248C231.58 31.3932 231.484 31.62 231.477 31.8588C231.467 32.3871 231.456 33.9211 231.446 36.4607ZM224.191 39.5939C222.409 37.8116 221.329 36.739 220.953 36.3762C220.782 36.212 220.555 36.1194 220.319 36.1173C216.219 36.1032 212.492 36.1067 209.139 36.1279C209.117 36.1279 209.033 36.186 209.022 36.1966C209.012 36.2071 208.959 36.2864 208.959 36.3075C208.938 39.6643 208.934 43.391 208.948 47.4875C208.95 47.7236 209.043 47.9504 209.207 48.1215C209.57 48.5019 210.643 49.5815 212.425 51.3603C214.207 53.1391 215.287 54.2116 215.664 54.5779C215.835 54.7422 216.062 54.8348 216.298 54.8368C220.394 54.8509 224.121 54.8474 227.478 54.8263C227.499 54.8263 227.583 54.7681 227.594 54.7576C227.605 54.747 227.657 54.6625 227.657 54.6413C227.679 51.2881 227.682 47.5614 227.668 43.4614C227.666 43.2252 227.573 42.9984 227.409 42.8274C227.043 42.4505 225.97 41.3727 224.191 39.5939ZM255.422 39.6414C253.647 41.4237 252.576 42.5051 252.21 42.8855C252.048 43.0573 251.957 43.2841 251.956 43.5195C251.949 47.616 251.96 51.3427 251.988 54.6995C251.988 54.7206 252.046 54.8051 252.057 54.8157C252.062 54.821 252.147 54.8791 252.168 54.8791C255.524 54.8932 259.251 54.8879 263.348 54.8632C263.583 54.8626 263.81 54.7719 263.982 54.6096C264.358 54.2433 265.436 53.1672 267.215 51.3814C268.99 49.5991 270.059 48.5177 270.422 48.1373C270.586 47.9663 270.679 47.7395 270.681 47.5033C270.688 43.4068 270.678 39.6802 270.649 36.3234C270.649 36.3022 270.591 36.2177 270.581 36.2071C270.57 36.2018 270.491 36.1437 270.47 36.1437C267.113 36.1296 263.386 36.1349 259.29 36.1596C259.054 36.1602 258.828 36.2509 258.656 36.4132C258.279 36.7795 257.201 37.8556 255.422 39.6414ZM237.067 52.6495C237.084 52.6337 237.097 52.6148 237.105 52.5939C237.114 52.5731 237.119 52.5506 237.119 52.5279C237.119 52.5053 237.114 52.4828 237.105 52.4619C237.097 52.4411 237.084 52.4222 237.067 52.4064L231.736 47.0753C231.713 47.0512 231.683 47.0346 231.65 47.0275C231.617 47.0205 231.583 47.0234 231.552 47.0359C231.521 47.0484 231.494 47.0698 231.475 47.0976C231.456 47.1253 231.446 47.158 231.446 47.1916V54.7417C231.446 54.7866 231.463 54.8296 231.495 54.8613C231.527 54.893 231.57 54.9108 231.615 54.9108H234.743C234.786 54.9105 234.828 54.8934 234.859 54.8632L237.067 52.6495ZM244.919 54.8157C245.479 55.0482 247.18 54.9214 247.883 54.8738C247.957 54.8685 248.026 54.8352 248.077 54.7804C248.128 54.7256 248.156 54.6534 248.157 54.5779L248.163 47.0278C248.161 47.0218 248.158 47.0162 248.154 47.0115C248.149 47.0068 248.143 47.0033 248.136 47.0014C248.133 46.9978 248.128 46.9943 248.12 46.9908C248.12 46.9908 248.117 46.9908 248.11 46.9908C248.104 46.9875 248.097 46.9858 248.091 46.9858C248.084 46.9858 248.078 46.9875 248.073 46.9908L242.784 52.38C242.733 52.4345 242.703 52.5058 242.701 52.5801C242.699 52.6544 242.725 52.7262 242.774 52.7815C243.244 53.3099 244.364 54.5938 244.919 54.8157ZM236.333 58.6885C236.262 58.7167 236.199 58.7325 236.143 58.7361C235.054 58.7537 233.554 58.7766 231.641 58.8048C231.609 58.8048 231.578 58.8312 231.551 58.8576C231.525 58.884 231.499 58.9157 231.499 58.9527C231.47 60.8618 231.446 62.3623 231.425 63.4543C231.425 63.5106 231.41 63.574 231.382 63.6445C231.351 63.7114 231.315 63.766 231.277 63.8083C230.519 64.5937 229.475 65.6716 228.143 67.0418C228.122 67.0682 228.117 67.1052 228.117 67.1422C228.117 67.1844 228.122 67.2214 228.143 67.2478C229.475 68.618 230.519 69.6959 231.277 70.4813C231.315 70.5236 231.349 70.5782 231.377 70.6451C231.409 70.7156 231.425 70.779 231.425 70.8353C231.442 71.9273 231.467 73.4278 231.499 75.3369C231.499 75.3739 231.52 75.4056 231.546 75.432C231.578 75.4584 231.604 75.4848 231.641 75.4848C233.554 75.513 235.054 75.5377 236.143 75.5588C236.199 75.5588 236.262 75.5729 236.333 75.6011C236.403 75.6292 236.458 75.6645 236.497 75.7067C237.282 76.4605 238.36 77.5031 239.73 78.8346C239.757 78.861 239.799 78.8663 239.836 78.8663C239.873 78.8663 239.91 78.861 239.936 78.8346C241.31 77.5031 242.388 76.4605 243.17 75.7067C243.212 75.6645 243.268 75.6292 243.339 75.6011C243.409 75.5729 243.473 75.5588 243.529 75.5588C244.617 75.5377 246.118 75.513 248.031 75.4848C248.068 75.4848 248.094 75.4584 248.12 75.432C248.152 75.4056 248.173 75.3739 248.173 75.3422C248.205 73.4295 248.23 71.929 248.247 70.8406C248.247 70.7843 248.263 70.7209 248.295 70.6504C248.323 70.58 248.356 70.5236 248.395 70.4813C249.153 69.6994 250.197 68.6215 251.528 67.2478C251.555 67.2214 251.555 67.1844 251.555 67.1474C251.555 67.1052 251.555 67.0682 251.528 67.0418C250.197 65.6716 249.153 64.5937 248.395 63.8083C248.356 63.7695 248.323 63.7149 248.295 63.6445C248.263 63.574 248.247 63.5106 248.247 63.4543C248.23 62.3659 248.207 60.8653 248.179 58.9527C248.179 58.9157 248.152 58.8893 248.126 58.8576C248.094 58.8312 248.068 58.8048 248.031 58.8048C246.118 58.7766 244.617 58.7537 243.529 58.7361C243.473 58.7325 243.409 58.7167 243.339 58.6885C243.268 58.6603 243.214 58.6269 243.175 58.5881C242.39 57.8308 241.312 56.7865 239.942 55.455C239.915 55.4286 239.878 55.4286 239.836 55.4286C239.799 55.4286 239.762 55.4286 239.736 55.455C238.362 56.7865 237.284 57.8308 236.502 58.5881C236.46 58.6269 236.403 58.6603 236.333 58.6885ZM227.737 62.1809C227.773 62.1446 227.794 62.0952 227.795 62.0436V58.8682C227.795 58.8425 227.79 58.8171 227.78 58.7933C227.77 58.7696 227.756 58.7481 227.738 58.7299C227.719 58.7118 227.698 58.6974 227.674 58.6876C227.65 58.6777 227.625 58.6727 227.599 58.6727H220.197C220.159 58.673 220.121 58.6847 220.089 58.7062C220.057 58.7277 220.033 58.7581 220.018 58.7936C220.003 58.8291 220 58.8681 220.007 58.9058C220.014 58.9435 220.033 58.9782 220.06 59.0055L225.348 64.2943C225.385 64.3305 225.434 64.3507 225.486 64.3507C225.537 64.3507 225.587 64.3305 225.623 64.2943L227.737 62.1809ZM254.086 64.2838C254.119 64.3173 254.165 64.3362 254.212 64.3362C254.26 64.3362 254.305 64.3173 254.339 64.2838L259.654 58.9633C259.679 58.9381 259.696 58.9062 259.703 58.8714C259.71 58.8366 259.707 58.8005 259.693 58.7678C259.68 58.735 259.657 58.707 259.627 58.6872C259.598 58.6675 259.563 58.6569 259.528 58.6568H252.21C252.162 58.6568 252.117 58.6757 252.083 58.7094C252.049 58.7431 252.03 58.7888 252.03 58.8365V62.1545C252.03 62.2021 252.049 62.2477 252.083 62.2813L254.086 64.2838ZM209.508 58.7202C206.969 58.7167 205.435 58.7185 204.907 58.7255C204.668 58.7318 204.441 58.8281 204.272 58.995C201.335 61.9044 198.674 64.5603 196.289 66.9625C196.279 66.9784 196.257 67.0787 196.257 67.0893C196.257 67.1052 196.273 67.2056 196.289 67.2214C198.663 69.6307 201.315 72.2936 204.246 75.2101C204.415 75.3769 204.641 75.4733 204.88 75.4796C205.408 75.4901 206.942 75.4989 209.482 75.506C212.025 75.5095 213.561 75.506 214.089 75.4954C214.328 75.4892 214.555 75.3928 214.723 75.2259C217.661 72.32 220.32 69.6642 222.701 67.2584C222.717 67.2478 222.738 67.1474 222.738 67.1316C222.738 67.1157 222.717 67.0206 222.701 67.0048C220.327 64.592 217.677 61.9273 214.75 59.0108C214.581 58.844 214.355 58.7476 214.116 58.7414C213.587 58.7308 212.052 58.7237 209.508 58.7202ZM270.243 58.6885C267.699 58.678 266.162 58.6762 265.63 58.6832C265.39 58.6882 265.161 58.7846 264.991 58.9527C262.039 61.8586 259.367 64.5127 256.976 66.915C256.96 66.9308 256.939 67.0312 256.939 67.0471C256.939 67.0576 256.96 67.158 256.976 67.1739C259.35 69.5972 262 72.2742 264.927 75.2048C265.096 75.3716 265.323 75.4679 265.561 75.4743C266.093 75.4884 267.633 75.4989 270.179 75.506C272.726 75.5165 274.263 75.5183 274.792 75.5113C275.031 75.5077 275.26 75.4132 275.431 75.2471C278.383 72.3376 281.054 69.6818 283.446 67.2795C283.462 67.2637 283.483 67.1633 283.483 67.1527C283.483 67.1369 283.462 67.0365 283.446 67.0206C281.076 64.5973 278.425 61.9203 275.494 58.9897C275.325 58.8229 275.099 58.7265 274.86 58.7202C274.329 58.7097 272.789 58.6991 270.243 58.6885ZM259.628 75.5852C259.662 75.5845 259.695 75.574 259.723 75.5548C259.751 75.5356 259.773 75.5086 259.786 75.4771C259.799 75.4457 259.802 75.4112 259.796 75.3778C259.789 75.3445 259.773 75.3137 259.749 75.2893L254.593 70.0111C254.557 69.9753 254.515 69.947 254.469 69.9279C254.422 69.9087 254.372 69.8991 254.322 69.8996C254.272 69.9001 254.222 69.9107 254.176 69.9307C254.13 69.9508 254.088 69.9799 254.054 70.0164L252.199 71.9185C252.066 72.0557 251.992 72.2397 251.993 72.431L251.988 75.2259C251.988 75.3114 252.022 75.3934 252.082 75.4538C252.143 75.5143 252.225 75.5482 252.31 75.5482L259.628 75.5852ZM220.128 75.5377L227.361 75.5535C227.447 75.5535 227.529 75.5196 227.589 75.4591C227.65 75.3987 227.684 75.3167 227.684 75.2312L227.694 72.4732C227.698 72.2846 227.628 72.1026 227.499 71.966L225.676 70.0692C225.642 70.0329 225.601 70.0039 225.555 69.9839C225.509 69.9639 225.46 69.9533 225.41 69.9528C225.361 69.9524 225.311 69.9619 225.265 69.981C225.219 70.0001 225.177 70.0283 225.142 70.0639L220.007 75.2418C219.983 75.2662 219.967 75.2969 219.961 75.3303C219.954 75.3636 219.958 75.3982 219.971 75.4296C219.983 75.461 220.005 75.488 220.033 75.5072C220.061 75.5264 220.094 75.537 220.128 75.5377ZM224.26 94.627C226.046 92.8342 227.122 91.7493 227.488 91.3724C227.651 91.1989 227.742 90.9702 227.742 90.7331C227.749 86.619 227.738 82.8782 227.71 79.5109C227.71 79.4897 227.657 79.4052 227.647 79.3946C227.636 79.3841 227.552 79.3312 227.531 79.3312C224.163 79.3172 220.422 79.3207 216.308 79.3418C216.07 79.343 215.842 79.4357 215.669 79.6007C215.292 79.967 214.211 81.0466 212.425 82.8395C210.643 84.6289 209.568 85.7137 209.202 86.0941C209.039 86.2676 208.948 86.4963 208.948 86.7335C208.941 90.8476 208.952 94.5883 208.98 97.9557C208.98 97.9768 209.033 98.0613 209.044 98.0719C209.054 98.0825 209.139 98.1353 209.16 98.1353C212.527 98.1494 216.268 98.1459 220.382 98.1247C220.618 98.1221 220.845 98.0296 221.016 97.8658C221.396 97.496 222.478 96.4164 224.26 94.627ZM231.752 87.1667L236.999 81.9466C237.029 81.9161 237.054 81.8799 237.07 81.84C237.087 81.8001 237.095 81.7573 237.095 81.7141C237.095 81.6709 237.087 81.6281 237.07 81.5882C237.054 81.5483 237.029 81.5121 236.999 81.4816L235.012 79.4739C234.878 79.3366 234.696 79.257 234.505 79.252L231.815 79.1939C231.765 79.1925 231.714 79.2013 231.667 79.2197C231.619 79.2382 231.576 79.266 231.54 79.3015C231.503 79.337 231.474 79.3794 231.454 79.4262C231.435 79.4731 231.425 79.5234 231.425 79.5743L231.451 87.0399C231.449 87.0754 231.459 87.1106 231.478 87.1406C231.497 87.1706 231.525 87.1941 231.557 87.2079C231.59 87.2217 231.626 87.2251 231.661 87.2178C231.696 87.2104 231.728 87.1926 231.752 87.1667ZM244.871 79.3841C244.3 79.6218 243.17 80.9321 242.7 81.4658C242.65 81.5226 242.624 81.5959 242.626 81.6713C242.628 81.7466 242.658 81.8184 242.71 81.8726L248.094 87.3094C248.099 87.3147 248.105 87.3181 248.113 87.3191C248.121 87.32 248.129 87.3185 248.136 87.3146C248.143 87.3111 248.149 87.3076 248.152 87.3041C248.152 87.3076 248.156 87.3076 248.163 87.3041C248.17 87.3017 248.177 87.2974 248.182 87.2917C248.186 87.286 248.189 87.2792 248.189 87.2724L248.147 79.6218C248.147 79.5446 248.117 79.4703 248.064 79.4143C248.011 79.3583 247.939 79.3247 247.862 79.3207C247.154 79.2784 245.426 79.1569 244.871 79.3841ZM255.385 94.5689C257.157 96.3618 258.231 97.4414 258.608 97.8077C258.78 97.9719 259.007 98.0645 259.242 98.0666C263.346 98.1054 267.078 98.123 270.438 98.1194C270.459 98.1194 270.544 98.0666 270.554 98.056C270.565 98.0455 270.618 97.9662 270.618 97.9398C270.66 94.583 270.685 90.8528 270.692 86.7493C270.692 86.5126 270.602 86.2838 270.438 86.11C270.075 85.7296 269.006 84.6429 267.231 82.8501C265.459 81.0572 264.385 79.9776 264.008 79.6113C263.837 79.4452 263.61 79.3506 263.374 79.3471C259.27 79.3119 255.539 79.2943 252.178 79.2943C252.157 79.2943 252.073 79.3524 252.067 79.3577C252.057 79.3682 251.999 79.4528 251.999 79.4739C251.96 82.8342 251.935 86.5661 251.925 90.6697C251.925 90.9046 252.016 91.1313 252.178 91.3037C252.541 91.6876 253.61 92.776 255.385 94.5689ZM231.504 97.7179C231.5 100.25 231.502 101.779 231.509 102.304C231.515 102.542 231.611 102.769 231.779 102.938C234.674 105.865 237.319 108.516 239.714 110.89C239.73 110.9 239.831 110.921 239.846 110.921C239.857 110.921 239.957 110.9 239.973 110.89C242.376 108.523 245.03 105.881 247.936 102.964C248.101 102.795 248.195 102.568 248.2 102.33C248.21 101.802 248.217 100.273 248.221 97.7443C248.224 95.2117 248.223 93.6813 248.216 93.1529C248.208 92.9163 248.112 92.6916 247.946 92.5242C245.051 89.5971 242.405 86.9466 240.01 84.5725C239.994 84.5566 239.894 84.5408 239.883 84.5408C239.868 84.5408 239.767 84.5566 239.751 84.5725C237.349 86.9395 234.697 89.5813 231.794 92.4978C231.627 92.6665 231.531 92.8934 231.525 93.1318C231.514 93.6602 231.507 95.1889 231.504 97.7179Z" fill="#D9D9D9"/>
</g>
<defs>
<filter id="filter0_f_32_3641" x="443.081" y="62.637" width="19.4297" height="15.1833" filterUnits="userSpaceOnUse" color-interpolation-filters="sRGB">
<feFlood flood-opacity="0" result="BackgroundImageFix"/>
<feBlend mode="normal" in="SourceGraphic" in2="BackgroundImageFix" result="shape"/>
<feGaussianBlur stdDeviation="0.7" result="effect1_foregroundBlur_32_3641"/>
</filter>
<filter id="filter1_f_32_3641" x="445.967" y="63.8999" width="13.4962" height="13.4961" filterUnits="userSpaceOnUse" color-interpolation-filters="sRGB">
<feFlood flood-opacity="0" result="BackgroundImageFix"/>
<feBlend mode="normal" in="SourceGraphic" in2="BackgroundImageFix" result="shape"/>
<feGaussianBlur stdDeviation="2.1" result="effect1_foregroundBlur_32_3641"/>
</filter>
<filter id="filter2_f_32_3641" x="445.967" y="63.8999" width="13.4962" height="13.4961" filterUnits="userSpaceOnUse" color-interpolation-filters="sRGB">
<feFlood flood-opacity="0" result="BackgroundImageFix"/>
<feBlend mode="normal" in="SourceGraphic" in2="BackgroundImageFix" result="shape"/>
<feGaussianBlur stdDeviation="1.9" result="effect1_foregroundBlur_32_3641"/>
</filter>
<filter id="filter3_f_32_3641" x="399.727" y="78.3105" width="25.2182" height="21.0621" filterUnits="userSpaceOnUse" color-interpolation-filters="sRGB">
<feFlood flood-opacity="0" result="BackgroundImageFix"/>
<feBlend mode="normal" in="SourceGraphic" in2="BackgroundImageFix" result="shape"/>
<feGaussianBlur stdDeviation="0.7" result="effect1_foregroundBlur_32_3641"/>
</filter>
<filter id="filter4_f_32_3641" x="400.759" y="78.3411" width="22.3882" height="23.1373" filterUnits="userSpaceOnUse" color-interpolation-filters="sRGB">
<feFlood flood-opacity="0" result="BackgroundImageFix"/>
<feBlend mode="normal" in="SourceGraphic" in2="BackgroundImageFix" result="shape"/>
<feGaussianBlur stdDeviation="3.9" result="effect1_foregroundBlur_32_3641"/>
</filter>
<filter id="filter5_f_32_3641" x="406.459" y="84.0411" width="10.9882" height="11.7373" filterUnits="userSpaceOnUse" color-interpolation-filters="sRGB">
<feFlood flood-opacity="0" result="BackgroundImageFix"/>
<feBlend mode="normal" in="SourceGraphic" in2="BackgroundImageFix" result="shape"/>
<feGaussianBlur stdDeviation="1.05" result="effect1_foregroundBlur_32_3641"/>
</filter>
<filter id="filter6_f_32_3641" x="23.2535" y="82.5538" width="24.2708" height="18.1214" filterUnits="userSpaceOnUse" color-interpolation-filters="sRGB">
<feFlood flood-opacity="0" result="BackgroundImageFix"/>
<feBlend mode="normal" in="SourceGraphic" in2="BackgroundImageFix" result="shape"/>
<feGaussianBlur stdDeviation="0.7" result="effect1_foregroundBlur_32_3641"/>
</filter>
<filter id="filter7_f_32_3641" x="26.7192" y="83.8237" width="16.8979" height="16.8979" filterUnits="userSpaceOnUse" color-interpolation-filters="sRGB">
<feFlood flood-opacity="0" result="BackgroundImageFix"/>
<feBlend mode="normal" in="SourceGraphic" in2="BackgroundImageFix" result="shape"/>
<feGaussianBlur stdDeviation="3" result="effect1_foregroundBlur_32_3641"/>
</filter>
<filter id="filter8_f_32_3641" x="30.2192" y="87.3237" width="9.89789" height="9.89786" filterUnits="userSpaceOnUse" color-interpolation-filters="sRGB">
<feFlood flood-opacity="0" result="BackgroundImageFix"/>
<feBlend mode="normal" in="SourceGraphic" in2="BackgroundImageFix" result="shape"/>
<feGaussianBlur stdDeviation="1" result="effect1_foregroundBlur_32_3641"/>
</filter>
<filter id="filter9_f_32_3641" x="64.2362" y="102.834" width="33.5732" height="30.5609" filterUnits="userSpaceOnUse" color-interpolation-filters="sRGB">
<feFlood flood-opacity="0" result="BackgroundImageFix"/>
<feBlend mode="normal" in="SourceGraphic" in2="BackgroundImageFix" result="shape"/>
<feGaussianBlur stdDeviation="0.7" result="effect1_foregroundBlur_32_3641"/>
</filter>
<filter id="filter10_f_32_3641" x="65.9992" y="103.755" width="29.7176" height="30.5526" filterUnits="userSpaceOnUse" color-interpolation-filters="sRGB">
<feFlood flood-opacity="0" result="BackgroundImageFix"/>
<feBlend mode="normal" in="SourceGraphic" in2="BackgroundImageFix" result="shape"/>
<feGaussianBlur stdDeviation="4.15" result="effect1_foregroundBlur_32_3641"/>
</filter>
<filter id="filter11_f_32_3641" x="67.6992" y="105.455" width="26.3176" height="27.1526" filterUnits="userSpaceOnUse" color-interpolation-filters="sRGB">
<feFlood flood-opacity="0" result="BackgroundImageFix"/>
<feBlend mode="normal" in="SourceGraphic" in2="BackgroundImageFix" result="shape"/>
<feGaussianBlur stdDeviation="3.15" result="effect1_foregroundBlur_32_3641"/>
</filter>
<filter id="filter12_f_32_3641" x="67.6992" y="105.455" width="26.3176" height="27.1526" filterUnits="userSpaceOnUse" color-interpolation-filters="sRGB">
<feFlood flood-opacity="0" result="BackgroundImageFix"/>
<feBlend mode="normal" in="SourceGraphic" in2="BackgroundImageFix" result="shape"/>
<feGaussianBlur stdDeviation="0.45" result="effect1_foregroundBlur_32_3641"/>
</filter>
<filter id="filter13_d_32_3641" x="71.6992" y="113.455" width="18.3176" height="19.1526" filterUnits="userSpaceOnUse" color-interpolation-filters="sRGB">
<feFlood flood-opacity="0" result="BackgroundImageFix"/>
<feColorMatrix in="SourceAlpha" type="matrix" values="0 0 0 0 0 0 0 0 0 0 0 0 0 0 0 0 0 0 127 0" result="hardAlpha"/>
<feOffset dy="4"/>
<feGaussianBlur stdDeviation="2"/>
<feComposite in2="hardAlpha" operator="out"/>
<feColorMatrix type="matrix" values="0 0 0 0 0 0 0 0 0 0 0 0 0 0 0 0 0 0 0.25 0"/>
<feBlend mode="normal" in2="BackgroundImageFix" result="effect1_dropShadow_32_3641"/>
<feBlend mode="normal" in="SourceGraphic" in2="effect1_dropShadow_32_3641" result="shape"/>
</filter>
<filter id="filter14_d_32_3641" x="187" y="18" width="105.731" height="106.229" filterUnits="userSpaceOnUse" color-interpolation-filters="sRGB">
<feFlood flood-opacity="0" result="BackgroundImageFix"/>
<feColorMatrix in="SourceAlpha" type="matrix" values="0 0 0 0 0 0 0 0 0 0 0 0 0 0 0 0 0 0 127 0" result="hardAlpha"/>
<feOffset dy="4"/>
<feGaussianBlur stdDeviation="2"/>
<feComposite in2="hardAlpha" operator="out"/>
<feColorMatrix type="matrix" values="0 0 0 0 0 0 0 0 0 0 0 0 0 0 0 0 0 0 0.25 0"/>
<feBlend mode="normal" in2="BackgroundImageFix" result="effect1_dropShadow_32_3641"/>
<feBlend mode="normal" in="SourceGraphic" in2="effect1_dropShadow_32_3641" result="shape"/>
</filter>
<linearGradient id="paint0_linear_32_3641" x1="26.6654" y1="85.5045" x2="39.8572" y2="74.4017" gradientUnits="userSpaceOnUse">
<stop stop-color="#D3D3D3"/>
<stop offset="0.125" stop-color="#D8D8D8"/>
<stop offset="0.25" stop-color="#D3D3D3"/>
<stop offset="0.375" stop-color="#D3D3D3"/>
<stop offset="0.5" stop-color="#D3D3D3"/>
<stop offset="0.625" stop-color="#D3D3D3"/>
<stop offset="0.75" stop-color="#D3D3D3"/>
<stop offset="0.875" stop-color="#D3D3D3"/>
<stop offset="1" stop-color="#D3D3D3"/>
</linearGradient>
<linearGradient id="paint1_linear_32_3641" x1="26.3989" y1="80.0301" x2="41.0242" y2="67.7209" gradientUnits="userSpaceOnUse">
<stop stop-color="#D1D1D1"/>
<stop offset="0.125" stop-color="#CFCFCF"/>
<stop offset="0.25" stop-color="#D4D4D4"/>
<stop offset="0.375" stop-color="#CDCDCD"/>
<stop offset="0.5" stop-color="#D8D7D5"/>
<stop offset="0.625" stop-color="#CCCCCC"/>
<stop offset="0.75" stop-color="#CECECE"/>
<stop offset="0.875" stop-color="#D2D2D2"/>
<stop offset="1" stop-color="#D5AA5A"/>
</linearGradient>
<linearGradient id="paint2_linear_32_3641" x1="24.479" y1="110.169" x2="39.1044" y2="97.8596" gradientUnits="userSpaceOnUse">
<stop stop-color="#C4C4C4"/>
<stop offset="0.125" stop-color="#B9B9B9"/>
<stop offset="0.25" stop-color="#BABABA"/>
<stop offset="0.375" stop-color="#B9B9B9"/>
<stop offset="0.5" stop-color="#B8B8B8"/>
<stop offset="0.625" stop-color="#B8B8B8"/>
<stop offset="0.75" stop-color="#BABABA"/>
<stop offset="0.875" stop-color="#C1C1C1"/>
<stop offset="1" stop-color="#BFBFBF"/>
</linearGradient>
<linearGradient id="paint3_linear_32_3641" x1="20.663" y1="96.8569" x2="42.6095" y2="78.3859" gradientUnits="userSpaceOnUse">
<stop stop-color="#C4C4C4"/>
<stop offset="0.0625" stop-color="#CBCBCB"/>
<stop offset="0.125" stop-color="#C8C8C8"/>
<stop offset="0.1875" stop-color="#CDCDCD"/>
<stop offset="0.25" stop-color="#C8C8C8"/>
<stop offset="0.3125" stop-color="#C6C6C6"/>
<stop offset="0.375" stop-color="#CCCCCC"/>
<stop offset="0.5" stop-color="#CCCCCC"/>
<stop offset="0.625" stop-color="#CDCDCD"/>
<stop offset="0.75" stop-color="#E5E5E5"/>
<stop offset="0.875" stop-color="#DEDEDE"/>
<stop offset="1" stop-color="#D8D8D8"/>
</linearGradient>
</defs>
</svg>
