<svg width="147" height="150" viewBox="0 0 147 150" fill="none" xmlns="http://www.w3.org/2000/svg">
<g filter="url(#filter0_f_43_13)">
<path d="M74.7207 20C84.2626 20 93.2339 22.4435 101.044 26.7373C97.4861 25.9129 93.7606 25.4736 89.9238 25.4736C64.91 25.474 44.6321 44.0888 44.6318 67.0518C44.6318 90.0149 64.9098 108.631 89.9238 108.631C105.255 108.631 118.806 101.636 127.001 90.9346C120.093 113.244 99.2993 129.45 74.7207 129.45C44.4994 129.45 20.0002 104.949 20 74.7256C20 44.5019 44.4993 20.0003 74.7207 20Z" fill="#D9D9D9"/>
<path d="M55.5787 96.6318L56.2561 98.6913L58.3156 99.3687L56.2561 100.046L55.5787 102.106L54.9014 100.046L52.8419 99.3687L54.9014 98.6913L55.5787 96.6318Z" fill="black"/>
<path d="M30.9473 66.5265L31.6246 69.6158L33.6841 70.6318L31.6246 71.6478L30.9473 74.737L30.2699 71.6478L28.2104 70.6318L30.2699 69.6158L30.9473 66.5265Z" fill="black"/>
<path d="M44.6313 36.4211L45.9859 41.5699L50.1049 43.2633L45.9859 44.9566L44.6313 50.1054L43.2766 44.9566L39.1577 43.2633L43.2766 41.5699L44.6313 36.4211Z" fill="black"/>
<path d="M42.658 70.8774L43.1341 72.8078L44.5818 73.4427L43.1341 74.0776L42.658 76.0079L42.1819 74.0776L40.7342 73.4427L42.1819 72.8078L42.658 70.8774Z" fill="black"/>
<path d="M37.7894 85.6843L39.4828 90.8331L44.6315 92.5264L39.4828 94.2198L37.7894 99.3686L36.0961 94.2198L30.9474 92.5264L36.0961 90.8331L37.7894 85.6843Z" fill="black"/>
<path d="M61.0522 110.316L62.4069 114.435L66.5259 115.79L62.4069 117.144L61.0522 121.263L59.6976 117.144L55.5786 115.79L59.6976 114.435L61.0522 110.316Z" fill="black"/>
<path d="M66.5987 25.7719L67.0748 27.4609L68.5225 28.0164L67.0748 28.5719L66.5987 30.261L66.1225 28.5719L64.6749 28.0164L66.1225 27.4609L66.5987 25.7719Z" fill="black"/>
<path d="M77.4732 118.526L78.1505 121.616L80.21 122.632L78.1505 123.648L77.4732 126.737L76.7959 123.648L74.7364 122.632L76.7959 121.616L77.4732 118.526Z" fill="black"/>
<path d="M41.8945 99.3685L42.5718 102.458L44.6313 103.474L42.5718 104.49L41.8945 107.579L41.2171 104.49L39.1577 103.474L41.2171 102.458L41.8945 99.3685Z" fill="black"/>
<path d="M30.9473 47.3685L31.6246 49.428L33.6841 50.1053L31.6246 50.7827L30.9473 52.8422L30.2699 50.7827L28.2104 50.1053L30.2699 49.428L30.9473 47.3685Z" fill="black"/>
<ellipse cx="94.6422" cy="116.538" rx="0.748142" ry="0.748196" fill="#1E1E1E"/>
<ellipse cx="32.7184" cy="58.7994" rx="0.748142" ry="0.748196" fill="#1E1E1E"/>
<path d="M30.1533 87.4445C30.1533 87.8577 29.8183 88.1927 29.4051 88.1927C28.9919 88.1927 28.657 87.8577 28.657 87.4445C28.657 87.0313 28.9919 86.6963 29.4051 86.6963C29.8183 86.6963 30.1533 87.0313 30.1533 87.4445Z" fill="#1E1E1E"/>
<ellipse cx="40.4136" cy="70.3429" rx="0.534387" ry="0.534426" fill="#1E1E1E"/>
<ellipse cx="26.008" cy="72.5344" rx="0.534387" ry="0.534426" fill="#1E1E1E"/>
<ellipse cx="37.6347" cy="47.4695" rx="0.534387" ry="0.534426" fill="#1E1E1E"/>
<ellipse cx="43.62" cy="109.249" rx="0.534387" ry="0.534426" fill="#1E1E1E"/>
<ellipse cx="57.9414" cy="118.441" rx="0.534387" ry="0.534426" fill="#1E1E1E"/>
<ellipse cx="78.0075" cy="116.324" rx="0.534387" ry="0.534426" fill="#1E1E1E"/>
<ellipse cx="82.0958" cy="126.351" rx="0.534387" ry="0.534426" fill="#1E1E1E"/>
<ellipse cx="47.895" cy="35.9259" rx="0.534387" ry="0.534426" fill="#1E1E1E"/>
<ellipse cx="49.6051" cy="38.2774" rx="0.534387" ry="0.534426" fill="#1E1E1E"/>
<ellipse cx="39.692" cy="53.3766" rx="0.534387" ry="0.534426" fill="#1E1E1E"/>
<ellipse cx="97.1654" cy="113.587" rx="0.534387" ry="0.534426" fill="#1E1E1E"/>
<ellipse cx="28.4433" cy="60.0818" rx="0.534387" ry="0.534426" fill="#1E1E1E"/>
<ellipse cx="27.802" cy="52.8138" rx="0.534387" ry="0.534426" fill="#1E1E1E"/>
<ellipse cx="62.6441" cy="25.2373" rx="0.534387" ry="0.534426" fill="#1E1E1E"/>
<ellipse cx="81.4545" cy="122.075" rx="0.320632" ry="0.320655" fill="#1E1E1E"/>
<ellipse cx="29.2983" cy="83.383" rx="0.534387" ry="0.534426" fill="#1E1E1E"/>
<ellipse cx="47.9025" cy="91.6924" rx="0.534387" ry="0.534426" fill="#1E1E1E"/>
<ellipse cx="71.8355" cy="122.075" rx="0.748142" ry="0.748196" fill="#1E1E1E"/>
<ellipse cx="57.5139" cy="109.677" rx="0.748142" ry="0.748196" fill="#1E1E1E"/>
<ellipse cx="47.4675" cy="113.097" rx="0.748142" ry="0.748196" fill="#1E1E1E"/>
<ellipse cx="49.3913" cy="97.278" rx="0.748142" ry="0.748196" fill="#1E1E1E"/>
<ellipse cx="38.0624" cy="105.829" rx="0.748142" ry="0.748196" fill="#1E1E1E"/>
<ellipse cx="38.0624" cy="40.8427" rx="0.748142" ry="0.748196" fill="#1E1E1E"/>
<ellipse cx="62.0028" cy="29.299" rx="0.748142" ry="0.748196" fill="#1E1E1E"/>
</g>
<g filter="url(#filter1_f_43_13)">
<path d="M74.7207 20C84.2626 20 93.2339 22.4435 101.044 26.7373C97.4861 25.9129 93.7606 25.4736 89.9238 25.4736C64.91 25.474 44.6321 44.0888 44.6318 67.0518C44.6318 90.0149 64.9098 108.631 89.9238 108.631C105.255 108.631 118.806 101.636 127.001 90.9346C120.093 113.244 99.2993 129.45 74.7207 129.45C44.4994 129.45 20.0002 104.949 20 74.7256C20 44.5019 44.4993 20.0003 74.7207 20Z" fill="#D9D9D9"/>
<path d="M55.5787 96.6318L56.2561 98.6913L58.3156 99.3687L56.2561 100.046L55.5787 102.106L54.9014 100.046L52.8419 99.3687L54.9014 98.6913L55.5787 96.6318Z" fill="black"/>
<path d="M30.9473 66.5265L31.6246 69.6158L33.6841 70.6318L31.6246 71.6478L30.9473 74.737L30.2699 71.6478L28.2104 70.6318L30.2699 69.6158L30.9473 66.5265Z" fill="black"/>
<path d="M44.6313 36.4211L45.9859 41.5699L50.1049 43.2633L45.9859 44.9566L44.6313 50.1054L43.2766 44.9566L39.1577 43.2633L43.2766 41.5699L44.6313 36.4211Z" fill="black"/>
<path d="M42.658 70.8774L43.1341 72.8078L44.5818 73.4427L43.1341 74.0776L42.658 76.0079L42.1819 74.0776L40.7342 73.4427L42.1819 72.8078L42.658 70.8774Z" fill="black"/>
<path d="M37.7894 85.6843L39.4828 90.8331L44.6315 92.5264L39.4828 94.2198L37.7894 99.3686L36.0961 94.2198L30.9474 92.5264L36.0961 90.8331L37.7894 85.6843Z" fill="black"/>
<path d="M61.0522 110.316L62.4069 114.435L66.5259 115.79L62.4069 117.144L61.0522 121.263L59.6976 117.144L55.5786 115.79L59.6976 114.435L61.0522 110.316Z" fill="black"/>
<path d="M66.5987 25.7719L67.0748 27.4609L68.5225 28.0164L67.0748 28.5719L66.5987 30.261L66.1225 28.5719L64.6749 28.0164L66.1225 27.4609L66.5987 25.7719Z" fill="black"/>
<path d="M77.4732 118.526L78.1505 121.616L80.21 122.632L78.1505 123.648L77.4732 126.737L76.7959 123.648L74.7364 122.632L76.7959 121.616L77.4732 118.526Z" fill="black"/>
<path d="M41.8945 99.3685L42.5718 102.458L44.6313 103.474L42.5718 104.49L41.8945 107.579L41.2171 104.49L39.1577 103.474L41.2171 102.458L41.8945 99.3685Z" fill="black"/>
<path d="M30.9473 47.3685L31.6246 49.428L33.6841 50.1053L31.6246 50.7827L30.9473 52.8422L30.2699 50.7827L28.2104 50.1053L30.2699 49.428L30.9473 47.3685Z" fill="black"/>
<ellipse cx="94.6422" cy="116.538" rx="0.748142" ry="0.748196" fill="#1E1E1E"/>
<ellipse cx="32.7184" cy="58.7994" rx="0.748142" ry="0.748196" fill="#1E1E1E"/>
<path d="M30.1533 87.4445C30.1533 87.8577 29.8183 88.1927 29.4051 88.1927C28.9919 88.1927 28.657 87.8577 28.657 87.4445C28.657 87.0313 28.9919 86.6963 29.4051 86.6963C29.8183 86.6963 30.1533 87.0313 30.1533 87.4445Z" fill="#1E1E1E"/>
<ellipse cx="40.4136" cy="70.3429" rx="0.534387" ry="0.534426" fill="#1E1E1E"/>
<ellipse cx="26.008" cy="72.5344" rx="0.534387" ry="0.534426" fill="#1E1E1E"/>
<ellipse cx="37.6347" cy="47.4695" rx="0.534387" ry="0.534426" fill="#1E1E1E"/>
<ellipse cx="43.62" cy="109.249" rx="0.534387" ry="0.534426" fill="#1E1E1E"/>
<ellipse cx="57.9414" cy="118.441" rx="0.534387" ry="0.534426" fill="#1E1E1E"/>
<ellipse cx="78.0075" cy="116.324" rx="0.534387" ry="0.534426" fill="#1E1E1E"/>
<ellipse cx="82.0958" cy="126.351" rx="0.534387" ry="0.534426" fill="#1E1E1E"/>
<ellipse cx="47.895" cy="35.9259" rx="0.534387" ry="0.534426" fill="#1E1E1E"/>
<ellipse cx="49.6051" cy="38.2774" rx="0.534387" ry="0.534426" fill="#1E1E1E"/>
<ellipse cx="39.692" cy="53.3766" rx="0.534387" ry="0.534426" fill="#1E1E1E"/>
<ellipse cx="97.1654" cy="113.587" rx="0.534387" ry="0.534426" fill="#1E1E1E"/>
<ellipse cx="28.4433" cy="60.0818" rx="0.534387" ry="0.534426" fill="#1E1E1E"/>
<ellipse cx="27.802" cy="52.8138" rx="0.534387" ry="0.534426" fill="#1E1E1E"/>
<ellipse cx="62.6441" cy="25.2373" rx="0.534387" ry="0.534426" fill="#1E1E1E"/>
<ellipse cx="81.4545" cy="122.075" rx="0.320632" ry="0.320655" fill="#1E1E1E"/>
<ellipse cx="29.2983" cy="83.383" rx="0.534387" ry="0.534426" fill="#1E1E1E"/>
<ellipse cx="47.9025" cy="91.6924" rx="0.534387" ry="0.534426" fill="#1E1E1E"/>
<ellipse cx="71.8355" cy="122.075" rx="0.748142" ry="0.748196" fill="#1E1E1E"/>
<ellipse cx="57.5139" cy="109.677" rx="0.748142" ry="0.748196" fill="#1E1E1E"/>
<ellipse cx="47.4675" cy="113.097" rx="0.748142" ry="0.748196" fill="#1E1E1E"/>
<ellipse cx="49.3913" cy="97.278" rx="0.748142" ry="0.748196" fill="#1E1E1E"/>
<ellipse cx="38.0624" cy="105.829" rx="0.748142" ry="0.748196" fill="#1E1E1E"/>
<ellipse cx="38.0624" cy="40.8427" rx="0.748142" ry="0.748196" fill="#1E1E1E"/>
<ellipse cx="62.0028" cy="29.299" rx="0.748142" ry="0.748196" fill="#1E1E1E"/>
</g>
<path d="M74.7207 20C84.2626 20 93.2339 22.4435 101.044 26.7373C97.4861 25.9129 93.7606 25.4736 89.9238 25.4736C64.91 25.474 44.6321 44.0888 44.6318 67.0518C44.6318 90.0149 64.9098 108.631 89.9238 108.631C105.255 108.631 118.806 101.636 127.001 90.9346C120.093 113.244 99.2993 129.45 74.7207 129.45C44.4994 129.45 20.0002 104.949 20 74.7256C20 44.5019 44.4993 20.0003 74.7207 20Z" fill="#D9D9D9"/>
<path d="M55.5787 96.6318L56.2561 98.6913L58.3156 99.3687L56.2561 100.046L55.5787 102.106L54.9014 100.046L52.8419 99.3687L54.9014 98.6913L55.5787 96.6318Z" fill="black"/>
<path d="M30.9473 66.5265L31.6246 69.6158L33.6841 70.6318L31.6246 71.6478L30.9473 74.737L30.2699 71.6478L28.2104 70.6318L30.2699 69.6158L30.9473 66.5265Z" fill="black"/>
<path d="M44.6313 36.4211L45.9859 41.5699L50.1049 43.2633L45.9859 44.9566L44.6313 50.1054L43.2766 44.9566L39.1577 43.2633L43.2766 41.5699L44.6313 36.4211Z" fill="black"/>
<path d="M42.658 70.8774L43.1341 72.8078L44.5818 73.4427L43.1341 74.0776L42.658 76.0079L42.1819 74.0776L40.7342 73.4427L42.1819 72.8078L42.658 70.8774Z" fill="black"/>
<path d="M37.7894 85.6843L39.4828 90.8331L44.6315 92.5264L39.4828 94.2198L37.7894 99.3686L36.0961 94.2198L30.9474 92.5264L36.0961 90.8331L37.7894 85.6843Z" fill="black"/>
<path d="M61.0522 110.316L62.4069 114.435L66.5259 115.79L62.4069 117.144L61.0522 121.263L59.6976 117.144L55.5786 115.79L59.6976 114.435L61.0522 110.316Z" fill="black"/>
<path d="M66.5987 25.7719L67.0748 27.4609L68.5225 28.0164L67.0748 28.5719L66.5987 30.261L66.1225 28.5719L64.6749 28.0164L66.1225 27.4609L66.5987 25.7719Z" fill="black"/>
<path d="M77.4732 118.526L78.1505 121.616L80.21 122.632L78.1505 123.648L77.4732 126.737L76.7959 123.648L74.7364 122.632L76.7959 121.616L77.4732 118.526Z" fill="black"/>
<path d="M41.8945 99.3685L42.5718 102.458L44.6313 103.474L42.5718 104.49L41.8945 107.579L41.2171 104.49L39.1577 103.474L41.2171 102.458L41.8945 99.3685Z" fill="black"/>
<path d="M30.9473 47.3685L31.6246 49.428L33.6841 50.1053L31.6246 50.7827L30.9473 52.8422L30.2699 50.7827L28.2104 50.1053L30.2699 49.428L30.9473 47.3685Z" fill="black"/>
<ellipse cx="94.6422" cy="116.538" rx="0.748142" ry="0.748196" fill="#1E1E1E"/>
<ellipse cx="32.7184" cy="58.7994" rx="0.748142" ry="0.748196" fill="#1E1E1E"/>
<path d="M30.1533 87.4445C30.1533 87.8577 29.8183 88.1927 29.4051 88.1927C28.9919 88.1927 28.657 87.8577 28.657 87.4445C28.657 87.0313 28.9919 86.6963 29.4051 86.6963C29.8183 86.6963 30.1533 87.0313 30.1533 87.4445Z" fill="#1E1E1E"/>
<ellipse cx="40.4136" cy="70.3429" rx="0.534387" ry="0.534426" fill="#1E1E1E"/>
<ellipse cx="26.008" cy="72.5344" rx="0.534387" ry="0.534426" fill="#1E1E1E"/>
<ellipse cx="37.6347" cy="47.4695" rx="0.534387" ry="0.534426" fill="#1E1E1E"/>
<ellipse cx="43.62" cy="109.249" rx="0.534387" ry="0.534426" fill="#1E1E1E"/>
<ellipse cx="57.9414" cy="118.441" rx="0.534387" ry="0.534426" fill="#1E1E1E"/>
<ellipse cx="78.0075" cy="116.324" rx="0.534387" ry="0.534426" fill="#1E1E1E"/>
<ellipse cx="82.0958" cy="126.351" rx="0.534387" ry="0.534426" fill="#1E1E1E"/>
<ellipse cx="47.895" cy="35.9259" rx="0.534387" ry="0.534426" fill="#1E1E1E"/>
<ellipse cx="49.6051" cy="38.2774" rx="0.534387" ry="0.534426" fill="#1E1E1E"/>
<ellipse cx="39.692" cy="53.3766" rx="0.534387" ry="0.534426" fill="#1E1E1E"/>
<ellipse cx="97.1654" cy="113.587" rx="0.534387" ry="0.534426" fill="#1E1E1E"/>
<ellipse cx="28.4433" cy="60.0818" rx="0.534387" ry="0.534426" fill="#1E1E1E"/>
<ellipse cx="27.802" cy="52.8138" rx="0.534387" ry="0.534426" fill="#1E1E1E"/>
<ellipse cx="62.6441" cy="25.2373" rx="0.534387" ry="0.534426" fill="#1E1E1E"/>
<ellipse cx="81.4545" cy="122.075" rx="0.320632" ry="0.320655" fill="#1E1E1E"/>
<ellipse cx="29.2983" cy="83.383" rx="0.534387" ry="0.534426" fill="#1E1E1E"/>
<ellipse cx="47.9025" cy="91.6924" rx="0.534387" ry="0.534426" fill="#1E1E1E"/>
<ellipse cx="71.8355" cy="122.075" rx="0.748142" ry="0.748196" fill="#1E1E1E"/>
<ellipse cx="57.5139" cy="109.677" rx="0.748142" ry="0.748196" fill="#1E1E1E"/>
<ellipse cx="47.4675" cy="113.097" rx="0.748142" ry="0.748196" fill="#1E1E1E"/>
<ellipse cx="49.3913" cy="97.278" rx="0.748142" ry="0.748196" fill="#1E1E1E"/>
<ellipse cx="38.0624" cy="105.829" rx="0.748142" ry="0.748196" fill="#1E1E1E"/>
<ellipse cx="38.0624" cy="40.8427" rx="0.748142" ry="0.748196" fill="#1E1E1E"/>
<ellipse cx="62.0028" cy="29.299" rx="0.748142" ry="0.748196" fill="#1E1E1E"/>
<defs>
<filter id="filter0_f_43_13" x="0" y="0" width="147.001" height="149.45" filterUnits="userSpaceOnUse" color-interpolation-filters="sRGB">
<feFlood flood-opacity="0" result="BackgroundImageFix"/>
<feBlend mode="normal" in="SourceGraphic" in2="BackgroundImageFix" result="shape"/>
<feGaussianBlur stdDeviation="10" result="effect1_foregroundBlur_43_13"/>
</filter>
<filter id="filter1_f_43_13" x="17.5" y="17.5" width="112.001" height="114.45" filterUnits="userSpaceOnUse" color-interpolation-filters="sRGB">
<feFlood flood-opacity="0" result="BackgroundImageFix"/>
<feBlend mode="normal" in="SourceGraphic" in2="BackgroundImageFix" result="shape"/>
<feGaussianBlur stdDeviation="1.25" result="effect1_foregroundBlur_43_13"/>
</filter>
</defs>
</svg>
